<svg xmlns="http://www.w3.org/2000/svg" xmlns:xlink="http://www.w3.org/1999/xlink" width="502.46" height="377.053" viewBox="0 0 376.845 282.79"><defs><style>*{stroke-linejoin:round;stroke-linecap:butt}</style></defs><g id="figure_1"><path id="patch_1" d="M0 282.79h376.845V0H0Z" style="fill:#fff"/><g id="axes_1"><path id="patch_2" d="M19.725 266.112h357.12V0H19.725Z" style="fill:#fff"/><g id="matplotlib.axis_1"><g id="xtick_1"><g id="line2d_1"><defs><path id="mc46eecce53" d="M0 0v3.5" style="stroke:#000;stroke-width:.8px"/></defs><use xlink:href="#mc46eecce53" x="35.958" y="266.112" style="stroke:#000;stroke-width:.8px"/></g><g id="text_1"><g transform="matrix(.1 0 0 -.1 32.776 280.71)"><defs><path id="DejaVuSans-30" d="M2034 4250q-487 0-733-480-245-479-245-1442 0-959 245-1439 246-480 733-480 491 0 736 480 246 480 246 1439 0 963-246 1442-245 480-736 480m0 500q785 0 1199-621 414-620 414-1801 0-1178-414-1799Q2819-91 2034-91q-784 0-1198 620-414 621-414 1799 0 1181 414 1801 414 621 1198 621" transform="scale(.01563)"/></defs><use xlink:href="#DejaVuSans-30"/></g></g></g><g id="xtick_2"><use xlink:href="#mc46eecce53" id="line2d_2" x="82.318" y="266.112" style="stroke:#000;stroke-width:.8px"/><g id="text_2"><g transform="matrix(.1 0 0 -.1 79.137 280.71)"><defs><path id="DejaVuSans-35" d="M691 4666h2478v-532H1269V2991q137 47 274 70 138 23 276 23 781 0 1237-428 457-428 457-1159 0-753-469-1171Q2575-91 1722-91q-294 0-599 50Q819 9 494 109v635q281-153 581-228t634-75q541 0 856 284 316 284 316 772 0 487-316 771-315 285-856 285-253 0-505-56-251-56-513-175Z" transform="scale(.01563)"/></defs><use xlink:href="#DejaVuSans-35"/></g></g></g><g id="xtick_3"><use xlink:href="#mc46eecce53" id="line2d_3" x="128.678" y="266.112" style="stroke:#000;stroke-width:.8px"/><g id="text_3"><g transform="matrix(.1 0 0 -.1 122.316 280.71)"><defs><path id="DejaVuSans-31" d="M794 531h1031v3560L703 3866v575l1116 225h631V531h1031V0H794Z" transform="scale(.01563)"/></defs><use xlink:href="#DejaVuSans-31"/><use xlink:href="#DejaVuSans-30" transform="translate(63.623)"/></g></g></g><g id="xtick_4"><use xlink:href="#mc46eecce53" id="line2d_4" x="175.039" y="266.112" style="stroke:#000;stroke-width:.8px"/><g id="text_4"><g transform="matrix(.1 0 0 -.1 168.676 280.71)"><use xlink:href="#DejaVuSans-31"/><use xlink:href="#DejaVuSans-35" transform="translate(63.623)"/></g></g></g><g id="xtick_5"><use xlink:href="#mc46eecce53" id="line2d_5" x="221.399" y="266.112" style="stroke:#000;stroke-width:.8px"/><g id="text_5"><g transform="matrix(.1 0 0 -.1 215.036 280.71)"><defs><path id="DejaVuSans-32" d="M1228 531h2203V0H469v531q359 372 979 998 621 627 780 809 303 340 423 576 121 236 121 464 0 372-261 606-261 235-680 235-297 0-627-103-329-103-704-313v638q381 153 712 231 332 78 607 78 725 0 1156-363 431-362 431-968 0-288-108-546-107-257-392-607-78-91-497-524-418-433-1181-1211" transform="scale(.01563)"/></defs><use xlink:href="#DejaVuSans-32"/><use xlink:href="#DejaVuSans-30" transform="translate(63.623)"/></g></g></g><g id="xtick_6"><use xlink:href="#mc46eecce53" id="line2d_6" x="267.759" y="266.112" style="stroke:#000;stroke-width:.8px"/><g id="text_6"><g transform="matrix(.1 0 0 -.1 261.397 280.71)"><use xlink:href="#DejaVuSans-32"/><use xlink:href="#DejaVuSans-35" transform="translate(63.623)"/></g></g></g><g id="xtick_7"><use xlink:href="#mc46eecce53" id="line2d_7" x="314.119" y="266.112" style="stroke:#000;stroke-width:.8px"/><g id="text_7"><g transform="matrix(.1 0 0 -.1 307.757 280.71)"><defs><path id="DejaVuSans-33" d="M2597 2516q453-97 707-404 255-306 255-756 0-690-475-1069Q2609-91 1734-91q-293 0-604 58T488 141v609q262-153 574-231 313-78 654-78 593 0 904 234t311 681q0 413-289 645-289 233-804 233h-544v519h569q465 0 712 186t247 536q0 359-255 551-254 193-729 193-260 0-557-57-297-56-653-174v562q360 100 674 150t592 50q719 0 1137-327 419-326 419-882 0-388-222-655t-631-370" transform="scale(.01563)"/></defs><use xlink:href="#DejaVuSans-33"/><use xlink:href="#DejaVuSans-30" transform="translate(63.623)"/></g></g></g><g id="xtick_8"><use xlink:href="#mc46eecce53" id="line2d_8" x="360.48" y="266.112" style="stroke:#000;stroke-width:.8px"/><g id="text_8"><g transform="matrix(.1 0 0 -.1 354.117 280.71)"><use xlink:href="#DejaVuSans-33"/><use xlink:href="#DejaVuSans-35" transform="translate(63.623)"/></g></g></g></g><g id="matplotlib.axis_2"><g id="ytick_1"><g id="line2d_9"><defs><path id="m513bb5ecb0" d="M0 0h-3.5" style="stroke:#000;stroke-width:.8px"/></defs><use xlink:href="#m513bb5ecb0" x="19.725" y="254.016" style="stroke:#000;stroke-width:.8px"/></g><use xlink:href="#DejaVuSans-30" id="text_9" transform="matrix(.1 0 0 -.1 6.363 257.815)"/></g><g id="ytick_2"><use xlink:href="#m513bb5ecb0" id="line2d_10" x="19.725" y="207.804" style="stroke:#000;stroke-width:.8px"/><use xlink:href="#DejaVuSans-35" id="text_10" transform="matrix(.1 0 0 -.1 6.363 211.604)"/></g><g id="ytick_3"><use xlink:href="#m513bb5ecb0" id="line2d_11" x="19.725" y="161.593" style="stroke:#000;stroke-width:.8px"/><g id="text_11"><g transform="matrix(.1 0 0 -.1 0 165.392)"><use xlink:href="#DejaVuSans-31"/><use xlink:href="#DejaVuSans-30" transform="translate(63.623)"/></g></g></g><g id="ytick_4"><use xlink:href="#m513bb5ecb0" id="line2d_12" x="19.725" y="115.381" style="stroke:#000;stroke-width:.8px"/><g id="text_12"><g transform="matrix(.1 0 0 -.1 0 119.18)"><use xlink:href="#DejaVuSans-31"/><use xlink:href="#DejaVuSans-35" transform="translate(63.623)"/></g></g></g><g id="ytick_5"><use xlink:href="#m513bb5ecb0" id="line2d_13" x="19.725" y="69.17" style="stroke:#000;stroke-width:.8px"/><g id="text_13"><g transform="matrix(.1 0 0 -.1 0 72.969)"><use xlink:href="#DejaVuSans-32"/><use xlink:href="#DejaVuSans-30" transform="translate(63.623)"/></g></g></g><g id="ytick_6"><use xlink:href="#m513bb5ecb0" id="line2d_14" x="19.725" y="22.958" style="stroke:#000;stroke-width:.8px"/><g id="text_14"><g transform="matrix(.1 0 0 -.1 0 26.757)"><use xlink:href="#DejaVuSans-32"/><use xlink:href="#DejaVuSans-35" transform="translate(63.623)"/></g></g></g></g><path id="line2d_15" d="m35.958 254.016 3.724-.056 3.72-.19 3.711-.321 3.697-.453 3.678-.583 3.656-.713 3.628-.84 3.596-.968 3.56-1.093 3.518-1.219 3.473-1.342 3.422-1.464 3.37-1.584 3.31-1.702 3.247-1.818 3.182-1.931 3.11-2.043 3.036-2.15 2.958-2.257 2.876-2.36 2.79-2.46 2.701-2.556 2.609-2.65 2.512-2.74 2.414-2.828 2.312-2.911 2.206-2.991 2.1-3.067 1.989-3.14 1.877-3.207 1.761-3.271 1.645-3.332 1.525-3.388 1.402-3.44 1.279-3.485 1.152-3.53 1.026-3.567.9-3.602.777-3.632.65-3.659.526-3.68.393-3.695.255-3.705.112-3.71-.04-3.706-.188-3.7-.74-7.382-1.07-7.356-1.697-11.011-.41-3.68-.253-3.694-.068-3.705.11-3.712.274-3.708.428-3.697.569-3.678.701-3.65.836-3.62.97-3.584 1.11-3.542 1.247-3.496 1.387-3.446 1.522-3.389 1.656-3.328 1.785-3.26 1.912-3.19 2.034-3.112 2.154-3.03 2.27-2.944 2.384-2.854 2.494-2.758 2.6-2.66 2.704-2.555 2.8-2.45 2.895-2.338 2.984-2.224 3.07-2.106 3.149-1.986 3.224-1.86 3.294-1.734 3.36-1.603 3.42-1.469 3.476-1.336 3.525-1.201 3.57-1.066 3.61-.931 3.643-.793 3.67-.648 3.693-.499 3.707-.343 3.717-.182 3.721-.027 3.722.112 7.43.564 7.39.896 11.035 1.66 14.718 2.188 22.103 3.076 7.317 1.449 3.618.908 3.57 1.062 3.507 1.24 3.43 1.442 3.34 1.647 3.241 1.841 3.137 2.022 3.023 2.19 2.9 2.347 2.772 2.493 2.634 2.633 2.49 2.768 2.335 2.896 2.174 3.02 2.008 3.133 1.835 3.238 1.657 3.333 1.476 3.416 1.288 3.491 1.097 3.555.904 3.608.708 3.65.51 3.685.309 3.705.108 3.717-.093 3.718-.293 3.708-.493 3.686-.692 3.654-.889 3.612-1.083 3.559-1.273 3.495-1.46 3.423-1.643 3.338-1.822 3.245-1.994 3.143-2.161 3.032-2.322 2.91-2.476 2.783-2.623 2.644-2.762 2.5-2.893 2.348-3.015 2.19-3.13 2.024-3.235 1.853-3.33 1.676-3.416 1.496-3.492 1.31-3.557 1.12-3.613.927-3.658.732-3.692.535-3.716.336-3.728.135-3.73-.066-3.721-.265-3.702-.465-3.671-.662-3.63-.86-3.578-1.053-3.516-1.244-3.444-1.43-3.361-1.614-3.269-1.792-3.167-1.965-3.057-2.132-2.937-2.293-2.81-2.447-2.672-2.595-2.528-2.735-2.377-2.866-2.219-2.99-2.053-3.105-1.881-3.211-1.705-3.308-1.524-3.394-1.34-3.47-1.153-3.537-.96-3.594-.765-3.64-.566-3.675-.362-3.702-.155-3.717h0" clip-path="url(#pf28fdad9e8)" style="fill:none;stroke:#1f77b4;stroke-width:.5px;stroke-linecap:square"/><g id="line2d_16"><defs><path id="meaad59b083" d="m-1.5 1.5 3-3m-3 0 3 3" style="stroke:red"/></defs><g clip-path="url(#pf28fdad9e8)"><use xlink:href="#meaad59b083" x="35.958" y="254.016" style="fill:red;stroke:red"/><use xlink:href="#meaad59b083" x="54.409" y="252.427" style="fill:red;stroke:red"/><use xlink:href="#meaad59b083" x="72.295" y="247.635" style="fill:red;stroke:red"/><use xlink:href="#meaad59b083" x="89.06" y="239.791" style="fill:red;stroke:red"/><use xlink:href="#meaad59b083" x="104.185" y="229.137" style="fill:red;stroke:red"/><use xlink:href="#meaad59b083" x="117.2" y="216.004" style="fill:red;stroke:red"/><use xlink:href="#meaad59b083" x="127.703" y="200.799" style="fill:red;stroke:red"/><use xlink:href="#meaad59b083" x="135.367" y="183.992" style="fill:red;stroke:red"/><use xlink:href="#meaad59b083" x="139.954" y="166.107" style="fill:red;stroke:red"/><use xlink:href="#meaad59b083" x="141.323" y="147.697" style="fill:red;stroke:red"/><use xlink:href="#meaad59b083" x="139.431" y="129.332" style="fill:red;stroke:red"/><use xlink:href="#meaad59b083" x="136.989" y="111.035" style="fill:red;stroke:red"/><use xlink:href="#meaad59b083" x="138.096" y="92.612" style="fill:red;stroke:red"/><use xlink:href="#meaad59b083" x="142.753" y="74.749" style="fill:red;stroke:red"/><use xlink:href="#meaad59b083" x="150.784" y="58.12" style="fill:red;stroke:red"/><use xlink:href="#meaad59b083" x="161.886" y="43.35" style="fill:red;stroke:red"/><use xlink:href="#meaad59b083" x="175.64" y="30.996" style="fill:red;stroke:red"/><use xlink:href="#meaad59b083" x="191.53" y="21.522" style="fill:red;stroke:red"/><use xlink:href="#meaad59b083" x="208.957" y="15.287" style="fill:red;stroke:red"/><use xlink:href="#meaad59b083" x="227.263" y="12.524" style="fill:red;stroke:red"/><use xlink:href="#meaad59b083" x="245.76" y="13.338" style="fill:red;stroke:red"/><use xlink:href="#meaad59b083" x="264.114" y="15.98" style="fill:red;stroke:red"/><use xlink:href="#meaad59b083" x="282.467" y="18.623" style="fill:red;stroke:red"/><use xlink:href="#meaad59b083" x="300.821" y="21.266" style="fill:red;stroke:red"/><use xlink:href="#meaad59b083" x="318.618" y="26.261" style="fill:red;stroke:red"/><use xlink:href="#meaad59b083" x="334.453" y="35.774" style="fill:red;stroke:red"/><use xlink:href="#meaad59b083" x="347.196" y="49.127" style="fill:red;stroke:red"/><use xlink:href="#meaad59b083" x="355.938" y="65.367" style="fill:red;stroke:red"/><use xlink:href="#meaad59b083" x="360.055" y="83.334" style="fill:red;stroke:red"/><use xlink:href="#meaad59b083" x="359.253" y="101.746" style="fill:red;stroke:red"/><use xlink:href="#meaad59b083" x="353.589" y="119.29" style="fill:red;stroke:red"/><use xlink:href="#meaad59b083" x="343.467" y="134.713" style="fill:red;stroke:red"/><use xlink:href="#meaad59b083" x="329.61" y="146.914" style="fill:red;stroke:red"/><use xlink:href="#meaad59b083" x="313.007" y="155.023" style="fill:red;stroke:red"/><use xlink:href="#meaad59b083" x="294.842" y="158.461" style="fill:red;stroke:red"/><use xlink:href="#meaad59b083" x="276.413" y="156.982" style="fill:red;stroke:red"/><use xlink:href="#meaad59b083" x="259.034" y="150.693" style="fill:red;stroke:red"/><use xlink:href="#meaad59b083" x="243.945" y="140.042" style="fill:red;stroke:red"/><use xlink:href="#meaad59b083" x="232.224" y="125.788" style="fill:red;stroke:red"/><use xlink:href="#meaad59b083" x="224.707" y="108.951" style="fill:red;stroke:red"/><use xlink:href="#meaad59b083" x="221.931" y="90.73" style="fill:red;stroke:red"/></g></g><path id="line2d_17" d="m35.958 244.774.362-1.813.543-1.767.717-1.704.88-1.627 1.032-1.536 1.17-1.434 1.292-1.325 1.4-1.212 1.494-1.095 1.572-.98 1.638-.865 1.692-.757 3.502-1.213 3.605-.865 3.661-.585 3.689-.381 5.552-.34 11.11-.595 5.532-.58 3.663-.577 3.63-.758 3.582-.957 3.518-1.17 3.437-1.386 3.34-1.606 3.227-1.822 3.1-2.03 2.958-2.227 2.809-2.414 2.649-2.586 2.485-2.744 2.315-2.888 2.145-3.015 1.973-3.13 1.802-3.231 1.633-3.319 1.466-3.396 1.3-3.461 1.14-3.518.98-3.565.826-3.604.672-3.636.735-5.496.425-5.528.144-5.543-.098-5.545-.414-7.382-.925-11.052-.722-9.214-.35-7.385-.05-5.545.179-5.542.443-5.527.733-5.497 1.044-5.446.874-3.592 1.02-3.554 1.167-3.51 1.313-3.457 1.46-3.398 1.602-3.334 1.744-3.262 1.883-3.185 2.017-3.102 2.148-3.014 2.274-2.92 2.396-2.821 2.513-2.72 2.625-2.611 2.73-2.501 2.833-2.387 2.927-2.27 3.018-2.148 3.103-2.025 4.8-2.801 4.96-2.51 5.1-2.213 5.224-1.905 5.328-1.594 5.412-1.28 5.477-.968 5.522-.669 5.55-.385 5.56-.126 5.563.104 5.554.302 7.389.652 7.366.867 9.18 1.3 9.15 1.489 9.112 1.708 7.243 1.598 5.386 1.386 5.33 1.588 5.253 1.825 5.15 2.093 3.364 1.557 3.297 1.694 3.22 1.835 3.131 1.979 3.034 2.125 2.926 2.272 2.807 2.416 2.677 2.558 2.538 2.696 2.389 2.827 2.231 2.952 2.065 3.07 1.892 3.18 1.71 3.28 1.526 3.37 1.333 3.449 1.137 3.518.938 3.577.736 3.623.531 3.658.327 3.682.12 3.695-.085 3.695-.29 3.685-.492 3.664-.694 3.631-.892 3.588-1.087 3.535-1.279 3.47-1.465 3.395-1.648 3.312-1.825 3.218-1.996 3.115-2.161 3.004-2.32 2.883-2.473 2.756-2.616 2.62-2.754 2.475-2.882 2.326-3.004 2.169-3.114 2.006-3.218 1.837-3.312 1.664-3.396 1.485-3.47 1.302-3.536 1.116-3.59.926-3.635.734-3.669.54-3.692.344-3.706.146-3.708-.05-3.7-.248-3.681-.444-3.653-.64-3.613-.833-3.563-1.024-3.503-1.213-3.434-1.398-3.353-1.578-3.264-1.755-3.165-1.926-3.057-2.092-2.941-2.253-2.816-2.405-2.682-2.553-2.542-2.691-2.394-2.824-2.239-2.946-2.077-3.062-1.911-3.169-1.738-3.265-1.56-3.354-1.376-3.432-1.189-3.502-.998-3.56-.803-3.609-.603-3.647-.4-3.675-.185-3.692h0" clip-path="url(#pf28fdad9e8)" style="fill:none;stroke:#ff7f0e;stroke-width:1.5px;stroke-linecap:square"/><path id="line2d_18" d="m35.958 244.774.412-1.802.718-1.703 1.002-1.554 1.255-1.36 1.471-1.123 1.644-.854 1.767-.558 1.837-.247 1.852.073 1.812.39 1.717.694 1.571.98 1.379 1.235 1.144 1.453 1.998 3.112 1.285 1.332 1.495 1.092 1.662.818 1.779.52 1.838.236 1.854.018 1.849-.147 3.645-.669 3.56-1.034 3.473-1.296 3.392-1.495 3.315-1.657 3.241-1.797 4.722-2.93 4.55-3.189 4.372-3.429 4.181-3.657 3.98-3.873 3.77-4.078 3.549-4.27 3.316-4.451 3.077-4.62 2.828-4.775 2.572-4.916 2.307-5.045 2.037-5.16 1.757-5.261 1.475-5.346 1.194-5.416.915-5.47.634-5.508.333-5.535.042-3.696-.11-3.695-.438-5.528-.693-5.502-1.172-7.3-1.515-9.118-.655-5.506-.228-3.69-.021-3.696.17-3.693.34-3.681.792-5.488 1.09-5.438 1.382-5.37 1.684-5.285 1.992-5.177 2.299-5.049 2.592-4.906 2.873-4.748 3.145-4.573 3.405-4.385 3.655-4.18 3.893-3.96 4.118-3.727 4.328-3.483 4.523-3.227 4.705-2.959 4.869-2.68 5.018-2.393 5.15-2.095 5.263-1.795 5.357-1.492 5.433-1.19 5.494-.87 3.687-.395 3.7-.238 3.709-.076 5.56.167 5.545.438 5.526.642 7.34 1.066 23.824 3.666 22.037 3.07 5.454 1.091 3.6.885 3.56 1.04 3.501 1.217 3.424 1.42 3.327 1.632 3.22 1.833 3.11 2.015 2.993 2.182 2.874 2.337 2.749 2.48 2.617 2.62 2.476 2.751 2.327 2.879 2.169 2.998 2.002 3.112 1.832 3.214 1.657 3.307 1.478 3.39 1.294 3.464 1.107 3.528.916 3.582.724 3.626.53 3.658.333 3.682.134 3.694-.064 3.696-.26 3.687-.458 3.669-.653 3.639-.848 3.598-1.04 3.549-1.226 3.488-1.412 3.418-1.593 3.338-1.77 3.249-1.941 3.15-2.107 3.041-2.266 2.926-2.42 2.802-2.566 2.668-2.706 2.528-2.837 2.38-2.96 2.227-3.076 2.066-3.181 1.899-3.28 1.727-3.366 1.55-3.444 1.37-3.513 1.184-3.572.996-3.62.803-3.657.61-3.685.416-3.702.22-3.708.02-3.704-.176-3.69-.372-3.664-.568-3.63-.762-3.582-.954-3.526-1.144-3.46-1.33-3.385-1.51-3.299-1.69-3.203-1.862-3.1-2.03-2.985-2.193-2.865-2.347-2.735-2.496-2.598-2.639-2.452-2.773-2.3-2.899-2.143-3.017-1.977-3.127-1.806-3.229-1.63-3.32-1.451-3.402-1.269-3.474-1.083-3.535-.893-3.588-.7-3.63-.504-3.662-.303-3.685-.075-1.846h0" clip-path="url(#pf28fdad9e8)" style="fill:none;stroke:#2ca02c;stroke-width:1.5px;stroke-linecap:square"/><path id="line2d_19" d="m35.958 244.774.412-1.802.718-1.703 1.002-1.554 1.255-1.36 1.471-1.123 1.644-.854 1.767-.558 1.837-.247 1.852.073 1.812.39 1.717.694 1.571.98 1.379 1.235 2.276 2.916 1.341 1.276 1.497 1.09 1.616.907 1.715.702 1.786.495 1.83.292 1.852.103 1.853-.066 1.842-.213 3.624-.78 3.528-1.134 3.436-1.392 3.349-1.587 3.268-1.747 3.19-1.886 4.64-3.059 4.46-3.312 4.275-3.548 4.079-3.77 3.872-3.981 3.655-4.18 3.43-4.366 3.191-4.54 2.948-4.703 2.696-4.85 2.435-4.986 2.167-5.106 1.891-5.215 1.61-5.307 1.328-5.385 1.049-5.445.77-5.491.48-5.525.166-5.542-.076-3.696-.394-5.53-.662-5.506-1.149-7.305-1.796-10.944-.435-3.671-.27-3.687-.067-3.696.13-3.694.306-3.685.745-5.494 1.048-5.446 1.339-5.382 1.64-5.298 1.947-5.193 2.255-5.069 2.55-4.928 2.833-4.771 3.106-4.6 3.368-4.413 3.62-4.21 3.859-3.993 4.086-3.762 4.298-3.52 4.497-3.264 4.679-2.999 4.846-2.721 4.997-2.435 5.132-2.139 5.248-1.838 5.345-1.537 5.423-1.233 5.486-.919 3.683-.427 3.699-.273 3.707-.111 5.56.121 5.549.404 5.528.616 7.343 1.045 25.66 3.932 20.204 2.79 5.461 1.055 5.399 1.336 3.544 1.087 3.482 1.273 3.398 1.479 3.298 1.691 3.189 1.887L331.255 33l2.96 2.227 2.839 2.378 2.713 2.52 2.578 2.657 2.435 2.789 2.283 2.913 2.122 3.031 1.955 3.141 1.783 3.242 1.606 3.331 1.427 3.412 1.242 3.484 1.053 3.544.862 3.595.67 3.636.474 3.666.277 3.686.078 3.696-.12 3.695-.316 3.683-.512 3.66-.709 3.63-.902 3.585-1.093 3.532-1.28 3.47-1.463 3.396-1.643 3.314-1.819 3.222-1.989 3.12-2.152 3.01-2.31 2.892-2.462 2.764-2.607 2.63-2.744 2.486-2.872 2.338-2.994 2.182-3.106 2.02-3.21 1.85-3.305 1.678-3.39 1.5-3.464 1.317-3.53 1.132-3.587.941-3.631.75-3.666.555-3.691.36-3.705.164-3.708-.035-3.701-.232-3.684-.428-3.655-.623-3.617-.816-3.568-1.008-3.509-1.197-3.44-1.381-3.36-1.562-3.274-1.738-3.174-1.91-3.068-2.078-2.953-2.236-2.829-2.39-2.697-2.537-2.557-2.677-2.41-2.81-2.257-2.933-2.096-3.05-1.93-3.156-1.757-3.256-1.58-3.344-1.4-3.423-1.216-3.492-1.03-3.552-.838-3.6-.645-3.64-.448-3.67-.245-3.688h0" clip-path="url(#pf28fdad9e8)" style="fill:none;stroke:#d62728;stroke-width:1.5px;stroke-linecap:square"/><path id="patch_3" d="M19.725 266.112V0" style="fill:none;stroke:#000;stroke-width:.8px;stroke-linejoin:miter;stroke-linecap:square"/><path id="patch_4" d="M376.845 266.112V0" style="fill:none;stroke:#000;stroke-width:.8px;stroke-linejoin:miter;stroke-linecap:square"/><path id="patch_5" d="M19.725 266.112h357.12" style="fill:none;stroke:#000;stroke-width:.8px;stroke-linejoin:miter;stroke-linecap:square"/><path id="patch_6" d="M19.725 0h357.12" style="fill:none;stroke:#000;stroke-width:.8px;stroke-linejoin:miter;stroke-linecap:square"/><g id="legend_1"><path id="patch_7" d="M208.386 261.112h161.459q2 0 2-2v-57.713q0-2-2-2h-161.46q-2 0-2 2v57.713q0 2 2 2Z" style="fill:#fff;opacity:.8;stroke:#ccc;stroke-linejoin:miter"/><path id="line2d_20" d="M210.386 207.498h20" style="fill:none;stroke:#1f77b4;stroke-width:.5px;stroke-linecap:square"/><g id="text_15"><g transform="matrix(.1 0 0 -.1 238.386 210.998)"><defs><path id="DejaVuSans-50" d="M1259 4147V2394h794q441 0 681 228 241 228 241 650 0 419-241 647-240 228-681 228Zm-631 519h1425q785 0 1186-355 402-355 402-1039 0-691-402-1044-401-353-1186-353h-794V0H628Z" transform="scale(.01563)"/><path id="DejaVuSans-61" d="M2194 1759q-697 0-966-159t-269-544q0-306 202-486 202-179 548-179 479 0 768 339t289 901v128Zm1147 238V0h-575v531q-197-318-491-470T1556-91q-537 0-855 302-317 302-317 808 0 590 395 890 396 300 1180 300h807v57q0 397-261 614t-733 217q-300 0-585-72-284-72-546-216v532q315 122 612 182 297 61 578 61 760 0 1135-394 375-393 375-1193" transform="scale(.01563)"/><path id="DejaVuSans-74" d="M1172 4494v-994h1184v-447H1172V1153q0-428 117-550t477-122h590V0h-590q-666 0-919 248-253 249-253 905v1900H172v447h422v994Z" transform="scale(.01563)"/><path id="DejaVuSans-68" d="M3513 2113V0h-575v2094q0 497-194 743-194 247-581 247-466 0-735-297-269-296-269-809V0H581v4863h578V2956q207 316 486 472 280 156 646 156 603 0 912-373 310-373 310-1098" transform="scale(.01563)"/></defs><use xlink:href="#DejaVuSans-50"/><use xlink:href="#DejaVuSans-61" transform="translate(55.803)"/><use xlink:href="#DejaVuSans-74" transform="translate(117.082)"/><use xlink:href="#DejaVuSans-68" transform="translate(156.291)"/></g></g><path id="line2d_21" d="M210.386 222.176h20" style="fill:none;stroke:#ff7f0e;stroke-width:1.5px;stroke-linecap:square"/><g id="text_16"><g transform="matrix(.1 0 0 -.1 238.386 225.676)"><defs><path id="DejaVuSans-75" d="M544 1381v2119h575V1403q0-497 193-746 194-248 582-248 465 0 735 297 271 297 271 810v1984h575V0h-575v538q-209-319-486-474-276-155-642-155-603 0-916 375-312 375-312 1097m1447 2203" transform="scale(.01563)"/><path id="DejaVuSans-72" d="M2631 2963q-97 56-211 82-114 27-251 27-488 0-749-317t-261-911V0H581v3500h578v-544q182 319 472 473 291 155 707 155 59 0 131-8 72-7 159-23Z" transform="scale(.01563)"/><path id="DejaVuSans-65" d="M3597 1894v-281H953q38-594 358-905t892-311q331 0 642 81t618 244V178Q3153 47 2828-22t-659-69q-838 0-1327 487-489 488-489 1320 0 859 464 1363 464 505 1252 505 706 0 1117-455 411-454 411-1235m-575 169q-6 471-264 752-258 282-683 282-481 0-770-272t-333-766Z" transform="scale(.01563)"/><path id="DejaVuSans-2d" d="M313 2009h1684v-512H313Z" transform="scale(.01563)"/><path id="DejaVuSans-70" d="M1159 525v-1856H581v4831h578v-531q182 312 458 463 277 152 661 152 638 0 1036-506 399-506 399-1331T3314 415Q2916-91 2278-91q-384 0-661 152-276 152-458 464m1957 1222q0 634-261 995t-717 361q-457 0-718-361t-261-995 261-995 718-361q456 0 717 361t261 995" transform="scale(.01563)"/><path id="DejaVuSans-73" d="M2834 3397v-544q-243 125-506 187-262 63-544 63-428 0-642-131t-214-394q0-200 153-314t616-217l197-44q612-131 870-370t258-667q0-488-386-773Q2250-91 1575-91q-281 0-586 55T347 128v594q319-166 628-249 309-82 613-82 406 0 624 139 219 139 219 392 0 234-158 359-157 125-692 241l-200 47q-534 112-772 345-237 233-237 639 0 494 350 762 350 269 994 269 318 0 599-47 282-46 519-140" transform="scale(.01563)"/><path id="DejaVuSans-69" d="M603 3500h575V0H603Zm0 1363h575v-729H603Z" transform="scale(.01563)"/></defs><use xlink:href="#DejaVuSans-50"/><use xlink:href="#DejaVuSans-75" transform="translate(58.553)"/><use xlink:href="#DejaVuSans-72" transform="translate(121.932)"/><use xlink:href="#DejaVuSans-65" transform="translate(160.795)"/><use xlink:href="#DejaVuSans-2d" transform="translate(222.318)"/><use xlink:href="#DejaVuSans-70" transform="translate(258.402)"/><use xlink:href="#DejaVuSans-75" transform="translate(321.879)"/><use xlink:href="#DejaVuSans-72" transform="translate(385.258)"/><use xlink:href="#DejaVuSans-73" transform="translate(426.371)"/><use xlink:href="#DejaVuSans-75" transform="translate(478.47)"/><use xlink:href="#DejaVuSans-69" transform="translate(541.85)"/><use xlink:href="#DejaVuSans-74" transform="translate(569.633)"/></g></g><path id="line2d_22" d="M210.386 236.854h20" style="fill:none;stroke:#2ca02c;stroke-width:1.5px;stroke-linecap:square"/><g id="text_17"><g transform="matrix(.1 0 0 -.1 238.386 240.354)"><defs><path id="DejaVuSans-4c" d="M628 4666h631V531h2272V0H628Z" transform="scale(.01563)"/><path id="DejaVuSans-6e" d="M3513 2113V0h-575v2094q0 497-194 743-194 247-581 247-466 0-735-297-269-296-269-809V0H581v3500h578v-544q207 316 486 472 280 156 646 156 603 0 912-373 310-373 310-1098" transform="scale(.01563)"/><path id="DejaVuSans-66" d="M2375 4863v-479h-550q-309 0-430-125-120-125-120-450v-309h947v-447h-947V0H697v3053H147v447h550v244q0 584 272 851 272 268 862 268Z" transform="scale(.01563)"/><path id="DejaVuSans-64" d="M2906 2969v1894h575V0h-575v525q-181-312-458-464-276-152-664-152-634 0-1033 506-398 507-398 1332t398 1331q399 506 1033 506 388 0 664-152 277-151 458-463M947 1747q0-634 261-995t717-361 718 361q263 361 263 995t-263 995q-262 361-718 361t-717-361-261-995" transform="scale(.01563)"/><path id="DejaVuSans-62" d="M3116 1747q0 634-261 995t-717 361q-457 0-718-361t-261-995 261-995 718-361q456 0 717 361t261 995M1159 2969q182 312 458 463 277 152 661 152 638 0 1036-506 399-506 399-1331T3314 415Q2916-91 2278-91q-384 0-661 152-276 152-458 464V0H581v4863h578Z" transform="scale(.01563)"/><path id="DejaVuSans-63" d="M3122 3366v-538q-244 135-489 202t-495 67q-560 0-870-355-309-354-309-995t309-996q310-354 870-354 250 0 495 67t489 202V134Q2881 22 2623-34q-257-57-548-57-791 0-1257 497-465 497-465 1341 0 856 470 1346 471 491 1290 491 265 0 518-55 253-54 491-163" transform="scale(.01563)"/><path id="DejaVuSans-6b" d="M581 4863h578V1991l1716 1509h734L1753 1863 3688 0h-750L1159 1709V0H581Z" transform="scale(.01563)"/></defs><use xlink:href="#DejaVuSans-4c"/><use xlink:href="#DejaVuSans-69" transform="translate(55.713)"/><use xlink:href="#DejaVuSans-6e" transform="translate(83.496)"/><use xlink:href="#DejaVuSans-65" transform="translate(146.875)"/><use xlink:href="#DejaVuSans-61" transform="translate(208.398)"/><use xlink:href="#DejaVuSans-72" transform="translate(269.678)"/><use xlink:href="#DejaVuSans-73" transform="translate(342.578)"/><use xlink:href="#DejaVuSans-74" transform="translate(394.678)"/><use xlink:href="#DejaVuSans-61" transform="translate(433.887)"/><use xlink:href="#DejaVuSans-74" transform="translate(495.166)"/><use xlink:href="#DejaVuSans-65" transform="translate(534.375)"/><use xlink:href="#DejaVuSans-66" transform="translate(627.686)"/><use xlink:href="#DejaVuSans-65" transform="translate(662.89)"/><use xlink:href="#DejaVuSans-65" transform="translate(724.414)"/><use xlink:href="#DejaVuSans-64" transform="translate(785.938)"/><use xlink:href="#DejaVuSans-62" transform="translate(849.414)"/><use xlink:href="#DejaVuSans-61" transform="translate(912.89)"/><use xlink:href="#DejaVuSans-63" transform="translate(974.17)"/><use xlink:href="#DejaVuSans-6b" transform="translate(1029.15)"/></g></g><path id="line2d_23" d="M210.386 251.532h20" style="fill:none;stroke:#d62728;stroke-width:1.5px;stroke-linecap:square"/><g id="text_18"><g transform="matrix(.1 0 0 -.1 238.386 255.032)"><defs><path id="DejaVuSans-4e" d="M628 4666h850L3547 763v3903h612V0h-850L1241 3903V0H628Z" transform="scale(.01563)"/><path id="DejaVuSans-6f" d="M1959 3097q-462 0-731-361t-269-989 267-989q268-361 733-361 460 0 728 362 269 363 269 988 0 622-269 986-268 364-728 364m0 487q750 0 1178-488 429-487 429-1349 0-859-429-1349Q2709-91 1959-91q-753 0-1180 489-426 490-426 1349 0 862 426 1349 427 488 1180 488" transform="scale(.01563)"/><path id="DejaVuSans-6c" d="M603 4863h575V0H603Z" transform="scale(.01563)"/></defs><use xlink:href="#DejaVuSans-4e"/><use xlink:href="#DejaVuSans-6f" transform="translate(74.805)"/><use xlink:href="#DejaVuSans-6e" transform="translate(135.986)"/><use xlink:href="#DejaVuSans-2d" transform="translate(199.365)"/><use xlink:href="#DejaVuSans-6c" transform="translate(235.45)"/><use xlink:href="#DejaVuSans-69" transform="translate(263.232)"/><use xlink:href="#DejaVuSans-6e" transform="translate(291.016)"/><use xlink:href="#DejaVuSans-65" transform="translate(354.395)"/><use xlink:href="#DejaVuSans-61" transform="translate(415.918)"/><use xlink:href="#DejaVuSans-72" transform="translate(477.197)"/><use xlink:href="#DejaVuSans-73" transform="translate(550.098)"/><use xlink:href="#DejaVuSans-74" transform="translate(602.197)"/><use xlink:href="#DejaVuSans-61" transform="translate(641.406)"/><use xlink:href="#DejaVuSans-74" transform="translate(702.686)"/><use xlink:href="#DejaVuSans-65" transform="translate(741.895)"/><use xlink:href="#DejaVuSans-66" transform="translate(835.205)"/><use xlink:href="#DejaVuSans-65" transform="translate(870.41)"/><use xlink:href="#DejaVuSans-65" transform="translate(931.934)"/><use xlink:href="#DejaVuSans-64" transform="translate(993.457)"/><use xlink:href="#DejaVuSans-62" transform="translate(1056.93)"/><use xlink:href="#DejaVuSans-61" transform="translate(1120.41)"/><use xlink:href="#DejaVuSans-63" transform="translate(1181.69)"/><use xlink:href="#DejaVuSans-6b" transform="translate(1236.67)"/></g></g></g></g></g><defs><clipPath id="pf28fdad9e8"><path d="M19.725 0h357.12v266.112H19.725Z"/></clipPath></defs></svg>