<svg xmlns="http://www.w3.org/2000/svg" xmlns:xlink="http://www.w3.org/1999/xlink" width="524.935" height="415.451" viewBox="0 0 393.701 311.588"><defs><style>*{stroke-linejoin:round;stroke-linecap:butt}</style></defs><g id="figure_1"><path id="patch_1" d="M0 311.588h393.701V0H0Z" style="fill:#fff"/><g id="axes_1"><path id="patch_2" d="M36.581 281.232h357.12V15.12H36.581Z" style="fill:#fff"/><g id="matplotlib.axis_1"><g id="xtick_1"><g id="line2d_1"><defs><path id="m3dbb339a0f" d="M0 0v3.5" style="stroke:#000;stroke-width:.8px"/></defs><use xlink:href="#m3dbb339a0f" x="52.814" y="281.232" style="stroke:#000;stroke-width:.8px"/></g><g id="text_1"><g transform="matrix(.1 0 0 -.1 49.633 295.83)"><defs><path id="DejaVuSans-30" d="M2034 4250q-487 0-733-480-245-479-245-1442 0-959 245-1439 246-480 733-480 491 0 736 480 246 480 246 1439 0 963-246 1442-245 480-736 480m0 500q785 0 1199-621 414-620 414-1801 0-1178-414-1799Q2819-91 2034-91q-784 0-1198 620-414 621-414 1799 0 1181 414 1801 414 621 1198 621" transform="scale(.01563)"/></defs><use xlink:href="#DejaVuSans-30"/></g></g></g><g id="xtick_2"><use xlink:href="#m3dbb339a0f" id="line2d_2" x="117.81" y="281.232" style="stroke:#000;stroke-width:.8px"/><g id="text_2"><g transform="matrix(.1 0 0 -.1 111.447 295.83)"><defs><path id="DejaVuSans-31" d="M794 531h1031v3560L703 3866v575l1116 225h631V531h1031V0H794Z" transform="scale(.01563)"/></defs><use xlink:href="#DejaVuSans-31"/><use xlink:href="#DejaVuSans-30" transform="translate(63.623)"/></g></g></g><g id="xtick_3"><use xlink:href="#m3dbb339a0f" id="line2d_3" x="182.806" y="281.232" style="stroke:#000;stroke-width:.8px"/><g id="text_3"><g transform="matrix(.1 0 0 -.1 176.443 295.83)"><defs><path id="DejaVuSans-32" d="M1228 531h2203V0H469v531q359 372 979 998 621 627 780 809 303 340 423 576 121 236 121 464 0 372-261 606-261 235-680 235-297 0-627-103-329-103-704-313v638q381 153 712 231 332 78 607 78 725 0 1156-363 431-362 431-968 0-288-108-546-107-257-392-607-78-91-497-524-418-433-1181-1211" transform="scale(.01563)"/></defs><use xlink:href="#DejaVuSans-32"/><use xlink:href="#DejaVuSans-30" transform="translate(63.623)"/></g></g></g><g id="xtick_4"><use xlink:href="#m3dbb339a0f" id="line2d_4" x="247.802" y="281.232" style="stroke:#000;stroke-width:.8px"/><g id="text_4"><g transform="matrix(.1 0 0 -.1 241.44 295.83)"><defs><path id="DejaVuSans-33" d="M2597 2516q453-97 707-404 255-306 255-756 0-690-475-1069Q2609-91 1734-91q-293 0-604 58T488 141v609q262-153 574-231 313-78 654-78 593 0 904 234t311 681q0 413-289 645-289 233-804 233h-544v519h569q465 0 712 186t247 536q0 359-255 551-254 193-729 193-260 0-557-57-297-56-653-174v562q360 100 674 150t592 50q719 0 1137-327 419-326 419-882 0-388-222-655t-631-370" transform="scale(.01563)"/></defs><use xlink:href="#DejaVuSans-33"/><use xlink:href="#DejaVuSans-30" transform="translate(63.623)"/></g></g></g><g id="xtick_5"><use xlink:href="#m3dbb339a0f" id="line2d_5" x="312.798" y="281.232" style="stroke:#000;stroke-width:.8px"/><g id="text_5"><g transform="matrix(.1 0 0 -.1 306.435 295.83)"><defs><path id="DejaVuSans-34" d="M2419 4116 825 1625h1594Zm-166 550h794V1625h666v-525h-666V0h-628v1100H313v609Z" transform="scale(.01563)"/></defs><use xlink:href="#DejaVuSans-34"/><use xlink:href="#DejaVuSans-30" transform="translate(63.623)"/></g></g></g><g id="xtick_6"><use xlink:href="#m3dbb339a0f" id="line2d_6" x="377.794" y="281.232" style="stroke:#000;stroke-width:.8px"/><g id="text_6"><g transform="matrix(.1 0 0 -.1 371.431 295.83)"><defs><path id="DejaVuSans-35" d="M691 4666h2478v-532H1269V2991q137 47 274 70 138 23 276 23 781 0 1237-428 457-428 457-1159 0-753-469-1171Q2575-91 1722-91q-294 0-599 50Q819 9 494 109v635q281-153 581-228t634-75q541 0 856 284 316 284 316 772 0 487-316 771-315 285-856 285-253 0-505-56-251-56-513-175Z" transform="scale(.01563)"/></defs><use xlink:href="#DejaVuSans-35"/><use xlink:href="#DejaVuSans-30" transform="translate(63.623)"/></g></g></g><g id="text_7"><g transform="matrix(.1 0 0 -.1 194.812 309.509)"><defs><path id="DejaVuSans-54" d="M-19 4666h3947v-532H2272V0h-634v4134H-19Z" transform="scale(.01563)"/><path id="DejaVuSans-69" d="M603 3500h575V0H603Zm0 1363h575v-729H603Z" transform="scale(.01563)"/><path id="DejaVuSans-6d" d="M3328 2828q216 388 516 572t706 184q547 0 844-383 297-382 297-1088V0h-578v2094q0 503-179 746-178 244-543 244-447 0-707-297-259-296-259-809V0h-578v2094q0 506-178 748t-550 242q-441 0-701-298-259-298-259-808V0H581v3500h578v-544q197 322 472 475t653 153q382 0 649-194 267-193 395-562" transform="scale(.01563)"/><path id="DejaVuSans-65" d="M3597 1894v-281H953q38-594 358-905t892-311q331 0 642 81t618 244V178Q3153 47 2828-22t-659-69q-838 0-1327 487-489 488-489 1320 0 859 464 1363 464 505 1252 505 706 0 1117-455 411-454 411-1235m-575 169q-6 471-264 752-258 282-683 282-481 0-770-272t-333-766Z" transform="scale(.01563)"/><path id="DejaVuSans-5b" d="M550 4863h1325v-447h-750V-397h750v-447H550Z" transform="scale(.01563)"/><path id="DejaVuSans-73" d="M2834 3397v-544q-243 125-506 187-262 63-544 63-428 0-642-131t-214-394q0-200 153-314t616-217l197-44q612-131 870-370t258-667q0-488-386-773Q2250-91 1575-91q-281 0-586 55T347 128v594q319-166 628-249 309-82 613-82 406 0 624 139 219 139 219 392 0 234-158 359-157 125-692 241l-200 47q-534 112-772 345-237 233-237 639 0 494 350 762 350 269 994 269 318 0 599-47 282-46 519-140" transform="scale(.01563)"/><path id="DejaVuSans-5d" d="M1947 4863V-844H622v447h747v4813H622v447Z" transform="scale(.01563)"/></defs><use xlink:href="#DejaVuSans-54"/><use xlink:href="#DejaVuSans-69" transform="translate(57.959)"/><use xlink:href="#DejaVuSans-6d" transform="translate(85.742)"/><use xlink:href="#DejaVuSans-65" transform="translate(183.154)"/><use xlink:href="#DejaVuSans-5b" transform="translate(276.465)"/><use xlink:href="#DejaVuSans-73" transform="translate(315.479)"/><use xlink:href="#DejaVuSans-5d" transform="translate(367.578)"/></g></g></g><g id="matplotlib.axis_2"><g id="ytick_1"><g id="line2d_7"><defs><path id="m34ac6dcb6f" d="M0 0h-3.5" style="stroke:#000;stroke-width:.8px"/></defs><use xlink:href="#m34ac6dcb6f" x="36.581" y="248.496" style="stroke:#000;stroke-width:.8px"/></g><g id="text_8"><g transform="matrix(.1 0 0 -.1 13.678 252.295)"><defs><path id="DejaVuSans-2e" d="M684 794h660V0H684Z" transform="scale(.01563)"/></defs><use xlink:href="#DejaVuSans-31"/><use xlink:href="#DejaVuSans-2e" transform="translate(63.623)"/><use xlink:href="#DejaVuSans-32" transform="translate(95.41)"/></g></g></g><g id="ytick_2"><use xlink:href="#m34ac6dcb6f" id="line2d_8" x="36.581" y="205.78" style="stroke:#000;stroke-width:.8px"/><g id="text_9"><g transform="matrix(.1 0 0 -.1 13.678 209.58)"><use xlink:href="#DejaVuSans-31"/><use xlink:href="#DejaVuSans-2e" transform="translate(63.623)"/><use xlink:href="#DejaVuSans-34" transform="translate(95.41)"/></g></g></g><g id="ytick_3"><use xlink:href="#m34ac6dcb6f" id="line2d_9" x="36.581" y="163.065" style="stroke:#000;stroke-width:.8px"/><g id="text_10"><g transform="matrix(.1 0 0 -.1 13.678 166.864)"><defs><path id="DejaVuSans-36" d="M2113 2584q-425 0-674-291-248-290-248-796 0-503 248-796 249-292 674-292t673 292q248 293 248 796 0 506-248 796-248 291-673 291m1253 1979v-575q-238 112-480 171-242 60-480 60-625 0-955-422-329-422-376-1275 184 272 462 417 279 145 613 145 703 0 1111-427 408-426 408-1160 0-719-425-1154Q2819-91 2113-91q-810 0-1238 620-428 621-428 1799 0 1106 525 1764t1409 658q238 0 480-47t505-140" transform="scale(.01563)"/></defs><use xlink:href="#DejaVuSans-31"/><use xlink:href="#DejaVuSans-2e" transform="translate(63.623)"/><use xlink:href="#DejaVuSans-36" transform="translate(95.41)"/></g></g></g><g id="ytick_4"><use xlink:href="#m34ac6dcb6f" id="line2d_10" x="36.581" y="120.35" style="stroke:#000;stroke-width:.8px"/><g id="text_11"><g transform="matrix(.1 0 0 -.1 13.678 124.15)"><defs><path id="DejaVuSans-38" d="M2034 2216q-450 0-708-241-257-241-257-662 0-422 257-663 258-241 708-241t709 242q260 243 260 662 0 421-258 662-257 241-711 241m-631 268q-406 100-633 378-226 279-226 679 0 559 398 884 399 325 1092 325 697 0 1094-325t397-884q0-400-227-679-226-278-629-378 456-106 710-416 255-309 255-755 0-679-414-1042Q2806-91 2034-91q-771 0-1186 362-414 363-414 1042 0 446 256 755 257 310 713 416m-231 997q0-362 226-565 227-203 636-203 407 0 636 203 230 203 230 565 0 363-230 566-229 203-636 203-409 0-636-203-226-203-226-566" transform="scale(.01563)"/></defs><use xlink:href="#DejaVuSans-31"/><use xlink:href="#DejaVuSans-2e" transform="translate(63.623)"/><use xlink:href="#DejaVuSans-38" transform="translate(95.41)"/></g></g></g><g id="ytick_5"><use xlink:href="#m34ac6dcb6f" id="line2d_11" x="36.581" y="77.635" style="stroke:#000;stroke-width:.8px"/><g id="text_12"><g transform="matrix(.1 0 0 -.1 13.678 81.434)"><use xlink:href="#DejaVuSans-32"/><use xlink:href="#DejaVuSans-2e" transform="translate(63.623)"/><use xlink:href="#DejaVuSans-30" transform="translate(95.41)"/></g></g></g><g id="ytick_6"><use xlink:href="#m34ac6dcb6f" id="line2d_12" x="36.581" y="34.919" style="stroke:#000;stroke-width:.8px"/><g id="text_13"><g transform="matrix(.1 0 0 -.1 13.678 38.718)"><use xlink:href="#DejaVuSans-32"/><use xlink:href="#DejaVuSans-2e" transform="translate(63.623)"/><use xlink:href="#DejaVuSans-32" transform="translate(95.41)"/></g></g></g><g id="text_14"><g transform="matrix(0 -.1 -.1 0 7.598 180.4)"><defs><path id="DejaVuSans-44" d="M1259 4147V519h763q966 0 1414 437 448 438 448 1382 0 937-448 1373t-1414 436Zm-631 519h1297q1356 0 1990-564 635-564 635-1764 0-1207-638-1773Q3275 0 1925 0H628Z" transform="scale(.01563)"/><path id="DejaVuSans-74" d="M1172 4494v-994h1184v-447H1172V1153q0-428 117-550t477-122h590V0h-590q-666 0-919 248-253 249-253 905v1900H172v447h422v994Z" transform="scale(.01563)"/><path id="DejaVuSans-61" d="M2194 1759q-697 0-966-159t-269-544q0-306 202-486 202-179 548-179 479 0 768 339t289 901v128Zm1147 238V0h-575v531q-197-318-491-470T1556-91q-537 0-855 302-317 302-317 808 0 590 395 890 396 300 1180 300h807v57q0 397-261 614t-733 217q-300 0-585-72-284-72-546-216v532q315 122 612 182 297 61 578 61 760 0 1135-394 375-393 375-1193" transform="scale(.01563)"/><path id="DejaVuSans-6e" d="M3513 2113V0h-575v2094q0 497-194 743-194 247-581 247-466 0-735-297-269-296-269-809V0H581v3500h578v-544q207 316 486 472 280 156 646 156 603 0 912-373 310-373 310-1098" transform="scale(.01563)"/><path id="DejaVuSans-63" d="M3122 3366v-538q-244 135-489 202t-495 67q-560 0-870-355-309-354-309-995t309-996q310-354 870-354 250 0 495 67t489 202V134Q2881 22 2623-34q-257-57-548-57-791 0-1257 497-465 497-465 1341 0 856 470 1346 471 491 1290 491 265 0 518-55 253-54 491-163" transform="scale(.01563)"/></defs><use xlink:href="#DejaVuSans-44"/><use xlink:href="#DejaVuSans-69" transform="translate(77.002)"/><use xlink:href="#DejaVuSans-73" transform="translate(104.785)"/><use xlink:href="#DejaVuSans-74" transform="translate(156.885)"/><use xlink:href="#DejaVuSans-61" transform="translate(196.094)"/><use xlink:href="#DejaVuSans-6e" transform="translate(257.373)"/><use xlink:href="#DejaVuSans-63" transform="translate(320.752)"/><use xlink:href="#DejaVuSans-65" transform="translate(375.732)"/><use xlink:href="#DejaVuSans-5b" transform="translate(469.043)"/><use xlink:href="#DejaVuSans-6d" transform="translate(508.057)"/><use xlink:href="#DejaVuSans-5d" transform="translate(605.469)"/></g></g></g><path id="line2d_13" d="m52.814 27.216.325 144.707.325 30.78.65 26.836.65 13.833.325 3.406.325 1.203.325-.886.325-2.773.65-9.886 1.95-36.41.975-12.309.65-5.93.65-4.552.65-3.486.65-2.657.65-2.01.65-1.502.65-1.102.65-.785.65-.535.974-.448.975-.137.975.079 1.3.326 1.95.76 3.9 1.855 4.874 2.247 4.225 1.686 4.225 1.445 4.55 1.327 5.2 1.287 6.174 1.287 7.15 1.253 8.774 1.297 11.049 1.39 15.274 1.676 34.773 3.749 10.724 1.417 8.125 1.282 6.824 1.296 5.525 1.268 4.55 1.254 3.9 1.284 3.574 1.407 2.925 1.372 2.6 1.438 2.275 1.479 2.274 1.745 1.95 1.77 1.95 2.1 1.625 2.074 1.625 2.457 1.3 2.318 1.3 2.719 1.3 3.228 1.3 3.892 1.3 4.769.975 4.334.975 5.177.974 6.248.975 7.575 1.3 12.192.65 5.974.325 2.12.325.71.325-1.693.325-5.195.325-9.275 1.3-50.83.65-13.662.325-3.569.325-2.116.325-1.114.325-.444.325-.007.325.272.65 1.002 1.95 3.938 1.95 3.693 1.95 3.19 1.95 2.745 1.95 2.373 2.274 2.382 2.275 2.045 2.6 2.006 2.6 1.725 2.924 1.672 3.25 1.596 3.575 1.506 4.225 1.52 4.55 1.399 5.2 1.369 6.174 1.393 7.474 1.445 9.1 1.517 11.699 1.71 21.124 2.814 17.224 2.395.65.097h0" clip-path="url(#p4948a7d355)" style="fill:none;stroke:#1f77b4;stroke-width:1.5px;stroke-linecap:square"/><path id="patch_3" d="M36.581 281.232V15.12" style="fill:none;stroke:#000;stroke-width:.8px;stroke-linejoin:miter;stroke-linecap:square"/><path id="patch_4" d="M393.701 281.232V15.12" style="fill:none;stroke:#000;stroke-width:.8px;stroke-linejoin:miter;stroke-linecap:square"/><path id="patch_5" d="M36.581 281.232h357.12" style="fill:none;stroke:#000;stroke-width:.8px;stroke-linejoin:miter;stroke-linecap:square"/><path id="patch_6" d="M36.581 15.12h357.12" style="fill:none;stroke:#000;stroke-width:.8px;stroke-linejoin:miter;stroke-linecap:square"/><g id="text_15"><g transform="matrix(.12 0 0 -.12 62.021 9.12)"><defs><path id="DejaVuSans-Bold-44" d="M1791 3756V909h431q737 0 1126 366 390 366 390 1063 0 693-388 1055-387 363-1128 363ZM588 4666h1268q1063 0 1583-152 520-151 892-514 328-316 487-729 160-412 160-933 0-529-160-943-159-414-487-729-375-363-900-515Q2906 0 1856 0H588Z" transform="scale(.01563)"/><path id="DejaVuSans-Bold-69" d="M538 3500h1118V0H538Zm0 1363h1118v-913H538Z" transform="scale(.01563)"/><path id="DejaVuSans-Bold-73" d="M3272 3391v-850q-359 150-694 225-334 75-631 75-319 0-474-80-154-80-154-245 0-135 117-207 117-71 420-106l197-28q860-109 1156-359 297-250 297-785 0-559-413-841Q2681-91 1863-91q-347 0-718 55-370 55-761 164v850q335-162 686-244 352-81 714-81 329 0 494 90 166 91 166 270 0 150-114 223t-455 114l-197 25q-747 94-1047 347t-300 769q0 556 381 824 382 269 1169 269 310 0 650-47 341-46 741-146" transform="scale(.01563)"/><path id="DejaVuSans-Bold-74" d="M1759 4494v-994h1154v-800H1759V1216q0-244 97-330t385-86h575V0h-960q-662 0-939 276-276 277-276 940v1484H84v800h557v994Z" transform="scale(.01563)"/><path id="DejaVuSans-Bold-61" d="M2106 1575q-350 0-527-119-176-118-176-350 0-212 142-333 143-120 396-120 315 0 531 226 216 227 216 568v128Zm1710 422V0H2688v519q-225-319-507-465-281-145-684-145-544 0-883 317-339 318-339 824 0 616 423 903 424 288 1330 288h660v87q0 266-210 389-209 124-653 124-359 0-669-72-309-72-575-216v853q360 88 722 133 363 45 725 45 947 0 1367-373 421-373 421-1214" transform="scale(.01563)"/><path id="DejaVuSans-Bold-6e" d="M4056 2131V0H2931v1631q0 453-20 625t-70 253q-66 110-179 171-112 61-256 61-350 0-550-271-200-270-200-748V0H538v3500h1118v-512q253 306 537 451 285 145 629 145 606 0 920-372 314-371 314-1081" transform="scale(.01563)"/><path id="DejaVuSans-Bold-63" d="M3366 3391v-913q-228 156-458 231t-477 75q-468 0-729-273t-261-764 261-765q261-273 729-273 263 0 499 78 236 79 436 232V103Q3103 6 2833-42q-270-49-542-49-947 0-1482 486-534 486-534 1352t534 1351q535 486 1482 486 275 0 542-48t533-145" transform="scale(.01563)"/><path id="DejaVuSans-Bold-65" d="M4031 1759v-318H1416q40-394 284-591t681-197q353 0 723 105 371 105 762 317V213Q3469 63 3072-14t-794-77q-950 0-1477 483-526 483-526 1355 0 856 517 1346 517 491 1424 491 825 0 1320-497 495-496 495-1328m-1150 372q0 319-186 514-186 196-486 196-325 0-528-183t-253-527Z" transform="scale(.01563)"/><path id="DejaVuSans-Bold-62" d="M2400 722q359 0 548 262 190 263 190 763t-190 762q-189 263-548 263t-552-264q-192-264-192-761t192-761q193-264 552-264m-744 2266q232 306 513 451t647 145q647 0 1062-514 416-514 416-1323T3878 423Q3463-91 2816-91q-366 0-647 145-281 146-513 452V0H538v4863h1118Z" transform="scale(.01563)"/><path id="DejaVuSans-Bold-77" d="M225 3500h1088l587-2412 591 2412h934l588-2387 590 2387h1088L4769 0H3547l-591 2406L2369 0H1147Z" transform="scale(.01563)"/><path id="DejaVuSans-Bold-67" d="M2919 594q-231-306-510-450Q2131 0 1766 0 1125 0 706 504q-418 505-418 1287 0 784 418 1285 419 502 1060 502 365 0 643-144 279-143 510-453v519h1125V353q0-844-533-1289t-1545-445q-328 0-635 50-306 50-615 153v872q293-169 574-252 282-83 566-83 550 0 806 241 257 241 257 753Zm-738 2178q-347 0-541-257-193-256-193-724 0-482 187-730 188-248 547-248 350 0 544 256t194 722q0 468-194 724-194 257-544 257" transform="scale(.01563)"/><path id="DejaVuSans-Bold-30" d="M2944 2338q0 875-164 1232-164 358-552 358-387 0-553-358-166-357-166-1232 0-885 166-1248 166-362 553-362 385 0 550 362 166 363 166 1248m1203-10q0-1159-500-1789T2228-91q-922 0-1422 630T306 2328q0 1163 500 1792 500 630 1422 630 919 0 1419-630 500-629 500-1792" transform="scale(.01563)"/><path id="DejaVuSans-Bold-64" d="M2919 2988v1875h1125V0H2919v506q-231-309-510-453-278-144-643-144-647 0-1063 514-415 515-415 1324t415 1323q416 514 1063 514 362 0 642-145t511-451M2181 722q360 0 549 262 189 263 189 763t-189 762q-189 263-549 263-356 0-545-263-189-262-189-762t189-763q189-262 545-262" transform="scale(.01563)"/><path id="DejaVuSans-Bold-31" d="M750 831h1063v3016L722 3622v819l1084 225h1144V831h1063V0H750Z" transform="scale(.01563)"/><path id="DejaVuSans-Bold-2c" d="M653 1209h1125V256L1006-909H341L653 256Z" transform="scale(.01563)"/><path id="DejaVuSans-Oblique-6b" d="M1172 4863h575l-550-2835 1972 1472h747L1716 1825 3322 0h-697L1131 1709 800 0H225Z" transform="scale(.01563)"/><path id="DejaVuSans-Oblique-70" d="M3175 2156q0 460-200 703-200 244-575 244-256 0-489-131t-414-381q-178-247-285-597-106-350-106-694 0-437 200-673t569-236q272 0 505 128t398 372q178 256 287 603 110 347 110 662m-1781 813q231 303 545 459t699 156q537 0 834-352 297-351 297-985 0-519-185-989-184-470-531-842-231-247-522-377-290-130-612-130-372 0-625 155T916 525L556-1331H-19l941 4831h575Z" transform="scale(.01563)"/><path id="DejaVuSans-3d" d="M678 2906h4006v-525H678Zm0-1275h4006v-531H678Z" transform="scale(.01563)"/></defs><use xlink:href="#DejaVuSans-Bold-44" transform="translate(0 .016)"/><use xlink:href="#DejaVuSans-Bold-69" transform="translate(83.008 .016)"/><use xlink:href="#DejaVuSans-Bold-73" transform="translate(117.285 .016)"/><use xlink:href="#DejaVuSans-Bold-74" transform="translate(176.807 .016)"/><use xlink:href="#DejaVuSans-Bold-61" transform="translate(224.61 .016)"/><use xlink:href="#DejaVuSans-Bold-6e" transform="translate(292.09 .016)"/><use xlink:href="#DejaVuSans-Bold-63" transform="translate(363.281 .016)"/><use xlink:href="#DejaVuSans-Bold-65" transform="translate(422.559 .016)"/><use xlink:href="#DejaVuSans-Bold-62" transform="translate(525.195 .016)"/><use xlink:href="#DejaVuSans-Bold-65" transform="translate(596.777 .016)"/><use xlink:href="#DejaVuSans-Bold-74" transform="translate(664.6 .016)"/><use xlink:href="#DejaVuSans-Bold-77" transform="translate(712.402 .016)"/><use xlink:href="#DejaVuSans-Bold-65" transform="translate(804.785 .016)"/><use xlink:href="#DejaVuSans-Bold-65" transform="translate(872.607 .016)"/><use xlink:href="#DejaVuSans-Bold-6e" transform="translate(940.43 .016)"/><use xlink:href="#DejaVuSans-Bold-61" transform="translate(1046.44 .016)"/><use xlink:href="#DejaVuSans-Bold-67" transform="translate(1113.92 .016)"/><use xlink:href="#DejaVuSans-Bold-65" transform="translate(1185.5 .016)"/><use xlink:href="#DejaVuSans-Bold-6e" transform="translate(1253.32 .016)"/><use xlink:href="#DejaVuSans-Bold-74" transform="translate(1324.51 .016)"/><use xlink:href="#DejaVuSans-Bold-30" transform="translate(1407.13 .016)"/><use xlink:href="#DejaVuSans-Bold-61" transform="translate(1511.52 .016)"/><use xlink:href="#DejaVuSans-Bold-6e" transform="translate(1579 .016)"/><use xlink:href="#DejaVuSans-Bold-64" transform="translate(1650.2 .016)"/><use xlink:href="#DejaVuSans-Bold-61" transform="translate(1756.59 .016)"/><use xlink:href="#DejaVuSans-Bold-67" transform="translate(1824.07 .016)"/><use xlink:href="#DejaVuSans-Bold-65" transform="translate(1895.65 .016)"/><use xlink:href="#DejaVuSans-Bold-6e" transform="translate(1963.48 .016)"/><use xlink:href="#DejaVuSans-Bold-74" transform="translate(2034.67 .016)"/><use xlink:href="#DejaVuSans-Bold-31" transform="translate(2117.29 .016)"/><use xlink:href="#DejaVuSans-Bold-2c" transform="translate(2186.87 .016)"/><use xlink:href="#DejaVuSans-Oblique-6b" transform="translate(2259.67 .016)"/><use xlink:href="#DejaVuSans-Oblique-70" transform="matrix(.7 0 0 .7 2317.58 -16.39)"/><use xlink:href="#DejaVuSans-3d" transform="translate(2384.23 .016)"/><use xlink:href="#DejaVuSans-35" transform="translate(2487.5 .016)"/></g></g></g></g><defs><clipPath id="p4948a7d355"><path d="M36.581 15.12h357.12v266.112H36.581Z"/></clipPath></defs></svg>