<svg xmlns="http://www.w3.org/2000/svg" xmlns:xlink="http://www.w3.org/1999/xlink" width="644.735" height="415.448" viewBox="0 0 483.551 311.586"><defs><style>*{stroke-linejoin:round;stroke-linecap:butt}</style></defs><g id="figure_1"><path id="patch_1" d="M0 311.586h483.551V0H0Z" style="fill:#fff"/><g id="axes_1"><path id="patch_2" d="M63.216 281.23h357.12V15.118H63.216Z" style="fill:#fff"/><path id="patch_3" d="M114.233 186.19h255.085v-38.016H114.233Z" clip-path="url(#p41640ac38a)" style="fill:red;stroke:#000;stroke-linejoin:miter"/><path id="patch_4" d="M114.233 148.174h102.034v-38.016H114.233Z" clip-path="url(#p41640ac38a)" style="fill:red;stroke:#000;stroke-linejoin:miter"/><path id="patch_5" d="M267.284 148.174h102.034v-38.016H267.284Z" clip-path="url(#p41640ac38a)" style="fill:red;stroke:#000;stroke-linejoin:miter"/><path id="patch_6" d="m275.893 110.158-8.609 2.139v-1.426h-25.508v-1.426h25.508v-1.425Z" clip-path="url(#p41640ac38a)" style="fill:#00f;stroke:#00f;stroke-linejoin:miter"/><path id="patch_7" d="m275.893 129.166-8.609 2.139v-1.426h-25.508v-1.426h25.508v-1.425Z" clip-path="url(#p41640ac38a)" style="stroke:#000;stroke-linejoin:miter"/><g id="matplotlib.axis_1"><g id="xtick_1"><g id="line2d_1"><defs><path id="m8f1c340558" d="M0 0v3.5" style="stroke:#000;stroke-width:.8px"/></defs><use xlink:href="#m8f1c340558" x="63.216" y="281.23" style="stroke:#000;stroke-width:.8px"/></g><g id="text_1"><g transform="matrix(.1 0 0 -.1 55.845 295.829)"><defs><path id="DejaVuSans-2212" d="M678 2272h4006v-531H678Z" transform="scale(.01563)"/><path id="DejaVuSans-32" d="M1228 531h2203V0H469v531q359 372 979 998 621 627 780 809 303 340 423 576 121 236 121 464 0 372-261 606-261 235-680 235-297 0-627-103-329-103-704-313v638q381 153 712 231 332 78 607 78 725 0 1156-363 431-362 431-968 0-288-108-546-107-257-392-607-78-91-497-524-418-433-1181-1211" transform="scale(.01563)"/></defs><use xlink:href="#DejaVuSans-2212"/><use xlink:href="#DejaVuSans-32" transform="translate(83.79)"/></g></g></g><g id="xtick_2"><use xlink:href="#m8f1c340558" id="line2d_2" x="114.233" y="281.23" style="stroke:#000;stroke-width:.8px"/><g id="text_2"><g transform="matrix(.1 0 0 -.1 111.052 295.829)"><defs><path id="DejaVuSans-30" d="M2034 4250q-487 0-733-480-245-479-245-1442 0-959 245-1439 246-480 733-480 491 0 736 480 246 480 246 1439 0 963-246 1442-245 480-736 480m0 500q785 0 1199-621 414-620 414-1801 0-1178-414-1799Q2819-91 2034-91q-784 0-1198 620-414 621-414 1799 0 1181 414 1801 414 621 1198 621" transform="scale(.01563)"/></defs><use xlink:href="#DejaVuSans-30"/></g></g></g><g id="xtick_3"><use xlink:href="#m8f1c340558" id="line2d_3" x="165.25" y="281.23" style="stroke:#000;stroke-width:.8px"/><use xlink:href="#DejaVuSans-32" id="text_3" transform="matrix(.1 0 0 -.1 162.069 295.829)"/></g><g id="xtick_4"><use xlink:href="#m8f1c340558" id="line2d_4" x="216.267" y="281.23" style="stroke:#000;stroke-width:.8px"/><g id="text_4"><g transform="matrix(.1 0 0 -.1 213.086 295.829)"><defs><path id="DejaVuSans-34" d="M2419 4116 825 1625h1594Zm-166 550h794V1625h666v-525h-666V0h-628v1100H313v609Z" transform="scale(.01563)"/></defs><use xlink:href="#DejaVuSans-34"/></g></g></g><g id="xtick_5"><use xlink:href="#m8f1c340558" id="line2d_5" x="267.284" y="281.23" style="stroke:#000;stroke-width:.8px"/><g id="text_5"><g transform="matrix(.1 0 0 -.1 264.103 295.829)"><defs><path id="DejaVuSans-36" d="M2113 2584q-425 0-674-291-248-290-248-796 0-503 248-796 249-292 674-292t673 292q248 293 248 796 0 506-248 796-248 291-673 291m1253 1979v-575q-238 112-480 171-242 60-480 60-625 0-955-422-329-422-376-1275 184 272 462 417 279 145 613 145 703 0 1111-427 408-426 408-1160 0-719-425-1154Q2819-91 2113-91q-810 0-1238 620-428 621-428 1799 0 1106 525 1764t1409 658q238 0 480-47t505-140" transform="scale(.01563)"/></defs><use xlink:href="#DejaVuSans-36"/></g></g></g><g id="xtick_6"><use xlink:href="#m8f1c340558" id="line2d_6" x="318.301" y="281.23" style="stroke:#000;stroke-width:.8px"/><g id="text_6"><g transform="matrix(.1 0 0 -.1 315.12 295.829)"><defs><path id="DejaVuSans-38" d="M2034 2216q-450 0-708-241-257-241-257-662 0-422 257-663 258-241 708-241t709 242q260 243 260 662 0 421-258 662-257 241-711 241m-631 268q-406 100-633 378-226 279-226 679 0 559 398 884 399 325 1092 325 697 0 1094-325t397-884q0-400-227-679-226-278-629-378 456-106 710-416 255-309 255-755 0-679-414-1042Q2806-91 2034-91q-771 0-1186 362-414 363-414 1042 0 446 256 755 257 310 713 416m-231 997q0-362 226-565 227-203 636-203 407 0 636 203 230 203 230 565 0 363-230 566-229 203-636 203-409 0-636-203-226-203-226-566" transform="scale(.01563)"/></defs><use xlink:href="#DejaVuSans-38"/></g></g></g><g id="xtick_7"><use xlink:href="#m8f1c340558" id="line2d_7" x="369.318" y="281.23" style="stroke:#000;stroke-width:.8px"/><g id="text_7"><g transform="matrix(.1 0 0 -.1 362.956 295.829)"><defs><path id="DejaVuSans-31" d="M794 531h1031v3560L703 3866v575l1116 225h631V531h1031V0H794Z" transform="scale(.01563)"/></defs><use xlink:href="#DejaVuSans-31"/><use xlink:href="#DejaVuSans-30" transform="translate(63.623)"/></g></g></g><g id="xtick_8"><use xlink:href="#m8f1c340558" id="line2d_8" x="420.336" y="281.23" style="stroke:#000;stroke-width:.8px"/><g id="text_8"><g transform="matrix(.1 0 0 -.1 413.973 295.829)"><use xlink:href="#DejaVuSans-31"/><use xlink:href="#DejaVuSans-32" transform="translate(63.623)"/></g></g></g><g id="text_9"><g transform="matrix(.1 0 0 -.1 238.816 309.507)"><defs><path id="DejaVuSans-78" d="M3513 3500 2247 1797 3578 0h-678L1881 1375 863 0H184l1360 1831L300 3500h678l928-1247 928 1247Z" transform="scale(.01563)"/></defs><use xlink:href="#DejaVuSans-78"/></g></g></g><g id="matplotlib.axis_2"><g id="ytick_1"><g id="line2d_9"><defs><path id="mf710dcf69c" d="M0 0h-3.5" style="stroke:#000;stroke-width:.8px"/></defs><use xlink:href="#mf710dcf69c" x="63.216" y="281.23" style="stroke:#000;stroke-width:.8px"/></g><g id="text_10"><g transform="matrix(.1 0 0 -.1 41.473 285.03)"><use xlink:href="#DejaVuSans-2212"/><use xlink:href="#DejaVuSans-32" transform="translate(83.79)"/></g></g></g><g id="ytick_2"><use xlink:href="#mf710dcf69c" id="line2d_10" x="63.216" y="243.214" style="stroke:#000;stroke-width:.8px"/><use xlink:href="#DejaVuSans-30" id="text_11" transform="matrix(.1 0 0 -.1 49.853 247.013)"/></g><g id="ytick_3"><use xlink:href="#mf710dcf69c" id="line2d_11" x="63.216" y="205.198" style="stroke:#000;stroke-width:.8px"/><use xlink:href="#DejaVuSans-32" id="text_12" transform="matrix(.1 0 0 -.1 49.853 208.997)"/></g><g id="ytick_4"><use xlink:href="#mf710dcf69c" id="line2d_12" x="63.216" y="167.182" style="stroke:#000;stroke-width:.8px"/><use xlink:href="#DejaVuSans-34" id="text_13" transform="matrix(.1 0 0 -.1 49.853 170.981)"/></g><g id="ytick_5"><use xlink:href="#mf710dcf69c" id="line2d_13" x="63.216" y="129.166" style="stroke:#000;stroke-width:.8px"/><use xlink:href="#DejaVuSans-36" id="text_14" transform="matrix(.1 0 0 -.1 49.853 132.965)"/></g><g id="ytick_6"><use xlink:href="#mf710dcf69c" id="line2d_14" x="63.216" y="91.15" style="stroke:#000;stroke-width:.8px"/><use xlink:href="#DejaVuSans-38" id="text_15" transform="matrix(.1 0 0 -.1 49.853 94.95)"/></g><g id="ytick_7"><use xlink:href="#mf710dcf69c" id="line2d_15" x="63.216" y="53.134" style="stroke:#000;stroke-width:.8px"/><g id="text_16"><g transform="matrix(.1 0 0 -.1 43.49 56.933)"><use xlink:href="#DejaVuSans-31"/><use xlink:href="#DejaVuSans-30" transform="translate(63.623)"/></g></g></g><g id="ytick_8"><use xlink:href="#mf710dcf69c" id="line2d_16" x="63.216" y="15.118" style="stroke:#000;stroke-width:.8px"/><g id="text_17"><g transform="matrix(.1 0 0 -.1 43.49 18.917)"><use xlink:href="#DejaVuSans-31"/><use xlink:href="#DejaVuSans-32" transform="translate(63.623)"/></g></g></g><g id="text_18"><g transform="matrix(0 -.1 -.1 0 35.394 151.134)"><defs><path id="DejaVuSans-79" d="M2059-325q-243-625-475-815-231-191-618-191H506v481h338q237 0 368 113 132 112 291 531l103 262L191 3500h609L1894 763l1094 2737h609Z" transform="scale(.01563)"/></defs><use xlink:href="#DejaVuSans-79"/></g></g></g><g id="line2d_17"><defs><path id="m9dc274c1aa" d="M0 4a4 4 0 1 0-.00015477436545552337-8A4 4 0 0 0 0 4Z" style="stroke:#00f"/></defs><g clip-path="url(#p41640ac38a)"><use xlink:href="#m9dc274c1aa" x="241.776" y="110.158" style="fill:#00f;stroke:#00f"/></g></g><g id="line2d_18"><defs><path id="mc557e84ca5" d="M0 4a4 4 0 1 0-.00015477436545552337-8A4 4 0 0 0 0 4Z" style="stroke:#000"/></defs><g clip-path="url(#p41640ac38a)"><use xlink:href="#mc557e84ca5" x="241.776" y="129.166" style="stroke:#000"/></g></g><path id="line2d_19" d="m241.776 110.158-4.673-.097-4.66-.28-6.173-.638-6.11-.915-6.034-1.166-5.944-1.398-5.847-1.609-5.743-1.804-5.636-1.984-5.525-2.15-5.413-2.304-6.605-3.08-6.426-3.282-6.246-3.471-6.067-3.643-5.887-3.804-5.707-3.952-7.42-5.48-72.444-53.983h0" clip-path="url(#p41640ac38a)" style="fill:none;stroke:red;stroke-width:1.5px;stroke-linecap:square"/><path id="line2d_20" d="m63.216 15.118 1.231.962 1.17 1.003 1.107 1.043 1.04 1.08.97 1.115.9 1.148.828 1.178.753 1.205.677 1.23.599 1.252.52 1.272.454 1.285.407 1.295.363 1.301.324 1.308.288 1.312.255 1.316.223 1.319.194 1.321.168 1.324.142 1.325.12 1.326.097 1.328.078 1.328.06 1.329.042 1.329.028 1.33.014 1.329.001 1.33-.01 1.329-.019 1.329-.027 1.33-.035 1.329-.04 1.329-.045 1.329-.048 1.329-.05 1.329-.05 1.329-.05 1.329-.048 1.329-.045 1.329-.04 1.329-.035 1.329-.027 1.33-.02 1.329-.01 1.33.002 1.329.014 1.329.028 1.33.042 1.328.06 1.33.078 1.327.097 1.328.12 1.326.142 1.325.168 1.324.194 1.322.223 1.319.255 1.315.288 1.312.324 1.308.363 1.301.406 1.295.455 1.285.52 1.272.599 1.252.677 1.23.753 1.205.827 1.178.9 1.148.971 1.115 1.04 1.08 1.106 1.043 1.17 1.003 1.232.962" clip-path="url(#p41640ac38a)" style="fill:none;stroke:#00f;stroke-width:1.5px;stroke-linecap:square"/><path id="line2d_21" d="m88.724 110.158-.34-.253-.34-.254-.34-.253-.34-.254-.34-.253-.34-.254-.34-.253-.34-.253-.34-.254-.34-.253-.341-.254-.34-.253-.34-.254-.34-.253-.34-.253-.34-.254-.34-.253-.34-.254-.341-.253-.34-.254-.34-.253-.34-.254-.34-.253-.34-.253-.34-.254-.34-.253-.34-.254-.341-.253-.34-.254-.34-.253-.34-.254-.34-.253-.34-.253-.34-.254-.34-.253-.34-.254-.341-.253-.34-.254-.34-.253-.34-.253-.34-.254-.34-.253-.34-.254-.34-.253-.34-.254-.341-.253-.34-.254-.34-.253-.34-.253-.34-.254-.34-.253-.34-.254-.34-.253-.341-.254-.34-.253-.34-.254-.34-.253-.34-.253-.34-.254-.34-.253-.34-.254-.34-.253-.341-.254-.34-.253-.34-.253-.34-.254-.34-.253-.34-.254-.34-.253-.34-.254-.34-.253-.341-.254-.34-.253-.34-.253-.34-.254" clip-path="url(#p41640ac38a)" style="fill:none;stroke:red;stroke-width:1.5px;stroke-linecap:square"/><path id="line2d_22" d="m63.216 91.15 1.231.962 1.17 1.003 1.107 1.043 1.04 1.08.97 1.115.9 1.148.828 1.178.753 1.205.677 1.23.599 1.252.52 1.272.454 1.285.407 1.295.363 1.301.324 1.308.288 1.312.255 1.316.223 1.319.194 1.321.168 1.324.142 1.325.12 1.326.097 1.328.078 1.328.06 1.329.042 1.329.028 1.33.014 1.329.001 1.33-.01 1.329-.019 1.329-.027 1.33-.035 1.329-.04 1.329-.045 1.329-.048 1.329-.05 1.329-.05 1.329-.05 1.329-.048 1.329-.045 1.329-.04 1.329-.035 1.329-.027 1.33-.02 1.329-.01 1.33.002 1.329.014 1.329.028 1.33.042 1.328.06 1.33.078 1.327.097 1.328.12 1.326.142 1.325.168 1.324.194 1.322.223 1.319.255 1.315.288 1.312.324 1.308.363 1.301.406 1.295.455 1.285.52 1.272.599 1.252.677 1.23.753 1.205.827 1.178.9 1.148.971 1.115 1.04 1.08 1.106 1.043 1.17 1.003 1.232.962" clip-path="url(#p41640ac38a)" style="fill:none;stroke:#00f;stroke-width:1.5px;stroke-linecap:square"/><path id="line2d_23" d="m88.724 186.19-26.81-20.026-2.391-2.174-2.094-2.34-1.773-2.48-1.452-2.596-1.21-2.664-1-2.711-.804-2.748-.617-2.775-.439-2.793-.269-2.805-.106-2.811.05-2.812.356-4.21.674-4.188.975-4.156 1.26-4.112 1.531-4.061 1.788-4.003 2.031-3.938 2.265-3.866 2.487-3.79 2.7-3.707 2.903-3.622 3.099-3.53 3.287-3.434 3.47-3.334 3.643-3.229 3.813-3.118 4.12-3.065 2.365-1.46 2.515-1.313 2.645-1.163 4.555-1.742 9.281-3.225 6.45-2.33 3.58-1.482 2.545-1.281 2.399-1.429 2.238-1.567 2.062-1.697 1.872-1.814 1.672-1.92 1.459-2.013 1.238-2.095 1.008-2.162.773-2.215.531-2.254.288-2.278.054-3.047V15.118h0" clip-path="url(#p41640ac38a)" style="fill:none;stroke:red;stroke-width:1.5px;stroke-linecap:square"/><path id="line2d_24" d="m139.741 15.118-.021.959-.065.957-.108.955-.151.952-.194.947-.236.943-.28.935-.32.929-.363.92-.404.91-.444.899-.486.887-.524.876-.564.861-.603.847-.64.831-.678.815-.714.797-.75.78-.783.76-.818.739-.851.719-.883.697-.914.674-.944.652-.968.631-.985.616-.998.605-1.008.595-1.018.587-1.025.579-1.031.573-1.037.568-1.04.563-1.044.56-1.045.559-1.048.557-1.047.556-1.047.557-1.046.558-1.043.561-1.04.564-1.037.568-1.031.573-1.025.579-1.018.586-1.009.595-.998.605-.985.616-.968.631-.944.652-.913.674-.883.697-.851.72-.818.74-.784.759-.75.779-.714.797-.677.815-.64.831-.603.847-.564.862-.525.875-.485.888-.445.899-.404.91-.362.92-.321.928-.279.936-.236.942-.194.947-.151.952-.108.955-.065.958-.022.958" clip-path="url(#p41640ac38a)" style="fill:none;stroke:#00f;stroke-width:1.5px;stroke-linecap:square"/><path id="line2d_25" d="m88.724 72.142.096-21.023.287-2.005.476-1.986.663-1.955.847-1.915 1.027-1.866 1.2-1.807 1.37-1.74 1.53-1.662 1.686-1.578 2.771-2.21 2.964-2.068 3.128-1.928 3.274-1.788 3.403-1.65 3.517-1.51 4.842-1.803 4.989-1.566 5.108-1.335 5.203-1.11 5.278-.897 5.333-.69 5.372-.493 5.398-.306 6.764-.133h0l4.239.089 5.634.35 7.002.715 8.343 1.14 12.437 1.999 13.831 2.177 6.965.9 7.01.663 5.641.291 4.24.032 4.23-.211 2.792-.33 2.752-.483 2.696-.632 2.626-.78 2.542-.921 2.443-1.06 2.332-1.19 2.208-1.315 6.356-4.186 3.139-1.56 3.33-1.321 3.483-1.082 3.574-.901 3.639-.746 5.545-.845 5.614-.54 5.65-.255 5.661.013 5.65.264 5.62.503 5.577.726 5.519.94 5.45 1.14 5.371 1.332 5.284 1.514 5.189 1.687 5.085 1.853 4.977 2.012 4.86 2.163 4.737 2.31 4.609 2.45 4.474 2.584 4.332 2.716 4.185 2.841 3.936 2.924 2.276 2.046 2.011 2.195 1.728 2.326 1.43 2.435 1.118 2.524.861 2.58.688 2.609.765 3.947.505 3.97.294 3.982.144 5.317-.09 6.647-.505 18.608.143 5.316.295 3.982.504 3.97.766 3.947.688 2.61.86 2.58 1.12 2.523 1.429 2.435 1.728 2.326 2.01 2.195 2.277 2.046 3.765 3.046 2.245 2.259 1.936 2.413 1.607 2.544 1.322 2.633 1.103 2.69.901 2.73.71 2.763.526 2.785.353 2.8.187 2.808.027 2.813-.126 2.81-.464 4.204-.776 4.179-1.072 4.142-1.352 4.096-1.618 4.043-1.87 3.981-2.11 3.915-2.34 3.841-2.559 3.763-2.768 3.68-2.97 3.591-3.163 3.499-3.348 3.401-3.528 3.3-3.701 3.192-3.868 3.08-2.693 1.97-2.917 1.783-3.14 1.56-3.33 1.322-3.482 1.081-3.575.902-3.639.745-5.545.846-5.614.54-5.65.255-5.66-.013-5.65-.265-5.621-.502-5.576-.727-5.52-.94-5.45-1.14-5.371-1.332-5.284-1.514-5.189-1.687-5.085-1.853-4.976-2.012-4.86-2.163-4.738-2.31-4.609-2.45-4.474-2.584-4.332-2.715-4.185-2.842-5.5-3.85-3.032-1.673-3.238-1.442-3.414-1.198-3.534-.985-3.61-.822-3.664-.671-5.572-.741-5.63-.443-5.656-.164-5.659.099-5.642.345-5.607.579-5.559.798-5.497 1.008-5.425 1.205-5.343 1.394-5.253 1.572-5.155 1.744-5.05 1.907-4.938 2.062-4.82 2.213-4.696 2.357-4.564 2.495-4.428 2.63-4.284 2.757-4.133 2.882-3.6 2.54-2.418 1.412-2.56 1.263-3.586 1.476-5.52 2.01-13.865 4.923-2.672 1.13-2.545 1.28-2.4 1.429-2.237 1.568-2.062 1.696-1.873 1.814-1.671 1.92-1.46 2.014-1.237 2.094-1.009 2.162-.772 2.215-.532 2.254-.287 2.279-.055 3.046v17.487h0" clip-path="url(#p41640ac38a)" style="fill:none;stroke:red;stroke-width:1.5px;stroke-linecap:square"/><path id="line2d_26" d="m88.724 281.23.022-.958.065-.958.108-.955.15-.952.195-.947.236-.942.279-.936.32-.928.363-.92.404-.91.445-.9.485-.887.525-.875.564-.862.602-.847.64-.83.678-.816.714-.797.75-.78.784-.759.818-.74.85-.719.884-.697.913-.674.944-.652.968-.63.985-.617.998-.605 1.009-.595 1.018-.586 1.025-.58 1.03-.572 1.037-.568 1.04-.564 1.044-.56 1.046-.559 1.047-.557 1.047-.556 1.048-.557 1.045-.558 1.044-.56 1.04-.564 1.037-.568 1.03-.573 1.026-.58 1.018-.586 1.008-.595.998-.605.985-.616.968-.631.944-.652.914-.674.883-.697.85-.72.819-.739.784-.76.75-.779.713-.797.678-.815.64-.831.603-.847.564-.861.524-.876.486-.887.444-.9.404-.91.363-.92.32-.928.28-.935.236-.943.194-.947.15-.952.109-.955.065-.957.021-.959" clip-path="url(#p41640ac38a)" style="fill:none;stroke:#00f;stroke-width:1.5px;stroke-linecap:square"/><path id="line2d_27" d="m139.741 224.206.096 2.015.287 2.006.476 1.985.663 1.955.847 1.915 1.027 1.866 1.2 1.807 1.37 1.74 1.531 1.662 1.685 1.579 2.772 2.21 2.963 2.067 3.128 1.928 3.274 1.789 3.404 1.649 3.517 1.51 4.841 1.804 4.989 1.565 5.108 1.335 5.203 1.111 5.278.896 5.333.69 5.373.494 5.397.305 6.764.133h0l4.053-.16 4.007-.48 3.916-.792 3.782-1.098 2.425-.895 2.334-1.02 2.232-1.141 2.117-1.256 2.966-2.065 2.775-2.208 2.587-2.331 2.4-2.44 2.214-2.536 2.027-2.62 1.845-2.696 1.665-2.759 1.487-2.815 1.315-2.862 1.146-2.902 1.274-3.92.994-3.966.726-3.997.472-4.018.23-4.03.028-6.579V186.19h0" clip-path="url(#p41640ac38a)" style="fill:none;stroke:red;stroke-width:1.5px;stroke-linecap:square"/><path id="line2d_28" d="m267.284 186.19-.021.959-.065.957-.108.955-.151.952-.194.947-.237.943-.279.935-.32.929-.363.92-.404.91-.445.899-.485.887-.524.876-.564.861-.603.847-.64.831-.678.815-.714.797-.75.78-.783.76-.818.739-.851.719-.883.697-.914.674-.944.652-.968.631-.985.616-.998.605-1.009.595-1.017.587-1.025.579-1.031.573-1.037.568-1.04.563-1.044.56-1.046.559-1.047.557-1.047.556-1.047.557-1.046.558-1.043.561-1.04.564-1.037.568-1.032.573-1.025.579-1.017.586-1.009.595-.998.605-.985.616-.968.631-.944.652-.914.674-.882.697-.851.72-.818.74-.785.759-.749.779-.714.797-.677.815-.64.831-.603.847-.564.862-.525.875-.485.888-.445.899-.404.91-.362.92-.321.928-.28.936-.236.942-.193.947-.151.952-.108.955-.065.958-.022.958" clip-path="url(#p41640ac38a)" style="fill:none;stroke:#00f;stroke-width:1.5px;stroke-linecap:square"/><path id="line2d_29" d="m216.267 243.214.015-.807.046-.807.077-.806.107-.803.138-.801.168-.798.199-.794.228-.79.259-.784.281-.78.297-.777.312-.773.325-.77.337-.768.349-.765.36-.762.369-.759.379-.757.387-.754.396-.752.403-.75.41-.747.417-.745.423-.744.428-.742.433-.74.438-.739.442-.737.446-.736.45-.735.452-.734.455-.733.457-.733.458-.732.46-.73.461-.732.461-.73.462-.731.462-.731.46-.73.46-.732.46-.732.456-.732.455-.733.452-.734.45-.735.445-.736.442-.738.438-.739.434-.74.428-.742.423-.743.416-.746.41-.747.404-.75.395-.752.388-.754.379-.757.37-.76.359-.761.348-.765.338-.767.325-.77.311-.774.297-.777.282-.78.258-.784.229-.79.198-.793.169-.798.137-.801.108-.804.076-.805.046-.807.016-.808" clip-path="url(#p41640ac38a)" style="fill:none;stroke:red;stroke-width:1.5px;stroke-linecap:square"/><path id="line2d_30" d="m241.776 186.19-.022.959-.065.957-.108.955-.15.952-.195.947-.236.943-.28.935-.32.929-.363.92-.403.91-.445.899-.485.887-.525.876-.564.861-.603.847-.64.831-.677.815-.714.797-.75.78-.784.76-.818.739-.85.719-.884.697-.914.674-.943.652-.968.631-.985.616-.998.605-1.01.595-1.017.587-1.025.579-1.031.573-1.036.568-1.04.563-1.044.56-1.046.559-1.047.557-1.048.556-1.047.557-1.045.558-1.044.561-1.04.564-1.037.568-1.031.573-1.025.579-1.018.586-1.008.595-.998.605-.985.616-.969.631-.943.652-.914.674-.883.697-.85.72-.819.74-.784.759-.75.779-.713.797-.678.815-.64.831-.603.847-.564.862-.525.875-.485.888-.444.899-.404.91-.363.92-.32.928-.28.936-.236.942-.194.947-.151.952-.108.955-.065.958-.022.958" clip-path="url(#p41640ac38a)" style="fill:none;stroke:#00f;stroke-width:1.5px;stroke-linecap:square"/><path id="line2d_31" d="m190.758 243.214.016-.807.046-.807.077-.806.107-.803.138-.801.168-.798.198-.794.229-.79.258-.784.282-.78.297-.777.312-.773.324-.77.338-.768.348-.765.36-.762.37-.759.378-.757.388-.754.395-.752.404-.75.41-.747.416-.745.423-.744.428-.742.434-.74.438-.739.442-.737.446-.736.45-.735.451-.734.455-.733.457-.733.459-.732.46-.73.46-.732.462-.73.462-.731.461-.731.461-.73.46-.732.459-.732.456-.732.455-.733.452-.734.45-.735.446-.736.442-.738.438-.739.433-.74.428-.742.423-.743.417-.746.41-.747.403-.75.396-.752.387-.754.38-.757.369-.76.36-.761.348-.765.337-.767.325-.77.312-.774.297-.777.281-.78.259-.784.228-.79.199-.793.168-.798.138-.801.107-.804.077-.805.046-.807.015-.808" clip-path="url(#p41640ac38a)" style="fill:none;stroke:red;stroke-width:1.5px;stroke-linecap:square"/><path id="line2d_32" d="m216.267 186.19-.022.959-.064.957-.108.955-.151.952-.194.947-.237.943-.279.935-.32.929-.363.92-.404.91-.445.899-.485.887-.525.876-.564.861-.602.847-.64.831-.678.815-.714.797-.75.78-.784.76-.818.739-.85.719-.883.697-.914.674-.944.652-.968.631-.985.616-.998.605-1.009.595-1.017.587-1.025.579-1.032.573-1.036.568-1.04.563-1.044.56-1.046.559-1.047.557-1.047.556-1.047.557-1.046.558-1.044.561-1.04.564-1.036.568-1.032.573-1.025.579-1.017.586-1.009.595-.998.605-.985.616-.968.631-.944.652-.914.674-.883.697-.85.72-.818.74-.785.759-.75.779-.713.797-.678.815-.64.831-.602.847-.564.862-.525.875-.485.888-.445.899-.404.91-.362.92-.321.928-.28.936-.236.942-.194.947-.15.952-.109.955-.064.958-.022.958" clip-path="url(#p41640ac38a)" style="fill:none;stroke:#00f;stroke-width:1.5px;stroke-linecap:square"/><path id="line2d_33" d="M165.25 243.214v-38.016h0" clip-path="url(#p41640ac38a)" style="fill:none;stroke:red;stroke-width:1.5px;stroke-linecap:square"/><path id="line2d_34" d="m165.25 205.198-.022.959-.065.957-.108.955-.15.952-.194.947-.237.943-.279.935-.32.929-.363.92-.404.91-.445.899-.485.887-.525.876-.564.861-.602.847-.64.831-.678.815-.714.797-.75.78-.784.76-.818.739-.85.719-.883.697-.914.674-.944.652-.968.631-.985.616-.998.605-1.009.595-1.017.587-1.025.579-1.032.573-1.036.568-1.04.563-1.044.56-1.046.559-1.047.557-1.047.556-1.047.557-1.046.558-1.044.561-1.04.564-1.037.568-1.03.573-1.026.579-1.017.586-1.01.595-.997.605-.985.616-.968.631-.944.652-.914.674-.883.697-.85.72-.819.74-.784.759-.75.779-.713.797-.678.815-.64.831-.603.847-.564.862-.524.875-.485.888-.445.899-.404.91-.363.92-.32.928-.28.936-.236.942-.194.947-.15.952-.109.955-.065.958-.021.958" clip-path="url(#p41640ac38a)" style="fill:none;stroke:#00f;stroke-width:1.5px;stroke-linecap:square"/><path id="line2d_35" d="m114.233 262.222.119-3.159.323-3.15.68-4.183.9-4.16 1.339-5.172 2.4-8.235 2.652-9.272 1.256-5.183.8-4.171.548-4.194.195-3.157-.047-3.159-.235-2.1-.443-2.08-.648-2.05-.849-2.009-1.046-1.957-1.236-1.894-1.422-1.82-1.597-1.738-1.766-1.645-5.431-4.552-2.011-2.195-1.728-2.326-1.43-2.435-1.118-2.524-.861-2.58-.688-2.609-.766-3.946-.504-3.97-.294-3.983-.144-5.316.09-6.647.505-18.608-.144-5.317-.294-3.982-.504-3.97-.766-3.947-.688-2.61-.86-2.58-1.12-2.523-1.43-2.435-1.727-2.326-2.01-2.195-2.277-2.046-4.973-3.75-21.767-16.22h0" clip-path="url(#p41640ac38a)" style="fill:none;stroke:red;stroke-width:1.5px;stroke-linecap:square"/><path id="line2d_36" d="m63.216 72.142 1.325 1.001 1.308 1.014 1.29 1.027 1.27 1.04 1.253 1.051 1.233 1.064 1.215 1.077 1.196 1.088 1.176 1.1 1.156 1.11 1.137 1.124 1.116 1.133 1.096 1.145 1.075 1.156 1.054 1.166 1.034 1.177 1.011 1.187.99 1.197.968 1.208.946 1.217.923 1.226.9 1.236.876 1.246.853 1.254.83 1.263.804 1.272.78 1.28.755 1.29.73 1.296.703 1.305.678 1.313.65 1.32.624 1.327.596 1.335.568 1.34.539 1.348.51 1.354.481 1.36.451 1.365.42 1.371.39 1.376.357 1.381.325 1.385.293 1.39.259 1.393.225 1.396.19 1.399.154 1.401.12 1.404.081 1.405.044 1.406.006 1.406-.033 1.406-.073 1.405-.113 1.404-.156 1.401-.197 1.399-.242 1.394-.285 1.39-.332 1.385-.377 1.378-.426 1.37-.475 1.36-.526 1.351-.577 1.339-.633 1.325-.689 1.309-.762 1.286-.846 1.257-.928 1.225-1.007 1.188-1.086 1.15-1.16 1.11-1.232 1.065-1.3 1.018" clip-path="url(#p41640ac38a)" style="fill:none;stroke:#00f;stroke-width:1.5px;stroke-linecap:square"/><path id="line2d_37" d="m88.724 167.182.34-.253.34-.254.34-.253.34-.254.34-.253.34-.254.341-.253.34-.253.34-.254.34-.253.34-.254.34-.253.34-.254.34-.253.34-.253.341-.254.34-.253.34-.254.34-.253.34-.254.34-.253.34-.254.34-.253.34-.253.341-.254.34-.253.34-.254.34-.253.34-.254.34-.253.34-.254.34-.253.341-.253.34-.254.34-.253.34-.254.34-.253.34-.254.34-.253.34-.253.34-.254.341-.253.34-.254.34-.253.34-.254.34-.253.34-.254.34-.253.34-.253.34-.254.341-.253.34-.254.34-.253.34-.254.34-.253.34-.254.34-.253.34-.253.34-.254.341-.253.34-.254.34-.253.34-.254.34-.253.34-.253.34-.254.34-.253.341-.254.34-.253.34-.254.34-.253.34-.254.34-.253.34-.253.34-.254" clip-path="url(#p41640ac38a)" style="fill:none;stroke:red;stroke-width:1.5px;stroke-linecap:square"/><path id="line2d_38" d="m114.233 148.174-1.326 1.001-1.307 1.014-1.29 1.027-1.27 1.04-1.253 1.051-1.234 1.064-1.215 1.077-1.195 1.088-1.176 1.1-1.157 1.11-1.136 1.124-1.116 1.133-1.096 1.145-1.076 1.156-1.054 1.166-1.033 1.177-1.012 1.187-.99 1.197-.968 1.208-.945 1.217-.923 1.226-.9 1.236-.877 1.246-.853 1.254-.829 1.263-.805 1.272-.78 1.28-.755 1.29-.73 1.296-.703 1.305-.677 1.313-.65 1.32-.624 1.327-.596 1.335-.568 1.34-.54 1.348-.51 1.354-.48 1.36-.452 1.365-.42 1.371-.389 1.376-.358 1.381-.325 1.385-.292 1.39-.26 1.393-.224 1.396-.19 1.399-.155 1.401-.119 1.404-.082 1.405-.044 1.406-.006 1.406.033 1.406.073 1.405.114 1.404.155 1.401.198 1.399.241 1.394.286 1.39.33 1.385.379 1.378.426 1.37.474 1.36.526 1.351.578 1.339.632 1.325.69 1.309.761 1.286.846 1.257.928 1.225 1.008 1.188 1.085 1.15 1.16 1.11 1.232 1.065 1.301 1.018" clip-path="url(#p41640ac38a)" style="fill:none;stroke:#00f;stroke-width:1.5px;stroke-linecap:square"/><path id="line2d_39" d="m88.724 243.214-1.232-.962-1.17-1.003-1.106-1.043-1.04-1.08-.97-1.115-.9-1.148-.828-1.178-.753-1.205-.677-1.23-.599-1.252-.52-1.272-.455-1.285-.406-1.295-.363-1.301-.324-1.308-.288-1.312-.255-1.315-.223-1.32-.194-1.32-.168-1.325-.142-1.325-.12-1.326-.097-1.328-.078-1.328-.06-1.329-.042-1.329-.028-1.329-.014-1.33-.001-1.329.01-1.33.019-1.329.027-1.33.035-1.328.04-1.33.045-1.328.048-1.33.05-1.328.05-1.33.05-1.328.048-1.33.045-1.328.04-1.33.035-1.329.027-1.329.02-1.33.01-1.329-.002-1.33-.014-1.329-.028-1.329-.043-1.33-.06-1.328-.077-1.328-.098-1.328-.119-1.326-.142-1.325-.168-1.324-.194-1.321-.223-1.32-.255-1.315-.288-1.312-.324-1.308-.363-1.301-.407-1.295-.454-1.285-.52-1.272-.6-1.252-.676-1.23-.753-1.205-.827-1.178-.9-1.148-.972-1.115-1.04-1.08-1.105-1.043-1.17-1.003-1.232-.962" clip-path="url(#p41640ac38a)" style="fill:none;stroke:red;stroke-width:1.5px;stroke-linecap:square"/><path id="line2d_40" d="m63.216 148.174 1.06.823 1.017.854.969.884.93.906.904.922.876.936.851.949.829.96.806.97.784.98.765.99.745.996.727 1.005.71 1.011.693 1.018.677 1.024.663 1.029.648 1.034.635 1.038.623 1.043.61 1.047.6 1.05.589 1.053.579 1.057.57 1.06.562 1.06.555 1.065.547 1.066.542 1.067.535 1.07.531 1.07.527 1.072.523 1.073.52 1.073.518 1.074.516 1.075.515 1.075.515 1.075.515 1.074.516 1.075.518 1.074.52 1.074.523 1.072.526 1.072.531 1.07.536 1.07.541 1.068.547 1.065.555 1.064.562 1.062.57 1.06.58 1.056.589 1.053.6 1.05.61 1.047.622 1.043.635 1.039.648 1.034.663 1.029.677 1.023.693 1.018.71 1.011.727 1.005.746.997.764.989.785.98.806.97.828.96.851.95.877.935.902.922.931.907.97.883 1.016.854 1.06.823" clip-path="url(#p41640ac38a)" style="fill:none;stroke:#00f;stroke-width:1.5px;stroke-linecap:square"/><path id="line2d_41" d="m114.233 224.206-2.402-1.965-2.146-2.123-1.871-2.263-1.58-2.383-1.276-2.482-.975-2.557-.77-2.596-.866-3.935-.585-3.965-.36-3.979-.207-5.315.04-6.647.5-22.596-.278-5.314-.43-3.975-.671-3.956-.612-2.62-.77-2.596-.975-2.557-1.275-2.482-1.58-2.383-1.872-2.263-2.146-2.123-2.402-1.965h0l-2.402-1.965-2.146-2.123-1.87-2.263-1.581-2.383-1.276-2.482-.975-2.557-.77-2.596-.866-3.935-.585-3.965-.36-3.979-.207-5.315.041-6.647.5-22.596-.279-5.314-.429-3.975-.672-3.956-.612-2.62-.77-2.596-.974-2.557-1.276-2.482-1.58-2.383-1.872-2.263-2.145-2.123-2.402-1.965h0" clip-path="url(#p41640ac38a)" style="fill:none;stroke:red;stroke-width:1.5px;stroke-linecap:square"/><path id="line2d_42" d="m63.216 34.126 1.325 1.001 1.308 1.014 1.29 1.027 1.27 1.04 1.253 1.051 1.233 1.064L72.11 41.4l1.196 1.088 1.176 1.1 1.156 1.11 1.137 1.124 1.116 1.133 1.096 1.145 1.075 1.156 1.054 1.166L82.15 51.6l1.011 1.187.99 1.197.968 1.208.946 1.217.923 1.226.9 1.236.876 1.246.853 1.254.83 1.263.804 1.272.78 1.28.755 1.29.73 1.296.703 1.305.678 1.313.65 1.32.624 1.327.596 1.335.568 1.34.539 1.348.51 1.354.481 1.36.451 1.365.42 1.371.39 1.376.357 1.381.325 1.385.293 1.39.259 1.393.225 1.396.19 1.399.154 1.401.12 1.404.081 1.405.044 1.406.006 1.406-.033 1.406-.073 1.405-.113 1.404-.156 1.401-.197 1.399-.242 1.394-.285 1.39-.332 1.385-.377 1.378-.426 1.37-.475 1.36-.526 1.351-.577 1.339-.633 1.325-.689 1.309-.762 1.286-.846 1.257-.928 1.225-1.007 1.188-1.086 1.15-1.16 1.11-1.232 1.065-1.3 1.018" clip-path="url(#p41640ac38a)" style="fill:none;stroke:#00f;stroke-width:1.5px;stroke-linecap:square"/><path id="line2d_43" d="m88.724 129.166 26.81-20.026 2.392-2.174 2.093-2.34 1.774-2.48 1.451-2.596 1.21-2.664 1-2.711.804-2.748.617-2.775.439-2.793.269-2.805.106-2.811-.05-2.812-.356-4.21-.674-4.188-.975-4.156-1.26-4.112-1.53-4.061-1.788-4.003-2.032-3.938-2.264-3.866-2.487-3.79-2.7-3.707-2.903-3.622-3.1-3.53-3.287-3.434-3.469-3.334-3.644-3.229-3.813-3.118-2.633-2.015h0" clip-path="url(#p41640ac38a)" style="fill:none;stroke:red;stroke-width:1.5px;stroke-linecap:square"/><path id="line2d_44" d="m88.724 15.118 1.099.824 1.09.83 1.084.834 1.076.84 1.069.845 1.06.85 1.054.856 1.045.862 1.037.866 1.03.872 1.02.878 1.013.882 1.004.889.996.893.987.899.978.904.969.91.96.914.95.92.941.926.932.93.922.937.912.941.902.947.892.953.881.957.871.963.86.969.85.974.837.979.827.984.815.99.803.995.792 1 .78 1.006.766 1.01.754 1.017.741 1.021.729 1.027.714 1.032.701 1.037.688 1.042.673 1.048.658 1.052.644 1.058.629 1.062.613 1.068.598 1.072.581 1.078.565 1.082.549 1.087.532 1.091.514 1.096.496 1.101.479 1.105.46 1.11.44 1.114.422 1.118.401 1.122.382 1.126.36 1.13.34 1.133.318 1.137.296 1.14.273 1.143.25 1.146.227 1.149.202 1.151.178 1.154.152 1.156.125 1.157.1 1.16.071 1.16.044 1.16.014 1.161" clip-path="url(#p41640ac38a)" style="fill:none;stroke:#00f;stroke-width:1.5px;stroke-linecap:square"/><path id="line2d_45" d="m139.741 91.15.014-1.053.04-1.053.065-1.053.088-1.05.108-1.051.128-1.05.145-1.047.163-1.047.179-1.045.193-1.043.207-1.042.22-1.04.23-1.04.242-1.038.252-1.037.26-1.035.27-1.034.275-1.033.283-1.033.288-1.03.293-1.031.297-1.03.3-1.03.303-1.029.305-1.028.307-1.029.306-1.028.306-1.029.305-1.028.304-1.029.3-1.03.297-1.03.294-1.03.288-1.031.283-1.032.276-1.033.269-1.035.26-1.035.253-1.036.242-1.038.232-1.04.22-1.04.207-1.042.194-1.044.179-1.044.163-1.047.147-1.048.128-1.049.11-1.05.088-1.051.065-1.053.042-1.053.015-1.053-.014-1.053-.048-1.053-.092-1.051-.144-1.048-.195-1.043-.247-1.037-.299-1.03-.35-1.02-.399-1.011-.45-.999-.498-.986-.547-.97-.595-.956-.642-.939-.688-.92-.733-.9-.777-.88-.82-.858-.863-.835-.903-.81-.943-.785-.98-.759" clip-path="url(#p41640ac38a)" style="fill:none;stroke:red;stroke-width:1.5px;stroke-linecap:square"/><path id="line2d_46" d="m139.741 15.118.34.254.34.253.34.253.34.254.34.253.341.254.34.253.34.254.34.253.34.254.34.253.34.253.34.254.34.253.341.254.34.253.34.254.34.253.34.253.34.254.34.253.34.254.341.253.34.254.34.253.34.254.34.253.34.253.34.254.34.253.34.254.341.253.34.254.34.253.34.254.34.253.34.253.34.254.34.253.34.254.341.253.34.254.34.253.34.253.34.254.34.253.34.254.34.253.34.254.341.253.34.254.34.253.34.253.34.254.34.253.34.254.34.253.341.254.34.253.34.254.34.253.34.253.34.254.34.253.34.254.34.253.341.254.34.253.34.253.34.254.34.253.34.254.34.253.34.254.34.253" clip-path="url(#p41640ac38a)" style="fill:none;stroke:#00f;stroke-width:1.5px;stroke-linecap:square"/><path id="line2d_47" d="m165.25 34.126-.787-.575-.8-.565-.815-.554-.826-.544-.839-.533-.85-.523-.862-.513-.872-.503-.882-.492-.893-.483-.902-.473-.91-.463-.92-.453-.928-.443-.937-.434-.944-.424-.952-.415-.958-.406-.966-.396-.973-.387-.979-.378-.985-.369-.991-.36-.997-.35-1.003-.343-1.008-.333-1.012-.325-1.018-.316-1.022-.307-1.027-.3-1.032-.29-1.035-.283-1.04-.274-1.042-.267-1.047-.258-1.05-.25-1.053-.243-1.057-.235-1.06-.227-1.062-.22-1.066-.211-1.067-.205-1.07-.197-1.074-.19-1.075-.182-1.077-.176-1.079-.168-1.081-.161-1.083-.155-1.084-.148-1.087-.14-1.087-.135-1.09-.128-1.09-.121-1.092-.115-1.093-.109-1.094-.102-1.095-.096-1.096-.09-1.096-.084-1.098-.079-1.098-.072-1.1-.066-1.099-.06-1.1-.056-1.1-.05-1.102-.043-1.101-.039-1.102-.033-1.102-.028-1.102-.022-1.102-.018-1.103-.012-1.102-.007-1.103-.003" clip-path="url(#p41640ac38a)" style="fill:none;stroke:red;stroke-width:1.5px;stroke-linecap:square"/><path id="line2d_48" d="m88.724 15.118 1.024.01 1.023.031 1.022.051 1.02.071 1.016.092 1.013.112 1.009.132 1.003.152.998.172.99.192.985.212.976.231.967.25.958.27.948.289.937.308.926.326.913.344.901.363.888.38.874.398.859.415.844.433.828.448.812.466.794.48.777.498.76.512.74.527.72.542.702.556.681.57.66.583.64.596.618.609.595.62.573.633.55.643.527.655.503.664.486.672.474.676.466.68.457.683.45.685.446.687.44.69.435.69.433.692.43.692.428.693.428.694.428.693.429.693.43.692.433.692.436.69.44.69.445.687.451.685.459.682.466.68.475.675.487.672.5.666.518.658.542.647.566.636.587.625.61.613.632.6.654.588.674.575.694.56.714.547" clip-path="url(#p41640ac38a)" style="fill:none;stroke:#00f;stroke-width:1.5px;stroke-linecap:square"/><path id="line2d_49" d="m139.741 53.134-.733-.532-.753-.518-.77-.502-.79-.487-.805-.47-.823-.455-.838-.438-.854-.421-.869-.404-.883-.387-.894-.372-.9-.363-.908-.354-.911-.347-.916-.342-.92-.336-.922-.332-.924-.328-.927-.325-.928-.322-.93-.32-.93-.32-.93-.32-.93-.318-.93-.32-.93-.32-.928-.322-.926-.325-.925-.328-.923-.33-.92-.337-.915-.34-.913-.347-.907-.354-.902-.362-.892-.375-.878-.392-.863-.41-.849-.427-.833-.444-.817-.46-.8-.477-.782-.492-.765-.507-.746-.523-.727-.537-.708-.552-.687-.566-.667-.579-.646-.592-.624-.605-.603-.617-.58-.628-.557-.64-.534-.652-.51-.661-.487-.672-.462-.68-.438-.69-.413-.699-.387-.706-.362-.714-.336-.72-.31-.728-.285-.733-.257-.738-.231-.744-.204-.747-.178-.752-.15-.755-.123-.757-.096-.76-.068-.761-.041-.763-.014-.763" clip-path="url(#p41640ac38a)" style="fill:none;stroke:red;stroke-width:1.5px;stroke-linecap:square"/><path id="line2d_50" d="m88.724 15.118.121 4.929.377 4.921.524 4.09.73 4.07.946 4.048 1.178 4.012 1.423 3.969 1.68 3.912 1.54 3.08 1.72 3.025 1.908 2.963 2.102 2.888 2.304 2.803 2.51 2.7 2.726 2.584 2.947 2.444 3.477 2.548 4.184 2.842 4.333 2.715 4.474 2.585 4.609 2.45 4.737 2.309 4.86 2.163 4.976 2.012 5.086 1.853 5.189 1.687 5.284 1.514 5.371 1.332 5.45 1.14 5.52.94 5.576.727 5.62.502 5.65.265 5.66.013 5.65-.255 5.615-.54 5.545-.846 3.639-.745 3.574-.902 3.483-1.081 3.33-1.322 3.14-1.56 2.917-1.782 1.367-.97h0" clip-path="url(#p41640ac38a)" style="fill:none;stroke:#00f;stroke-width:1.5px;stroke-linecap:square"/><path id="line2d_51" d="m241.776 91.15-.773.586-.758.597-.743.607-.73.616-.716.625-.702.633-.688.642-.674.65-.661.658-.648.665-.634.672-.622.678-.608.686-.595.691-.582.698-.57.704-.556.709-.544.714-.532.72-.52.725-.507.73-.495.733-.482.74-.471.742-.46.747-.447.75-.436.756-.424.758-.413.762-.401.765-.39.768-.38.772-.368.774-.357.778-.347.78-.336.782-.326.785-.315.787-.304.79-.295.792-.284.794-.274.795-.265.798-.255.8-.245.8-.235.803-.226.804-.217.806-.207.807-.199.808-.189.81-.18.81-.172.811-.163.813-.154.814-.146.814-.137.815-.13.816-.12.817-.113.817-.104.818-.097.818-.09.82-.08.819-.075.82-.066.82-.059.82-.052.82-.044.822-.037.82-.03.822-.024.821-.017.822-.01.822-.003.821" clip-path="url(#p41640ac38a)" style="fill:none;stroke:red;stroke-width:1.5px;stroke-linecap:square"/><path id="line2d_52" d="m216.267 148.174.022-.958.065-.958.108-.955.15-.952.194-.947.237-.942.279-.936.32-.928.363-.92.404-.91.445-.9.485-.887.525-.875.564-.862.602-.847.64-.831.678-.815.714-.797.75-.78.784-.759.818-.74.85-.719.883-.697.914-.674.944-.652.968-.63.985-.617.998-.605 1.009-.595 1.017-.586 1.025-.58 1.032-.572 1.036-.568 1.04-.564 1.044-.56 1.046-.559 1.047-.557 1.047-.556 1.047-.557 1.046-.558 1.044-.56 1.04-.564 1.037-.568 1.03-.573 1.026-.58 1.017-.586 1.01-.595.997-.605.985-.616.968-.631.944-.652.914-.674.883-.697.85-.72.819-.739.784-.76.75-.779.713-.797.678-.815.64-.831.603-.847.564-.861.524-.876.485-.887.445-.9.404-.91.363-.92.32-.928.28-.935.236-.943.194-.947.15-.952.109-.955.065-.957.021-.959" clip-path="url(#p41640ac38a)" style="fill:none;stroke:#00f;stroke-width:1.5px;stroke-linecap:square"/><path id="line2d_53" d="m267.284 91.15-.015.808-.046.807-.077.805-.107.804-.138.8-.168.799-.198.794-.229.789-.258.784-.282.78-.297.777-.312.773-.325.77-.337.768-.349.765-.36.762-.369.76-.379.756-.387.754-.396.752-.403.75-.41.747-.417.746-.422.743-.429.742-.433.74-.438.74-.442.737-.446.736-.45.735-.452.734-.454.733-.457.732-.459.732-.46.731-.46.731-.462.73-.462.731-.461.731-.461.731-.46.731-.459.732-.457.733-.455.733-.452.734-.449.735-.446.736-.442.737-.438.739-.433.74-.429.742-.422.744-.417.745-.41.748-.404.75-.395.751-.388.754-.378.757-.37.76-.36.761-.348.765-.337.767-.325.771-.312.773-.297.777-.282.78-.258.784-.229.79-.198.794-.168.798-.138.8-.107.804-.077.806-.046.807-.015.807" clip-path="url(#p41640ac38a)" style="fill:none;stroke:red;stroke-width:1.5px;stroke-linecap:square"/><path id="line2d_54" d="m241.776 148.174.007-1.008.02-1.009.036-1.008.05-1.008.065-1.007.08-1.007.094-1.006.11-1.005.126-1.004.141-1.003.158-1.002.173-1 .19-.999.206-.996.223-.995.24-.992.257-.99.274-.988.292-.985.31-.982.327-.978.345-.975.364-.972.382-.967.4-.964.42-.959.438-.954.457-.949.476-.944.496-.938.515-.933.535-.926.555-.92.575-.913.594-.906.615-.899.635-.89.656-.882.676-.874.696-.865.717-.855.738-.846.759-.835.779-.824.8-.814.82-.802.842-.79.863-.776.883-.765.904-.75.925-.736.946-.722.966-.706.987-.69 1.012-.67 1.044-.64 1.074-.615 1.102-.585 1.13-.555 1.155-.526 1.179-.495 1.202-.463 1.223-.432 1.243-.399 1.261-.366 1.278-.332 1.292-.299 1.306-.264 1.318-.23 1.328-.195 1.336-.16 1.343-.125 1.348-.089 1.352-.053 1.353-.018" clip-path="url(#p41640ac38a)" style="fill:none;stroke:#00f;stroke-width:1.5px;stroke-linecap:square"/><path id="line2d_55" d="m292.793 91.15-4.053-.16-4.007-.48-3.916-.792-3.782-1.098-2.425-.895-2.334-1.02-2.232-1.141-2.118-1.256-2.965-2.065-2.775-2.208-2.587-2.331-2.4-2.44-2.214-2.536-2.028-2.62-1.844-2.696-1.665-2.759-1.487-2.815-1.315-2.862-1.146-2.902-1.274-3.92-.994-3.966-.727-3.997-.471-4.018-.23-4.03-.028-6.579V15.118h0" clip-path="url(#p41640ac38a)" style="fill:none;stroke:red;stroke-width:1.5px;stroke-linecap:square"/><path id="line2d_56" d="m241.776 15.118-.138 2.42-.414 2.403-.685 2.367-1.215 3.1-1.794 3.81-2.013 3.75-3.06 5.173-10.758 17.645-1.934 3.771-1.37 3.065-1.15 3.114-.595 2.382-.322 2.41-.054 2.623.171 4.031.41 4.022.662 4.004.926 3.974 1.203 3.933 1.091 2.914 1.258 2.876 1.43 2.832 1.604 2.778 1.785 2.718 1.966 2.646 2.152 2.566 2.337 2.473 2.525 2.369 2.713 2.25 2.898 2.119 2.057 1.31 2.176 1.199 2.284 1.081 2.381.959 2.467.83 3.83.997 3.952.69 4.028.373 2.704.071h0" clip-path="url(#p41640ac38a)" style="fill:none;stroke:#00f;stroke-width:1.5px;stroke-linecap:square"/><path id="line2d_57" d="M267.284 129.166h-25.508" clip-path="url(#p41640ac38a)" style="fill:none;stroke:red;stroke-width:1.5px;stroke-linecap:square"/><path id="patch_8" d="M63.216 281.23V15.118" style="fill:none;stroke:#000;stroke-width:.8px;stroke-linejoin:miter;stroke-linecap:square"/><path id="patch_9" d="M63.216 281.23h357.12" style="fill:none;stroke:#000;stroke-width:.8px;stroke-linejoin:miter;stroke-linecap:square"/><g id="text_19"><g transform="matrix(.12 0 0 -.12 0 9.118)"><defs><path id="DejaVuSans-Bold-44" d="M1791 3756V909h431q737 0 1126 366 390 366 390 1063 0 693-388 1055-387 363-1128 363ZM588 4666h1268q1063 0 1583-152 520-151 892-514 328-316 487-729 160-412 160-933 0-529-160-943-159-414-487-729-375-363-900-515Q2906 0 1856 0H588Z" transform="scale(.01563)"/><path id="DejaVuSans-Bold-65" d="M4031 1759v-318H1416q40-394 284-591t681-197q353 0 723 105 371 105 762 317V213Q3469 63 3072-14t-794-77q-950 0-1477 483-526 483-526 1355 0 856 517 1346 517 491 1424 491 825 0 1320-497 495-496 495-1328m-1150 372q0 319-186 514-186 196-486 196-325 0-528-183t-253-527Z" transform="scale(.01563)"/><path id="DejaVuSans-Bold-70" d="M1656 506v-1837H538v4831h1118v-512q232 306 513 451t647 145q647 0 1062-514 416-514 416-1323T3878 423Q3463-91 2816-91q-366 0-647 145-281 146-513 452m744 2266q-359 0-552-264-192-264-192-761t192-761q193-264 552-264t548 262q190 263 190 763t-190 762q-189 263-548 263" transform="scale(.01563)"/><path id="DejaVuSans-Bold-74" d="M1759 4494v-994h1154v-800H1759V1216q0-244 97-330t385-86h575V0h-960q-662 0-939 276-276 277-276 940v1484H84v800h557v994Z" transform="scale(.01563)"/><path id="DejaVuSans-Bold-68" d="M4056 2131V0H2931v1625q0 459-20 631t-70 253q-66 110-179 171-112 61-256 61-350 0-550-271-200-270-200-748V0H538v4863h1118V2988q253 306 537 451 285 145 629 145 606 0 920-372 314-371 314-1081" transform="scale(.01563)"/><path id="DejaVuSans-Bold-46" d="M588 4666h3246v-910H1791v-868h1922v-910H1791V0H588Z" transform="scale(.01563)"/><path id="DejaVuSans-Bold-69" d="M538 3500h1118V0H538Zm0 1363h1118v-913H538Z" transform="scale(.01563)"/><path id="DejaVuSans-Bold-72" d="M3138 2547q-147 69-293 101-145 33-292 33-431 0-664-277-233-276-233-791V0H538v3500h1118v-575q216 344 495 501 280 158 671 158 56 0 121-5 66-4 191-20Z" transform="scale(.01563)"/><path id="DejaVuSans-Bold-73" d="M3272 3391v-850q-359 150-694 225-334 75-631 75-319 0-474-80-154-80-154-245 0-135 117-207 117-71 420-106l197-28q860-109 1156-359 297-250 297-785 0-559-413-841Q2681-91 1863-91q-347 0-718 55-370 55-761 164v850q335-162 686-244 352-81 714-81 329 0 494 90 166 91 166 270 0 150-114 223t-455 114l-197 25q-747 94-1047 347t-300 769q0 556 381 824 382 269 1169 269 310 0 650-47 341-46 741-146" transform="scale(.01563)"/><path id="DejaVuSans-Bold-28" d="M2413-844h-929Q1006-72 778 623q-228 696-228 1380 0 685 229 1386 230 702 705 1467h929q-400-740-600-1448t-200-1399q0-690 198-1400 198-709 602-1453" transform="scale(.01563)"/><path id="DejaVuSans-Bold-6c" d="M538 4863h1118V0H538Z" transform="scale(.01563)"/><path id="DejaVuSans-Bold-6e" d="M4056 2131V0H2931v1631q0 453-20 625t-70 253q-66 110-179 171-112 61-256 61-350 0-550-271-200-270-200-748V0H538v3500h1118v-512q253 306 537 451 285 145 629 145 606 0 920-372 314-371 314-1081" transform="scale(.01563)"/><path id="DejaVuSans-Bold-67" d="M2919 594q-231-306-510-450Q2131 0 1766 0 1125 0 706 504q-418 505-418 1287 0 784 418 1285 419 502 1060 502 365 0 643-144 279-143 510-453v519h1125V353q0-844-533-1289t-1545-445q-328 0-635 50-306 50-615 153v872q293-169 574-252 282-83 566-83 550 0 806 241 257 241 257 753Zm-738 2178q-347 0-541-257-193-256-193-724 0-482 187-730 188-248 547-248 350 0 544 256t194 722q0 468-194 724-194 257-544 257" transform="scale(.01563)"/><path id="DejaVuSans-Bold-3a" d="M716 3500h1128V2291H716Zm0-2291h1128V0H716Z" transform="scale(.01563)"/><path id="DejaVuSans-Bold-32" d="M1844 884h2053V0H506v884l1703 1504q229 206 338 403t109 409q0 328-220 528t-586 200q-281 0-616-120-334-120-715-358v1025q406 134 803 204 397 71 778 71 838 0 1302-369 464-368 464-1028 0-381-197-711-197-329-828-883Z" transform="scale(.01563)"/><path id="DejaVuSans-Bold-33" d="M2981 2516q472-122 717-424 246-301 246-767 0-694-532-1055Q2881-91 1863-91q-360 0-721 58T428 141v928q338-169 670-255 333-86 655-86 478 0 733 165 255 166 255 476 0 319-261 483t-771 164h-481v775h506q454 0 675 142 222 142 222 433 0 268-216 415-215 147-609 147-290 0-587-66-297-65-591-193v881q356 100 706 150t688 50q909 0 1360-299 452-298 452-898 0-409-216-670-215-261-637-367" transform="scale(.01563)"/><path id="DejaVuSans-Bold-2e" d="M653 1209h1125V0H653Z" transform="scale(.01563)"/><path id="DejaVuSans-Bold-39" d="M641 103v863q287-135 549-202 263-67 519-67 538 0 838 298 300 299 353 886-212-156-453-234t-522-78q-716 0-1155 417T331 3084q0 754 489 1207t1311 453q913 0 1413-616 500-615 500-1740 0-1157-585-1818Q2875-91 1856-91q-328 0-628 49Q928 6 641 103m1484 2247q316 0 475 204 159 205 159 615 0 406-159 612-159 207-475 207t-475-207q-159-206-159-612 0-410 159-615 159-204 475-204" transform="scale(.01563)"/><path id="DejaVuSans-Bold-34" d="M2356 3675 1038 1722h1318Zm-200 991h1338V1722h665V850h-665V0H2356v850H288v1031Z" transform="scale(.01563)"/><path id="DejaVuSans-Bold-6d" d="M3781 2919q213 325 505 495t642 170q603 0 919-372 316-371 316-1081V0H5038v1825q3 41 4 84 2 44 2 125 0 372-110 539-109 168-353 168-318 0-492-263-173-262-180-759V0H2784v1825q0 581-100 748-100 168-356 168-322 0-497-264t-175-755V0H531v3500h1125v-512q207 296 474 446t589 150q362 0 640-175 279-175 422-490" transform="scale(.01563)"/><path id="DejaVuSans-Bold-2c" d="M653 1209h1125V256L1006-909H341L653 256Z" transform="scale(.01563)"/><path id="DejaVuSans-Bold-35" d="M678 4666h2991v-885H1638v-722q137 38 276 58 139 21 289 21 853 0 1328-427t475-1189q0-756-517-1185Q2972-91 2053-91q-397 0-786 77T494 219v947q381-219 723-329 342-109 646-109 437 0 688 214 252 214 252 580 0 369-252 581-251 213-688 213-260 0-554-68-293-67-631-207Z" transform="scale(.01563)"/><path id="DejaVuSans-Bold-78" d="M1422 1791 159 3500h1185l715-1037 725 1037h1185L2706 1797 4031 0H2847l-788 1106L1281 0H97Z" transform="scale(.01563)"/><path id="DejaVuSans-Bold-61" d="M2106 1575q-350 0-527-119-176-118-176-350 0-212 142-333 143-120 396-120 315 0 531 226 216 227 216 568v128Zm1710 422V0H2688v519q-225-319-507-465-281-145-684-145-544 0-883 317-339 318-339 824 0 616 423 903 424 288 1330 288h660v87q0 266-210 389-209 124-653 124-359 0-669-72-309-72-575-216v853q360 88 722 133 363 45 725 45 947 0 1367-373 421-373 421-1214" transform="scale(.01563)"/><path id="DejaVuSans-Bold-64" d="M2919 2988v1875h1125V0H2919v506q-231-309-510-453-278-144-643-144-647 0-1063 514-415 515-415 1324t415 1323q416 514 1063 514 362 0 642-145t511-451M2181 722q360 0 549 262 189 263 189 763t-189 762q-189 263-549 263-356 0-545-263-189-262-189-762t189-763q189-262 545-262" transform="scale(.01563)"/><path id="DejaVuSans-Bold-6f" d="M2203 2784q-372 0-567-267t-195-770 195-771q195-267 567-267 366 0 559 267 194 268 194 771t-194 770q-193 267-559 267m0 800q903 0 1411-488 508-487 508-1349 0-863-508-1351Q3106-91 2203-91q-906 0-1417 487-511 488-511 1351 0 862 511 1349 511 488 1417 488" transform="scale(.01563)"/><path id="DejaVuSans-Bold-31" d="M750 831h1063v3016L722 3622v819l1084 225h1144V831h1063V0H750Z" transform="scale(.01563)"/><path id="DejaVuSans-Bold-29" d="M513-844q400 744 600 1453 200 710 200 1400 0 691-200 1399T513 4856h928q475-765 704-1467 230-701 230-1386 0-684-228-1380-228-695-706-1467Z" transform="scale(.01563)"/></defs><use xlink:href="#DejaVuSans-Bold-44"/><use xlink:href="#DejaVuSans-Bold-65" transform="translate(83.008)"/><use xlink:href="#DejaVuSans-Bold-70" transform="translate(150.83)"/><use xlink:href="#DejaVuSans-Bold-74" transform="translate(222.412)"/><use xlink:href="#DejaVuSans-Bold-68" transform="translate(270.215)"/><use xlink:href="#DejaVuSans-Bold-46" transform="translate(341.406)"/><use xlink:href="#DejaVuSans-Bold-69" transform="translate(409.717)"/><use xlink:href="#DejaVuSans-Bold-72" transform="translate(443.994)"/><use xlink:href="#DejaVuSans-Bold-73" transform="translate(493.31)"/><use xlink:href="#DejaVuSans-Bold-74" transform="translate(552.832)"/><use xlink:href="#DejaVuSans-Bold-28" transform="translate(635.45)"/><use xlink:href="#DejaVuSans-Bold-6c" transform="translate(681.152)"/><use xlink:href="#DejaVuSans-Bold-65" transform="translate(715.43)"/><use xlink:href="#DejaVuSans-Bold-6e" transform="translate(783.252)"/><use xlink:href="#DejaVuSans-Bold-67" transform="translate(854.443)"/><use xlink:href="#DejaVuSans-Bold-74" transform="translate(926.025)"/><use xlink:href="#DejaVuSans-Bold-68" transform="translate(973.828)"/><use xlink:href="#DejaVuSans-Bold-3a" transform="translate(1045.02)"/><use xlink:href="#DejaVuSans-Bold-32" transform="translate(1119.82)"/><use xlink:href="#DejaVuSans-Bold-32" transform="translate(1189.4)"/><use xlink:href="#DejaVuSans-Bold-33" transform="translate(1258.98)"/><use xlink:href="#DejaVuSans-Bold-2e" transform="translate(1328.57)"/><use xlink:href="#DejaVuSans-Bold-39" transform="translate(1366.55)"/><use xlink:href="#DejaVuSans-Bold-34" transform="translate(1436.13)"/><use xlink:href="#DejaVuSans-Bold-6d" transform="translate(1540.53)"/><use xlink:href="#DejaVuSans-Bold-2c" transform="translate(1644.73)"/><use xlink:href="#DejaVuSans-Bold-74" transform="translate(1717.53)"/><use xlink:href="#DejaVuSans-Bold-69" transform="translate(1765.33)"/><use xlink:href="#DejaVuSans-Bold-6d" transform="translate(1799.61)"/><use xlink:href="#DejaVuSans-Bold-65" transform="translate(1903.81)"/><use xlink:href="#DejaVuSans-Bold-3a" transform="translate(1971.63)"/><use xlink:href="#DejaVuSans-Bold-32" transform="translate(2046.44)"/><use xlink:href="#DejaVuSans-Bold-35" transform="translate(2116.02)"/><use xlink:href="#DejaVuSans-Bold-34" transform="translate(2185.6)"/><use xlink:href="#DejaVuSans-Bold-39" transform="translate(2255.18)"/><use xlink:href="#DejaVuSans-Bold-2e" transform="translate(2324.76)"/><use xlink:href="#DejaVuSans-Bold-32" transform="translate(2362.74)"/><use xlink:href="#DejaVuSans-Bold-6d" transform="translate(2467.14)"/><use xlink:href="#DejaVuSans-Bold-73" transform="translate(2571.34)"/><use xlink:href="#DejaVuSans-Bold-2c" transform="translate(2630.86)"/><use xlink:href="#DejaVuSans-Bold-65" transform="translate(2703.66)"/><use xlink:href="#DejaVuSans-Bold-78" transform="translate(2771.49)"/><use xlink:href="#DejaVuSans-Bold-70" transform="translate(2835.99)"/><use xlink:href="#DejaVuSans-Bold-61" transform="translate(2907.57)"/><use xlink:href="#DejaVuSans-Bold-6e" transform="translate(2975.05)"/><use xlink:href="#DejaVuSans-Bold-64" transform="translate(3046.24)"/><use xlink:href="#DejaVuSans-Bold-65" transform="translate(3117.82)"/><use xlink:href="#DejaVuSans-Bold-64" transform="translate(3185.65)"/><use xlink:href="#DejaVuSans-Bold-6e" transform="translate(3292.04)"/><use xlink:href="#DejaVuSans-Bold-6f" transform="translate(3363.23)"/><use xlink:href="#DejaVuSans-Bold-64" transform="translate(3431.93)"/><use xlink:href="#DejaVuSans-Bold-65" transform="translate(3503.52)"/><use xlink:href="#DejaVuSans-Bold-73" transform="translate(3571.34)"/><use xlink:href="#DejaVuSans-Bold-3a" transform="translate(3630.86)"/><use xlink:href="#DejaVuSans-Bold-31" transform="translate(3705.66)"/><use xlink:href="#DejaVuSans-Bold-32" transform="translate(3775.24)"/><use xlink:href="#DejaVuSans-Bold-34" transform="translate(3844.82)"/><use xlink:href="#DejaVuSans-Bold-39" transform="translate(3914.4)"/><use xlink:href="#DejaVuSans-Bold-29" transform="translate(3983.99)"/></g></g><g id="legend_1"><path id="patch_10" d="M358.047 276.23h55.289q2 0 2-2v-28.356q0-2-2-2h-55.29q-2 0-2 2v28.356q0 2 2 2Z" style="fill:#fff;opacity:.8;stroke:#ccc;stroke-linejoin:miter"/><use xlink:href="#m9dc274c1aa" id="line2d_58" x="370.047" y="251.972" style="fill:#00f;stroke:#00f"/><g id="text_20"><g transform="matrix(.1 0 0 -.1 388.047 255.472)"><defs><path id="DejaVuSans-73" d="M2834 3397v-544q-243 125-506 187-262 63-544 63-428 0-642-131t-214-394q0-200 153-314t616-217l197-44q612-131 870-370t258-667q0-488-386-773Q2250-91 1575-91q-281 0-586 55T347 128v594q319-166 628-249 309-82 613-82 406 0 624 139 219 139 219 392 0 234-158 359-157 125-692 241l-200 47q-534 112-772 345-237 233-237 639 0 494 350 762 350 269 994 269 318 0 599-47 282-46 519-140" transform="scale(.01563)"/><path id="DejaVuSans-74" d="M1172 4494v-994h1184v-447H1172V1153q0-428 117-550t477-122h590V0h-590q-666 0-919 248-253 249-253 905v1900H172v447h422v994Z" transform="scale(.01563)"/><path id="DejaVuSans-61" d="M2194 1759q-697 0-966-159t-269-544q0-306 202-486 202-179 548-179 479 0 768 339t289 901v128Zm1147 238V0h-575v531q-197-318-491-470T1556-91q-537 0-855 302-317 302-317 808 0 590 395 890 396 300 1180 300h807v57q0 397-261 614t-733 217q-300 0-585-72-284-72-546-216v532q315 122 612 182 297 61 578 61 760 0 1135-394 375-393 375-1193" transform="scale(.01563)"/><path id="DejaVuSans-72" d="M2631 2963q-97 56-211 82-114 27-251 27-488 0-749-317t-261-911V0H581v3500h578v-544q182 319 472 473 291 155 707 155 59 0 131-8 72-7 159-23Z" transform="scale(.01563)"/></defs><use xlink:href="#DejaVuSans-73"/><use xlink:href="#DejaVuSans-74" transform="translate(52.1)"/><use xlink:href="#DejaVuSans-61" transform="translate(91.309)"/><use xlink:href="#DejaVuSans-72" transform="translate(152.588)"/><use xlink:href="#DejaVuSans-74" transform="translate(193.701)"/></g></g><use xlink:href="#mc557e84ca5" id="line2d_59" x="370.047" y="266.65" style="stroke:#000"/><g id="text_21"><g transform="matrix(.1 0 0 -.1 388.047 270.15)"><defs><path id="DejaVuSans-67" d="M2906 1791q0 625-258 968-257 344-723 344-462 0-720-344-258-343-258-968 0-622 258-966t720-344q466 0 723 344 258 344 258 966m575-1357q0-893-397-1329-396-436-1215-436-303 0-572 45t-522 139v559q253-137 500-202 247-66 503-66 566 0 847 295t281 892v285q-178-310-456-463T1784 0Q1141 0 747 490 353 981 353 1791q0 812 394 1302 394 491 1037 491 388 0 666-153t456-462v531h575Z" transform="scale(.01563)"/><path id="DejaVuSans-6f" d="M1959 3097q-462 0-731-361t-269-989 267-989q268-361 733-361 460 0 728 362 269 363 269 988 0 622-269 986-268 364-728 364m0 487q750 0 1178-488 429-487 429-1349 0-859-429-1349Q2709-91 1959-91q-753 0-1180 489-426 490-426 1349 0 862 426 1349 427 488 1180 488" transform="scale(.01563)"/><path id="DejaVuSans-6c" d="M603 4863h575V0H603Z" transform="scale(.01563)"/></defs><use xlink:href="#DejaVuSans-67"/><use xlink:href="#DejaVuSans-6f" transform="translate(63.477)"/><use xlink:href="#DejaVuSans-61" transform="translate(124.658)"/><use xlink:href="#DejaVuSans-6c" transform="translate(185.938)"/></g></g></g></g></g><defs><clipPath id="p41640ac38a"><path d="M63.216 15.118h357.12V281.23H63.216Z"/></clipPath></defs></svg>