<svg xmlns="http://www.w3.org/2000/svg" xmlns:xlink="http://www.w3.org/1999/xlink" width="502.46" height="397.211" viewBox="0 0 376.845 297.908"><defs><style>*{stroke-linejoin:round;stroke-linecap:butt}</style></defs><g id="figure_1"><path id="patch_1" d="M0 297.908h376.845V0H0Z" style="fill:#fff"/><g id="axes_1"><path id="patch_2" d="M19.725 281.23h357.12V15.118H19.725Z" style="fill:#fff"/><g id="matplotlib.axis_1"><g id="xtick_1"><g id="line2d_1"><defs><path id="m0e98143dd8" d="M0 0v3.5" style="stroke:#000;stroke-width:.8px"/></defs><use xlink:href="#m0e98143dd8" x="94.685" y="281.23" style="stroke:#000;stroke-width:.8px"/></g><g id="text_1"><g transform="matrix(.1 0 0 -.1 91.504 295.829)"><defs><path id="DejaVuSans-30" d="M2034 4250q-487 0-733-480-245-479-245-1442 0-959 245-1439 246-480 733-480 491 0 736 480 246 480 246 1439 0 963-246 1442-245 480-736 480m0 500q785 0 1199-621 414-620 414-1801 0-1178-414-1799Q2819-91 2034-91q-784 0-1198 620-414 621-414 1799 0 1181 414 1801 414 621 1198 621" transform="scale(.01563)"/></defs><use xlink:href="#DejaVuSans-30"/></g></g></g><g id="xtick_2"><use xlink:href="#m0e98143dd8" id="line2d_2" x="170.633" y="281.23" style="stroke:#000;stroke-width:.8px"/><g id="text_2"><g transform="matrix(.1 0 0 -.1 164.27 295.829)"><defs><path id="DejaVuSans-31" d="M794 531h1031v3560L703 3866v575l1116 225h631V531h1031V0H794Z" transform="scale(.01563)"/></defs><use xlink:href="#DejaVuSans-31"/><use xlink:href="#DejaVuSans-30" transform="translate(63.623)"/></g></g></g><g id="xtick_3"><use xlink:href="#m0e98143dd8" id="line2d_3" x="246.581" y="281.23" style="stroke:#000;stroke-width:.8px"/><g id="text_3"><g transform="matrix(.1 0 0 -.1 240.218 295.829)"><defs><path id="DejaVuSans-32" d="M1228 531h2203V0H469v531q359 372 979 998 621 627 780 809 303 340 423 576 121 236 121 464 0 372-261 606-261 235-680 235-297 0-627-103-329-103-704-313v638q381 153 712 231 332 78 607 78 725 0 1156-363 431-362 431-968 0-288-108-546-107-257-392-607-78-91-497-524-418-433-1181-1211" transform="scale(.01563)"/></defs><use xlink:href="#DejaVuSans-32"/><use xlink:href="#DejaVuSans-30" transform="translate(63.623)"/></g></g></g><g id="xtick_4"><use xlink:href="#m0e98143dd8" id="line2d_4" x="322.529" y="281.23" style="stroke:#000;stroke-width:.8px"/><g id="text_4"><g transform="matrix(.1 0 0 -.1 316.166 295.829)"><defs><path id="DejaVuSans-33" d="M2597 2516q453-97 707-404 255-306 255-756 0-690-475-1069Q2609-91 1734-91q-293 0-604 58T488 141v609q262-153 574-231 313-78 654-78 593 0 904 234t311 681q0 413-289 645-289 233-804 233h-544v519h569q465 0 712 186t247 536q0 359-255 551-254 193-729 193-260 0-557-57-297-56-653-174v562q360 100 674 150t592 50q719 0 1137-327 419-326 419-882 0-388-222-655t-631-370" transform="scale(.01563)"/></defs><use xlink:href="#DejaVuSans-33"/><use xlink:href="#DejaVuSans-30" transform="translate(63.623)"/></g></g></g></g><g id="matplotlib.axis_2"><g id="ytick_1"><g id="line2d_5"><defs><path id="m639d0be7bc" d="M0 0h-3.5" style="stroke:#000;stroke-width:.8px"/></defs><use xlink:href="#m639d0be7bc" x="19.725" y="269.13" style="stroke:#000;stroke-width:.8px"/></g><use xlink:href="#DejaVuSans-30" id="text_5" transform="matrix(.1 0 0 -.1 6.363 272.93)"/></g><g id="ytick_2"><use xlink:href="#m639d0be7bc" id="line2d_6" x="19.725" y="222.895" style="stroke:#000;stroke-width:.8px"/><g id="text_6"><g transform="matrix(.1 0 0 -.1 6.363 226.695)"><defs><path id="DejaVuSans-35" d="M691 4666h2478v-532H1269V2991q137 47 274 70 138 23 276 23 781 0 1237-428 457-428 457-1159 0-753-469-1171Q2575-91 1722-91q-294 0-599 50Q819 9 494 109v635q281-153 581-228t634-75q541 0 856 284 316 284 316 772 0 487-316 771-315 285-856 285-253 0-505-56-251-56-513-175Z" transform="scale(.01563)"/></defs><use xlink:href="#DejaVuSans-35"/></g></g></g><g id="ytick_3"><use xlink:href="#m639d0be7bc" id="line2d_7" x="19.725" y="176.661" style="stroke:#000;stroke-width:.8px"/><g id="text_7"><g transform="matrix(.1 0 0 -.1 0 180.46)"><use xlink:href="#DejaVuSans-31"/><use xlink:href="#DejaVuSans-30" transform="translate(63.623)"/></g></g></g><g id="ytick_4"><use xlink:href="#m639d0be7bc" id="line2d_8" x="19.725" y="130.426" style="stroke:#000;stroke-width:.8px"/><g id="text_8"><g transform="matrix(.1 0 0 -.1 0 134.225)"><use xlink:href="#DejaVuSans-31"/><use xlink:href="#DejaVuSans-35" transform="translate(63.623)"/></g></g></g><g id="ytick_5"><use xlink:href="#m639d0be7bc" id="line2d_9" x="19.725" y="84.192" style="stroke:#000;stroke-width:.8px"/><g id="text_9"><g transform="matrix(.1 0 0 -.1 0 87.99)"><use xlink:href="#DejaVuSans-32"/><use xlink:href="#DejaVuSans-30" transform="translate(63.623)"/></g></g></g><g id="ytick_6"><use xlink:href="#m639d0be7bc" id="line2d_10" x="19.725" y="37.957" style="stroke:#000;stroke-width:.8px"/><g id="text_10"><g transform="matrix(.1 0 0 -.1 0 41.756)"><use xlink:href="#DejaVuSans-32"/><use xlink:href="#DejaVuSans-35" transform="translate(63.623)"/></g></g></g></g><path id="line2d_11" d="m94.685 269.13 3.05-.056 3.048-.19 3.04-.322 3.027-.453 3.014-.583 2.994-.713 2.972-.84 2.945-.969 2.916-1.094 2.882-1.219 2.844-1.343 2.804-1.465 2.76-1.585 2.71-1.702 2.661-1.82 2.606-1.931 2.548-2.044 2.486-2.152 2.423-2.257 2.356-2.36 2.285-2.462 2.213-2.558 2.136-2.651 2.059-2.742 1.977-2.83 1.893-2.912 1.808-2.992 1.719-3.069 1.63-3.14 1.537-3.21 1.443-3.273 1.347-3.333 1.249-3.39 1.149-3.44 1.047-3.488 1.784-7.1 1.374-7.239.963-7.342.322-3.697.21-3.707.09-3.71-.032-3.71-.413-7.398-.76-7.372-1.854-14.693-.335-3.683-.208-3.694-.055-3.708.09-3.713.224-3.71.35-3.699.466-3.68.575-3.653.684-3.621.796-3.585.908-3.544 1.022-3.498 1.136-3.447 1.247-3.391 1.356-3.33 1.462-3.262 1.566-3.19 1.666-3.114 1.765-3.032 1.86-2.946 1.952-2.855 2.043-2.76 2.13-2.66 2.214-2.557 2.294-2.45 2.371-2.34 2.444-2.225 2.514-2.108 2.58-1.986 2.64-1.862 2.7-1.734 2.752-1.603 2.801-1.47 2.847-1.337 2.887-1.202 2.924-1.067 2.957-.931 2.984-.793 3.007-.649 3.024-.499 3.037-.343 3.045-.183 3.048-.026 3.048.112 6.086.564 6.054.897 9.038 1.66 12.056 2.19 18.105 3.077 5.993 1.45 2.963.908 2.925 1.063 2.872 1.241 2.81 1.442 2.735 1.648 2.656 1.842 2.569 2.023 2.476 2.192 2.376 2.347 2.27 2.494 2.158 2.634 2.038 2.77 1.913 2.898 1.782 3.02 1.644 3.136 1.503 3.24 1.358 3.334 1.208 3.418 1.055 3.492.9 3.557.74 3.61.58 3.652.417 3.686.253 3.708.089 3.719-.076 3.72-.24 3.708-.404 3.689-.567 3.656-.728 3.613-.887 3.56-1.043 3.498-1.196 3.424-1.346 3.34-1.492 3.247-1.634 3.144-1.77 3.034-1.901 2.912-2.028 2.783-2.15 2.646-2.261 2.501-2.37 2.35-2.47 2.19-2.564 2.025-2.65 1.854-2.727 1.677-2.798 1.497-2.86 1.31-2.914 1.12-2.96.928-2.996.733-3.024.535-3.043.336-3.054.135-3.055-.066-3.049-.265-3.032-.465-3.007-.663-2.973-.86-2.93-1.054-2.88-1.244-2.821-1.43-2.754-1.615-2.677-1.793-2.595-1.966-2.503-2.133-2.406-2.294-2.301-2.449-2.19-2.596-2.07-2.736-1.947-2.868-1.818-2.991-1.681-3.107-1.541-3.212-1.397-3.31-1.248-3.396-1.098-3.472-.944-3.539-.787-3.595-.626-3.641-.464-3.677-.296-3.704-.127-3.72h0" clip-path="url(#p99d3a094cd)" style="fill:none;stroke:#00f;stroke-width:.5px;stroke-linecap:square"/><g id="line2d_12"><defs><path id="m5853fefbf5" d="m-1.5 1.5 3-3m-3 0 3 3" style="stroke:red"/></defs><g clip-path="url(#p99d3a094cd)"><use xlink:href="#m5853fefbf5" x="94.685" y="269.13" style="fill:red;stroke:red"/><use xlink:href="#m5853fefbf5" x="109.799" y="267.54" style="fill:red;stroke:red"/><use xlink:href="#m5853fefbf5" x="124.449" y="262.746" style="fill:red;stroke:red"/><use xlink:href="#m5853fefbf5" x="138.181" y="254.898" style="fill:red;stroke:red"/><use xlink:href="#m5853fefbf5" x="150.57" y="244.239" style="fill:red;stroke:red"/><use xlink:href="#m5853fefbf5" x="161.231" y="231.099" style="fill:red;stroke:red"/><use xlink:href="#m5853fefbf5" x="169.834" y="215.886" style="fill:red;stroke:red"/><use xlink:href="#m5853fefbf5" x="176.111" y="199.072" style="fill:red;stroke:red"/><use xlink:href="#m5853fefbf5" x="179.869" y="181.177" style="fill:red;stroke:red"/><use xlink:href="#m5853fefbf5" x="180.99" y="162.758" style="fill:red;stroke:red"/><use xlink:href="#m5853fefbf5" x="179.44" y="144.384" style="fill:red;stroke:red"/><use xlink:href="#m5853fefbf5" x="177.44" y="126.077" style="fill:red;stroke:red"/><use xlink:href="#m5853fefbf5" x="178.347" y="107.645" style="fill:red;stroke:red"/><use xlink:href="#m5853fefbf5" x="182.162" y="89.774" style="fill:red;stroke:red"/><use xlink:href="#m5853fefbf5" x="188.74" y="73.137" style="fill:red;stroke:red"/><use xlink:href="#m5853fefbf5" x="197.833" y="58.359" style="fill:red;stroke:red"/><use xlink:href="#m5853fefbf5" x="209.1" y="45.999" style="fill:red;stroke:red"/><use xlink:href="#m5853fefbf5" x="222.115" y="36.521" style="fill:red;stroke:red"/><use xlink:href="#m5853fefbf5" x="236.389" y="30.282" style="fill:red;stroke:red"/><use xlink:href="#m5853fefbf5" x="251.384" y="27.518" style="fill:red;stroke:red"/><use xlink:href="#m5853fefbf5" x="266.535" y="28.332" style="fill:red;stroke:red"/><use xlink:href="#m5853fefbf5" x="281.569" y="30.976" style="fill:red;stroke:red"/><use xlink:href="#m5853fefbf5" x="296.602" y="33.62" style="fill:red;stroke:red"/><use xlink:href="#m5853fefbf5" x="311.636" y="36.264" style="fill:red;stroke:red"/><use xlink:href="#m5853fefbf5" x="326.214" y="41.262" style="fill:red;stroke:red"/><use xlink:href="#m5853fefbf5" x="339.184" y="50.78" style="fill:red;stroke:red"/><use xlink:href="#m5853fefbf5" x="349.622" y="64.139" style="fill:red;stroke:red"/><use xlink:href="#m5853fefbf5" x="356.783" y="80.387" style="fill:red;stroke:red"/><use xlink:href="#m5853fefbf5" x="360.155" y="98.363" style="fill:red;stroke:red"/><use xlink:href="#m5853fefbf5" x="359.498" y="116.784" style="fill:red;stroke:red"/><use xlink:href="#m5853fefbf5" x="354.858" y="134.337" style="fill:red;stroke:red"/><use xlink:href="#m5853fefbf5" x="346.568" y="149.767" style="fill:red;stroke:red"/><use xlink:href="#m5853fefbf5" x="335.217" y="161.974" style="fill:red;stroke:red"/><use xlink:href="#m5853fefbf5" x="321.618" y="170.087" style="fill:red;stroke:red"/><use xlink:href="#m5853fefbf5" x="306.739" y="173.527" style="fill:red;stroke:red"/><use xlink:href="#m5853fefbf5" x="291.643" y="172.048" style="fill:red;stroke:red"/><use xlink:href="#m5853fefbf5" x="277.408" y="165.755" style="fill:red;stroke:red"/><use xlink:href="#m5853fefbf5" x="265.049" y="155.099" style="fill:red;stroke:red"/><use xlink:href="#m5853fefbf5" x="255.448" y="140.839" style="fill:red;stroke:red"/><use xlink:href="#m5853fefbf5" x="249.291" y="123.992" style="fill:red;stroke:red"/><use xlink:href="#m5853fefbf5" x="247.017" y="105.763" style="fill:red;stroke:red"/></g></g><path id="line2d_13" d="m56.71 176.66.339-1.801.588-1.705.82-1.555 1.028-1.36 1.206-1.124 1.346-.854 1.447-.559 1.505-.246 1.517.072 1.484.39 1.407.695 1.287.98 1.129 1.236.937 1.454.718 1.63.476 1.754.22 1.83-.04 1.847-.303 1.811-.554 1.721-.79 1.579-1.001 1.39-7.057 7.01-6.713 7.494-4.178 5.366-4.005 5.553-5.45 8.88-2.408 4.705-2.062 4.943-1.181 3.407-1.459 5.249-.61 3.621-.217 1.83-.178 3.69.23 3.687.685 3.601.539 1.73.659 1.665.8 1.571.931 1.461 1.057 1.328 1.17 1.18 1.266 1.02 1.343.864 1.402.712 1.443.575 2.962.816 3.01.496 4.544.397 6.073.223 12.151.133 22.784.035 3.034-.199 4.531-.575 4.498-.886 4.452-1.18 4.394-1.468 4.324-1.75 4.242-2.025 4.148-2.296 4.043-2.559 3.926-2.815 3.798-3.064 3.66-3.304 3.512-3.534 3.354-3.756 3.186-3.965 3.01-4.165 2.825-4.352 2.633-4.528 2.433-4.691 2.226-4.84 2.014-4.976 1.794-5.1 1.57-5.207 1.34-5.303 1.108-5.38.879-5.444.651-5.49.415-5.525.16-5.544-.116-5.546-.383-5.528-.812-7.33-2.343-18.27-.242-3.686-.077-3.697.086-3.697.398-5.527.673-5.486.916-5.434 1.157-5.366 1.404-5.278 1.657-5.167 1.907-5.038 2.147-4.893 2.376-4.734 2.597-4.557 2.81-4.367 3.013-4.161 3.208-3.94 3.39-3.705 3.562-3.46 3.721-3.202 3.867-2.933 4.001-2.655 4.122-2.364 4.228-2.066 4.32-1.766 4.395-1.463 4.455-1.16 4.504-.838 3.023-.372 3.032-.214 3.038-.052 4.553.197 4.54.462 6.03.912 7.505 1.413 12.005 2.293 10.536 1.745 9.028 1.509 4.488.962 4.447 1.208 2.929.983 2.886 1.153 2.829 1.347 2.754 1.558 2.669 1.766 2.579 1.955 2.485 2.126 2.39 2.284 2.288 2.432 2.182 2.573 2.07 2.707 1.95 2.836 1.822 2.959 1.689 3.074 1.55 3.18 1.407 3.278 1.263 3.364 1.113 3.44.96 3.51.806 3.565.65 3.613.489 3.65.33 3.677.167 3.693.004 3.698-.157 3.694-.318 3.678-.479 3.652-.638 3.616-.797 3.568-.952 3.513-1.103 3.445-1.253 3.37-1.4 3.282-1.54 3.187-1.68 3.082-1.81 2.97-1.939 2.847-2.06 2.717-2.178 2.58-2.287 2.433-2.39 2.283-2.486 2.124-2.577 1.96-2.658 1.788-2.734 1.614-2.8 1.434-2.858 1.25-2.91 1.063-2.952.872-2.986.679-3.011.484-3.029.289-3.036.09-3.037-.107-3.027-.304-3.01-.5-2.983-.694-2.95-.887-2.905-1.079-2.854-1.265-2.795-1.448-2.728-1.628-2.652-1.803-2.569-1.973-2.48-2.138-2.381-2.294-2.279-2.446-2.168-2.59-2.05-2.729-1.93-2.857-1.8-2.978-1.668-3.092-1.53-3.195-1.385-3.291-1.24-3.376-1.092-3.451-.941-3.517-.787-3.572-.629-3.618-.47-3.654-.305-3.68-.091-1.846h0" clip-path="url(#p99d3a094cd)" style="fill:none;stroke:red;stroke-width:1.5px;stroke-linecap:square"/><path id="patch_3" d="M19.725 281.23V15.118" style="fill:none;stroke:#000;stroke-width:.8px;stroke-linejoin:miter;stroke-linecap:square"/><path id="patch_4" d="M376.845 281.23V15.118" style="fill:none;stroke:#000;stroke-width:.8px;stroke-linejoin:miter;stroke-linecap:square"/><path id="patch_5" d="M19.725 281.23h357.12" style="fill:none;stroke:#000;stroke-width:.8px;stroke-linejoin:miter;stroke-linecap:square"/><path id="patch_6" d="M19.725 15.118h357.12" style="fill:none;stroke:#000;stroke-width:.8px;stroke-linejoin:miter;stroke-linecap:square"/><g id="text_11"><g transform="matrix(.12 0 0 -.12 75.25 9.118)"><defs><path id="DejaVuSans-Bold-4e" d="M588 4666h1343l1697-3200v3200h1141V0H3425L1728 3200V0H588Z" transform="scale(.01563)"/><path id="DejaVuSans-Bold-6f" d="M2203 2784q-372 0-567-267t-195-770 195-771q195-267 567-267 366 0 559 267 194 268 194 771t-194 770q-193 267-559 267m0 800q903 0 1411-488 508-487 508-1349 0-863-508-1351Q3106-91 2203-91q-906 0-1417 487-511 488-511 1351 0 862 511 1349 511 488 1417 488" transform="scale(.01563)"/><path id="DejaVuSans-Bold-6e" d="M4056 2131V0H2931v1631q0 453-20 625t-70 253q-66 110-179 171-112 61-256 61-350 0-550-271-200-270-200-748V0H538v3500h1118v-512q253 306 537 451 285 145 629 145 606 0 920-372 314-371 314-1081" transform="scale(.01563)"/><path id="DejaVuSans-Bold-2d" d="M347 2297h1962v-909H347Z" transform="scale(.01563)"/><path id="DejaVuSans-Bold-6c" d="M538 4863h1118V0H538Z" transform="scale(.01563)"/><path id="DejaVuSans-Bold-69" d="M538 3500h1118V0H538Zm0 1363h1118v-913H538Z" transform="scale(.01563)"/><path id="DejaVuSans-Bold-65" d="M4031 1759v-318H1416q40-394 284-591t681-197q353 0 723 105 371 105 762 317V213Q3469 63 3072-14t-794-77q-950 0-1477 483-526 483-526 1355 0 856 517 1346 517 491 1424 491 825 0 1320-497 495-496 495-1328m-1150 372q0 319-186 514-186 196-486 196-325 0-528-183t-253-527Z" transform="scale(.01563)"/><path id="DejaVuSans-Bold-61" d="M2106 1575q-350 0-527-119-176-118-176-350 0-212 142-333 143-120 396-120 315 0 531 226 216 227 216 568v128Zm1710 422V0H2688v519q-225-319-507-465-281-145-684-145-544 0-883 317-339 318-339 824 0 616 423 903 424 288 1330 288h660v87q0 266-210 389-209 124-653 124-359 0-669-72-309-72-575-216v853q360 88 722 133 363 45 725 45 947 0 1367-373 421-373 421-1214" transform="scale(.01563)"/><path id="DejaVuSans-Bold-72" d="M3138 2547q-147 69-293 101-145 33-292 33-431 0-664-277-233-276-233-791V0H538v3500h1118v-575q216 344 495 501 280 158 671 158 56 0 121-5 66-4 191-20Z" transform="scale(.01563)"/><path id="DejaVuSans-Bold-73" d="M3272 3391v-850q-359 150-694 225-334 75-631 75-319 0-474-80-154-80-154-245 0-135 117-207 117-71 420-106l197-28q860-109 1156-359 297-250 297-785 0-559-413-841Q2681-91 1863-91q-347 0-718 55-370 55-761 164v850q335-162 686-244 352-81 714-81 329 0 494 90 166 91 166 270 0 150-114 223t-455 114l-197 25q-747 94-1047 347t-300 769q0 556 381 824 382 269 1169 269 310 0 650-47 341-46 741-146" transform="scale(.01563)"/><path id="DejaVuSans-Bold-74" d="M1759 4494v-994h1154v-800H1759V1216q0-244 97-330t385-86h575V0h-960q-662 0-939 276-276 277-276 940v1484H84v800h557v994Z" transform="scale(.01563)"/><path id="DejaVuSans-Bold-66" d="M2841 4863v-735h-619q-238 0-332-86-93-86-93-298v-244h956v-800h-956V0H678v2700H122v800h556v244q0 572 319 845 319 274 987 274Z" transform="scale(.01563)"/><path id="DejaVuSans-Bold-64" d="M2919 2988v1875h1125V0H2919v506q-231-309-510-453-278-144-643-144-647 0-1063 514-415 515-415 1324t415 1323q416 514 1063 514 362 0 642-145t511-451M2181 722q360 0 549 262 189 263 189 763t-189 762q-189 263-549 263-356 0-545-263-189-262-189-762t189-763q189-262 545-262" transform="scale(.01563)"/><path id="DejaVuSans-Bold-62" d="M2400 722q359 0 548 262 190 263 190 763t-190 762q-189 263-548 263t-552-264q-192-264-192-761t192-761q193-264 552-264m-744 2266q232 306 513 451t647 145q647 0 1062-514 416-514 416-1323T3878 423Q3463-91 2816-91q-366 0-647 145-281 146-513 452V0H538v4863h1118Z" transform="scale(.01563)"/><path id="DejaVuSans-Bold-63" d="M3366 3391v-913q-228 156-458 231t-477 75q-468 0-729-273t-261-764 261-765q261-273 729-273 263 0 499 78 236 79 436 232V103Q3103 6 2833-42q-270-49-542-49-947 0-1482 486-534 486-534 1352t534 1351q535 486 1482 486 275 0 542-48t533-145" transform="scale(.01563)"/><path id="DejaVuSans-Bold-6b" d="M538 4863h1118V2216l1288 1284h1300L2534 1894 4378 0H3022L1656 1459V0H538Z" transform="scale(.01563)"/></defs><use xlink:href="#DejaVuSans-Bold-4e"/><use xlink:href="#DejaVuSans-Bold-6f" transform="translate(83.691)"/><use xlink:href="#DejaVuSans-Bold-6e" transform="translate(152.393)"/><use xlink:href="#DejaVuSans-Bold-2d" transform="translate(223.584)"/><use xlink:href="#DejaVuSans-Bold-6c" transform="translate(265.088)"/><use xlink:href="#DejaVuSans-Bold-69" transform="translate(299.365)"/><use xlink:href="#DejaVuSans-Bold-6e" transform="translate(333.643)"/><use xlink:href="#DejaVuSans-Bold-65" transform="translate(404.834)"/><use xlink:href="#DejaVuSans-Bold-61" transform="translate(472.656)"/><use xlink:href="#DejaVuSans-Bold-72" transform="translate(540.137)"/><use xlink:href="#DejaVuSans-Bold-73" transform="translate(624.268)"/><use xlink:href="#DejaVuSans-Bold-74" transform="translate(683.79)"/><use xlink:href="#DejaVuSans-Bold-61" transform="translate(731.592)"/><use xlink:href="#DejaVuSans-Bold-74" transform="translate(799.072)"/><use xlink:href="#DejaVuSans-Bold-65" transform="translate(846.875)"/><use xlink:href="#DejaVuSans-Bold-66" transform="translate(949.512)"/><use xlink:href="#DejaVuSans-Bold-65" transform="translate(993.018)"/><use xlink:href="#DejaVuSans-Bold-65" transform="translate(1060.84)"/><use xlink:href="#DejaVuSans-Bold-64" transform="translate(1128.66)"/><use xlink:href="#DejaVuSans-Bold-62" transform="translate(1200.24)"/><use xlink:href="#DejaVuSans-Bold-61" transform="translate(1271.83)"/><use xlink:href="#DejaVuSans-Bold-63" transform="translate(1339.31)"/><use xlink:href="#DejaVuSans-Bold-6b" transform="translate(1398.58)"/><use xlink:href="#DejaVuSans-Bold-63" transform="translate(1499.9)"/><use xlink:href="#DejaVuSans-Bold-6f" transform="translate(1559.18)"/><use xlink:href="#DejaVuSans-Bold-6e" transform="translate(1627.88)"/><use xlink:href="#DejaVuSans-Bold-74" transform="translate(1699.07)"/><use xlink:href="#DejaVuSans-Bold-72" transform="translate(1746.88)"/><use xlink:href="#DejaVuSans-Bold-6f" transform="translate(1796.19)"/><use xlink:href="#DejaVuSans-Bold-6c" transform="translate(1864.89)"/><use xlink:href="#DejaVuSans-Bold-6c" transform="translate(1899.17)"/><use xlink:href="#DejaVuSans-Bold-65" transform="translate(1933.45)"/><use xlink:href="#DejaVuSans-Bold-72" transform="translate(2001.27)"/></g></g></g></g><defs><clipPath id="p99d3a094cd"><path d="M19.725 15.118h357.12V281.23H19.725Z"/></clipPath></defs></svg>