<svg xmlns="http://www.w3.org/2000/svg" xmlns:xlink="http://www.w3.org/1999/xlink" width="524.935" height="415.448" viewBox="0 0 393.701 311.586"><defs><style>*{stroke-linejoin:round;stroke-linecap:butt}</style></defs><g id="figure_1"><path id="patch_1" d="M0 311.586h393.701V0H0Z" style="fill:#fff"/><g id="axes_1"><path id="patch_2" d="M36.581 281.23h357.12V15.118H36.581Z" style="fill:#fff"/><g id="matplotlib.axis_1"><g id="xtick_1"><g id="line2d_1"><defs><path id="mefc1265bba" d="M0 0v3.5" style="stroke:#000;stroke-width:.8px"/></defs><use xlink:href="#mefc1265bba" x="52.814" y="281.23" style="stroke:#000;stroke-width:.8px"/></g><g id="text_1"><g transform="matrix(.1 0 0 -.1 49.633 295.829)"><defs><path id="DejaVuSans-30" d="M2034 4250q-487 0-733-480-245-479-245-1442 0-959 245-1439 246-480 733-480 491 0 736 480 246 480 246 1439 0 963-246 1442-245 480-736 480m0 500q785 0 1199-621 414-620 414-1801 0-1178-414-1799Q2819-91 2034-91q-784 0-1198 620-414 621-414 1799 0 1181 414 1801 414 621 1198 621" transform="scale(.01563)"/></defs><use xlink:href="#DejaVuSans-30"/></g></g></g><g id="xtick_2"><use xlink:href="#mefc1265bba" id="line2d_2" x="92.895" y="281.23" style="stroke:#000;stroke-width:.8px"/><g id="text_2"><g transform="matrix(.1 0 0 -.1 89.714 295.829)"><defs><path id="DejaVuSans-35" d="M691 4666h2478v-532H1269V2991q137 47 274 70 138 23 276 23 781 0 1237-428 457-428 457-1159 0-753-469-1171Q2575-91 1722-91q-294 0-599 50Q819 9 494 109v635q281-153 581-228t634-75q541 0 856 284 316 284 316 772 0 487-316 771-315 285-856 285-253 0-505-56-251-56-513-175Z" transform="scale(.01563)"/></defs><use xlink:href="#DejaVuSans-35"/></g></g></g><g id="xtick_3"><use xlink:href="#mefc1265bba" id="line2d_3" x="132.976" y="281.23" style="stroke:#000;stroke-width:.8px"/><g id="text_3"><g transform="matrix(.1 0 0 -.1 126.613 295.829)"><defs><path id="DejaVuSans-31" d="M794 531h1031v3560L703 3866v575l1116 225h631V531h1031V0H794Z" transform="scale(.01563)"/></defs><use xlink:href="#DejaVuSans-31"/><use xlink:href="#DejaVuSans-30" transform="translate(63.623)"/></g></g></g><g id="xtick_4"><use xlink:href="#mefc1265bba" id="line2d_4" x="173.056" y="281.23" style="stroke:#000;stroke-width:.8px"/><g id="text_4"><g transform="matrix(.1 0 0 -.1 166.694 295.829)"><use xlink:href="#DejaVuSans-31"/><use xlink:href="#DejaVuSans-35" transform="translate(63.623)"/></g></g></g><g id="xtick_5"><use xlink:href="#mefc1265bba" id="line2d_5" x="213.137" y="281.23" style="stroke:#000;stroke-width:.8px"/><g id="text_5"><g transform="matrix(.1 0 0 -.1 206.775 295.829)"><defs><path id="DejaVuSans-32" d="M1228 531h2203V0H469v531q359 372 979 998 621 627 780 809 303 340 423 576 121 236 121 464 0 372-261 606-261 235-680 235-297 0-627-103-329-103-704-313v638q381 153 712 231 332 78 607 78 725 0 1156-363 431-362 431-968 0-288-108-546-107-257-392-607-78-91-497-524-418-433-1181-1211" transform="scale(.01563)"/></defs><use xlink:href="#DejaVuSans-32"/><use xlink:href="#DejaVuSans-30" transform="translate(63.623)"/></g></g></g><g id="xtick_6"><use xlink:href="#mefc1265bba" id="line2d_6" x="253.218" y="281.23" style="stroke:#000;stroke-width:.8px"/><g id="text_6"><g transform="matrix(.1 0 0 -.1 246.856 295.829)"><use xlink:href="#DejaVuSans-32"/><use xlink:href="#DejaVuSans-35" transform="translate(63.623)"/></g></g></g><g id="xtick_7"><use xlink:href="#mefc1265bba" id="line2d_7" x="293.299" y="281.23" style="stroke:#000;stroke-width:.8px"/><g id="text_7"><g transform="matrix(.1 0 0 -.1 286.936 295.829)"><defs><path id="DejaVuSans-33" d="M2597 2516q453-97 707-404 255-306 255-756 0-690-475-1069Q2609-91 1734-91q-293 0-604 58T488 141v609q262-153 574-231 313-78 654-78 593 0 904 234t311 681q0 413-289 645-289 233-804 233h-544v519h569q465 0 712 186t247 536q0 359-255 551-254 193-729 193-260 0-557-57-297-56-653-174v562q360 100 674 150t592 50q719 0 1137-327 419-326 419-882 0-388-222-655t-631-370" transform="scale(.01563)"/></defs><use xlink:href="#DejaVuSans-33"/><use xlink:href="#DejaVuSans-30" transform="translate(63.623)"/></g></g></g><g id="xtick_8"><use xlink:href="#mefc1265bba" id="line2d_8" x="333.38" y="281.23" style="stroke:#000;stroke-width:.8px"/><g id="text_8"><g transform="matrix(.1 0 0 -.1 327.017 295.829)"><use xlink:href="#DejaVuSans-33"/><use xlink:href="#DejaVuSans-35" transform="translate(63.623)"/></g></g></g><g id="xtick_9"><use xlink:href="#mefc1265bba" id="line2d_9" x="373.46" y="281.23" style="stroke:#000;stroke-width:.8px"/><g id="text_9"><g transform="matrix(.1 0 0 -.1 367.098 295.829)"><defs><path id="DejaVuSans-34" d="M2419 4116 825 1625h1594Zm-166 550h794V1625h666v-525h-666V0h-628v1100H313v609Z" transform="scale(.01563)"/></defs><use xlink:href="#DejaVuSans-34"/><use xlink:href="#DejaVuSans-30" transform="translate(63.623)"/></g></g></g><g id="text_10"><g transform="matrix(.1 0 0 -.1 194.812 309.507)"><defs><path id="DejaVuSans-54" d="M-19 4666h3947v-532H2272V0h-634v4134H-19Z" transform="scale(.01563)"/><path id="DejaVuSans-69" d="M603 3500h575V0H603Zm0 1363h575v-729H603Z" transform="scale(.01563)"/><path id="DejaVuSans-6d" d="M3328 2828q216 388 516 572t706 184q547 0 844-383 297-382 297-1088V0h-578v2094q0 503-179 746-178 244-543 244-447 0-707-297-259-296-259-809V0h-578v2094q0 506-178 748t-550 242q-441 0-701-298-259-298-259-808V0H581v3500h578v-544q197 322 472 475t653 153q382 0 649-194 267-193 395-562" transform="scale(.01563)"/><path id="DejaVuSans-65" d="M3597 1894v-281H953q38-594 358-905t892-311q331 0 642 81t618 244V178Q3153 47 2828-22t-659-69q-838 0-1327 487-489 488-489 1320 0 859 464 1363 464 505 1252 505 706 0 1117-455 411-454 411-1235m-575 169q-6 471-264 752-258 282-683 282-481 0-770-272t-333-766Z" transform="scale(.01563)"/><path id="DejaVuSans-5b" d="M550 4863h1325v-447h-750V-397h750v-447H550Z" transform="scale(.01563)"/><path id="DejaVuSans-73" d="M2834 3397v-544q-243 125-506 187-262 63-544 63-428 0-642-131t-214-394q0-200 153-314t616-217l197-44q612-131 870-370t258-667q0-488-386-773Q2250-91 1575-91q-281 0-586 55T347 128v594q319-166 628-249 309-82 613-82 406 0 624 139 219 139 219 392 0 234-158 359-157 125-692 241l-200 47q-534 112-772 345-237 233-237 639 0 494 350 762 350 269 994 269 318 0 599-47 282-46 519-140" transform="scale(.01563)"/><path id="DejaVuSans-5d" d="M1947 4863V-844H622v447h747v4813H622v447Z" transform="scale(.01563)"/></defs><use xlink:href="#DejaVuSans-54"/><use xlink:href="#DejaVuSans-69" transform="translate(57.959)"/><use xlink:href="#DejaVuSans-6d" transform="translate(85.742)"/><use xlink:href="#DejaVuSans-65" transform="translate(183.154)"/><use xlink:href="#DejaVuSans-5b" transform="translate(276.465)"/><use xlink:href="#DejaVuSans-73" transform="translate(315.479)"/><use xlink:href="#DejaVuSans-5d" transform="translate(367.578)"/></g></g></g><g id="matplotlib.axis_2"><g id="ytick_1"><g id="line2d_10"><defs><path id="mf6ac695cf1" d="M0 0h-3.5" style="stroke:#000;stroke-width:.8px"/></defs><use xlink:href="#mf6ac695cf1" x="36.581" y="243.707" style="stroke:#000;stroke-width:.8px"/></g><g id="text_11"><g transform="matrix(.1 0 0 -.1 13.678 247.506)"><defs><path id="DejaVuSans-2e" d="M684 794h660V0H684Z" transform="scale(.01563)"/></defs><use xlink:href="#DejaVuSans-30"/><use xlink:href="#DejaVuSans-2e" transform="translate(63.623)"/><use xlink:href="#DejaVuSans-30" transform="translate(95.41)"/></g></g></g><g id="ytick_2"><use xlink:href="#mf6ac695cf1" id="line2d_11" x="36.581" y="203.361" style="stroke:#000;stroke-width:.8px"/><g id="text_12"><g transform="matrix(.1 0 0 -.1 13.678 207.16)"><use xlink:href="#DejaVuSans-30"/><use xlink:href="#DejaVuSans-2e" transform="translate(63.623)"/><use xlink:href="#DejaVuSans-35" transform="translate(95.41)"/></g></g></g><g id="ytick_3"><use xlink:href="#mf6ac695cf1" id="line2d_12" x="36.581" y="163.015" style="stroke:#000;stroke-width:.8px"/><g id="text_13"><g transform="matrix(.1 0 0 -.1 13.678 166.814)"><use xlink:href="#DejaVuSans-31"/><use xlink:href="#DejaVuSans-2e" transform="translate(63.623)"/><use xlink:href="#DejaVuSans-30" transform="translate(95.41)"/></g></g></g><g id="ytick_4"><use xlink:href="#mf6ac695cf1" id="line2d_13" x="36.581" y="122.669" style="stroke:#000;stroke-width:.8px"/><g id="text_14"><g transform="matrix(.1 0 0 -.1 13.678 126.468)"><use xlink:href="#DejaVuSans-31"/><use xlink:href="#DejaVuSans-2e" transform="translate(63.623)"/><use xlink:href="#DejaVuSans-35" transform="translate(95.41)"/></g></g></g><g id="ytick_5"><use xlink:href="#mf6ac695cf1" id="line2d_14" x="36.581" y="82.323" style="stroke:#000;stroke-width:.8px"/><g id="text_15"><g transform="matrix(.1 0 0 -.1 13.678 86.122)"><use xlink:href="#DejaVuSans-32"/><use xlink:href="#DejaVuSans-2e" transform="translate(63.623)"/><use xlink:href="#DejaVuSans-30" transform="translate(95.41)"/></g></g></g><g id="ytick_6"><use xlink:href="#mf6ac695cf1" id="line2d_15" x="36.581" y="41.977" style="stroke:#000;stroke-width:.8px"/><g id="text_16"><g transform="matrix(.1 0 0 -.1 13.678 45.776)"><use xlink:href="#DejaVuSans-32"/><use xlink:href="#DejaVuSans-2e" transform="translate(63.623)"/><use xlink:href="#DejaVuSans-35" transform="translate(95.41)"/></g></g></g><g id="text_17"><g transform="matrix(0 -.1 -.1 0 7.598 199.962)"><defs><path id="DejaVuSans-44" d="M1259 4147V519h763q966 0 1414 437 448 438 448 1382 0 937-448 1373t-1414 436Zm-631 519h1297q1356 0 1990-564 635-564 635-1764 0-1207-638-1773Q3275 0 1925 0H628Z" transform="scale(.01563)"/><path id="DejaVuSans-74" d="M1172 4494v-994h1184v-447H1172V1153q0-428 117-550t477-122h590V0h-590q-666 0-919 248-253 249-253 905v1900H172v447h422v994Z" transform="scale(.01563)"/><path id="DejaVuSans-61" d="M2194 1759q-697 0-966-159t-269-544q0-306 202-486 202-179 548-179 479 0 768 339t289 901v128Zm1147 238V0h-575v531q-197-318-491-470T1556-91q-537 0-855 302-317 302-317 808 0 590 395 890 396 300 1180 300h807v57q0 397-261 614t-733 217q-300 0-585-72-284-72-546-216v532q315 122 612 182 297 61 578 61 760 0 1135-394 375-393 375-1193" transform="scale(.01563)"/><path id="DejaVuSans-6e" d="M3513 2113V0h-575v2094q0 497-194 743-194 247-581 247-466 0-735-297-269-296-269-809V0H581v3500h578v-544q207 316 486 472 280 156 646 156 603 0 912-373 310-373 310-1098" transform="scale(.01563)"/><path id="DejaVuSans-63" d="M3122 3366v-538q-244 135-489 202t-495 67q-560 0-870-355-309-354-309-995t309-996q310-354 870-354 250 0 495 67t489 202V134Q2881 22 2623-34q-257-57-548-57-791 0-1257 497-465 497-465 1341 0 856 470 1346 471 491 1290 491 265 0 518-55 253-54 491-163" transform="scale(.01563)"/><path id="DejaVuSans-6f" d="M1959 3097q-462 0-731-361t-269-989 267-989q268-361 733-361 460 0 728 362 269 363 269 988 0 622-269 986-268 364-728 364m0 487q750 0 1178-488 429-487 429-1349 0-859-429-1349Q2709-91 1959-91q-753 0-1180 489-426 490-426 1349 0 862 426 1349 427 488 1180 488" transform="scale(.01563)"/><path id="DejaVuSans-70" d="M1159 525v-1856H581v4831h578v-531q182 312 458 463 277 152 661 152 638 0 1036-506 399-506 399-1331T3314 415Q2916-91 2278-91q-384 0-661 152-276 152-458 464m1957 1222q0 634-261 995t-717 361q-457 0-718-361t-261-995 261-995 718-361q456 0 717 361t261 995" transform="scale(.01563)"/><path id="DejaVuSans-68" d="M3513 2113V0h-575v2094q0 497-194 743-194 247-581 247-466 0-735-297-269-296-269-809V0H581v4863h578V2956q207 316 486 472 280 156 646 156 603 0 912-373 310-373 310-1098" transform="scale(.01563)"/></defs><use xlink:href="#DejaVuSans-44"/><use xlink:href="#DejaVuSans-69" transform="translate(77.002)"/><use xlink:href="#DejaVuSans-73" transform="translate(104.785)"/><use xlink:href="#DejaVuSans-74" transform="translate(156.885)"/><use xlink:href="#DejaVuSans-61" transform="translate(196.094)"/><use xlink:href="#DejaVuSans-6e" transform="translate(257.373)"/><use xlink:href="#DejaVuSans-63" transform="translate(320.752)"/><use xlink:href="#DejaVuSans-65" transform="translate(375.732)"/><use xlink:href="#DejaVuSans-74" transform="translate(469.043)"/><use xlink:href="#DejaVuSans-6f" transform="translate(508.252)"/><use xlink:href="#DejaVuSans-70" transform="translate(601.22)"/><use xlink:href="#DejaVuSans-61" transform="translate(664.697)"/><use xlink:href="#DejaVuSans-74" transform="translate(725.977)"/><use xlink:href="#DejaVuSans-68" transform="translate(765.186)"/><use xlink:href="#DejaVuSans-5b" transform="translate(860.352)"/><use xlink:href="#DejaVuSans-6d" transform="translate(899.365)"/><use xlink:href="#DejaVuSans-5d" transform="translate(996.777)"/></g></g></g><path id="line2d_16" d="m52.814 163.015 2.405-46.051L56.822 89.8l1.603-22.927 1.604-17.88.801-6.915.802-5.552.801-4.21.802-2.912.802-1.676.801-.515.802.562.801 1.549.802 2.443.802 3.245.801 3.956 1.604 9.707 1.603 11.566 2.405 19.64 9.619 82.435 2.405 17.68 2.405 15.69 1.603 9.29 1.603 8.347 1.603 7.414 1.604 6.51 1.603 5.643 1.603 4.828 1.603 4.07 1.604 3.378 1.603 2.748 1.603 2.187 1.603 1.692 1.603 1.26 1.604.88 1.603.535 1.603.222 1.603-.057 1.604-.299 2.405-.75 2.404-.777 1.604-.308 1.603.047 1.603.51 1.603.95 1.604 1.358 1.603 1.741 1.603 2.106 5.611 8.048.802.8.802.601.801.36.802.113.801-.102.802-.29.802-.446 1.603-1.258 2.405-2.428 9.62-10.231 3.206-3.051 2.404-2.018 2.405-1.749 2.405-1.473 2.405-1.208 2.405-.971 2.405-.76 2.404-.563 3.207-.49 3.206-.264 4.81-.134 4.008.062 3.207.25 4.008.405h1.603l1.603-.22 1.603-.541 1.604-.867 1.603-1.111 2.405-1.955 5.611-4.712 1.603-1.089 1.604-.833 1.603-.482 1.603-.084 1.603.31 1.603.72 1.604 1.163 1.603 1.654 1.603 2.113 1.603 2.456 2.405 4.094 4.81 8.447 1.603 2.466 1.603 2.05.802.816.802.647.801.465.802.298.801.15 1.604-.065 1.603-.439 1.603-.687 2.405-1.282 4.008-2.44 8.818-5.484 3.206-1.634 3.207-1.342 3.206-1.048 3.207-.798 3.206-.55 4.008-.431 4.008-.19 5.612-.024 9.62.288 12.825.393 14.429.185 32.866.1 4.008.327 1.604.25h0" clip-path="url(#p1aa3a90309)" style="fill:none;stroke:orange;stroke-width:1.5px;stroke-linecap:square"/><path id="line2d_17" d="m52.814 163.015 1.603-30.568.802-13.442.801-11.558.802-9.237.802-6.55.801-3.594.802-.492.802 2.631.801 5.644.802 8.423.801 10.866 1.604 27.337 2.404 44.11.802 12.327.802 10.51.801 8.446.802 6.426.802 4.89.801 3.776.802 2.908.801 2.231.802 1.708.802 1.304.801.995.802.757.801.578 1.604.774 1.603.45 2.405.347 3.206.18 7.215.085 40.08-.005 4.009-.543 2.405-.486 3.206-.935 4.008-1.23 1.603-.203 2.405-.047 9.62.17 8.817-.034 36.875-.013 5.611-.092 3.206.262 8.017.985 5.61.615 4.81.168 2.405-.055 3.207-.358 5.611-.902 7.215-1.268 2.405-.08 35.27.089 35.272-.003h49.7l3.207-.04h0" clip-path="url(#p1aa3a90309)" style="fill:none;stroke:green;stroke-width:1.5px;stroke-linecap:square"/><path id="line2d_18" d="m52.814 163.015 1.603-30.568.802-13.442.801-11.558.802-9.237.802-6.55.801-3.594.802-.492.802 2.631.801 5.644.802 8.423.801 10.866 1.604 27.279 1.603 28.062 1.603 23.393.802 9.776.801 8.395.802 7.03.802 5.755.801 4.617.802 3.647.801 2.845.802 2.2.802 1.692.801 1.295.802.99.801.755.802.576 1.603.773 1.604.45 2.404.344 3.207.18 6.413.082 28.056-.03 4.81.081 4.81.105 3.206-.307 4.008-.616 2.405-.603 4.008-1.276 1.603-.478 1.604-.247 2.405-.08 12.024.144 12.024.004 34.47-.105 2.404-.02 3.207.239 7.214.873 6.413.742 4.81.182 2.405-.025 3.206-.333 5.612-.888 8.016-1.36 3.206-.039 9.62.091 10.42-.017 68.94.006 32.866-.04h0" clip-path="url(#p1aa3a90309)" style="fill:none;stroke:red;stroke-width:1.5px;stroke-linecap:square"/><path id="patch_3" d="M36.581 281.23V15.118" style="fill:none;stroke:#000;stroke-width:.8px;stroke-linejoin:miter;stroke-linecap:square"/><path id="patch_4" d="M393.701 281.23V15.118" style="fill:none;stroke:#000;stroke-width:.8px;stroke-linejoin:miter;stroke-linecap:square"/><path id="patch_5" d="M36.581 281.23h357.12" style="fill:none;stroke:#000;stroke-width:.8px;stroke-linejoin:miter;stroke-linecap:square"/><path id="patch_6" d="M36.581 15.118h357.12" style="fill:none;stroke:#000;stroke-width:.8px;stroke-linejoin:miter;stroke-linecap:square"/><g id="text_18"><g transform="matrix(.12 0 0 -.12 147.333 9.118)"><defs><path id="DejaVuSans-Bold-50" d="M588 4666h1996q891 0 1367-396 477-395 477-1126 0-735-477-1130-476-395-1367-395h-793V0H588Zm1203-872V2491h665q350 0 541 170t191 483q0 312-191 481t-541 169Z" transform="scale(.01563)"/><path id="DejaVuSans-Bold-61" d="M2106 1575q-350 0-527-119-176-118-176-350 0-212 142-333 143-120 396-120 315 0 531 226 216 227 216 568v128Zm1710 422V0H2688v519q-225-319-507-465-281-145-684-145-544 0-883 317-339 318-339 824 0 616 423 903 424 288 1330 288h660v87q0 266-210 389-209 124-653 124-359 0-669-72-309-72-575-216v853q360 88 722 133 363 45 725 45 947 0 1367-373 421-373 421-1214" transform="scale(.01563)"/><path id="DejaVuSans-Bold-74" d="M1759 4494v-994h1154v-800H1759V1216q0-244 97-330t385-86h575V0h-960q-662 0-939 276-276 277-276 940v1484H84v800h557v994Z" transform="scale(.01563)"/><path id="DejaVuSans-Bold-68" d="M4056 2131V0H2931v1625q0 459-20 631t-70 253q-66 110-179 171-112 61-256 61-350 0-550-271-200-270-200-748V0H538v4863h1118V2988q253 306 537 451 285 145 629 145 606 0 920-372 314-371 314-1081" transform="scale(.01563)"/><path id="DejaVuSans-Bold-66" d="M2841 4863v-735h-619q-238 0-332-86-93-86-93-298v-244h956v-800h-956V0H678v2700H122v800h556v244q0 572 319 845 319 274 987 274Z" transform="scale(.01563)"/><path id="DejaVuSans-Bold-6f" d="M2203 2784q-372 0-567-267t-195-770 195-771q195-267 567-267 366 0 559 267 194 268 194 771t-194 770q-193 267-559 267m0 800q903 0 1411-488 508-487 508-1349 0-863-508-1351Q3106-91 2203-91q-906 0-1417 487-511 488-511 1351 0 862 511 1349 511 488 1417 488" transform="scale(.01563)"/><path id="DejaVuSans-Bold-6c" d="M538 4863h1118V0H538Z" transform="scale(.01563)"/><path id="DejaVuSans-Bold-77" d="M225 3500h1088l587-2412 591 2412h934l588-2387 590 2387h1088L4769 0H3547l-591 2406L2369 0H1147Z" transform="scale(.01563)"/><path id="DejaVuSans-Bold-69" d="M538 3500h1118V0H538Zm0 1363h1118v-913H538Z" transform="scale(.01563)"/><path id="DejaVuSans-Bold-6e" d="M4056 2131V0H2931v1631q0 453-20 625t-70 253q-66 110-179 171-112 61-256 61-350 0-550-271-200-270-200-748V0H538v3500h1118v-512q253 306 537 451 285 145 629 145 606 0 920-372 314-371 314-1081" transform="scale(.01563)"/><path id="DejaVuSans-Bold-67" d="M2919 594q-231-306-510-450Q2131 0 1766 0 1125 0 706 504q-418 505-418 1287 0 784 418 1285 419 502 1060 502 365 0 643-144 279-143 510-453v519h1125V353q0-844-533-1289t-1545-445q-328 0-635 50-306 50-615 153v872q293-169 574-252 282-83 566-83 550 0 806 241 257 241 257 753Zm-738 2178q-347 0-541-257-193-256-193-724 0-482 187-730 188-248 547-248 350 0 544 256t194 722q0 468-194 724-194 257-544 257" transform="scale(.01563)"/><path id="DejaVuSans-Bold-65" d="M4031 1759v-318H1416q40-394 284-591t681-197q353 0 723 105 371 105 762 317V213Q3469 63 3072-14t-794-77q-950 0-1477 483-526 483-526 1355 0 856 517 1346 517 491 1424 491 825 0 1320-497 495-496 495-1328m-1150 372q0 319-186 514-186 196-486 196-325 0-528-183t-253-527Z" transform="scale(.01563)"/><path id="DejaVuSans-Bold-72" d="M3138 2547q-147 69-293 101-145 33-292 33-431 0-664-277-233-276-233-791V0H538v3500h1118v-575q216 344 495 501 280 158 671 158 56 0 121-5 66-4 191-20Z" transform="scale(.01563)"/></defs><use xlink:href="#DejaVuSans-Bold-50"/><use xlink:href="#DejaVuSans-Bold-61" transform="translate(70.666)"/><use xlink:href="#DejaVuSans-Bold-74" transform="translate(138.146)"/><use xlink:href="#DejaVuSans-Bold-68" transform="translate(185.95)"/><use xlink:href="#DejaVuSans-Bold-66" transform="translate(291.955)"/><use xlink:href="#DejaVuSans-Bold-6f" transform="translate(335.46)"/><use xlink:href="#DejaVuSans-Bold-6c" transform="translate(404.162)"/><use xlink:href="#DejaVuSans-Bold-6c" transform="translate(438.44)"/><use xlink:href="#DejaVuSans-Bold-6f" transform="translate(472.717)"/><use xlink:href="#DejaVuSans-Bold-77" transform="translate(541.418)"/><use xlink:href="#DejaVuSans-Bold-69" transform="translate(633.8)"/><use xlink:href="#DejaVuSans-Bold-6e" transform="translate(668.078)"/><use xlink:href="#DejaVuSans-Bold-67" transform="translate(739.27)"/><use xlink:href="#DejaVuSans-Bold-65" transform="translate(845.666)"/><use xlink:href="#DejaVuSans-Bold-72" transform="translate(913.488)"/><use xlink:href="#DejaVuSans-Bold-72" transform="translate(962.805)"/><use xlink:href="#DejaVuSans-Bold-6f" transform="translate(1012.12)"/><use xlink:href="#DejaVuSans-Bold-72" transform="translate(1080.82)"/></g></g><g id="legend_1"><path id="patch_7" d="M225.242 67.153h161.46q2 0 2-2V22.118q0-2-2-2h-161.46q-2 0-2 2v43.035q0 2 2 2Z" style="fill:#fff;opacity:.8;stroke:#ccc;stroke-linejoin:miter"/><path id="line2d_19" d="M227.242 28.217h20" style="fill:none;stroke:orange;stroke-width:1.5px;stroke-linecap:square"/><g id="text_19"><g transform="matrix(.1 0 0 -.1 255.242 31.717)"><defs><path id="DejaVuSans-50" d="M1259 4147V2394h794q441 0 681 228 241 228 241 650 0 419-241 647-240 228-681 228Zm-631 519h1425q785 0 1186-355 402-355 402-1039 0-691-402-1044-401-353-1186-353h-794V0H628Z" transform="scale(.01563)"/><path id="DejaVuSans-75" d="M544 1381v2119h575V1403q0-497 193-746 194-248 582-248 465 0 735 297 271 297 271 810v1984h575V0h-575v538q-209-319-486-474-276-155-642-155-603 0-916 375-312 375-312 1097m1447 2203" transform="scale(.01563)"/><path id="DejaVuSans-72" d="M2631 2963q-97 56-211 82-114 27-251 27-488 0-749-317t-261-911V0H581v3500h578v-544q182 319 472 473 291 155 707 155 59 0 131-8 72-7 159-23Z" transform="scale(.01563)"/><path id="DejaVuSans-2d" d="M313 2009h1684v-512H313Z" transform="scale(.01563)"/></defs><use xlink:href="#DejaVuSans-50"/><use xlink:href="#DejaVuSans-75" transform="translate(58.553)"/><use xlink:href="#DejaVuSans-72" transform="translate(121.932)"/><use xlink:href="#DejaVuSans-65" transform="translate(160.795)"/><use xlink:href="#DejaVuSans-2d" transform="translate(222.318)"/><use xlink:href="#DejaVuSans-70" transform="translate(258.402)"/><use xlink:href="#DejaVuSans-75" transform="translate(321.879)"/><use xlink:href="#DejaVuSans-72" transform="translate(385.258)"/><use xlink:href="#DejaVuSans-73" transform="translate(426.371)"/><use xlink:href="#DejaVuSans-75" transform="translate(478.47)"/><use xlink:href="#DejaVuSans-69" transform="translate(541.85)"/><use xlink:href="#DejaVuSans-74" transform="translate(569.633)"/></g></g><path id="line2d_20" d="M227.242 42.895h20" style="fill:none;stroke:green;stroke-width:1.5px;stroke-linecap:square"/><g id="text_20"><g transform="matrix(.1 0 0 -.1 255.242 46.395)"><defs><path id="DejaVuSans-4c" d="M628 4666h631V531h2272V0H628Z" transform="scale(.01563)"/><path id="DejaVuSans-66" d="M2375 4863v-479h-550q-309 0-430-125-120-125-120-450v-309h947v-447h-947V0H697v3053H147v447h550v244q0 584 272 851 272 268 862 268Z" transform="scale(.01563)"/><path id="DejaVuSans-64" d="M2906 2969v1894h575V0h-575v525q-181-312-458-464-276-152-664-152-634 0-1033 506-398 507-398 1332t398 1331q399 506 1033 506 388 0 664-152 277-151 458-463M947 1747q0-634 261-995t717-361 718 361q263 361 263 995t-263 995q-262 361-718 361t-717-361-261-995" transform="scale(.01563)"/><path id="DejaVuSans-62" d="M3116 1747q0 634-261 995t-717 361q-457 0-718-361t-261-995 261-995 718-361q456 0 717 361t261 995M1159 2969q182 312 458 463 277 152 661 152 638 0 1036-506 399-506 399-1331T3314 415Q2916-91 2278-91q-384 0-661 152-276 152-458 464V0H581v4863h578Z" transform="scale(.01563)"/><path id="DejaVuSans-6b" d="M581 4863h578V1991l1716 1509h734L1753 1863 3688 0h-750L1159 1709V0H581Z" transform="scale(.01563)"/></defs><use xlink:href="#DejaVuSans-4c"/><use xlink:href="#DejaVuSans-69" transform="translate(55.713)"/><use xlink:href="#DejaVuSans-6e" transform="translate(83.496)"/><use xlink:href="#DejaVuSans-65" transform="translate(146.875)"/><use xlink:href="#DejaVuSans-61" transform="translate(208.398)"/><use xlink:href="#DejaVuSans-72" transform="translate(269.678)"/><use xlink:href="#DejaVuSans-73" transform="translate(342.578)"/><use xlink:href="#DejaVuSans-74" transform="translate(394.678)"/><use xlink:href="#DejaVuSans-61" transform="translate(433.887)"/><use xlink:href="#DejaVuSans-74" transform="translate(495.166)"/><use xlink:href="#DejaVuSans-65" transform="translate(534.375)"/><use xlink:href="#DejaVuSans-66" transform="translate(627.686)"/><use xlink:href="#DejaVuSans-65" transform="translate(662.89)"/><use xlink:href="#DejaVuSans-65" transform="translate(724.414)"/><use xlink:href="#DejaVuSans-64" transform="translate(785.938)"/><use xlink:href="#DejaVuSans-62" transform="translate(849.414)"/><use xlink:href="#DejaVuSans-61" transform="translate(912.89)"/><use xlink:href="#DejaVuSans-63" transform="translate(974.17)"/><use xlink:href="#DejaVuSans-6b" transform="translate(1029.15)"/></g></g><path id="line2d_21" d="M227.242 57.573h20" style="fill:none;stroke:red;stroke-width:1.5px;stroke-linecap:square"/><g id="text_21"><g transform="matrix(.1 0 0 -.1 255.242 61.073)"><defs><path id="DejaVuSans-4e" d="M628 4666h850L3547 763v3903h612V0h-850L1241 3903V0H628Z" transform="scale(.01563)"/><path id="DejaVuSans-6c" d="M603 4863h575V0H603Z" transform="scale(.01563)"/></defs><use xlink:href="#DejaVuSans-4e"/><use xlink:href="#DejaVuSans-6f" transform="translate(74.805)"/><use xlink:href="#DejaVuSans-6e" transform="translate(135.986)"/><use xlink:href="#DejaVuSans-2d" transform="translate(199.365)"/><use xlink:href="#DejaVuSans-6c" transform="translate(235.45)"/><use xlink:href="#DejaVuSans-69" transform="translate(263.232)"/><use xlink:href="#DejaVuSans-6e" transform="translate(291.016)"/><use xlink:href="#DejaVuSans-65" transform="translate(354.395)"/><use xlink:href="#DejaVuSans-61" transform="translate(415.918)"/><use xlink:href="#DejaVuSans-72" transform="translate(477.197)"/><use xlink:href="#DejaVuSans-73" transform="translate(550.098)"/><use xlink:href="#DejaVuSans-74" transform="translate(602.197)"/><use xlink:href="#DejaVuSans-61" transform="translate(641.406)"/><use xlink:href="#DejaVuSans-74" transform="translate(702.686)"/><use xlink:href="#DejaVuSans-65" transform="translate(741.895)"/><use xlink:href="#DejaVuSans-66" transform="translate(835.205)"/><use xlink:href="#DejaVuSans-65" transform="translate(870.41)"/><use xlink:href="#DejaVuSans-65" transform="translate(931.934)"/><use xlink:href="#DejaVuSans-64" transform="translate(993.457)"/><use xlink:href="#DejaVuSans-62" transform="translate(1056.93)"/><use xlink:href="#DejaVuSans-61" transform="translate(1120.41)"/><use xlink:href="#DejaVuSans-63" transform="translate(1181.69)"/><use xlink:href="#DejaVuSans-6b" transform="translate(1236.67)"/></g></g></g></g></g><defs><clipPath id="p1aa3a90309"><path d="M36.581 15.118h357.12V281.23H36.581Z"/></clipPath></defs></svg>