<svg xmlns="http://www.w3.org/2000/svg" xmlns:xlink="http://www.w3.org/1999/xlink" width="502.46" height="397.211" viewBox="0 0 376.845 297.908"><defs><style>*{stroke-linejoin:round;stroke-linecap:butt}</style></defs><g id="figure_1"><path id="patch_1" d="M0 297.908h376.845V0H0Z" style="fill:#fff"/><g id="axes_1"><path id="patch_2" d="M19.725 281.23h357.12V15.118H19.725Z" style="fill:#fff"/><g id="matplotlib.axis_1"><g id="xtick_1"><g id="line2d_1"><defs><path id="m38aae5a4a5" d="M0 0v3.5" style="stroke:#000;stroke-width:.8px"/></defs><use xlink:href="#m38aae5a4a5" x="35.958" y="281.23" style="stroke:#000;stroke-width:.8px"/></g><g id="text_1"><g transform="matrix(.1 0 0 -.1 32.776 295.829)"><defs><path id="DejaVuSans-30" d="M2034 4250q-487 0-733-480-245-479-245-1442 0-959 245-1439 246-480 733-480 491 0 736 480 246 480 246 1439 0 963-246 1442-245 480-736 480m0 500q785 0 1199-621 414-620 414-1801 0-1178-414-1799Q2819-91 2034-91q-784 0-1198 620-414 621-414 1799 0 1181 414 1801 414 621 1198 621" transform="scale(.01563)"/></defs><use xlink:href="#DejaVuSans-30"/></g></g></g><g id="xtick_2"><use xlink:href="#m38aae5a4a5" id="line2d_2" x="82.357" y="281.23" style="stroke:#000;stroke-width:.8px"/><g id="text_2"><g transform="matrix(.1 0 0 -.1 79.176 295.829)"><defs><path id="DejaVuSans-35" d="M691 4666h2478v-532H1269V2991q137 47 274 70 138 23 276 23 781 0 1237-428 457-428 457-1159 0-753-469-1171Q2575-91 1722-91q-294 0-599 50Q819 9 494 109v635q281-153 581-228t634-75q541 0 856 284 316 284 316 772 0 487-316 771-315 285-856 285-253 0-505-56-251-56-513-175Z" transform="scale(.01563)"/></defs><use xlink:href="#DejaVuSans-35"/></g></g></g><g id="xtick_3"><use xlink:href="#m38aae5a4a5" id="line2d_3" x="128.757" y="281.23" style="stroke:#000;stroke-width:.8px"/><g id="text_3"><g transform="matrix(.1 0 0 -.1 122.394 295.829)"><defs><path id="DejaVuSans-31" d="M794 531h1031v3560L703 3866v575l1116 225h631V531h1031V0H794Z" transform="scale(.01563)"/></defs><use xlink:href="#DejaVuSans-31"/><use xlink:href="#DejaVuSans-30" transform="translate(63.623)"/></g></g></g><g id="xtick_4"><use xlink:href="#m38aae5a4a5" id="line2d_4" x="175.156" y="281.23" style="stroke:#000;stroke-width:.8px"/><g id="text_4"><g transform="matrix(.1 0 0 -.1 168.794 295.829)"><use xlink:href="#DejaVuSans-31"/><use xlink:href="#DejaVuSans-35" transform="translate(63.623)"/></g></g></g><g id="xtick_5"><use xlink:href="#m38aae5a4a5" id="line2d_5" x="221.556" y="281.23" style="stroke:#000;stroke-width:.8px"/><g id="text_5"><g transform="matrix(.1 0 0 -.1 215.193 295.829)"><defs><path id="DejaVuSans-32" d="M1228 531h2203V0H469v531q359 372 979 998 621 627 780 809 303 340 423 576 121 236 121 464 0 372-261 606-261 235-680 235-297 0-627-103-329-103-704-313v638q381 153 712 231 332 78 607 78 725 0 1156-363 431-362 431-968 0-288-108-546-107-257-392-607-78-91-497-524-418-433-1181-1211" transform="scale(.01563)"/></defs><use xlink:href="#DejaVuSans-32"/><use xlink:href="#DejaVuSans-30" transform="translate(63.623)"/></g></g></g><g id="xtick_6"><use xlink:href="#m38aae5a4a5" id="line2d_6" x="267.955" y="281.23" style="stroke:#000;stroke-width:.8px"/><g id="text_6"><g transform="matrix(.1 0 0 -.1 261.593 295.829)"><use xlink:href="#DejaVuSans-32"/><use xlink:href="#DejaVuSans-35" transform="translate(63.623)"/></g></g></g><g id="xtick_7"><use xlink:href="#m38aae5a4a5" id="line2d_7" x="314.355" y="281.23" style="stroke:#000;stroke-width:.8px"/><g id="text_7"><g transform="matrix(.1 0 0 -.1 307.992 295.829)"><defs><path id="DejaVuSans-33" d="M2597 2516q453-97 707-404 255-306 255-756 0-690-475-1069Q2609-91 1734-91q-293 0-604 58T488 141v609q262-153 574-231 313-78 654-78 593 0 904 234t311 681q0 413-289 645-289 233-804 233h-544v519h569q465 0 712 186t247 536q0 359-255 551-254 193-729 193-260 0-557-57-297-56-653-174v562q360 100 674 150t592 50q719 0 1137-327 419-326 419-882 0-388-222-655t-631-370" transform="scale(.01563)"/></defs><use xlink:href="#DejaVuSans-33"/><use xlink:href="#DejaVuSans-30" transform="translate(63.623)"/></g></g></g><g id="xtick_8"><use xlink:href="#m38aae5a4a5" id="line2d_8" x="360.754" y="281.23" style="stroke:#000;stroke-width:.8px"/><g id="text_8"><g transform="matrix(.1 0 0 -.1 354.392 295.829)"><use xlink:href="#DejaVuSans-33"/><use xlink:href="#DejaVuSans-35" transform="translate(63.623)"/></g></g></g></g><g id="matplotlib.axis_2"><g id="ytick_1"><g id="line2d_9"><defs><path id="m4e091cb756" d="M0 0h-3.5" style="stroke:#000;stroke-width:.8px"/></defs><use xlink:href="#m4e091cb756" x="19.725" y="269.134" style="stroke:#000;stroke-width:.8px"/></g><use xlink:href="#DejaVuSans-30" id="text_9" transform="matrix(.1 0 0 -.1 6.363 272.933)"/></g><g id="ytick_2"><use xlink:href="#m4e091cb756" id="line2d_10" x="19.725" y="222.857" style="stroke:#000;stroke-width:.8px"/><use xlink:href="#DejaVuSans-35" id="text_10" transform="matrix(.1 0 0 -.1 6.363 226.656)"/></g><g id="ytick_3"><use xlink:href="#m4e091cb756" id="line2d_11" x="19.725" y="176.579" style="stroke:#000;stroke-width:.8px"/><g id="text_11"><g transform="matrix(.1 0 0 -.1 0 180.378)"><use xlink:href="#DejaVuSans-31"/><use xlink:href="#DejaVuSans-30" transform="translate(63.623)"/></g></g></g><g id="ytick_4"><use xlink:href="#m4e091cb756" id="line2d_12" x="19.725" y="130.302" style="stroke:#000;stroke-width:.8px"/><g id="text_12"><g transform="matrix(.1 0 0 -.1 0 134.101)"><use xlink:href="#DejaVuSans-31"/><use xlink:href="#DejaVuSans-35" transform="translate(63.623)"/></g></g></g><g id="ytick_5"><use xlink:href="#m4e091cb756" id="line2d_13" x="19.725" y="84.024" style="stroke:#000;stroke-width:.8px"/><g id="text_13"><g transform="matrix(.1 0 0 -.1 0 87.824)"><use xlink:href="#DejaVuSans-32"/><use xlink:href="#DejaVuSans-30" transform="translate(63.623)"/></g></g></g><g id="ytick_6"><use xlink:href="#m4e091cb756" id="line2d_14" x="19.725" y="37.747" style="stroke:#000;stroke-width:.8px"/><g id="text_14"><g transform="matrix(.1 0 0 -.1 0 41.546)"><use xlink:href="#DejaVuSans-32"/><use xlink:href="#DejaVuSans-35" transform="translate(63.623)"/></g></g></g></g><path id="line2d_15" d="m35.958 269.134 3.728-.056 3.723-.19 3.714-.322 3.7-.454 3.681-.584 3.659-.713 3.63-.841 3.6-.97 3.562-1.094 3.522-1.22 3.475-1.345 3.426-1.466 3.372-1.587 3.313-1.704 3.25-1.82 3.184-1.934 3.114-2.046 3.038-2.153 2.96-2.26 2.879-2.363 2.792-2.463 2.704-2.56 2.61-2.655 2.515-2.744 2.416-2.832 2.313-2.915 2.209-2.995 2.101-3.071 1.99-3.144 1.88-3.212 1.763-3.276 1.646-3.337 1.526-3.392 1.404-3.445 1.279-3.49 1.153-3.535 1.027-3.572.902-3.608.776-3.637.652-3.664.525-3.685.394-3.7.255-3.711.112-3.714-.04-3.713-.188-3.706-.74-7.391-1.072-7.366-1.698-11.028-.41-3.685-.254-3.699-.068-3.71.11-3.717.275-3.713.428-3.703.57-3.683.701-3.656.837-3.625.971-3.589 1.11-3.547 1.248-3.501 1.388-3.45 1.524-3.394 1.658-3.333 1.786-3.266 1.913-3.193 2.036-3.116 2.156-3.035 2.273-2.949 2.385-2.857 2.496-2.762 2.603-2.663 2.705-2.56 2.804-2.452 2.897-2.342 2.986-2.228 3.072-2.11 3.152-1.987 3.227-1.864 3.297-1.736 3.363-1.604 3.423-1.472 3.478-1.338 3.529-1.203 3.572-1.068 3.613-.932 3.646-.793 3.674-.65 3.696-.499 3.71-.344 3.72-.182 3.725-.027 3.724.112 7.436.565 7.398.897 11.043 1.662 14.73 2.192 22.123 3.08 7.323 1.45 3.62.91 3.574 1.064 3.51 1.242 3.432 1.444 3.343 1.65 3.244 1.843 3.14 2.025 3.025 2.193 2.904 2.35 2.774 2.496 2.636 2.637 2.49 2.772 2.338 2.9 2.176 3.024 2.01 3.139 1.836 3.242 1.66 3.337 1.476 3.422 1.29 3.496 1.097 3.56.905 3.612.708 3.657.51 3.689.31 3.71.108 3.723-.093 3.723-.293 3.713-.493 3.691-.693 3.66-.89 3.617-1.083 3.564-1.274 3.5-1.462 3.427-1.644 3.344-1.824 3.25-1.996 3.147-2.163 3.036-2.323 2.915-2.478 2.786-2.626 2.648-2.764 2.503-2.895 2.352-3.018 2.193-3.133 2.027-3.237 1.855-3.333 1.679-3.42 1.498-3.494 1.312-3.56 1.121-3.616.928-3.661.733-3.695.536-3.719.336-3.731.136-3.734-.066-3.724-.266-3.705-.465-3.674-.663-3.633-.861-3.581-1.055-3.519-1.246-3.447-1.432-3.364-1.615-3.272-1.795-3.17-1.968-3.059-2.135-2.94-2.296-2.811-2.45-2.675-2.6-2.53-2.738-2.38-2.871-2.22-2.994-2.055-3.11-1.883-3.215-1.706-3.312-1.525-3.4-1.342-3.475-1.153-3.542-.962-3.598-.765-3.645-.566-3.68-.363-3.708-.155-3.723h0" clip-path="url(#p2a46328ccb)" style="fill:none;stroke:#00f;stroke-width:.5px;stroke-linecap:square"/><g id="line2d_16"><defs><path id="me57e7744fd" d="m-1.5 1.5 3-3m-3 0 3 3" style="stroke:red"/></defs><g clip-path="url(#p2a46328ccb)"><use xlink:href="#me57e7744fd" x="35.958" y="269.134" style="fill:red;stroke:red"/><use xlink:href="#me57e7744fd" x="54.425" y="267.542" style="fill:red;stroke:red"/><use xlink:href="#me57e7744fd" x="72.326" y="262.745" style="fill:red;stroke:red"/><use xlink:href="#me57e7744fd" x="89.105" y="254.889" style="fill:red;stroke:red"/><use xlink:href="#me57e7744fd" x="104.243" y="244.22" style="fill:red;stroke:red"/><use xlink:href="#me57e7744fd" x="117.269" y="231.068" style="fill:red;stroke:red"/><use xlink:href="#me57e7744fd" x="127.78" y="215.841" style="fill:red;stroke:red"/><use xlink:href="#me57e7744fd" x="135.451" y="199.011" style="fill:red;stroke:red"/><use xlink:href="#me57e7744fd" x="140.042" y="181.1" style="fill:red;stroke:red"/><use xlink:href="#me57e7744fd" x="141.412" y="162.663" style="fill:red;stroke:red"/><use xlink:href="#me57e7744fd" x="139.518" y="144.273" style="fill:red;stroke:red"/><use xlink:href="#me57e7744fd" x="137.074" y="125.949" style="fill:red;stroke:red"/><use xlink:href="#me57e7744fd" x="138.183" y="107.5" style="fill:red;stroke:red"/><use xlink:href="#me57e7744fd" x="142.844" y="89.612" style="fill:red;stroke:red"/><use xlink:href="#me57e7744fd" x="150.881" y="72.959" style="fill:red;stroke:red"/><use xlink:href="#me57e7744fd" x="161.992" y="58.168" style="fill:red;stroke:red"/><use xlink:href="#me57e7744fd" x="175.759" y="45.796" style="fill:red;stroke:red"/><use xlink:href="#me57e7744fd" x="191.662" y="36.309" style="fill:red;stroke:red"/><use xlink:href="#me57e7744fd" x="209.103" y="30.065" style="fill:red;stroke:red"/><use xlink:href="#me57e7744fd" x="227.425" y="27.298" style="fill:red;stroke:red"/><use xlink:href="#me57e7744fd" x="245.938" y="28.113" style="fill:red;stroke:red"/><use xlink:href="#me57e7744fd" x="264.307" y="30.759" style="fill:red;stroke:red"/><use xlink:href="#me57e7744fd" x="282.676" y="33.406" style="fill:red;stroke:red"/><use xlink:href="#me57e7744fd" x="301.045" y="36.053" style="fill:red;stroke:red"/><use xlink:href="#me57e7744fd" x="318.857" y="41.055" style="fill:red;stroke:red"/><use xlink:href="#me57e7744fd" x="334.706" y="50.582" style="fill:red;stroke:red"/><use xlink:href="#me57e7744fd" x="347.46" y="63.954" style="fill:red;stroke:red"/><use xlink:href="#me57e7744fd" x="356.209" y="80.216" style="fill:red;stroke:red"/><use xlink:href="#me57e7744fd" x="360.329" y="98.209" style="fill:red;stroke:red"/><use xlink:href="#me57e7744fd" x="359.526" y="116.647" style="fill:red;stroke:red"/><use xlink:href="#me57e7744fd" x="353.857" y="134.216" style="fill:red;stroke:red"/><use xlink:href="#me57e7744fd" x="343.727" y="149.661" style="fill:red;stroke:red"/><use xlink:href="#me57e7744fd" x="329.858" y="161.879" style="fill:red;stroke:red"/><use xlink:href="#me57e7744fd" x="313.241" y="170" style="fill:red;stroke:red"/><use xlink:href="#me57e7744fd" x="295.061" y="173.443" style="fill:red;stroke:red"/><use xlink:href="#me57e7744fd" x="276.616" y="171.962" style="fill:red;stroke:red"/><use xlink:href="#me57e7744fd" x="259.223" y="165.664" style="fill:red;stroke:red"/><use xlink:href="#me57e7744fd" x="244.121" y="154.997" style="fill:red;stroke:red"/><use xlink:href="#me57e7744fd" x="232.39" y="140.724" style="fill:red;stroke:red"/><use xlink:href="#me57e7744fd" x="224.867" y="123.862" style="fill:red;stroke:red"/><use xlink:href="#me57e7744fd" x="222.088" y="105.615" style="fill:red;stroke:red"/></g></g><g id="line2d_17"><defs><path id="m575d179395" d="M0 3a3 3 0 1 0-.00011535600561352055-6A3 3 0 0 0 0 3Z" style="stroke:red"/></defs><g clip-path="url(#p2a46328ccb)"><use xlink:href="#m575d179395" x="222.088" y="106.709" style="fill:red;stroke:red"/></g></g><g id="line2d_18"><defs><path id="m77868ce4a5" d="M0 3a3 3 0 1 0-.00011535600561352055-6A3 3 0 0 0 0 3Z" style="stroke:#00f"/></defs><g clip-path="url(#p2a46328ccb)"><use xlink:href="#m77868ce4a5" x="222.088" y="105.615" style="fill:#00f;stroke:#00f"/></g></g><path id="line2d_19" d="m259.208 106.71-.48-5.94-1.43-5.785-2.342-5.48-3.193-5.036-3.961-4.46-4.627-3.768L238 73.26l-5.586-2.112-5.853-1.192-5.968-.24-5.93.718-5.739 1.658-5.397 2.554-4.916 3.385-4.308 4.127-3.589 4.763-2.776 5.276-1.892 5.651-.958 5.881v5.958l.958 5.881 1.892 5.652 2.776 5.275 3.589 4.763 4.308 4.128 4.916 3.384 5.397 2.554 5.738 1.658 5.93.718 5.97-.24 5.852-1.192 5.586-2.112 5.174-2.98 4.627-3.768 3.961-4.46 3.193-5.035 2.341-5.481 1.43-5.785.48-5.939" clip-path="url(#p2a46328ccb)" style="fill:none;stroke-dasharray:5 5;stroke-dashoffset:0;stroke:#000;stroke-width:.5px"/><path id="line2d_20" d="m35.958 259.879.362-1.816.544-1.77.717-1.706.881-1.629 1.033-1.538 1.17-1.436 1.294-1.327 1.401-1.213 1.495-1.097 1.574-.98 1.64-.868 1.693-.758 3.504-1.215 3.608-.866 3.665-.586 3.692-.382 5.557-.34 11.12-.595 5.536-.582 3.666-.578 3.633-.758 3.585-.959 3.52-1.17 3.441-1.39 3.343-1.608 3.23-1.824 3.101-2.032 2.962-2.232 2.81-2.417 2.652-2.59 2.487-2.748 2.317-2.891 2.147-3.02 1.975-3.134 1.803-3.236 1.634-3.324 1.467-3.4 1.303-3.467 1.14-3.522.982-3.57.825-3.61.673-3.64.736-5.504.425-5.537.144-5.55-.098-5.553-.414-7.392-.926-11.068-.723-9.228-.35-7.395-.05-5.553.179-5.55.443-5.535.734-5.504 1.045-5.454.875-3.598 1.021-3.56 1.168-3.513 1.314-3.462 1.46-3.404 1.604-3.338 1.746-3.267 1.884-3.19 2.02-3.106 2.149-3.018 2.276-2.924 2.398-2.825 2.515-2.723 2.627-2.616 2.733-2.505 2.834-2.39 2.93-2.272 3.02-2.152 3.106-2.028 4.805-2.805 4.963-2.514 5.105-2.215 5.228-1.909 5.333-1.596 5.416-1.28 5.482-.971 5.527-.67 5.554-.386 5.566-.126 5.566.105 5.56.302 7.395.653 7.372.869 9.188 1.3 9.158 1.492 9.12 1.71 7.248 1.6 5.39 1.389 5.335 1.59 5.257 1.828 5.156 2.096 3.366 1.559 3.3 1.696 3.222 1.838 3.134 1.982 3.037 2.128 2.928 2.275 2.81 2.42 2.679 2.561 2.54 2.7 2.39 2.83 2.234 2.958 2.067 3.074 1.893 3.184 1.713 3.285 1.526 3.374 1.334 3.454L358 86.645l.939 3.581.736 3.628.532 3.664.327 3.687.12 3.7-.084 3.701-.29 3.69-.493 3.67-.695 3.636-.893 3.593-1.088 3.54-1.28 3.474-1.466 3.4-1.65 3.317-1.826 3.222-1.998 3.12-2.163 3.008-2.322 2.888-2.474 2.76-2.62 2.622-2.755 2.48-2.885 2.329-3.005 2.172-3.118 2.009-3.22 1.84-3.315 1.666-3.4 1.487-3.473 1.304-3.538 1.117-3.593.928-3.638.735-3.672.54-3.695.345-3.71.147-3.71-.05-3.704-.249-3.684-.445-3.656-.64-3.616-.835-3.566-1.026-3.506-1.214-3.436-1.4-3.357-1.58-3.266-1.758-3.168-1.929-3.06-2.095-2.943-2.255-2.818-2.41-2.685-2.556-2.544-2.695-2.396-2.827-2.24-2.951-2.08-3.067-1.912-3.172-1.74-3.27-1.56-3.36-1.378-3.436-1.19-3.507-.999-3.565-.803-3.614-.604-3.653-.4-3.68-.186-3.697h0" clip-path="url(#p2a46328ccb)" style="fill:none;stroke:#000;stroke-width:.75px;stroke-linecap:square"/><path id="patch_3" d="M19.725 281.23V15.118" style="fill:none;stroke:#000;stroke-width:.8px;stroke-linejoin:miter;stroke-linecap:square"/><path id="patch_4" d="M376.845 281.23V15.118" style="fill:none;stroke:#000;stroke-width:.8px;stroke-linejoin:miter;stroke-linecap:square"/><path id="patch_5" d="M19.725 281.23h357.12" style="fill:none;stroke:#000;stroke-width:.8px;stroke-linejoin:miter;stroke-linecap:square"/><path id="patch_6" d="M19.725 15.118h357.12" style="fill:none;stroke:#000;stroke-width:.8px;stroke-linejoin:miter;stroke-linecap:square"/><g id="text_15"><g transform="matrix(.12 0 0 -.12 120.676 9.118)"><defs><path id="DejaVuSans-Bold-50" d="M588 4666h1996q891 0 1367-396 477-395 477-1126 0-735-477-1130-476-395-1367-395h-793V0H588Zm1203-872V2491h665q350 0 541 170t191 483q0 312-191 481t-541 169Z" transform="scale(.01563)"/><path id="DejaVuSans-Bold-75" d="M500 1363v2137h1125v-350q0-284-3-714t-3-573q0-422 22-608t75-271q68-109 179-169 111-59 255-59 350 0 550 269t200 747v1728h1119V0H2900v506q-253-306-536-452-283-145-623-145-607 0-924 372T500 1363" transform="scale(.01563)"/><path id="DejaVuSans-Bold-72" d="M3138 2547q-147 69-293 101-145 33-292 33-431 0-664-277-233-276-233-791V0H538v3500h1118v-575q216 344 495 501 280 158 671 158 56 0 121-5 66-4 191-20Z" transform="scale(.01563)"/><path id="DejaVuSans-Bold-65" d="M4031 1759v-318H1416q40-394 284-591t681-197q353 0 723 105 371 105 762 317V213Q3469 63 3072-14t-794-77q-950 0-1477 483-526 483-526 1355 0 856 517 1346 517 491 1424 491 825 0 1320-497 495-496 495-1328m-1150 372q0 319-186 514-186 196-486 196-325 0-528-183t-253-527Z" transform="scale(.01563)"/><path id="DejaVuSans-Bold-2d" d="M347 2297h1962v-909H347Z" transform="scale(.01563)"/><path id="DejaVuSans-Bold-70" d="M1656 506v-1837H538v4831h1118v-512q232 306 513 451t647 145q647 0 1062-514 416-514 416-1323T3878 423Q3463-91 2816-91q-366 0-647 145-281 146-513 452m744 2266q-359 0-552-264-192-264-192-761t192-761q193-264 552-264t548 262q190 263 190 763t-190 762q-189 263-548 263" transform="scale(.01563)"/><path id="DejaVuSans-Bold-73" d="M3272 3391v-850q-359 150-694 225-334 75-631 75-319 0-474-80-154-80-154-245 0-135 117-207 117-71 420-106l197-28q860-109 1156-359 297-250 297-785 0-559-413-841Q2681-91 1863-91q-347 0-718 55-370 55-761 164v850q335-162 686-244 352-81 714-81 329 0 494 90 166 91 166 270 0 150-114 223t-455 114l-197 25q-747 94-1047 347t-300 769q0 556 381 824 382 269 1169 269 310 0 650-47 341-46 741-146" transform="scale(.01563)"/><path id="DejaVuSans-Bold-69" d="M538 3500h1118V0H538Zm0 1363h1118v-913H538Z" transform="scale(.01563)"/><path id="DejaVuSans-Bold-74" d="M1759 4494v-994h1154v-800H1759V1216q0-244 97-330t385-86h575V0h-960q-662 0-939 276-276 277-276 940v1484H84v800h557v994Z" transform="scale(.01563)"/><path id="DejaVuSans-Bold-63" d="M3366 3391v-913q-228 156-458 231t-477 75q-468 0-729-273t-261-764 261-765q261-273 729-273 263 0 499 78 236 79 436 232V103Q3103 6 2833-42q-270-49-542-49-947 0-1482 486-534 486-534 1352t534 1351q535 486 1482 486 275 0 542-48t533-145" transform="scale(.01563)"/><path id="DejaVuSans-Bold-6f" d="M2203 2784q-372 0-567-267t-195-770 195-771q195-267 567-267 366 0 559 267 194 268 194 771t-194 770q-193 267-559 267m0 800q903 0 1411-488 508-487 508-1349 0-863-508-1351Q3106-91 2203-91q-906 0-1417 487-511 488-511 1351 0 862 511 1349 511 488 1417 488" transform="scale(.01563)"/><path id="DejaVuSans-Bold-6e" d="M4056 2131V0H2931v1631q0 453-20 625t-70 253q-66 110-179 171-112 61-256 61-350 0-550-271-200-270-200-748V0H538v3500h1118v-512q253 306 537 451 285 145 629 145 606 0 920-372 314-371 314-1081" transform="scale(.01563)"/><path id="DejaVuSans-Bold-6c" d="M538 4863h1118V0H538Z" transform="scale(.01563)"/></defs><use xlink:href="#DejaVuSans-Bold-50"/><use xlink:href="#DejaVuSans-Bold-75" transform="translate(73.291)"/><use xlink:href="#DejaVuSans-Bold-72" transform="translate(144.482)"/><use xlink:href="#DejaVuSans-Bold-65" transform="translate(193.799)"/><use xlink:href="#DejaVuSans-Bold-2d" transform="translate(261.621)"/><use xlink:href="#DejaVuSans-Bold-70" transform="translate(303.125)"/><use xlink:href="#DejaVuSans-Bold-75" transform="translate(374.707)"/><use xlink:href="#DejaVuSans-Bold-72" transform="translate(445.898)"/><use xlink:href="#DejaVuSans-Bold-73" transform="translate(495.215)"/><use xlink:href="#DejaVuSans-Bold-75" transform="translate(554.736)"/><use xlink:href="#DejaVuSans-Bold-69" transform="translate(625.928)"/><use xlink:href="#DejaVuSans-Bold-74" transform="translate(660.205)"/><use xlink:href="#DejaVuSans-Bold-63" transform="translate(742.822)"/><use xlink:href="#DejaVuSans-Bold-6f" transform="translate(802.1)"/><use xlink:href="#DejaVuSans-Bold-6e" transform="translate(870.8)"/><use xlink:href="#DejaVuSans-Bold-74" transform="translate(941.992)"/><use xlink:href="#DejaVuSans-Bold-72" transform="translate(989.795)"/><use xlink:href="#DejaVuSans-Bold-6f" transform="translate(1039.11)"/><use xlink:href="#DejaVuSans-Bold-6c" transform="translate(1107.81)"/><use xlink:href="#DejaVuSans-Bold-6c" transform="translate(1142.09)"/><use xlink:href="#DejaVuSans-Bold-65" transform="translate(1176.37)"/><use xlink:href="#DejaVuSans-Bold-72" transform="translate(1244.19)"/></g></g></g></g><defs><clipPath id="p2a46328ccb"><path d="M19.725 15.118h357.12V281.23H19.725Z"/></clipPath></defs></svg>