<svg xmlns="http://www.w3.org/2000/svg" xmlns:xlink="http://www.w3.org/1999/xlink" width="518.016" height="397.211" viewBox="0 0 388.512 297.908"><defs><style>*{stroke-linejoin:round;stroke-linecap:butt}</style></defs><g id="figure_1"><path id="patch_1" d="M0 297.908h388.512V0H0Z" style="fill:#fff"/><g id="axes_1"><path id="patch_2" d="M28.105 281.23h357.12V15.118H28.105Z" style="fill:#fff"/><g id="matplotlib.axis_1"><g id="xtick_1"><g id="line2d_1"><defs><path id="m4d044510cc" d="M0 0v3.5" style="stroke:#000;stroke-width:.8px"/></defs><use xlink:href="#m4d044510cc" x="44.337" y="281.23" style="stroke:#000;stroke-width:.8px"/></g><g id="text_1"><g transform="matrix(.1 0 0 -.1 41.156 295.829)"><defs><path id="DejaVuSans-30" d="M2034 4250q-487 0-733-480-245-479-245-1442 0-959 245-1439 246-480 733-480 491 0 736 480 246 480 246 1439 0 963-246 1442-245 480-736 480m0 500q785 0 1199-621 414-620 414-1801 0-1178-414-1799Q2819-91 2034-91q-784 0-1198 620-414 621-414 1799 0 1181 414 1801 414 621 1198 621" transform="scale(.01563)"/></defs><use xlink:href="#DejaVuSans-30"/></g></g></g><g id="xtick_2"><use xlink:href="#m4d044510cc" id="line2d_2" x="85.769" y="281.23" style="stroke:#000;stroke-width:.8px"/><g id="text_2"><g transform="matrix(.1 0 0 -.1 76.225 295.829)"><defs><path id="DejaVuSans-32" d="M1228 531h2203V0H469v531q359 372 979 998 621 627 780 809 303 340 423 576 121 236 121 464 0 372-261 606-261 235-680 235-297 0-627-103-329-103-704-313v638q381 153 712 231 332 78 607 78 725 0 1156-363 431-362 431-968 0-288-108-546-107-257-392-607-78-91-497-524-418-433-1181-1211" transform="scale(.01563)"/><path id="DejaVuSans-35" d="M691 4666h2478v-532H1269V2991q137 47 274 70 138 23 276 23 781 0 1237-428 457-428 457-1159 0-753-469-1171Q2575-91 1722-91q-294 0-599 50Q819 9 494 109v635q281-153 581-228t634-75q541 0 856 284 316 284 316 772 0 487-316 771-315 285-856 285-253 0-505-56-251-56-513-175Z" transform="scale(.01563)"/></defs><use xlink:href="#DejaVuSans-32"/><use xlink:href="#DejaVuSans-35" transform="translate(63.623)"/><use xlink:href="#DejaVuSans-30" transform="translate(127.246)"/></g></g></g><g id="xtick_3"><use xlink:href="#m4d044510cc" id="line2d_3" x="127.2" y="281.23" style="stroke:#000;stroke-width:.8px"/><g id="text_3"><g transform="matrix(.1 0 0 -.1 117.656 295.829)"><use xlink:href="#DejaVuSans-35"/><use xlink:href="#DejaVuSans-30" transform="translate(63.623)"/><use xlink:href="#DejaVuSans-30" transform="translate(127.246)"/></g></g></g><g id="xtick_4"><use xlink:href="#m4d044510cc" id="line2d_4" x="168.631" y="281.23" style="stroke:#000;stroke-width:.8px"/><g id="text_4"><g transform="matrix(.1 0 0 -.1 159.087 295.829)"><defs><path id="DejaVuSans-37" d="M525 4666h3000v-269L1831 0h-659l1594 4134H525Z" transform="scale(.01563)"/></defs><use xlink:href="#DejaVuSans-37"/><use xlink:href="#DejaVuSans-35" transform="translate(63.623)"/><use xlink:href="#DejaVuSans-30" transform="translate(127.246)"/></g></g></g><g id="xtick_5"><use xlink:href="#m4d044510cc" id="line2d_5" x="210.062" y="281.23" style="stroke:#000;stroke-width:.8px"/><g id="text_5"><g transform="matrix(.1 0 0 -.1 197.337 295.829)"><defs><path id="DejaVuSans-31" d="M794 531h1031v3560L703 3866v575l1116 225h631V531h1031V0H794Z" transform="scale(.01563)"/></defs><use xlink:href="#DejaVuSans-31"/><use xlink:href="#DejaVuSans-30" transform="translate(63.623)"/><use xlink:href="#DejaVuSans-30" transform="translate(127.246)"/><use xlink:href="#DejaVuSans-30" transform="translate(190.87)"/></g></g></g><g id="xtick_6"><use xlink:href="#m4d044510cc" id="line2d_6" x="251.493" y="281.23" style="stroke:#000;stroke-width:.8px"/><g id="text_6"><g transform="matrix(.1 0 0 -.1 238.768 295.829)"><use xlink:href="#DejaVuSans-31"/><use xlink:href="#DejaVuSans-32" transform="translate(63.623)"/><use xlink:href="#DejaVuSans-35" transform="translate(127.246)"/><use xlink:href="#DejaVuSans-30" transform="translate(190.87)"/></g></g></g><g id="xtick_7"><use xlink:href="#m4d044510cc" id="line2d_7" x="292.924" y="281.23" style="stroke:#000;stroke-width:.8px"/><g id="text_7"><g transform="matrix(.1 0 0 -.1 280.2 295.829)"><use xlink:href="#DejaVuSans-31"/><use xlink:href="#DejaVuSans-35" transform="translate(63.623)"/><use xlink:href="#DejaVuSans-30" transform="translate(127.246)"/><use xlink:href="#DejaVuSans-30" transform="translate(190.87)"/></g></g></g><g id="xtick_8"><use xlink:href="#m4d044510cc" id="line2d_8" x="334.356" y="281.23" style="stroke:#000;stroke-width:.8px"/><g id="text_8"><g transform="matrix(.1 0 0 -.1 321.63 295.829)"><use xlink:href="#DejaVuSans-31"/><use xlink:href="#DejaVuSans-37" transform="translate(63.623)"/><use xlink:href="#DejaVuSans-35" transform="translate(127.246)"/><use xlink:href="#DejaVuSans-30" transform="translate(190.87)"/></g></g></g><g id="xtick_9"><use xlink:href="#m4d044510cc" id="line2d_9" x="375.787" y="281.23" style="stroke:#000;stroke-width:.8px"/><g id="text_9"><g transform="matrix(.1 0 0 -.1 363.062 295.829)"><use xlink:href="#DejaVuSans-32"/><use xlink:href="#DejaVuSans-30" transform="translate(63.623)"/><use xlink:href="#DejaVuSans-30" transform="translate(127.246)"/><use xlink:href="#DejaVuSans-30" transform="translate(190.87)"/></g></g></g></g><g id="matplotlib.axis_2"><g id="ytick_1"><g id="line2d_10"><defs><path id="m513efcae23" d="M0 0h-3.5" style="stroke:#000;stroke-width:.8px"/></defs><use xlink:href="#m513efcae23" x="28.105" y="247.184" style="stroke:#000;stroke-width:.8px"/></g><g id="text_10"><g transform="matrix(.1 0 0 -.1 0 250.983)"><defs><path id="DejaVuSans-2212" d="M678 2272h4006v-531H678Z" transform="scale(.01563)"/></defs><use xlink:href="#DejaVuSans-2212"/><use xlink:href="#DejaVuSans-31" transform="translate(83.79)"/><use xlink:href="#DejaVuSans-30" transform="translate(147.412)"/></g></g></g><g id="ytick_2"><use xlink:href="#m513efcae23" id="line2d_11" x="28.105" y="200.85" style="stroke:#000;stroke-width:.8px"/><g id="text_11"><g transform="matrix(.1 0 0 -.1 6.363 204.649)"><defs><path id="DejaVuSans-38" d="M2034 2216q-450 0-708-241-257-241-257-662 0-422 257-663 258-241 708-241t709 242q260 243 260 662 0 421-258 662-257 241-711 241m-631 268q-406 100-633 378-226 279-226 679 0 559 398 884 399 325 1092 325 697 0 1094-325t397-884q0-400-227-679-226-278-629-378 456-106 710-416 255-309 255-755 0-679-414-1042Q2806-91 2034-91q-771 0-1186 362-414 363-414 1042 0 446 256 755 257 310 713 416m-231 997q0-362 226-565 227-203 636-203 407 0 636 203 230 203 230 565 0 363-230 566-229 203-636 203-409 0-636-203-226-203-226-566" transform="scale(.01563)"/></defs><use xlink:href="#DejaVuSans-2212"/><use xlink:href="#DejaVuSans-38" transform="translate(83.79)"/></g></g></g><g id="ytick_3"><use xlink:href="#m513efcae23" id="line2d_12" x="28.105" y="154.516" style="stroke:#000;stroke-width:.8px"/><g id="text_12"><g transform="matrix(.1 0 0 -.1 6.363 158.315)"><defs><path id="DejaVuSans-36" d="M2113 2584q-425 0-674-291-248-290-248-796 0-503 248-796 249-292 674-292t673 292q248 293 248 796 0 506-248 796-248 291-673 291m1253 1979v-575q-238 112-480 171-242 60-480 60-625 0-955-422-329-422-376-1275 184 272 462 417 279 145 613 145 703 0 1111-427 408-426 408-1160 0-719-425-1154Q2819-91 2113-91q-810 0-1238 620-428 621-428 1799 0 1106 525 1764t1409 658q238 0 480-47t505-140" transform="scale(.01563)"/></defs><use xlink:href="#DejaVuSans-2212"/><use xlink:href="#DejaVuSans-36" transform="translate(83.79)"/></g></g></g><g id="ytick_4"><use xlink:href="#m513efcae23" id="line2d_13" x="28.105" y="108.182" style="stroke:#000;stroke-width:.8px"/><g id="text_13"><g transform="matrix(.1 0 0 -.1 6.363 111.982)"><defs><path id="DejaVuSans-34" d="M2419 4116 825 1625h1594Zm-166 550h794V1625h666v-525h-666V0h-628v1100H313v609Z" transform="scale(.01563)"/></defs><use xlink:href="#DejaVuSans-2212"/><use xlink:href="#DejaVuSans-34" transform="translate(83.79)"/></g></g></g><g id="ytick_5"><use xlink:href="#m513efcae23" id="line2d_14" x="28.105" y="61.849" style="stroke:#000;stroke-width:.8px"/><g id="text_14"><g transform="matrix(.1 0 0 -.1 6.363 65.648)"><use xlink:href="#DejaVuSans-2212"/><use xlink:href="#DejaVuSans-32" transform="translate(83.79)"/></g></g></g><g id="ytick_6"><use xlink:href="#m513efcae23" id="line2d_15" x="28.105" y="15.515" style="stroke:#000;stroke-width:.8px"/><use xlink:href="#DejaVuSans-30" id="text_15" transform="matrix(.1 0 0 -.1 14.742 19.314)"/></g></g><path id="line2d_16" d="M44.337 260.099h.166l.166.116.166-.985.331.406.166-5.908.663.058.331-.869h.166l.166-2.548.165-.174.166.695.331.174.166.753.332-.81.165-3.592.332-.058.497-2.085.166.348.165 2.316.166.058.166-7.066.331-1.853.166.058.332.232.331-2.433.166 9.093.165-.753.332.174.166.521.165-.231.166.115.166 5.213.165.232h.166l.166 2.143.166.057.165.522h.166l.166.695h.166l.331.174.166 2.432.165-.058.332-.753.166-5.039.331 4.923.166.174.166-.695.165.348.332-.058.165-1.738.166.869.166 5.097.166.405.165-.174h.166l.166-2.953.165-.174h.166l.166 1.158.166-6.892.165.753.166 2.606.332-.347h.165l.166-4.75.497-.29.166-1.563h.166l.331-9.614.166-.637.497-.058.166-2.549.165.348.166-.405.166-4.923.166 4.865.165.405.166-1.274.166.116.166.29.165-.29.166.173.166-.752.165.637.166-.927.166-5.676.331 4.112.166-.058.166 3.128.165.174.166 1.448.166-.638.166 3.88.331-1.62.166-2.665.166-.347h.165l.166 4.517.166.869.331-.058.166-.58.166-.057.331 10.599.166-.058.166.116.165.29.166.926.331.405.166.29.166 5.386.166.695.165-.58.332.117.165-.29.166.058.166-2.259.166-4.46.165-1.273.166-3.823.166 5.56.331-4.054.166.521.331 5.908.332-.811.166 1.795h.165l.166-1.448.166 2.49.166-5.154h.165l.166.174.166 1.39.331.058.166 1.216.166-1.506.165.174.166.985.332.115.165-.115.166-.87.166-.23.165 5.096.166-.232.166-.463h.166l.165.405.332-.173.165 1.563.166-.058.166 2.143.166 4.286h.165l.166 4.17.166.058.166-.463.331.058.497-7.008h.166l.166-2.433.165.174.332.695.166 5.734.165 1.853.166-.174.166-5.27h.331l.829-5.328.165.405h.332l.166 1.332.165-5.444.166.058.166.29.166-.812.165-3.996.166-.058.166.29.165-6.603.166.406.166-.058.331.231.166.985.166-4.923.166.058.165 1.564.497.116.166.463.166-.058.331-.405.166.29.166 3.185.165-.348.166-1.737.166-.058.166 3.243.331.348.166.405.166 3.36h.331l.166-.117.165.637.166-.29.166.059.166-.58.497.29h.166l.165 4.46h.166l.166-.464.165 6.082.166-.464.166-3.706.331-.29.166-1.1.166 5.618.166-.116.165-1.564.166-.29.166.058.165.927.166-.521h.166l.331.81.166-.81.166-3.475.165-.116.332 1.506.166.405.331 1.506h.166l.166.58h.165l.166 1.563.166.116.165-.753.166.232.166-4.518.166-.753.331-8.456.166-4.98.663 1.447.165-.753.166.87.166 4.053h.166l.165.174.166-.232.166-.868h.165l.166.463.166-4.98.166-.638.165-1.1.332.405.166-.521h.165l.166-.29.166.406.165 1.91.663-2.374.166-.753.166-.058.166-.347h.165l.166-1.506.331 1.564.166-.348.166 4.46h.166l.331 8.108.166 4.576.166 1.158.165-.984.332 1.39.165-.232.166-.869.166-.116.166.406.165-.174.166.232.166 2.374h.165l.166-.463.332 7.066.165.29.332-.522.166.174.165.463.166-.116.166.406.165-2.027.166-.406.166.985.497.753.166-.348.166.174h.165l.166.174.166.637.165-1.216.166 2.78.166.29.166-4.924.165-.116.166 1.1.166-5.327.165-1.506.166.29.332-1.68.165.173h.166l.166.464.166-.406.165-5.212.166.116.166-2.317.165.058.166-4.286.166.116.166-5.502.165-.29.166.058.166.348.331-.406.166.695.331.232.166.405.166-1.158.166.174.165-.58.166-5.212.166.29.166-4.634.331-.637.166-1.042.165 1.274.166-2.722.166-.232.166 5.039.165.058.166-1.159.166 5.676.165 1.39.498-.81.165-.174.166 1.158.166-.695.331.81.332-.23.165.636.166 4.46.166-5.27.331 5.386.332.637.166-4.807.165.115.332-.463.165-4.575.166-.174h.166l.331-.695.166 5.85.166-4.17.165-1.101.166.463.166-4.46.166-.115.165-.985.332-9.614.166.463.331 3.012.166-4.75.165-1.39h.166l.166-2.78.331.812.166-1.159.166.522.166-.464.165 4.865.166.116.166-.058.165-.695.166.232.166 5.212.166.116.331-1.506.166-.115.166 5.038.165-5.733.166-.058.166.695.165 5.212.166-.29.166 1.68.166.116.165.463.166-.81.331 9.73.166-5.85.166 4.691.331.811.332 10.136.166-.58.165-2.027.166-5.328.166 4.518.165 1.042.166.174.166 3.359.331-.29h.166l.166-5.502.331.058.166-.174h.166l.165.116.166-.29.166-4.98.166.116.165-.406.166.695.166-.579.165.116.166 5.155.166-.406.331-1.911.166.29.166-1.39h.166l.165-4.055.166.058.166-.463.331.058.166-5.213.166-.058.331-8.514.166-.173.166-5.27.165.347.166 4.401.166.29.165-6.37.166.057.166-.463.166.29.165-.348.166.116.166 8.34h.166l.165.753.166-4.923.166.115.165.638.166.173.166-.231.166-5.27h.165l.166-.522.663-19.46.331-.232.166-.29.166-5.386.166.464.165 3.59.332.695h.165l.332 10.6.166-.406.331 7.587.166-4.575.166-.174.331-10.715.166-.405.165.926.332-.463.331-9.035.166.347.166-3.359.165.637.166-6.255.166 4.981.166-.058.165-.579.166-.116.332 10.6h.165l.166-.117.331 10.889.332-1.506.331.521.166.695.166 7.182.166-.58.165-4.749.166-.463.497 3.417.166.753.166-.116.165.116.166-.058.497 16.16.166 5.675.166-5.328.165 4.517.166.521h.166l.331 9.093.166.811.166-4.807.165-.521.166 5.502.166.348h.331l.332-9.673.166-.347.165-.058.166-5.502.166-.695.331.347.332.753.165 1.332.166-.463.166-1.853.166.29.165-.522h.166l.166-1.68.331-11.873.166-.926.497-.174.166-5.27h.165l.166-.522.166-5.328.166 5.56.331-10.599.166.232.166-.522.165-5.096.166-1.217.166 5.618.165.116.166-5.386.166-.348h.166l.165.522.332 9.614.166.29.165.637.166 5.85.166-5.271.165.058.166-.116.166 1.564.166-.637.165-1.333.166.116.166-5.096.166-.29.165 5.328.166.116.331-.174.166 5.04.166-5.155.166.115.165.29.166-5.212.166.173.331-.058.332-.695.331 10.252.166-.058.166-5.155.165-.232.166.058.166-5.618.165.116.166 5.502.166-5.096.166.173.165-5.675.498-.522.165-.579.166.29.166 4.98.165.464.332 9.15.166.348.165-.29.166-.057.166 5.502.165-5.328.166.173.166-4.98.166.463.165-.232.166-4.807.166 5.444.166-4.575.165-.174.332 11.526.165-5.56.166-.116.166.637.166-5.444.165.057.332-10.598.331 10.483.166.115.166 4.923.331-10.946.166 4.98.166.117.165 5.212.166-3.996.166.405.166-5.212h.165l.166-.232.331-11.294.332-.173.166-4.981.331.174.166-6.024.165 6.024.166-5.734.166.637.166-5.618.165 5.618.166-.811.166-5.618.166 5.328.165.058.166-.463.166-6.255.165 5.502.166.174.332 10.483.331-.058.166 5.386.166.58.331-10.252.166.174.165-.058.166 5.618.166-4.807.166.058.165-.116.166 3.996.166-5.85.165 5.445.166-.232.166-5.908.497-.173.166-5.502.166 4.69.331-.057.166 5.444.165-5.965.166.81.332 9.673.165-4.923.166 5.676h.166l.166-.753.497.81.331-10.772.166.058.331-10.31.166 5.097.332-.347.331 10.54.166-5.617.331.695.166 4.98.166-.289.165-5.386.166.231.166 5.676.165.116.166.29.497 16.912h.166l.166 5.444.663-21.372h.165l.166 4.865.166.522.166-.116.165 4.923.166-5.908.166-.174.166.29.165-5.965.166-.174.166 5.444.165.058.166 5.907.166-.173.331 10.599.663-20.561.332.985.165 4.807.498-16.275.165 5.212.332-.347.331-.058.166-5.907.166-.406.331.463.166-4.517.166-.116.662 22.993.166-5.444.497-.521.166 5.618.166.81.166-5.502h.165l.166-.173.166-4.923.165-.058.166-.58.166.348.166-.58.165.175.332 10.483.165-.522.166 4.634.166-5.676.166 4.865.165-4.518.166-.173.166.231.166 5.734.165.348.332-.058.331-.522.332.522.331-.348.166 4.402h.166l.165-.116.166-.29.166.058.165-6.313.166 5.27.166-.057.166.347.331-10.888.166-.637.165.058.166 6.023.166.406.166 4.749.165-.348.166.232.332-10.773.165-.173.166.173.166-.115.165.579.166-5.213.166.058.166-5.097.165 4.75.166.405.166 5.155.166-.116.165-.348.166-5.096.166.579.165-5.502h.166l.166 5.154h.166l.165-.115.166-4.634.166.116.166 5.444.165.406.332-11.815.165 5.85.332-10.542.497-.058.331 10.715.166-.405.166-5.734.166.116.165 6.486.166-5.618.166 5.27.166-.115.331-11.12.166.058.331-.58.166 6.082.166-.348.165-5.212.166 4.98.166-.115.166-5.618.165.174.166 5.734.166-5.908.165.29.332-10.541.166.695.165-5.387.166 5.213.166.232h.165l.166-5.792.166 5.386h.166l.165-.579.332 10.31.166-5.735.331 10.773.166-.232.331-11.12.166-.174.166-5.502.165-.984.166-.058.166-4.981.331-.463.166 5.56.166-5.56.331 11.12.166-.753.166 5.386.165-.232.332-10.425.166-.115.331-11.12.663 21.892.166-6.37.165 5.733.166.174.166-.058.165.347.166 5.56h.166l.166.29h.165l.166-5.328.166.347.331-.058.166-5.328.331.29.166.057.332.406.165-5.329.166 5.445.166-.232.331.232.166-5.56.166 5.85.165-.059.166.406.332-11.41.165.116.166-.521.497 16.39.166-.521.331.232.166-5.618.166-.116.166 5.618.165-.116.829-28.206.166 5.444h.165l.332-.347.166 5.444.165-5.502.166.753.166-5.618.663 21.603.165.174.166-5.502h.166l.166-.116.165.174.166 5.502.166-5.734.331-.405.166.115.166 5.502.165-.347.829.29.166-.174.165.231.166 5.445.166.058.331-11.294.166-.174.497 16.564.166.174.166-5.618.331.058.332-11.004.331 10.309.166.058.331-10.773.166-.058.166-5.386.165 5.328h.166l.166.116.165 5.618h.166l.166-5.038.166.29h.165l.166-5.156.332.058.165 5.618.166.174.166.406.331-11.7.166 5.387.166-4.75.165-.347.166-5.502.166-.058.166.29.331 11.177.497-16.911.166-.232.166.116.165.984.166 5.445.166-.116.166.231.331-10.888.166.232.165-.116.166 5.212.166-5.618.166 5.618.331.116.166-.405.165-5.676.166 5.212.497-.463.166-.232.166 5.618.331-10.54.166-.174.166-5.676.165.405.166 5.618.166.174.166-.927.165-.231h.166l.166-5.56.166 5.502.331-10.715.331.58.332 10.946.166-.232.165-.985.332.348.165-.116.332.405.166 5.329.165.579.166-5.155.166-.058.331-11.178.166 5.792.166.116.165 5.907.166.348.332-.405.331-.058.166-5.56.166 5.444.165-.232.166.116.166 5.618.165-.116.332-10.946.166.058.331.29.166.173.166-5.734.165.464.497-.174.332-10.889h.331l.166.174.166 5.444.165.058.166-.29.166 5.155.166-.29.165 5.155.166-.058.166.116.166-.231.165 5.733.166-5.733.166.057.165-.173.332-.637.166 6.197.165.231.663-.752.166 5.27.497-.29.332.637.165.058.166.406.166 5.444.497-.232.497 16.623.332.637.497-16.912.165-.174.166.348.166-5.618h.166l.165-5.676.166-.29.332.058.165-.29.166.116.331-.405.166-5.444.166.173.166-.637.165-5.733.166.29.166 5.675.166-5.444.165-.116.166-5.328.331.231.166 5.27.166-.405.166 5.387.165-5.329.166 5.039.331.405.166-.463.166-.116.166.232.331-11.41.166 5.329.166-.174.331 11.062.331.232.166-.29.166-.058.166-5.502h.165l.332-.174.331.406.166-.232.166.174.165-5.27h.166l.166-.116.166-5.503h.165l.166 5.329.166-5.676.331-.058.166 5.502.331-.405.166-5.56.166.173.331-.057.166.29.166-5.56.165.173.166 5.328.166.232.166-5.966.165.58.166-.174.166.174.166-.174.165.174.166-5.329.166-.174.165.058.332 11.12h.331l.166.464h.332l.165-5.56.166 5.791.166-.057.165 5.502.166.29.332-.175.165 5.734.166-5.56.497.695.166-5.618.663.116.166-5.328.165-.464.166.058.331-.52.166-5.271.166-.174h.166l.165-.58.166.059.166-5.734.166.29.165-5.503.166.116.331 11.062.166-.173.166-5.445.331-.058.166-.29.166 5.677.331-.232.166-5.908.166 6.082.165-5.734.498 16.854.165-5.734.497-.463.166-.29.166 5.56.166-5.444.165-.116.166 5.329.166.057.166 5.445h.165l.166-5.85.166.232h.165l.332-.29h.331l.498 16.738.165.174.166-.463.166.231.165-.174.166.348.166-.058.166.232.165 5.502.166-.174.166-5.502.165 5.444.332.29.166-.58h.165l.166.232.166-.231.166-5.27h.165l.166.115.166 5.676.165.116.166 5.907.166-5.56.331-.058.166-5.502.166.116.166-5.618h.331l.166-.116.663 22.646.165.116.497-17.086.166-.347.166 5.618.166.057.331-10.946.166 5.792.166-.232h.165l.166.116.166 5.502.165-5.502.166 5.444.166-.174.166-5.386.165 5.792.166-.232.166-5.386.166-.405h.165l.166 5.56.166-5.734.165-.116.166-.29.497-.116.332.87.166-.174.33.463.167 5.386.165-.174.166-5.618.166-.347.166-5.444.165-.116.166.058.331 11.236.166.116.332-11.41h.165l.166 5.328.166-5.618h.166l.165-5.328.166-.116.166-5.734.331.116.166.29.166 5.27.165-5.444.332-.174.166 5.966.165.231.166-5.676.331.232.166-5.502.497.463.166-.29.166-.694.165 5.791.332-.347.166-5.502.497.405.166-.116.165.116.166 5.502.166-5.502.165.116.166-.116.166.116.331 11.062.498-.231.165-.174.166 5.676.331-.116.166-5.56.166-.29.166-5.27.331-.406h.166l.166-5.965.165-.232h.166l.331-.231.166-.116.332 11.12.331-.348.331.058.166-.116.332.232.165-5.328.166-.116.166-5.618.166 5.502.165-.116.166-5.386.166 5.444.165-5.734.332.29.166-5.676.165.058.166-5.56.332.116h.165l.166-5.676.331.405h.332l.166-.116.165.174.166-5.444.166-.058.165 5.444.166.116.166 5.792h.497l.332-10.947.331-.115.166.058.165-.29.166.058.166-.174h.166l.165-.347.332.058.166-5.503h.165l.166-.231.166-5.618h.331l.332-.116.165-5.444.166 5.791.166-.115.331.115h.166l.166-.29.165 5.387.166-.116.332.058.165-.29.166.174.166 5.676.165-5.502.166-.116.166-5.791.166 5.618.331.231.332 10.947.331.29.166 5.617.165-5.039.498.058.828.058.497.348.663-.174.166-5.792h.166l.331-.116.332.116.165-5.502h.332l.331-.116.166.116.166-5.676.331.116.166.058.166-5.618.331-.174.332-11.236.331-.29.166-5.617.331-.464.332-.058.165.232h.166l.331-.116h.166l.663-.405.166 5.56.166-.058.497.232h.331l.166-.116.331 11.004.498-.058h.165l.166-.231h.331l.166 5.675.332.116h.331l.332-.116.331.058.166-.173.165 5.386h.332l.331 11.294h.166l.331.173.83.058.165-5.675.166.173h.331l.331-.116h.332l.331-11.004.498.058h.165l.497-.232.166-5.56.166-.173.828.058.332.057.166 5.503.165-5.503h.332l.331-11.41h.497l.332-.115.497-.058.332 11.294.165-.116.166.232h.166l.497.231h.166l.165.116.498-.058h.165l.332.116h.165l.166-.116.166 5.676.497-.058.829-.174.331.116h.166l.331-.116.166.058.166-.173h.994l.332-11.468.165.116.166-.232h.166l.497-.231h.166l.331-.116h.166l.331.116.332-.116.331.058.166-5.676h1.16l.166-5.502.165-.116.166 5.502.994-.058.166 5.734h.995l.331-.116h.166l.331.116h.829l.331-.116.829.058.166.116.165 5.502h1.16l.166-5.502h.994l.166-5.734h.166l.331.116h.995l.331-.116h1.823l.332-.232.165-5.502h1.989" clip-path="url(#p4f81df21a1)" style="fill:none;stroke:#1f77b4;stroke-width:.5px;stroke-linecap:square"/><path id="patch_3" d="M28.105 281.23V15.118" style="fill:none;stroke:#000;stroke-width:.8px;stroke-linejoin:miter;stroke-linecap:square"/><path id="patch_4" d="M28.105 281.23h357.12" style="fill:none;stroke:#000;stroke-width:.8px;stroke-linejoin:miter;stroke-linecap:square"/><g id="text_16"><g transform="matrix(.12 0 0 -.12 32.518 9.118)"><defs><path id="DejaVuSans-Bold-53" d="M3834 4519v-988q-384 172-750 259-365 88-690 88-431 0-638-119-206-118-206-368 0-188 139-293 139-104 505-179l512-103q778-157 1106-476 329-318 329-906 0-771-458-1148T2284-91q-443 0-890 85-447 84-894 250v1015q447-237 864-358 417-120 805-120 394 0 603 131 209 132 209 376 0 218-142 337t-567 213l-466 103q-700 150-1024 478-323 328-323 884 0 697 450 1072t1294 375q385 0 791-58t840-173" transform="scale(.01563)"/><path id="DejaVuSans-Bold-75" d="M500 1363v2137h1125v-350q0-284-3-714t-3-573q0-422 22-608t75-271q68-109 179-169 111-59 255-59 350 0 550 269t200 747v1728h1119V0H2900v506q-253-306-536-452-283-145-623-145-607 0-924 372T500 1363" transform="scale(.01563)"/><path id="DejaVuSans-Bold-6d" d="M3781 2919q213 325 505 495t642 170q603 0 919-372 316-371 316-1081V0H5038v1825q3 41 4 84 2 44 2 125 0 372-110 539-109 168-353 168-318 0-492-263-173-262-180-759V0H2784v1825q0 581-100 748-100 168-356 168-322 0-497-264t-175-755V0H531v3500h1125v-512q207 296 474 446t589 150q362 0 640-175 279-175 422-490" transform="scale(.01563)"/><path id="DejaVuSans-Bold-6f" d="M2203 2784q-372 0-567-267t-195-770 195-771q195-267 567-267 366 0 559 267 194 268 194 771t-194 770q-193 267-559 267m0 800q903 0 1411-488 508-487 508-1349 0-863-508-1351Q3106-91 2203-91q-906 0-1417 487-511 488-511 1351 0 862 511 1349 511 488 1417 488" transform="scale(.01563)"/><path id="DejaVuSans-Bold-66" d="M2841 4863v-735h-619q-238 0-332-86-93-86-93-298v-244h956v-800h-956V0H678v2700H122v800h556v244q0 572 319 845 319 274 987 274Z" transform="scale(.01563)"/><path id="DejaVuSans-Bold-72" d="M3138 2547q-147 69-293 101-145 33-292 33-431 0-664-277-233-276-233-791V0H538v3500h1118v-575q216 344 495 501 280 158 671 158 56 0 121-5 66-4 191-20Z" transform="scale(.01563)"/><path id="DejaVuSans-Bold-65" d="M4031 1759v-318H1416q40-394 284-591t681-197q353 0 723 105 371 105 762 317V213Q3469 63 3072-14t-794-77q-950 0-1477 483-526 483-526 1355 0 856 517 1346 517 491 1424 491 825 0 1320-497 495-496 495-1328m-1150 372q0 319-186 514-186 196-486 196-325 0-528-183t-253-527Z" transform="scale(.01563)"/><path id="DejaVuSans-Bold-77" d="M225 3500h1088l587-2412 591 2412h934l588-2387 590 2387h1088L4769 0H3547l-591 2406L2369 0H1147Z" transform="scale(.01563)"/><path id="DejaVuSans-Bold-61" d="M2106 1575q-350 0-527-119-176-118-176-350 0-212 142-333 143-120 396-120 315 0 531 226 216 227 216 568v128Zm1710 422V0H2688v519q-225-319-507-465-281-145-684-145-544 0-883 317-339 318-339 824 0 616 423 903 424 288 1330 288h660v87q0 266-210 389-209 124-653 124-359 0-669-72-309-72-575-216v853q360 88 722 133 363 45 725 45 947 0 1367-373 421-373 421-1214" transform="scale(.01563)"/><path id="DejaVuSans-Bold-64" d="M2919 2988v1875h1125V0H2919v506q-231-309-510-453-278-144-643-144-647 0-1063 514-415 515-415 1324t415 1323q416 514 1063 514 362 0 642-145t511-451M2181 722q360 0 549 262 189 263 189 763t-189 762q-189 263-549 263-356 0-545-263-189-262-189-762t189-763q189-262 545-262" transform="scale(.01563)"/><path id="DejaVuSans-Bold-73" d="M3272 3391v-850q-359 150-694 225-334 75-631 75-319 0-474-80-154-80-154-245 0-135 117-207 117-71 420-106l197-28q860-109 1156-359 297-250 297-785 0-559-413-841Q2681-91 1863-91q-347 0-718 55-370 55-761 164v850q335-162 686-244 352-81 714-81 329 0 494 90 166 91 166 270 0 150-114 223t-455 114l-197 25q-747 94-1047 347t-300 769q0 556 381 824 382 269 1169 269 310 0 650-47 341-46 741-146" transform="scale(.01563)"/><path id="DejaVuSans-Bold-63" d="M3366 3391v-913q-228 156-458 231t-477 75q-468 0-729-273t-261-764 261-765q261-273 729-273 263 0 499 78 236 79 436 232V103Q3103 6 2833-42q-270-49-542-49-947 0-1482 486-534 486-534 1352t534 1351q535 486 1482 486 275 0 542-48t533-145" transform="scale(.01563)"/><path id="DejaVuSans-Bold-68" d="M4056 2131V0H2931v1625q0 459-20 631t-70 253q-66 110-179 171-112 61-256 61-350 0-550-271-200-270-200-748V0H538v4863h1118V2988q253 306 537 451 285 145 629 145 606 0 920-372 314-371 314-1081" transform="scale(.01563)"/><path id="DejaVuSans-Bold-70" d="M1656 506v-1837H538v4831h1118v-512q232 306 513 451t647 145q647 0 1062-514 416-514 416-1323T3878 423Q3463-91 2816-91q-366 0-647 145-281 146-513 452m744 2266q-359 0-552-264-192-264-192-761t192-761q193-264 552-264t548 262q190 263 190 763t-190 762q-189 263-548 263" transform="scale(.01563)"/><path id="DejaVuSans-Bold-69" d="M538 3500h1118V0H538Zm0 1363h1118v-913H538Z" transform="scale(.01563)"/><path id="DejaVuSans-Bold-28" d="M2413-844h-929Q1006-72 778 623q-228 696-228 1380 0 685 229 1386 230 702 705 1467h929q-400-740-600-1448t-200-1399q0-690 198-1400 198-709 602-1453" transform="scale(.01563)"/><path id="DejaVuSans-Bold-76" d="M97 3500h1119l872-2419 868 2419h1122L2700 0H1472Z" transform="scale(.01563)"/><path id="DejaVuSans-Bold-67" d="M2919 594q-231-306-510-450Q2131 0 1766 0 1125 0 706 504q-418 505-418 1287 0 784 418 1285 419 502 1060 502 365 0 643-144 279-143 510-453v519h1125V353q0-844-533-1289t-1545-445q-328 0-635 50-306 50-615 153v872q293-169 574-252 282-83 566-83 550 0 806 241 257 241 257 753Zm-738 2178q-347 0-541-257-193-256-193-724 0-482 187-730 188-248 547-248 350 0 544 256t194 722q0 468-194 724-194 257-544 257" transform="scale(.01563)"/><path id="DejaVuSans-Bold-34" d="M2356 3675 1038 1722h1318Zm-200 991h1338V1722h665V850h-665V0H2356v850H288v1031Z" transform="scale(.01563)"/><path id="DejaVuSans-Bold-30" d="M2944 2338q0 875-164 1232-164 358-552 358-387 0-553-358-166-357-166-1232 0-885 166-1248 166-362 553-362 385 0 550 362 166 363 166 1248m1203-10q0-1159-500-1789T2228-91q-922 0-1422 630T306 2328q0 1163 500 1792 500 630 1422 630 919 0 1419-630 500-629 500-1792" transform="scale(.01563)"/><path id="DejaVuSans-Bold-29" d="M513-844q400 744 600 1453 200 710 200 1400 0 691-200 1399T513 4856h928q475-765 704-1467 230-701 230-1386 0-684-228-1380-228-695-706-1467Z" transform="scale(.01563)"/></defs><use xlink:href="#DejaVuSans-Bold-53"/><use xlink:href="#DejaVuSans-Bold-75" transform="translate(72.021)"/><use xlink:href="#DejaVuSans-Bold-6d" transform="translate(143.213)"/><use xlink:href="#DejaVuSans-Bold-6f" transform="translate(282.227)"/><use xlink:href="#DejaVuSans-Bold-66" transform="translate(350.928)"/><use xlink:href="#DejaVuSans-Bold-72" transform="translate(429.248)"/><use xlink:href="#DejaVuSans-Bold-65" transform="translate(478.564)"/><use xlink:href="#DejaVuSans-Bold-77" transform="translate(546.387)"/><use xlink:href="#DejaVuSans-Bold-61" transform="translate(638.77)"/><use xlink:href="#DejaVuSans-Bold-72" transform="translate(706.25)"/><use xlink:href="#DejaVuSans-Bold-64" transform="translate(755.566)"/><use xlink:href="#DejaVuSans-Bold-73" transform="translate(827.148)"/><use xlink:href="#DejaVuSans-Bold-66" transform="translate(921.484)"/><use xlink:href="#DejaVuSans-Bold-6f" transform="translate(964.99)"/><use xlink:href="#DejaVuSans-Bold-72" transform="translate(1033.69)"/><use xlink:href="#DejaVuSans-Bold-65" transform="translate(1117.82)"/><use xlink:href="#DejaVuSans-Bold-61" transform="translate(1185.65)"/><use xlink:href="#DejaVuSans-Bold-63" transform="translate(1253.13)"/><use xlink:href="#DejaVuSans-Bold-68" transform="translate(1312.4)"/><use xlink:href="#DejaVuSans-Bold-65" transform="translate(1418.41)"/><use xlink:href="#DejaVuSans-Bold-70" transform="translate(1486.23)"/><use xlink:href="#DejaVuSans-Bold-69" transform="translate(1557.81)"/><use xlink:href="#DejaVuSans-Bold-73" transform="translate(1592.09)"/><use xlink:href="#DejaVuSans-Bold-6f" transform="translate(1651.61)"/><use xlink:href="#DejaVuSans-Bold-64" transform="translate(1720.31)"/><use xlink:href="#DejaVuSans-Bold-65" transform="translate(1791.9)"/><use xlink:href="#DejaVuSans-Bold-28" transform="translate(1894.53)"/><use xlink:href="#DejaVuSans-Bold-61" transform="translate(1940.23)"/><use xlink:href="#DejaVuSans-Bold-76" transform="translate(2007.72)"/><use xlink:href="#DejaVuSans-Bold-65" transform="translate(2072.9)"/><use xlink:href="#DejaVuSans-Bold-72" transform="translate(2140.72)"/><use xlink:href="#DejaVuSans-Bold-61" transform="translate(2190.04)"/><use xlink:href="#DejaVuSans-Bold-67" transform="translate(2257.52)"/><use xlink:href="#DejaVuSans-Bold-65" transform="translate(2329.1)"/><use xlink:href="#DejaVuSans-Bold-6f" transform="translate(2431.74)"/><use xlink:href="#DejaVuSans-Bold-76" transform="translate(2500.44)"/><use xlink:href="#DejaVuSans-Bold-65" transform="translate(2565.63)"/><use xlink:href="#DejaVuSans-Bold-72" transform="translate(2633.45)"/><use xlink:href="#DejaVuSans-Bold-34" transform="translate(2717.58)"/><use xlink:href="#DejaVuSans-Bold-30" transform="translate(2787.16)"/><use xlink:href="#DejaVuSans-Bold-29" transform="translate(2856.74)"/></g></g></g></g><defs><clipPath id="p4f81df21a1"><path d="M28.105 15.118h357.12V281.23H28.105Z"/></clipPath></defs></svg>