<svg version="1.1" xmlns="http://www.w3.org/2000/svg" xmlns:xlink="http://www.w3.org/1999/xlink" width="800" height="800"><defs/><g transform="scale(2,2)"><g id="background-6f710f67"><rect fill="white" stroke="none" x="0" y="0" width="400" height="400" class="dcg-svg-background"/></g><g id="graphpaper-6f710f67"><g id="grid-6f710f67"><g><path fill="none" stroke="rgb(0,0,0)" class="dcg-svg-minor-gridline" paint-order="fill stroke markers" d=" M 12.5 0 L 12.5 400" stroke-opacity="0.2" stroke-miterlimit="10" stroke-dasharray=""/><path fill="none" stroke="rgb(0,0,0)" class="dcg-svg-minor-gridline" paint-order="fill stroke markers" d=" M 38.5 0 L 38.5 400" stroke-opacity="0.2" stroke-miterlimit="10" stroke-dasharray=""/><path fill="none" stroke="rgb(0,0,0)" class="dcg-svg-minor-gridline" paint-order="fill stroke markers" d=" M 64.5 0 L 64.5 400" stroke-opacity="0.2" stroke-miterlimit="10" stroke-dasharray=""/><path fill="none" stroke="rgb(0,0,0)" class="dcg-svg-minor-gridline" paint-order="fill stroke markers" d=" M 90.5 0 L 90.5 400" stroke-opacity="0.2" stroke-miterlimit="10" stroke-dasharray=""/><path fill="none" stroke="rgb(0,0,0)" class="dcg-svg-minor-gridline" paint-order="fill stroke markers" d=" M 116.5 0 L 116.5 400" stroke-opacity="0.2" stroke-miterlimit="10" stroke-dasharray=""/><path fill="none" stroke="rgb(0,0,0)" class="dcg-svg-minor-gridline" paint-order="fill stroke markers" d=" M 142.5 0 L 142.5 400" stroke-opacity="0.2" stroke-miterlimit="10" stroke-dasharray=""/><path fill="none" stroke="rgb(0,0,0)" class="dcg-svg-minor-gridline" paint-order="fill stroke markers" d=" M 168.5 0 L 168.5 400" stroke-opacity="0.2" stroke-miterlimit="10" stroke-dasharray=""/><path fill="none" stroke="rgb(0,0,0)" class="dcg-svg-minor-gridline" paint-order="fill stroke markers" d=" M 220.5 0 L 220.5 400" stroke-opacity="0.2" stroke-miterlimit="10" stroke-dasharray=""/><path fill="none" stroke="rgb(0,0,0)" class="dcg-svg-minor-gridline" paint-order="fill stroke markers" d=" M 245.5 0 L 245.5 400" stroke-opacity="0.2" stroke-miterlimit="10" stroke-dasharray=""/><path fill="none" stroke="rgb(0,0,0)" class="dcg-svg-minor-gridline" paint-order="fill stroke markers" d=" M 271.5 0 L 271.5 400" stroke-opacity="0.2" stroke-miterlimit="10" stroke-dasharray=""/><path fill="none" stroke="rgb(0,0,0)" class="dcg-svg-minor-gridline" paint-order="fill stroke markers" d=" M 297.5 0 L 297.5 400" stroke-opacity="0.2" stroke-miterlimit="10" stroke-dasharray=""/><path fill="none" stroke="rgb(0,0,0)" class="dcg-svg-minor-gridline" paint-order="fill stroke markers" d=" M 323.5 0 L 323.5 400" stroke-opacity="0.2" stroke-miterlimit="10" stroke-dasharray=""/><path fill="none" stroke="rgb(0,0,0)" class="dcg-svg-minor-gridline" paint-order="fill stroke markers" d=" M 349.5 0 L 349.5 400" stroke-opacity="0.2" stroke-miterlimit="10" stroke-dasharray=""/><path fill="none" stroke="rgb(0,0,0)" class="dcg-svg-minor-gridline" paint-order="fill stroke markers" d=" M 375.5 0 L 375.5 400" stroke-opacity="0.2" stroke-miterlimit="10" stroke-dasharray=""/><path fill="none" stroke="rgb(0,0,0)" class="dcg-svg-minor-gridline" paint-order="fill stroke markers" d=" M 0 382.5 L 400 382.5" stroke-opacity="0.2" stroke-miterlimit="10" stroke-dasharray=""/><path fill="none" stroke="rgb(0,0,0)" class="dcg-svg-minor-gridline" paint-order="fill stroke markers" d=" M 0 362.5 L 400 362.5" stroke-opacity="0.2" stroke-miterlimit="10" stroke-dasharray=""/><path fill="none" stroke="rgb(0,0,0)" class="dcg-svg-minor-gridline" paint-order="fill stroke markers" d=" M 0 342.5 L 400 342.5" stroke-opacity="0.2" stroke-miterlimit="10" stroke-dasharray=""/><path fill="none" stroke="rgb(0,0,0)" class="dcg-svg-minor-gridline" paint-order="fill stroke markers" d=" M 0 322.5 L 400 322.5" stroke-opacity="0.2" stroke-miterlimit="10" stroke-dasharray=""/><path fill="none" stroke="rgb(0,0,0)" class="dcg-svg-minor-gridline" paint-order="fill stroke markers" d=" M 0 302.5 L 400 302.5" stroke-opacity="0.2" stroke-miterlimit="10" stroke-dasharray=""/><path fill="none" stroke="rgb(0,0,0)" class="dcg-svg-minor-gridline" paint-order="fill stroke markers" d=" M 0 282.5 L 400 282.5" stroke-opacity="0.2" stroke-miterlimit="10" stroke-dasharray=""/><path fill="none" stroke="rgb(0,0,0)" class="dcg-svg-minor-gridline" paint-order="fill stroke markers" d=" M 0 262.5 L 400 262.5" stroke-opacity="0.2" stroke-miterlimit="10" stroke-dasharray=""/><path fill="none" stroke="rgb(0,0,0)" class="dcg-svg-minor-gridline" paint-order="fill stroke markers" d=" M 0 242.5 L 400 242.5" stroke-opacity="0.2" stroke-miterlimit="10" stroke-dasharray=""/><path fill="none" stroke="rgb(0,0,0)" class="dcg-svg-minor-gridline" paint-order="fill stroke markers" d=" M 0 222.5 L 400 222.5" stroke-opacity="0.2" stroke-miterlimit="10" stroke-dasharray=""/><path fill="none" stroke="rgb(0,0,0)" class="dcg-svg-minor-gridline" paint-order="fill stroke markers" d=" M 0 182.5 L 400 182.5" stroke-opacity="0.2" stroke-miterlimit="10" stroke-dasharray=""/><path fill="none" stroke="rgb(0,0,0)" class="dcg-svg-minor-gridline" paint-order="fill stroke markers" d=" M 0 162.5 L 400 162.5" stroke-opacity="0.2" stroke-miterlimit="10" stroke-dasharray=""/><path fill="none" stroke="rgb(0,0,0)" class="dcg-svg-minor-gridline" paint-order="fill stroke markers" d=" M 0 142.5 L 400 142.5" stroke-opacity="0.2" stroke-miterlimit="10" stroke-dasharray=""/><path fill="none" stroke="rgb(0,0,0)" class="dcg-svg-minor-gridline" paint-order="fill stroke markers" d=" M 0 122.5 L 400 122.5" stroke-opacity="0.2" stroke-miterlimit="10" stroke-dasharray=""/><path fill="none" stroke="rgb(0,0,0)" class="dcg-svg-minor-gridline" paint-order="fill stroke markers" d=" M 0 102.5 L 400 102.5" stroke-opacity="0.2" stroke-miterlimit="10" stroke-dasharray=""/><path fill="none" stroke="rgb(0,0,0)" class="dcg-svg-minor-gridline" paint-order="fill stroke markers" d=" M 0 82.5 L 400 82.5" stroke-opacity="0.2" stroke-miterlimit="10" stroke-dasharray=""/><path fill="none" stroke="rgb(0,0,0)" class="dcg-svg-minor-gridline" paint-order="fill stroke markers" d=" M 0 62.5 L 400 62.5" stroke-opacity="0.2" stroke-miterlimit="10" stroke-dasharray=""/><path fill="none" stroke="rgb(0,0,0)" class="dcg-svg-minor-gridline" paint-order="fill stroke markers" d=" M 0 42.5 L 400 42.5" stroke-opacity="0.2" stroke-miterlimit="10" stroke-dasharray=""/><path fill="none" stroke="rgb(0,0,0)" class="dcg-svg-minor-gridline" paint-order="fill stroke markers" d=" M 0 22.5 L 400 22.5" stroke-opacity="0.2" stroke-miterlimit="10" stroke-dasharray=""/><path fill="none" stroke="rgb(0,0,0)" class="dcg-svg-minor-gridline" paint-order="fill stroke markers" d=" M 0 2.5 L 400 2.5" stroke-opacity="0.2" stroke-miterlimit="10" stroke-dasharray=""/><path fill="none" stroke="rgb(0,0,0)" class="dcg-svg-major-gridline" paint-order="fill stroke markers" d=" M 90.5 0 L 90.5 400" stroke-opacity="0.2500000000000001" stroke-miterlimit="10" stroke-dasharray=""/><path fill="none" stroke="rgb(0,0,0)" class="dcg-svg-major-gridline" paint-order="fill stroke markers" d=" M 297.5 0 L 297.5 400" stroke-opacity="0.2500000000000001" stroke-miterlimit="10" stroke-dasharray=""/><path fill="none" stroke="rgb(0,0,0)" class="dcg-svg-major-gridline" paint-order="fill stroke markers" d=" M 0 362.5 L 400 362.5" stroke-opacity="0.2500000000000001" stroke-miterlimit="10" stroke-dasharray=""/><path fill="none" stroke="rgb(0,0,0)" class="dcg-svg-major-gridline" paint-order="fill stroke markers" d=" M 0 282.5 L 400 282.5" stroke-opacity="0.2500000000000001" stroke-miterlimit="10" stroke-dasharray=""/><path fill="none" stroke="rgb(0,0,0)" class="dcg-svg-major-gridline" paint-order="fill stroke markers" d=" M 0 122.5 L 400 122.5" stroke-opacity="0.2500000000000001" stroke-miterlimit="10" stroke-dasharray=""/><path fill="none" stroke="rgb(0,0,0)" class="dcg-svg-major-gridline" paint-order="fill stroke markers" d=" M 0 42.5 L 400 42.5" stroke-opacity="0.2500000000000001" stroke-miterlimit="10" stroke-dasharray=""/></g></g><g id="axis-6f710f67"><g id="yaxis-6f710f67"><title>Y axis</title><g><path fill="none" stroke="rgb(0,0,0)" class="dcg-svg-axis-line" paint-order="fill stroke markers" d=" M 194 0 L 194 400" stroke-opacity="0.9" stroke-miterlimit="10" stroke-width="1.5" stroke-dasharray=""/></g></g><g id="xaxis-6f710f67"><title>X axis</title><g><path fill="none" stroke="rgb(0,0,0)" class="dcg-svg-axis-line" paint-order="fill stroke markers" d=" M 0 202 L 400 202" stroke-opacity="0.9" stroke-miterlimit="10" stroke-width="1.5" stroke-dasharray=""/></g></g><g><g class="dcg-svg-axis-value"><text fill="none" stroke="#ffffff" font-family="Arial" font-size="14px" font-style="normal" font-weight="normal" text-decoration="normal" x="185.211247237389" y="218.12236837029894" text-anchor="middle" stroke-miterlimit="2" stroke-width="3" stroke-dasharray="">0</text><text fill="#000000" stroke="none" font-family="Arial" font-size="14px" font-style="normal" font-weight="normal" text-decoration="normal" x="185.211247237389" y="218.12236837029894" text-anchor="middle">0</text></g><g class="dcg-svg-axis-value"><text fill="none" stroke="#ffffff" font-family="Arial" font-size="14px" font-style="normal" font-weight="normal" text-decoration="normal" x="88.03514214537995" y="218.12236837029894" text-anchor="middle" stroke-miterlimit="2" stroke-width="3" stroke-dasharray="">-200</text><text fill="#000000" stroke="none" font-family="Arial" font-size="14px" font-style="normal" font-weight="normal" text-decoration="normal" x="88.03514214537995" y="218.12236837029894" text-anchor="middle">-200</text></g><g class="dcg-svg-axis-value"><text fill="none" stroke="#ffffff" font-family="Arial" font-size="14px" font-style="normal" font-weight="normal" text-decoration="normal" x="297.83735237708174" y="218.12236837029894" text-anchor="middle" stroke-miterlimit="2" stroke-width="3" stroke-dasharray="">200</text><text fill="#000000" stroke="none" font-family="Arial" font-size="14px" font-style="normal" font-weight="normal" text-decoration="normal" x="297.83735237708174" y="218.12236837029894" text-anchor="middle">200</text></g><g class="dcg-svg-axis-value"><text fill="none" stroke="#ffffff" font-family="Arial" font-size="14px" font-style="normal" font-weight="normal" text-decoration="normal" x="182.87791398352852" y="366.12236837029894" text-anchor="middle" stroke-miterlimit="2" stroke-width="3" stroke-dasharray="">-4</text><text fill="#000000" stroke="none" font-family="Arial" font-size="14px" font-style="normal" font-weight="normal" text-decoration="normal" x="182.87791398352852" y="366.12236837029894" text-anchor="middle">-4</text></g><g class="dcg-svg-axis-value"><text fill="none" stroke="#ffffff" font-family="Arial" font-size="14px" font-style="normal" font-weight="normal" text-decoration="normal" x="182.87791398352852" y="286.12236837029894" text-anchor="middle" stroke-miterlimit="2" stroke-width="3" stroke-dasharray="">-2</text><text fill="#000000" stroke="none" font-family="Arial" font-size="14px" font-style="normal" font-weight="normal" text-decoration="normal" x="182.87791398352852" y="286.12236837029894" text-anchor="middle">-2</text></g><g class="dcg-svg-axis-value"><text fill="none" stroke="#ffffff" font-family="Arial" font-size="14px" font-style="normal" font-weight="normal" text-decoration="normal" x="185.211247237389" y="126.12236837029896" text-anchor="middle" stroke-miterlimit="2" stroke-width="3" stroke-dasharray="">2</text><text fill="#000000" stroke="none" font-family="Arial" font-size="14px" font-style="normal" font-weight="normal" text-decoration="normal" x="185.211247237389" y="126.12236837029896" text-anchor="middle">2</text></g><g class="dcg-svg-axis-value"><text fill="none" stroke="#ffffff" font-family="Arial" font-size="14px" font-style="normal" font-weight="normal" text-decoration="normal" x="185.211247237389" y="46.12236837029895" text-anchor="middle" stroke-miterlimit="2" stroke-width="3" stroke-dasharray="">4</text><text fill="#000000" stroke="none" font-family="Arial" font-size="14px" font-style="normal" font-weight="normal" text-decoration="normal" x="185.211247237389" y="46.12236837029895" text-anchor="middle">4</text></g></g></g></g><g id="expressions-6f710f67"><g id="sketch-6f710f67"><title>Expression 2</title><path fill="#348543" stroke="none" paint-order="stroke fill markers" d="" fill-opacity="0.4"/><g><path fill="none" stroke="#348543" class="dcg-svg-curve" paint-order="fill stroke markers" d=" M 0 231.25408254390246 L 0 231.25408254390246 L 3.90625 237.37500584479147 L 7.421875 242.36944951935703 L 10.7421875 246.57339281182777 L 13.76953125 249.92659684646537 L 16.50390624999997 252.53184130945283 L 19.04296875 254.5709990299763 L 21.38671875 256.1152168394566 L 23.63281250000003 257.2813427483313 L 25.78125 258.10316344499364 L 27.83203125 258.6157889700641 L 29.8828125 258.86040234780876 L 31.93359375000003 258.8358391430157 L 33.984375 258.54221628412444 L 36.03515625 257.98093150661094 L 38.18359375 257.1087624435621 L 40.33203125 255.95033301616425 L 42.57812499999997 254.43976087626544 L 45.01953125000003 252.46059243163492 L 47.65625 249.94361659171344 L 50.48828125 246.82344286941427 L 53.61328125 242.91299394914296 L 57.03125 238.12406402356396 L 60.7421875 232.39110542726115 L 64.84375 225.51362687162563 L 69.7265625 216.76227984188688 L 76.66015624999999 203.72571561237575 L 86.62109374999999 185.04508806452353 L 91.50390624999999 176.46656751003383 L 95.60546875 169.78964462434595 L 99.31640625 164.27838078148295 L 102.73437499999999 159.72440554935866 L 105.859375 156.051883075378 L 108.69140625 153.16413756393376 L 111.32812499999999 150.87601350726945 L 113.76953125 149.11784950107113 L 116.11328125 147.76747219215974 L 118.26171875 146.82735457906938 L 120.41015624999999 146.17711575838396 L 122.4609375 145.82998390653722 L 124.51171874999999 145.75173516650614 L 126.5625 145.9427420264556 L 128.61328125 146.4020952347514 L 130.6640625 147.12760812827878 L 132.8125 148.1693627730623 L 135.05859375 149.56080987357674 L 137.40234375 151.33375054338626 L 139.94140625 153.6116961066449 L 142.67578125 156.46168952046438 L 145.60546875 159.9450229313976 L 148.828125 164.2504847871415 L 152.34375 169.4554698736053 L 156.25 175.77411749174132 L 160.7421875 183.59949887643847 L 166.40625 194.05147633648832 L 182.421875 223.94301623561026 L 186.81640625 231.40836197443338 L 190.72265625 237.51587129047675 L 194.23828125 242.4961569510579 L 197.55859375 246.68509876262766 L 200.5859375 250.0234057917351 L 203.3203125 252.61432763776546 L 205.859375 254.63955824809824 L 208.203125 256.1704739503472 L 210.44921874999997 257.3235285570723 L 212.59765625 258.13261985272885 L 214.6484375 258.632950082178 L 216.69921875 258.86518647210863 L 218.75 258.8282235055925 L 220.80078125 258.522237137764 L 222.8515625 257.94868395821925 L 225 257.06382791620484 L 227.1484375 255.89294625966195 L 229.39453125 254.36967746997172 L 231.8359375 252.3771645132671 L 234.47265625 249.8464112929335 L 237.3046875 246.71229428541503 L 240.4296875 242.78763501728514 L 243.84765625 237.98475348343106 L 247.55859375 232.23873704707438 L 251.66015625 225.34959392042782 L 256.54296875 216.5884425816754 L 263.57421875 203.36018563362177 L 273.2421875 185.22807640522143 L 278.125 176.63755193935387 L 282.2265625 169.9469695131526 L 285.9375 164.42076055437767 L 289.35546875 159.8510524490971 L 292.48046875 156.16267555512283 L 295.3125 153.2594997259644 L 297.94921875 150.95622856895574 L 300.390625 149.18347409378103 L 302.734375 147.81867221560748 L 304.8828125 146.86505023749933 L 307.03125 146.20111011973586 L 309.08203125 145.84078180209355 L 311.1328125 145.74928519494975 L 313.18359375 145.92705585040767 L 315.234375 146.37324752525365 L 317.28515625 147.08573620933623 L 319.43359375 148.1140612747946 L 321.6796875 149.49177838585052 L 324.0234375 151.25081352737618 L 326.5625 153.51427924565377 L 329.296875 156.34947670315674 L 332.2265625 159.81801392683911 L 335.44921875 164.1086297030439 L 338.96484375 169.29932526384397 L 342.87109375 175.60466325073835 L 347.265625 183.243253124631 L 352.83203125 193.4941030824716 L 369.43359375 224.45158498780702 L 373.828125 231.87994639983856 L 377.63671875 237.8013368475157 L 381.15234375 242.7526657399543 L 384.47265625 246.91095957425074 L 387.5 250.2188576607264 L 390.234375 252.78056232538344 L 392.7734375 254.77739795630043 L 395.1171875 256.2812055209656 L 397.36328125 257.4076332881833 L 399.51171875 258.1908039887993 L 400 258.32820288278054" stroke-linecap="round" stroke-linejoin="round" stroke-miterlimit="10" stroke-width="2.5" stroke-dasharray=""/></g></g><g id="sketch-6f710f67"><title>Expression 3</title><path fill="#2d70b3" stroke="none" paint-order="stroke fill markers" d="" fill-opacity="0.4"/><g><path fill="none" stroke="#2d70b3" class="dcg-svg-curve" paint-order="fill stroke markers" d=" M 147.4224165681468 400 L 147.4224165681468 400 L 147.4224165681468 0" stroke-linecap="round" stroke-linejoin="round" stroke-miterlimit="10" stroke-width="2.5" stroke-dasharray=""/></g></g><g id="sketch-6f710f67"><title>Expression 4</title><path fill="#6042a6" stroke="none" paint-order="stroke fill markers" d="" fill-opacity="0.4"/><g><path fill="none" stroke="#6042a6" class="dcg-svg-curve" paint-order="fill stroke markers" d=" M 240.78341120817538 400 L 240.78341120817538 400 L 240.78341120817538 0" stroke-linecap="round" stroke-linejoin="round" stroke-miterlimit="10" stroke-width="2.5" stroke-dasharray=""/></g></g></g><g id="labels-6f710f67"/><g id="labels-6f710f67"/></g></svg>