<svg xmlns="http://www.w3.org/2000/svg" xmlns:xlink="http://www.w3.org/1999/xlink" width="614.4" height="460.8" viewBox="0 0 460.8 345.6"><defs><style>*{stroke-linejoin:round;stroke-linecap:butt}</style></defs><g id="figure_1"><path id="patch_1" d="M0 345.6h460.8V0H0Z" style="fill:#fff"/><g id="axes_1"><path id="patch_2" d="M57.6 307.584h357.12V41.472H57.6Z" style="fill:#fff"/><g id="matplotlib.axis_1"><g id="xtick_1"><g id="line2d_1"><defs><path id="mad63ff288f" d="M0 0v3.5" style="stroke:#000;stroke-width:.8px"/></defs><use xlink:href="#mad63ff288f" x="73.833" y="307.584" style="stroke:#000;stroke-width:.8px"/></g><g id="text_1"><g transform="matrix(.1 0 0 -.1 70.651 322.182)"><defs><path id="DejaVuSans-30" d="M2034 4250q-487 0-733-480-245-479-245-1442 0-959 245-1439 246-480 733-480 491 0 736 480 246 480 246 1439 0 963-246 1442-245 480-736 480m0 500q785 0 1199-621 414-620 414-1801 0-1178-414-1799Q2819-91 2034-91q-784 0-1198 620-414 621-414 1799 0 1181 414 1801 414 621 1198 621" transform="scale(.01563)"/></defs><use xlink:href="#DejaVuSans-30"/></g></g></g><g id="xtick_2"><use xlink:href="#mad63ff288f" id="line2d_2" x="127.987" y="307.584" style="stroke:#000;stroke-width:.8px"/><g id="text_2"><g transform="matrix(.1 0 0 -.1 121.624 322.182)"><defs><path id="DejaVuSans-31" d="M794 531h1031v3560L703 3866v575l1116 225h631V531h1031V0H794Z" transform="scale(.01563)"/></defs><use xlink:href="#DejaVuSans-31"/><use xlink:href="#DejaVuSans-30" transform="translate(63.623)"/></g></g></g><g id="xtick_3"><use xlink:href="#mad63ff288f" id="line2d_3" x="182.141" y="307.584" style="stroke:#000;stroke-width:.8px"/><g id="text_3"><g transform="matrix(.1 0 0 -.1 175.779 322.182)"><defs><path id="DejaVuSans-32" d="M1228 531h2203V0H469v531q359 372 979 998 621 627 780 809 303 340 423 576 121 236 121 464 0 372-261 606-261 235-680 235-297 0-627-103-329-103-704-313v638q381 153 712 231 332 78 607 78 725 0 1156-363 431-362 431-968 0-288-108-546-107-257-392-607-78-91-497-524-418-433-1181-1211" transform="scale(.01563)"/></defs><use xlink:href="#DejaVuSans-32"/><use xlink:href="#DejaVuSans-30" transform="translate(63.623)"/></g></g></g><g id="xtick_4"><use xlink:href="#mad63ff288f" id="line2d_4" x="236.295" y="307.584" style="stroke:#000;stroke-width:.8px"/><g id="text_4"><g transform="matrix(.1 0 0 -.1 229.933 322.182)"><defs><path id="DejaVuSans-33" d="M2597 2516q453-97 707-404 255-306 255-756 0-690-475-1069Q2609-91 1734-91q-293 0-604 58T488 141v609q262-153 574-231 313-78 654-78 593 0 904 234t311 681q0 413-289 645-289 233-804 233h-544v519h569q465 0 712 186t247 536q0 359-255 551-254 193-729 193-260 0-557-57-297-56-653-174v562q360 100 674 150t592 50q719 0 1137-327 419-326 419-882 0-388-222-655t-631-370" transform="scale(.01563)"/></defs><use xlink:href="#DejaVuSans-33"/><use xlink:href="#DejaVuSans-30" transform="translate(63.623)"/></g></g></g><g id="xtick_5"><use xlink:href="#mad63ff288f" id="line2d_5" x="290.45" y="307.584" style="stroke:#000;stroke-width:.8px"/><g id="text_5"><g transform="matrix(.1 0 0 -.1 284.087 322.182)"><defs><path id="DejaVuSans-34" d="M2419 4116 825 1625h1594Zm-166 550h794V1625h666v-525h-666V0h-628v1100H313v609Z" transform="scale(.01563)"/></defs><use xlink:href="#DejaVuSans-34"/><use xlink:href="#DejaVuSans-30" transform="translate(63.623)"/></g></g></g><g id="xtick_6"><use xlink:href="#mad63ff288f" id="line2d_6" x="344.604" y="307.584" style="stroke:#000;stroke-width:.8px"/><g id="text_6"><g transform="matrix(.1 0 0 -.1 338.241 322.182)"><defs><path id="DejaVuSans-35" d="M691 4666h2478v-532H1269V2991q137 47 274 70 138 23 276 23 781 0 1237-428 457-428 457-1159 0-753-469-1171Q2575-91 1722-91q-294 0-599 50Q819 9 494 109v635q281-153 581-228t634-75q541 0 856 284 316 284 316 772 0 487-316 771-315 285-856 285-253 0-505-56-251-56-513-175Z" transform="scale(.01563)"/></defs><use xlink:href="#DejaVuSans-35"/><use xlink:href="#DejaVuSans-30" transform="translate(63.623)"/></g></g></g><g id="xtick_7"><use xlink:href="#mad63ff288f" id="line2d_7" x="398.758" y="307.584" style="stroke:#000;stroke-width:.8px"/><g id="text_7"><g transform="matrix(.1 0 0 -.1 392.396 322.182)"><defs><path id="DejaVuSans-36" d="M2113 2584q-425 0-674-291-248-290-248-796 0-503 248-796 249-292 674-292t673 292q248 293 248 796 0 506-248 796-248 291-673 291m1253 1979v-575q-238 112-480 171-242 60-480 60-625 0-955-422-329-422-376-1275 184 272 462 417 279 145 613 145 703 0 1111-427 408-426 408-1160 0-719-425-1154Q2819-91 2113-91q-810 0-1238 620-428 621-428 1799 0 1106 525 1764t1409 658q238 0 480-47t505-140" transform="scale(.01563)"/></defs><use xlink:href="#DejaVuSans-36"/><use xlink:href="#DejaVuSans-30" transform="translate(63.623)"/></g></g></g><g id="text_8"><g transform="matrix(.1 0 0 -.1 215.831 335.86)"><defs><path id="DejaVuSans-54" d="M-19 4666h3947v-532H2272V0h-634v4134H-19Z" transform="scale(.01563)"/><path id="DejaVuSans-69" d="M603 3500h575V0H603Zm0 1363h575v-729H603Z" transform="scale(.01563)"/><path id="DejaVuSans-6d" d="M3328 2828q216 388 516 572t706 184q547 0 844-383 297-382 297-1088V0h-578v2094q0 503-179 746-178 244-543 244-447 0-707-297-259-296-259-809V0h-578v2094q0 506-178 748t-550 242q-441 0-701-298-259-298-259-808V0H581v3500h578v-544q197 322 472 475t653 153q382 0 649-194 267-193 395-562" transform="scale(.01563)"/><path id="DejaVuSans-65" d="M3597 1894v-281H953q38-594 358-905t892-311q331 0 642 81t618 244V178Q3153 47 2828-22t-659-69q-838 0-1327 487-489 488-489 1320 0 859 464 1363 464 505 1252 505 706 0 1117-455 411-454 411-1235m-575 169q-6 471-264 752-258 282-683 282-481 0-770-272t-333-766Z" transform="scale(.01563)"/><path id="DejaVuSans-5b" d="M550 4863h1325v-447h-750V-397h750v-447H550Z" transform="scale(.01563)"/><path id="DejaVuSans-73" d="M2834 3397v-544q-243 125-506 187-262 63-544 63-428 0-642-131t-214-394q0-200 153-314t616-217l197-44q612-131 870-370t258-667q0-488-386-773Q2250-91 1575-91q-281 0-586 55T347 128v594q319-166 628-249 309-82 613-82 406 0 624 139 219 139 219 392 0 234-158 359-157 125-692 241l-200 47q-534 112-772 345-237 233-237 639 0 494 350 762 350 269 994 269 318 0 599-47 282-46 519-140" transform="scale(.01563)"/><path id="DejaVuSans-5d" d="M1947 4863V-844H622v447h747v4813H622v447Z" transform="scale(.01563)"/></defs><use xlink:href="#DejaVuSans-54"/><use xlink:href="#DejaVuSans-69" transform="translate(57.959)"/><use xlink:href="#DejaVuSans-6d" transform="translate(85.742)"/><use xlink:href="#DejaVuSans-65" transform="translate(183.154)"/><use xlink:href="#DejaVuSans-5b" transform="translate(276.465)"/><use xlink:href="#DejaVuSans-73" transform="translate(315.479)"/><use xlink:href="#DejaVuSans-5d" transform="translate(367.578)"/></g></g></g><g id="matplotlib.axis_2"><g id="ytick_1"><g id="line2d_8"><defs><path id="m123b7383bc" d="M0 0h-3.5" style="stroke:#000;stroke-width:.8px"/></defs><use xlink:href="#m123b7383bc" x="57.6" y="284.849" style="stroke:#000;stroke-width:.8px"/></g><g id="text_9"><g transform="matrix(.1 0 0 -.1 29.495 288.649)"><defs><path id="DejaVuSans-2212" d="M678 2272h4006v-531H678Z" transform="scale(.01563)"/></defs><use xlink:href="#DejaVuSans-2212"/><use xlink:href="#DejaVuSans-31" transform="translate(83.79)"/><use xlink:href="#DejaVuSans-30" transform="translate(147.412)"/></g></g></g><g id="ytick_2"><use xlink:href="#m123b7383bc" id="line2d_9" x="57.6" y="239.009" style="stroke:#000;stroke-width:.8px"/><g id="text_10"><g transform="matrix(.1 0 0 -.1 35.858 242.808)"><defs><path id="DejaVuSans-38" d="M2034 2216q-450 0-708-241-257-241-257-662 0-422 257-663 258-241 708-241t709 242q260 243 260 662 0 421-258 662-257 241-711 241m-631 268q-406 100-633 378-226 279-226 679 0 559 398 884 399 325 1092 325 697 0 1094-325t397-884q0-400-227-679-226-278-629-378 456-106 710-416 255-309 255-755 0-679-414-1042Q2806-91 2034-91q-771 0-1186 362-414 363-414 1042 0 446 256 755 257 310 713 416m-231 997q0-362 226-565 227-203 636-203 407 0 636 203 230 203 230 565 0 363-230 566-229 203-636 203-409 0-636-203-226-203-226-566" transform="scale(.01563)"/></defs><use xlink:href="#DejaVuSans-2212"/><use xlink:href="#DejaVuSans-38" transform="translate(83.79)"/></g></g></g><g id="ytick_3"><use xlink:href="#m123b7383bc" id="line2d_10" x="57.6" y="193.168" style="stroke:#000;stroke-width:.8px"/><g id="text_11"><g transform="matrix(.1 0 0 -.1 35.858 196.968)"><use xlink:href="#DejaVuSans-2212"/><use xlink:href="#DejaVuSans-36" transform="translate(83.79)"/></g></g></g><g id="ytick_4"><use xlink:href="#m123b7383bc" id="line2d_11" x="57.6" y="147.328" style="stroke:#000;stroke-width:.8px"/><g id="text_12"><g transform="matrix(.1 0 0 -.1 35.858 151.127)"><use xlink:href="#DejaVuSans-2212"/><use xlink:href="#DejaVuSans-34" transform="translate(83.79)"/></g></g></g><g id="ytick_5"><use xlink:href="#m123b7383bc" id="line2d_12" x="57.6" y="101.487" style="stroke:#000;stroke-width:.8px"/><g id="text_13"><g transform="matrix(.1 0 0 -.1 35.858 105.286)"><use xlink:href="#DejaVuSans-2212"/><use xlink:href="#DejaVuSans-32" transform="translate(83.79)"/></g></g></g><g id="ytick_6"><use xlink:href="#m123b7383bc" id="line2d_13" x="57.6" y="55.647" style="stroke:#000;stroke-width:.8px"/><use xlink:href="#DejaVuSans-30" id="text_14" transform="matrix(.1 0 0 -.1 44.238 59.446)"/></g><g id="text_15"><g transform="matrix(0 -.1 -.1 0 23.416 209.37)"><defs><path id="DejaVuSans-79" d="M2059-325q-243-625-475-815-231-191-618-191H506v481h338q237 0 368 113 132 112 291 531l103 262L191 3500h609L1894 763l1094 2737h609Z" transform="scale(.01563)"/><path id="DejaVuSans-2d" d="M313 2009h1684v-512H313Z" transform="scale(.01563)"/><path id="DejaVuSans-70" d="M1159 525v-1856H581v4831h578v-531q182 312 458 463 277 152 661 152 638 0 1036-506 399-506 399-1331T3314 415Q2916-91 2278-91q-384 0-661 152-276 152-458 464m1957 1222q0 634-261 995t-717 361q-457 0-718-361t-261-995 261-995 718-361q456 0 717 361t261 995" transform="scale(.01563)"/><path id="DejaVuSans-6f" d="M1959 3097q-462 0-731-361t-269-989 267-989q268-361 733-361 460 0 728 362 269 363 269 988 0 622-269 986-268 364-728 364m0 487q750 0 1178-488 429-487 429-1349 0-859-429-1349Q2709-91 1959-91q-753 0-1180 489-426 490-426 1349 0 862 426 1349 427 488 1180 488" transform="scale(.01563)"/><path id="DejaVuSans-74" d="M1172 4494v-994h1184v-447H1172V1153q0-428 117-550t477-122h590V0h-590q-666 0-919 248-253 249-253 905v1900H172v447h422v994Z" transform="scale(.01563)"/><path id="DejaVuSans-6e" d="M3513 2113V0h-575v2094q0 497-194 743-194 247-581 247-466 0-735-297-269-296-269-809V0H581v3500h578v-544q207 316 486 472 280 156 646 156 603 0 912-373 310-373 310-1098" transform="scale(.01563)"/></defs><use xlink:href="#DejaVuSans-79"/><use xlink:href="#DejaVuSans-2d" transform="translate(57.43)"/><use xlink:href="#DejaVuSans-70" transform="translate(93.514)"/><use xlink:href="#DejaVuSans-6f" transform="translate(156.99)"/><use xlink:href="#DejaVuSans-73" transform="translate(218.172)"/><use xlink:href="#DejaVuSans-69" transform="translate(270.272)"/><use xlink:href="#DejaVuSans-74" transform="translate(298.055)"/><use xlink:href="#DejaVuSans-69" transform="translate(337.264)"/><use xlink:href="#DejaVuSans-6f" transform="translate(365.047)"/><use xlink:href="#DejaVuSans-6e" transform="translate(426.229)"/><use xlink:href="#DejaVuSans-5b" transform="translate(521.395)"/><use xlink:href="#DejaVuSans-6d" transform="translate(560.408)"/><use xlink:href="#DejaVuSans-5d" transform="translate(657.82)"/></g></g></g><path id="line2d_14" d="m73.833 55.647.812-.093 1.354-.432 2.166-.735 1.083-.12 1.083.137 1.083.395 1.354.772 2.979 1.845 1.083.367.812.087.812-.09 1.083-.384 1.084-.637 2.436-1.829 1.354-.85 1.083-.408.813-.104.812.08 1.083.38 1.083.632 4.062 2.713 1.083.29.812.007.812-.174 1.084-.485 1.353-.898 2.708-1.893 1.083-.46.813-.152.812.03.812.21 1.083.524 1.625 1.129 2.166 1.511 1.083.488.812.176.813-.004.812-.186 1.083-.498 1.354-.907 2.708-1.886 1.083-.45.812-.141.812.04.813.22 1.083.534 1.624 1.136 2.167 1.503 1.083.477.812.167.812-.015.813-.196 1.083-.508 1.354-.915 2.437-1.727 1.083-.504.812-.19.812-.011.813.17 1.083.482 1.353.896 2.708 1.899 1.083.466.813.157.812-.026.812-.205 1.083-.519 1.354-.922 2.437-1.719 1.083-.493.813-.181h.812l.812.18 1.083.493 1.354.904 2.708 1.89 1.083.454.812.147.812-.035.813-.215 1.083-.53 1.625-1.133 2.166-1.506 1.083-.483.812-.171.812.01.813.19 1.083.504 1.354.912 2.437 1.73 1.083.509.812.195.812.016.813-.166 1.083-.477 1.354-.892 2.707-1.903 1.083-.47.813-.162.812.02.812.2 1.083.515 1.354.918 2.437 1.723 1.083.498.813.186.812.005.812-.176 1.083-.488 1.354-.9 2.708-1.894 1.083-.46.812-.151.813.03.812.21 1.083.525 1.625 1.13 2.166 1.51 1.083.488.812.176.812-.005.813-.186 1.083-.498 1.354-.908 2.707-1.885 1.084-.449.812-.141.812.04.812.22 1.084.536 1.624 1.136 2.166 1.502 1.083.477.813.166.812-.016.812-.195 1.083-.51 1.354-.915 2.437-1.726 1.083-.503.813-.191.812-.01.812.171 1.083.483 1.354.896 2.708 1.898 1.083.466.812.156.813-.026.812-.206 1.083-.52 1.354-.922 2.437-1.718 1.083-.493.812-.18h.813l.812.181 1.083.494 1.354.904 2.707 1.89 1.084.453.812.146.812-.036.813-.215 1.083-.53 1.624-1.134 2.166-1.506 1.083-.481.813-.171.812.01.812.191 1.083.505 1.354.911 2.437 1.73 1.083.508.813.196.812.015.812-.167 1.083-.477 1.354-.893 2.708-1.902 1.083-.47.812-.162.813.021.812.201 1.083.515 1.354.92 2.437 1.721 1.083.498.812.185.813.005.812-.177 1.083-.488 1.354-.9 2.708-1.894 1.083-.46.812-.15.812.03.813.212 1.083.525 1.624 1.13 2.166 1.51 1.084.487.812.176.812-.006.812-.187 1.084-.499 1.353-.908 2.708-1.884 1.083-.448.813-.141.812.041.812.22 1.083.536 1.625 1.137 2.166 1.502 1.083.475.812.166.813-.016.812-.196 1.083-.51 1.354-.916 2.437-1.725 1.083-.503.812-.19.813-.01.812.172 1.083.483 1.354.897 2.708 1.898 1.083.464.812.156.812-.026.813-.206 1.083-.52 1.354-.924 2.437-1.717 1.083-.493.812-.18.812.001.813.182 1.083.494 1.353.905 2.708 1.888 1.083.454.813.145.812-.036.812-.216 1.083-.53 1.625-1.134 2.166-1.506 1.083-.481.812-.17.813.01.812.192 1.083.505 1.354.912 2.437 1.73 1.083.507.812.195.813.014.812-.167 1.083-.478 1.354-.893.812-.61h0" clip-path="url(#p712605ab99)" style="fill:none;stroke:#1f77b4;stroke-width:1.5px;stroke-linecap:square"/><path id="line2d_15" d="m73.833 55.647.541.211.542.569.812 1.332 1.083 2.316 5.145 11.763 1.895 3.616 1.625 2.663 1.354 1.785 1.083 1.055.812.537.812.302.813.064.812-.164.812-.37 1.083-.748 1.896-1.675 1.624-1.332 1.084-.614.812-.257.812-.061.813.132 1.083.445 1.353.866 2.708 1.862 1.083.454.813.149.812-.033.812-.21 1.083-.524 1.625-1.122 2.166-1.489 1.083-.473.812-.165.813.015.812.196 1.083.509 1.354.915 2.437 1.727 1.083.506.812.192.813.011.812-.17 1.083-.48 1.354-.896 2.708-1.9 1.083-.468.812-.158.812.023.813.204 1.083.517 1.354.921 2.437 1.72 1.083.495.812.183.812.002.813-.18 1.083-.49 1.354-.903 2.707-1.891 1.083-.457.813-.148.812.034.812.213 1.083.529 1.625 1.131 2.166 1.508 1.083.484.813.173.812-.008.812-.19 1.083-.502 1.354-.91 2.437-1.73 1.083-.512.812-.197.813-.017.812.165 1.083.475 1.354.89 2.708 1.905 1.083.472.812.163.812-.018.813-.2 1.083-.512 1.354-.918 2.437-1.723 1.083-.5.812-.188.812-.006.813.174 1.083.486 1.354.9 2.707 1.895 1.083.461.813.153.812-.029.812-.209 1.083-.523 1.625-1.128 2.166-1.512 1.083-.49.813-.177.812.004.812.184 1.083.497 1.354.907 2.708 1.886 1.083.45.812.144.813-.04.812-.218 1.083-.534 1.625-1.135 2.166-1.504 1.083-.478.812-.168.812.014.813.195 1.083.507 1.354.915 2.437 1.727 1.083.505.812.192.812.011.813-.17 1.083-.48 1.354-.895 2.707-1.9 1.083-.467.813-.158.812.025.812.204 1.083.518 1.354.922 2.437 1.719 1.083.494.813.182.812.002.812-.18 1.083-.492 1.354-.903 2.708-1.89 1.083-.456.812-.148.813.034.812.214 1.083.529 1.625 1.132 2.166 1.508 1.083.483.812.172.813-.009.812-.19 1.083-.502 1.354-.91 2.437-1.731 1.083-.51.812-.197.812-.017.813.166 1.083.475 1.354.892 2.707 1.903 1.084.472.812.163.812-.02.812-.2 1.084-.512 1.353-.919 2.437-1.723 1.083-.499.813-.187.812-.006.812.175 1.083.487 1.354.9 2.708 1.894 1.083.461.812.152.813-.03.812-.208 1.083-.524 1.625-1.129 2.166-1.512 1.083-.488.812-.177.813.004.812.185 1.083.498 1.354.907 2.708 1.886 1.083.45.812.142.812-.04.813-.22 1.083-.533 1.624-1.136 2.166-1.503 1.084-.478.812-.167.812.015.813.195 1.083.508 1.353.914 2.437 1.727 1.083.505.813.191.812.011.812-.17 1.083-.482 1.354-.895 2.708-1.9 1.083-.466.812-.157.813.025.812.205 1.083.518 1.354.922 2.437 1.72 1.083.493.812.182h.813l.812-.18 1.083-.492 1.354-.904 2.708-1.89 1.083-.455.812-.147.812.035.813.214 1.083.53 1.624 1.132 2.167 1.507 1.083.483.812.172.812-.01.813-.19 1.083-.503 1.354-.912 2.436-1.73 1.084-.51.812-.195.812-.016.812.166 1.084.476 1.353.891 2.708 1.903 1.083.472.813.162.812-.02.812-.2 1.083-.514 1.354-.918 2.437-1.723 1.083-.499.812-.186.813-.006.812.176 1.083.487 1.354.9 2.708 1.894 1.083.46.812.153.812-.03.813-.21.541-.231h0" clip-path="url(#p712605ab99)" style="fill:none;stroke:#ff7f0e;stroke-width:1.5px;stroke-linecap:square"/><path id="line2d_16" d="m73.833 55.647.27.057.542.454.542.89.541 1.29.812 2.591 1.084 4.403 1.624 7.767 2.979 14.387 1.624 6.688 1.354 4.682 1.354 3.819 1.083 2.416 1.083 1.836.812.988.813.654.812.322h.812l.813-.299.812-.568 1.083-1.104 1.354-1.75 2.708-3.599 1.083-1.07.812-.562.812-.33.813-.097.812.125 1.083.457 1.354.878 2.437 1.636 1.083.441.812.139.813-.04 1.083-.323 1.083-.574 4.332-2.633 1.083-.183.813.07 1.083.363 1.083.616 2.437 1.781 1.353.82 1.084.386.812.087.812-.096 1.083-.397 1.083-.643 4.062-2.693 1.083-.272.812.006.813.187 1.083.5 1.354.91 2.437 1.732 1.083.512.812.199.812.019.813-.164 1.083-.473 1.353-.889 2.708-1.905 1.083-.474.813-.165.812.018.812.197 1.083.511 1.354.917 2.437 1.725 1.083.501.812.19.813.007.812-.173 1.083-.484 1.354-.898 2.708-1.897 1.083-.463.812-.155.812.028.813.207 1.083.522 1.354.924 2.437 1.717 1.083.49.812.18.812-.003.813-.183 1.083-.495 1.354-.906 2.707-1.887 1.083-.452.813-.145.812.038.812.217 1.083.532 1.625 1.134 2.166 1.505 1.083.48.813.17.812-.013.812-.193 1.083-.506 1.354-.913 2.437-1.729 1.083-.506.813-.194.812-.013.812.169 1.083.479 1.354.894 2.708 1.9 1.083.469.812.16.813-.023.812-.203 1.083-.517 1.354-.92 2.437-1.72 1.083-.497.812-.183.812-.003.813.178 1.083.49 1.354.902 2.707 1.892 1.083.458.813.149.812-.033.812-.212 1.084-.528 1.624-1.13 2.166-1.51 1.083-.485.813-.173.812.007.812.188 1.083.501 1.354.91 2.437 1.732 1.083.511.813.198.812.018.812-.163 1.083-.474 1.354-.89 2.708-1.905 1.083-.474.812-.164.813.018.812.198 1.083.512 1.354.917 2.437 1.724 1.083.5.812.19.812.007.813-.174 1.083-.485 1.354-.898 2.707-1.896 1.084-.463.812-.154.812.028.812.208 1.084.522 1.624 1.128 2.166 1.513 1.083.49.813.179.812-.003.812-.184 1.083-.495 1.354-.906 2.708-1.888 1.083-.451.812-.144.813.038.812.218 1.083.532 1.625 1.135 2.166 1.505 1.083.479.812.168.813-.013.812-.193 1.083-.507 1.354-.913 2.437-1.728 1.083-.506.812-.193.813-.013.812.17 1.083.48 1.354.893 2.708 1.9 1.083.469.812.158.812-.023.813-.203 1.083-.517 1.353-.921 2.437-1.72 1.084-.495.812-.184.812-.002.812.18 1.084.49 1.353.902 2.708 1.892 1.083.456.812.149.813-.034.812-.212 1.083-.528 1.625-1.132 2.166-1.508 1.083-.484.812-.174.813.008.812.19 1.083.5 1.354.91 2.437 1.732 1.083.511.812.198.813.017.812-.164 1.083-.475 1.354-.89 2.708-1.904 1.083-.474.812-.163.812.018.813.199 1.083.512 1.354.917 2.436 1.724 1.084.5.812.189.812.007.813-.175 1.083-.485 1.353-.899 2.708-1.895 1.083-.462.813-.154.812.029.812.208 1.083.523 1.625 1.128 2.166 1.512 1.083.49.812.178.813-.003.812-.184 1.083-.497 1.354-.906 2.708-1.887 1.083-.45.812-.144.812.039.813.218 1.083.533 1.624 1.135 2.167 1.504 1.083.478.541.132h0" clip-path="url(#p712605ab99)" style="fill:none;stroke:#2ca02c;stroke-width:1.5px;stroke-linecap:square"/><path id="line2d_17" d="m73.833 55.647.27.057.542.458.542.914.541 1.363.812 2.852.813 3.75 1.083 6.193 1.354 9.15 5.144 36.347 1.354 7.385 1.083 4.866 1.083 3.902.813 2.292.812 1.757.812 1.236.813.732.541.221.542.016.541-.178.542-.362.812-.856.812-1.186 1.083-1.99 1.625-3.517 2.437-5.241 1.083-1.87 1.083-1.404.813-.702.812-.396.812-.1.812.164.813.382 1.354.956 2.437 1.86 1.083.544.812.212.812.031 1.083-.23 1.083-.481 4.062-2.173 1.083-.165.812.074 1.084.357 1.083.606 2.166 1.57 1.354.873 1.083.458.812.152.812-.03.813-.208 1.083-.526 1.354-.933 2.437-1.747 1.083-.51.812-.193.812-.012.813.17 1.083.482 1.354.897 2.707 1.9 1.083.467.813.157.812-.025.812-.205 1.083-.519 1.354-.921 2.437-1.717 1.083-.492.813-.18h.812l.812.182 1.083.494 1.354.904 2.708 1.889 1.083.454.812.145.813-.036.812-.215 1.083-.531 1.625-1.134 2.166-1.506 1.083-.481.812-.17.812.01.813.192 1.083.504 1.354.912 2.437 1.73 1.083.508.812.195.812.014.813-.167 1.083-.477 1.354-.893 2.707-1.902 1.083-.47.813-.16.812.02.812.201 1.083.516 1.354.919 2.437 1.722 1.083.497.813.185.812.005.812-.177 1.083-.489 1.354-.9 2.708-1.894 1.083-.459.812-.15.813.03.812.212 1.083.525 1.625 1.13 2.166 1.51 1.083.487.812.175.812-.006.813-.186 1.083-.5 1.354-.908 2.707-1.884 1.084-.448.812-.14.812.041.812.22 1.084.537 1.624 1.137 2.166 1.501 1.083.476.813.165.812-.016.812-.197 1.083-.51 1.354-.916 2.437-1.725 1.083-.503.813-.19.812-.009.812.172 1.083.484 1.354.897 2.708 1.897 1.083.464.812.156.813-.027.812-.206 1.083-.52 1.354-.924 2.437-1.717 1.083-.492.812-.18.813.001.812.182 1.083.494 1.354.905 2.707 1.889 1.084.453.812.145.812-.037.813-.216 1.083-.53 1.624-1.134 2.166-1.506 1.083-.48.813-.17.812.01.812.192 1.084.505 1.353.913 2.437 1.729 1.083.508.813.194.812.014.812-.168 1.083-.477 1.354-.894 2.708-1.901 1.083-.47.812-.16.813.022.812.201 1.083.516 1.354.92 2.437 1.721 1.083.497.812.185.813.003.812-.177 1.083-.489 1.354-.901 2.708-1.893 1.083-.458.812-.15.812.031.813.212 1.083.526 1.624 1.13 2.166 1.51 1.084.486.812.175.812-.007.812-.187 1.084-.5 1.353-.909 2.437-1.732 1.083-.513.813-.2.812-.018.812.163 1.083.473 1.354.889 2.708 1.905 1.083.475.812.165.813-.017.812-.197 1.083-.51 1.354-.917 2.437-1.725 1.083-.502.812-.189.813-.009.812.173 1.083.484 1.354.897 2.708 1.897 1.083.464.812.155.812-.027.813-.207 1.083-.521 1.354-.924 2.437-1.717 1.083-.49.812-.18.812.001.813.183 1.083.495 1.353.905 2.708 1.888 1.083.453.813.144.812-.037.812-.216 1.083-.532 1.625-1.134 2.166-1.505 1.083-.48.813-.17.812.012.812.192 1.083.506 1.354.913 2.437 1.728 1.083.507.812.194.813.014.812-.168 1.083-.479 1.354-.893 2.708-1.902 1.083-.469.812-.16.812.023.813.202 1.083.516 1.354.92 1.624 1.204h0" clip-path="url(#p712605ab99)" style="fill:none;stroke:#d62728;stroke-width:1.5px;stroke-linecap:square"/><path id="line2d_18" d="m73.833 55.647.27.057.542.458.542.917.541 1.374.812 2.91.813 3.907 1.083 6.676 1.083 8.169 1.354 11.87L83.58 118.4l2.167 20.18L87.1 149.42l1.353 8.943 1.083 5.631.813 3.302.812 2.514.812 1.743.542.748.541.429.542.124.542-.166.541-.44.542-.694.812-1.476.812-1.929 1.083-3.134 1.625-5.469 2.708-9.242 1.354-3.794 1.083-2.337.812-1.283.812-.862.813-.45.541-.085.812.162.813.457 1.083.944 3.79 3.782 1.084.601.812.222.812.03 1.083-.217 1.354-.546 2.437-1.026 1.083-.195 1.083.067 1.083.34 1.084.575 2.166 1.492 1.354.831 1.083.43.812.136.812-.043.813-.222 1.083-.54 1.354-.953 2.436-1.796 1.084-.535.812-.213.812-.03.813.154 1.083.465 1.353.888 2.708 1.925 1.083.488.813.177.812-.006.812-.186 1.083-.499 1.354-.907 2.437-1.726 1.083-.509.812-.196.813-.016.812.166 1.083.475 1.354.891 2.708 1.902 1.083.472.812.162.812-.02.813-.2 1.083-.514 1.354-.918 2.437-1.724 1.083-.499.812-.186.812-.006.813.175 1.083.487 1.354.9 2.707 1.894 1.083.461.813.152.812-.03.812-.209 1.083-.524 1.625-1.129 2.166-1.511 1.083-.489.813-.176.812.004.812.185 1.083.498 1.354.907 2.708 1.886 1.083.45.812.142.813-.04.812-.22 1.083-.534 1.625-1.136 2.166-1.503 1.083-.477.812-.167.813.015.812.195 1.083.508 1.354.915 2.437 1.727 1.083.504.812.191.812.01.813-.17 1.083-.481 1.354-.896 2.707-1.899 1.083-.466.813-.157.812.025.812.205 1.083.519 1.354.922 2.437 1.719 1.083.493.813.182h.812l.812-.18 1.083-.493 1.354-.904 2.708-1.89 1.083-.455.812-.147.813.036.812.214 1.083.53 1.625 1.133 2.166 1.506 1.083.483.812.172.813-.01.812-.19 1.083-.504 1.354-.912 2.437-1.73 1.083-.509.812-.196.812-.015.813.166 1.083.476 1.354.892 2.707 1.903 1.084.471.812.162.812-.02.812-.2 1.084-.515 1.353-.918 2.437-1.723 1.083-.498.813-.187.812-.005.812.176 1.083.488 1.354.9 2.708 1.894 1.083.46.812.152.813-.03.812-.21 1.083-.525 1.625-1.13 2.166-1.51 1.083-.488.812-.177.813.005.812.186 1.083.498 1.354.908 2.708 1.885 1.083.449.812.142.812-.041.813-.22 1.083-.535 1.624-1.136 2.166-1.502 1.084-.477.812-.166.812.015.813.196 1.083.509 1.353.915 2.437 1.726 1.083.504.813.19.812.01.812-.17 1.084-.483 1.353-.896 2.708-1.898 1.083-.466.812-.156.813.025.812.206 1.083.52 1.354.922 2.437 1.718 1.083.493.812.18h.813l.812-.18 1.083-.493 1.354-.905 2.708-1.89 1.083-.453.812-.147.812.036.813.215 1.083.53 1.624 1.133 2.167 1.507 1.083.482.812.17.812-.01.813-.19 1.083-.505 1.354-.911 2.436-1.73 1.084-.509.812-.195.812-.015.812.166 1.084.477 1.353.893 2.708 1.902 1.083.47.813.162.812-.02.812-.201 1.083-.515 1.354-.92 2.437-1.721 1.083-.498.812-.186.813-.005.812.177 1.083.488 1.354.9 2.708 1.894 1.083.46.812.15.812-.03.813-.21 1.083-.526 1.624-1.13 2.167-1.51 1.083-.487.812-.176.812.006.813.186 1.083.499.541.335h0" clip-path="url(#p712605ab99)" style="fill:none;stroke:#9467bd;stroke-width:1.5px;stroke-linecap:square"/><path id="line2d_19" d="m73.833 55.647.27.057.542.458.542.917.541 1.375.812 2.92.813 3.946.812 4.954 1.083 8.124 1.083 9.737 1.354 14.112 1.895 22.264 3.52 41.998 1.354 13.859 1.354 11.548 1.083 7.295.813 4.258.812 3.199.812 2.148.542.863.541.422h.542l.541-.403.542-.783.541-1.137.813-2.307 1.083-4.037 1.354-6.21 2.437-12.699 1.895-9.413 1.354-5.604 1.083-3.512.812-1.988.813-1.409.541-.619.542-.37.541-.136.542.084.541.283.813.744 1.083 1.445 1.895 3.122 1.625 2.521 1.083 1.307.812.717.813.48.812.253.812.057 1.083-.154 3.791-.846 1.083.102 1.083.332 1.354.678 3.25 1.795 1.082.28.813.021.812-.151 1.083-.459 1.354-.902 3.52-2.607 1.083-.422.812-.108.813.08 1.083.385 1.083.643 4.061 2.772 1.083.306.813.018.812-.164 1.083-.474 1.354-.888 2.708-1.885 1.083-.461.812-.154.812.028.813.207 1.083.521 1.625 1.125 2.166 1.51 1.083.487.812.178.812-.004.813-.185 1.083-.497 1.354-.907 2.707-1.888 1.083-.45.813-.145.812.04.812.217 1.083.533 1.625 1.135 2.166 1.505 1.083.479.813.168.812-.013.812-.194 1.083-.506 1.354-.914 2.437-1.728 1.083-.506.813-.192.812-.013.812.17 1.083.48 1.354.894 2.708 1.9 1.083.468.812.158.813-.023.812-.204 1.083-.517 1.354-.921 2.437-1.72 1.083-.495.812-.183.812-.002.813.18 1.083.49 1.354.903 2.707 1.891 1.083.456.813.149.812-.034.812-.213 1.084-.528 1.624-1.132 2.166-1.508 1.083-.484.813-.173.812.008.812.19 1.083.501 1.354.91 2.437 1.731 1.083.511.813.198.812.017.812-.165 1.083-.474 1.354-.891 2.708-1.904 1.083-.473.812-.163.813.018.812.2 1.083.512 1.354.917 2.437 1.724 1.083.5.812.188.813.006.812-.174 1.083-.486 1.354-.899 2.707-1.895 1.084-.462.812-.153.812.029.812.208 1.084.523 1.624 1.128 2.166 1.513 1.083.489.813.178.812-.004.812-.184 1.083-.497 1.354-.906 2.708-1.887 1.083-.45.812-.143.813.039.812.218 1.083.533 1.625 1.136 2.166 1.503 1.083.479.812.167.813-.013.812-.194 1.083-.508 1.354-.914 2.437-1.727 1.083-.505.812-.193.813-.011.812.17 1.083.48 1.354.895 2.708 1.9 1.083.467.812.158.812-.024.813-.204 1.083-.518 1.353-.922 2.437-1.72 1.084-.494.812-.182.812-.002.812.18 1.084.491 1.353.903 2.708 1.891 1.083.456.813.148.812-.034.812-.214 1.083-.528 1.625-1.132 2.166-1.508 1.083-.484.812-.172.813.009.812.19 1.083.502 1.354.91 2.437 1.73 1.083.511.812.197.813.017.812-.165 1.083-.476 1.354-.89 2.708-1.904 1.083-.473.812-.163.812.02.813.199 1.083.513 1.354.918 2.437 1.723 1.083.5.812.187.812.006.813-.175 1.083-.486 1.353-.9 2.708-1.894 1.083-.462.813-.152.812.03.812.208 1.083.524 1.625 1.128 2.166 1.512 1.083.489.812.177.813-.004.812-.185 1.083-.497 1.354-.907 2.708-1.886 1.083-.45.812-.143.812.04.813.219 1.083.534 1.624 1.136 2.167 1.503 1.083.477.812.168.812-.015.813-.194 1.083-.508 1.354-.915 2.437-1.727 1.083-.504.812-.192.812-.011h0" clip-path="url(#p712605ab99)" style="fill:none;stroke:#8c564b;stroke-width:1.5px;stroke-linecap:square"/><path id="line2d_20" d="m73.833 55.647.27.057.542.458.542.917.541 1.375.812 2.923.813 3.952.812 4.979 1.083 8.218 1.083 9.977 1.354 14.787 1.625 20.655 2.437 34.747 2.978 42.07 1.354 16.481 1.354 13.691 1.083 8.558.812 4.898.813 3.552.541 1.618.542 1.024.541.443.271.01.27-.13.542-.66.542-1.173.541-1.654.813-3.307 1.083-5.739 1.354-8.812 2.166-16.112 2.166-15.851 1.354-8.502 1.083-5.57.812-3.33.813-2.549.812-1.751.541-.73.542-.392.541-.071.542.229.542.502.812 1.2.812 1.63 1.354 3.34 2.979 7.592 1.083 2.137 1.083 1.602.812.837.812.543.813.288.812.083 1.083-.102 3.25-.466 1.082.101 1.354.36 3.791 1.275 1.083.039 1.083-.23 1.083-.503 1.354-.949 3.79-2.956 1.084-.435.812-.112.813.083.812.268 1.083.604 1.625 1.23 1.895 1.422 1.083.565.812.235.813.05.812-.134 1.083-.442 1.354-.864 2.978-2.036 1.084-.413.812-.112.812.07 1.083.362 1.083.616 4.062 2.688 1.083.292.812.011.813-.17 1.083-.48 1.354-.895 2.707-1.903 1.083-.47.813-.159.812.023.812.202 1.083.516 1.354.921 2.437 1.722 1.083.498.813.184.812.004.812-.178 1.083-.489 1.354-.9 2.708-1.893 1.083-.459.812-.15.813.033.812.211 1.083.527 1.625 1.13 2.166 1.51 1.083.485.812.175.812-.007.813-.188 1.083-.5 1.354-.909 2.437-1.732 1.083-.513.812-.198.812-.02.813.164 1.083.473 1.354.89 2.707 1.905 1.083.474.813.165.812-.017.812-.197 1.083-.511 1.354-.917 2.437-1.724 1.083-.502.813-.19.812-.008.812.173 1.083.484 1.354.898 2.708 1.897 1.083.463.812.155.813-.027.812-.207 1.083-.522 1.354-.924 2.437-1.716 1.083-.491.812-.18.813.002.812.183 1.083.495 1.354.906 2.708 1.887 1.083.453.812.144.812-.037.813-.217 1.083-.532 1.624-1.134 2.166-1.505 1.083-.48.813-.17.812.013.812.193 1.084.505 1.353.913 2.437 1.729 1.083.507.813.193.812.014.812-.169 1.083-.479 1.354-.893 2.708-1.901 1.083-.47.812-.159.813.023.812.202 1.083.517 1.354.92 2.437 1.72 1.083.497.812.184.813.003.812-.178 1.083-.49 1.354-.902 2.708-1.892 1.083-.458.812-.15.812.034.813.212 1.083.527 1.624 1.13 2.166 1.51 1.084.485.812.174.812-.007.812-.188 1.084-.501 1.353-.91 2.437-1.731 1.083-.512.813-.199.812-.018.812.164 1.083.473 1.354.89 2.708 1.905 1.083.474.812.164.813-.017.812-.198 1.083-.512 1.354-.916 2.437-1.725 1.083-.501.812-.189.813-.007.812.173 1.083.485 1.354.898 2.708 1.896 1.083.463.812.154.812-.028.813-.207 1.083-.522 1.354-.924 2.437-1.717 1.083-.49.812-.179.812.003.813.183 1.083.496 1.353.905 2.708 1.888 1.083.451.813.145.812-.039.812-.217 1.083-.532 1.625-1.135 2.166-1.504 1.083-.48.813-.169.812.013.812.193 1.083.507 1.354.913 2.437 1.728 1.083.506.812.194.813.012.812-.169 1.083-.479 1.354-.894 2.708-1.9 1.083-.469.812-.159.812.023.813.203 1.083.517 1.354.921 2.437 1.72 1.083.496.812.183.812.003.813-.18 1.083-.49 1.354-.902 2.707-1.891h0" clip-path="url(#p712605ab99)" style="fill:none;stroke:#e377c2;stroke-width:1.5px;stroke-linecap:square"/><path id="line2d_21" d="m73.833 55.647.27.057.542.458.542.917.541 1.375.812 2.923.813 3.953.812 4.984 1.083 8.244 1.083 10.056 1.354 15.053 1.354 17.654 1.625 24.155L87.1 185.72l2.978 49.141 1.625 23.155 1.083 12.907 1.083 10.421.812 6.011.812 4.378.542 1.992.541 1.249.271.348.271.165.27-.015.272-.193.541-.907.542-1.578.541-2.215.813-4.425 1.083-7.707 1.353-11.923 1.896-19.247 2.978-30.228 1.354-11.488 1.083-7.48.813-4.45.812-3.39.812-2.305.542-.94.541-.478.542-.035.541.382.542.767.541 1.114.813 2.23 1.083 3.776 1.895 7.735 1.896 7.51 1.083 3.602 1.083 2.884.812 1.65.812 1.215.813.81.812.458.812.169.813-.047 1.354-.362 2.707-.816 1.625-.182 4.061-.228 1.084-.37 1.083-.587 1.354-1.016 4.061-3.41 1.083-.493.812-.152.813.05.812.248 1.083.6 1.354 1.056 2.708 2.204 1.083.57.812.223.812.032.813-.157 1.083-.472 1.354-.885 2.707-1.859 1.084-.44.812-.136.812.044 1.083.332 1.083.59 2.166 1.55 1.354.864 1.083.448.813.145.812-.036.812-.215 1.083-.529 1.625-1.132 2.166-1.51 1.083-.487.813-.174.812.006.812.188 1.083.5 1.354.91 2.708 1.89 1.083.449.812.142.813-.04.812-.22 1.083-.535 1.625-1.136 2.166-1.503 1.083-.476.812-.166.813.015.812.196 1.083.509 1.354.915 2.437 1.726 1.083.503.812.19.812.01.813-.171 1.083-.483 1.354-.896 2.707-1.898 1.083-.465.813-.157.812.026.812.206 1.083.52 1.354.922 2.437 1.719 1.083.492.813.18h.812l.812-.18 1.083-.494 1.354-.905 2.708-1.889 1.083-.454.812-.146.813.036.812.215 1.083.53 1.625 1.134 2.166 1.506 1.083.482.812.17.813-.01.812-.191 1.083-.504 1.354-.912 2.437-1.73 1.083-.508.812-.195.812-.015.813.167 1.083.477 1.354.892 2.707 1.903 1.084.47.812.16.812-.02.812-.201 1.084-.515 1.353-.92 2.437-1.721 1.083-.498.813-.185.812-.005.812.177 1.083.488 1.354.9 2.708 1.894 1.083.46.812.15.813-.03.812-.211 1.083-.526 1.625-1.13 2.166-1.51 1.083-.487.812-.175.813.006.812.186 1.083.5 1.354.908 2.708 1.884 1.083.448.812.14.812-.04.813-.221 1.083-.536 1.624-1.137 2.167-1.501 1.083-.476.812-.166.812.016.813.197 1.083.51 1.353.915 2.437 1.726 1.083.503.813.19.812.01.812-.173 1.084-.483 1.353-.897 2.708-1.897 1.083-.465.812-.156.813.027.812.206 1.083.52 1.354.923 2.437 1.718 1.083.492.812.18h.813l.812-.183 1.083-.494 1.354-.904 2.708-1.89 1.083-.452.812-.146.812.037.813.215 1.083.531 1.624 1.134 2.167 1.506 1.083.48.812.17.812-.01.813-.192 1.083-.505 1.354-.912 2.436-1.73 1.084-.507.812-.195.812-.014.813.167 1.083.478 1.353.893 2.708 1.902 1.083.47.813.16.812-.021.812-.202 1.083-.515 1.354-.92 2.437-1.721 1.083-.498.812-.184.813-.004.812.177 1.083.489 1.354.9 2.708 1.894 1.083.458.812.15.812-.031.813-.211 1.083-.526 1.624-1.13 2.167-1.51 1.083-.486.812-.175.812.006.813.187 1.083.5 1.354.908 2.437 1.733 1.083.513.812.2.812.018.813-.162 1.083-.473 1.354-.89.27-.2h0" clip-path="url(#p712605ab99)" style="fill:none;stroke:#7f7f7f;stroke-width:1.5px;stroke-linecap:square"/><path id="patch_3" d="M57.6 307.584V41.472" style="fill:none;stroke:#000;stroke-width:.8px;stroke-linejoin:miter;stroke-linecap:square"/><path id="patch_4" d="M414.72 307.584V41.472" style="fill:none;stroke:#000;stroke-width:.8px;stroke-linejoin:miter;stroke-linecap:square"/><path id="patch_5" d="M57.6 307.584h357.12" style="fill:none;stroke:#000;stroke-width:.8px;stroke-linejoin:miter;stroke-linecap:square"/><path id="patch_6" d="M57.6 41.472h357.12" style="fill:none;stroke:#000;stroke-width:.8px;stroke-linejoin:miter;stroke-linecap:square"/><g id="text_16"><g transform="matrix(.12 0 0 -.12 133.32 35.472)"><defs><path id="DejaVuSans-66" d="M2375 4863v-479h-550q-309 0-430-125-120-125-120-450v-309h947v-447h-947V0H697v3053H147v447h550v244q0 584 272 851 272 268 862 268Z" transform="scale(.01563)"/><path id="DejaVuSans-61" d="M2194 1759q-697 0-966-159t-269-544q0-306 202-486 202-179 548-179 479 0 768 339t289 901v128Zm1147 238V0h-575v531q-197-318-491-470T1556-91q-537 0-855 302-317 302-317 808 0 590 395 890 396 300 1180 300h807v57q0 397-261 614t-733 217q-300 0-585-72-284-72-546-216v532q315 122 612 182 297 61 578 61 760 0 1135-394 375-393 375-1193" transform="scale(.01563)"/><path id="DejaVuSans-67" d="M2906 1791q0 625-258 968-257 344-723 344-462 0-720-344-258-343-258-968 0-622 258-966t720-344q466 0 723 344 258 344 258 966m575-1357q0-893-397-1329-396-436-1215-436-303 0-572 45t-522 139v559q253-137 500-202 247-66 503-66 566 0 847 295t281 892v285q-178-310-456-463T1784 0Q1141 0 747 490 353 981 353 1791q0 812 394 1302 394 491 1037 491 388 0 666-153t456-462v531h575Z" transform="scale(.01563)"/><path id="DejaVuSans-Oblique-66" d="m3059 4863-90-479h-550q-313 0-455-123t-211-452l-62-309h947l-85-447h-947L1013 0H434l597 3053H481l82 447h550l46 244q119 619 417 869 299 250 940 250Z" transform="scale(.01563)"/><path id="DejaVuSans-3d" d="M678 2906h4006v-525H678Zm0-1275h4006v-531H678Z" transform="scale(.01563)"/><path id="DejaVuSans-72" d="M2631 2963q-97 56-211 82-114 27-251 27-488 0-749-317t-261-911V0H581v3500h578v-544q182 319 472 473 291 155 707 155 59 0 131-8 72-7 159-23Z" transform="scale(.01563)"/><path id="DejaVuSans-64" d="M2906 2969v1894h575V0h-575v525q-181-312-458-464-276-152-664-152-634 0-1033 506-398 507-398 1332t398 1331q399 506 1033 506 388 0 664-152 277-151 458-463M947 1747q0-634 261-995t717-361 718 361q263 361 263 995t-263 995q-262 361-718 361t-717-361-261-995" transform="scale(.01563)"/><path id="DejaVuSans-2f" d="M1625 4666h531L531-594H0Z" transform="scale(.01563)"/></defs><use xlink:href="#DejaVuSans-79" transform="translate(0 .016)"/><use xlink:href="#DejaVuSans-2d" transform="translate(59.18 .016)"/><use xlink:href="#DejaVuSans-70" transform="translate(95.264 .016)"/><use xlink:href="#DejaVuSans-6f" transform="translate(158.74 .016)"/><use xlink:href="#DejaVuSans-73" transform="translate(219.922 .016)"/><use xlink:href="#DejaVuSans-69" transform="translate(272.022 .016)"/><use xlink:href="#DejaVuSans-74" transform="translate(299.805 .016)"/><use xlink:href="#DejaVuSans-69" transform="translate(339.014 .016)"/><use xlink:href="#DejaVuSans-6f" transform="translate(366.797 .016)"/><use xlink:href="#DejaVuSans-6e" transform="translate(427.979 .016)"/><use xlink:href="#DejaVuSans-73" transform="translate(491.357 .016)"/><use xlink:href="#DejaVuSans-6f" transform="translate(575.244 .016)"/><use xlink:href="#DejaVuSans-66" transform="translate(636.426 .016)"/><use xlink:href="#DejaVuSans-61" transform="translate(703.418 .016)"/><use xlink:href="#DejaVuSans-67" transform="translate(764.697 .016)"/><use xlink:href="#DejaVuSans-65" transform="translate(828.174 .016)"/><use xlink:href="#DejaVuSans-6e" transform="translate(889.697 .016)"/><use xlink:href="#DejaVuSans-74" transform="translate(953.076 .016)"/><use xlink:href="#DejaVuSans-73" transform="translate(992.285 .016)"/><use xlink:href="#DejaVuSans-61" transform="translate(1076.17 .016)"/><use xlink:href="#DejaVuSans-74" transform="translate(1137.45 .016)"/><use xlink:href="#DejaVuSans-Oblique-66" transform="translate(1208.45 .016)"/><use xlink:href="#DejaVuSans-3d" transform="translate(1263.14 .016)"/><use xlink:href="#DejaVuSans-32" transform="translate(1366.41 .016)"/><use xlink:href="#DejaVuSans-72" transform="translate(1461.82 .016)"/><use xlink:href="#DejaVuSans-61" transform="translate(1502.93 .016)"/><use xlink:href="#DejaVuSans-64" transform="translate(1564.21 .016)"/><use xlink:href="#DejaVuSans-2f" transform="translate(1627.69 .016)"/><use xlink:href="#DejaVuSans-73" transform="translate(1661.38 .016)"/></g></g><g id="legend_1"><path id="patch_7" d="M64.6 302.584h71.14q2 0 2-2V184.159q0-2-2-2H64.6q-2 0-2 2v116.425q0 2 2 2Z" style="fill:#fff;opacity:.8;stroke:#ccc;stroke-linejoin:miter"/><path id="line2d_22" d="M66.6 190.257h20" style="fill:none;stroke:#1f77b4;stroke-width:1.5px;stroke-linecap:square"/><g id="text_17"><g transform="matrix(.1 0 0 -.1 94.6 193.757)"><defs><path id="DejaVuSans-41" d="m2188 4044-857-2322h1716Zm-357 622h716L4325 0h-656l-425 1197H1141L716 0H50Z" transform="scale(.01563)"/></defs><use xlink:href="#DejaVuSans-41"/><use xlink:href="#DejaVuSans-67" transform="translate(68.408)"/><use xlink:href="#DejaVuSans-65" transform="translate(131.885)"/><use xlink:href="#DejaVuSans-6e" transform="translate(193.408)"/><use xlink:href="#DejaVuSans-74" transform="translate(256.787)"/><use xlink:href="#DejaVuSans-30" transform="translate(327.783)"/></g></g><path id="line2d_23" d="M66.6 204.936h20" style="fill:none;stroke:#ff7f0e;stroke-width:1.5px;stroke-linecap:square"/><g id="text_18"><g transform="matrix(.1 0 0 -.1 94.6 208.436)"><use xlink:href="#DejaVuSans-41"/><use xlink:href="#DejaVuSans-67" transform="translate(68.408)"/><use xlink:href="#DejaVuSans-65" transform="translate(131.885)"/><use xlink:href="#DejaVuSans-6e" transform="translate(193.408)"/><use xlink:href="#DejaVuSans-74" transform="translate(256.787)"/><use xlink:href="#DejaVuSans-31" transform="translate(327.783)"/></g></g><path id="line2d_24" d="M66.6 219.614h20" style="fill:none;stroke:#2ca02c;stroke-width:1.5px;stroke-linecap:square"/><g id="text_19"><g transform="matrix(.1 0 0 -.1 94.6 223.114)"><use xlink:href="#DejaVuSans-41"/><use xlink:href="#DejaVuSans-67" transform="translate(68.408)"/><use xlink:href="#DejaVuSans-65" transform="translate(131.885)"/><use xlink:href="#DejaVuSans-6e" transform="translate(193.408)"/><use xlink:href="#DejaVuSans-74" transform="translate(256.787)"/><use xlink:href="#DejaVuSans-32" transform="translate(327.783)"/></g></g><path id="line2d_25" d="M66.6 234.292h20" style="fill:none;stroke:#d62728;stroke-width:1.5px;stroke-linecap:square"/><g id="text_20"><g transform="matrix(.1 0 0 -.1 94.6 237.792)"><use xlink:href="#DejaVuSans-41"/><use xlink:href="#DejaVuSans-67" transform="translate(68.408)"/><use xlink:href="#DejaVuSans-65" transform="translate(131.885)"/><use xlink:href="#DejaVuSans-6e" transform="translate(193.408)"/><use xlink:href="#DejaVuSans-74" transform="translate(256.787)"/><use xlink:href="#DejaVuSans-33" transform="translate(327.783)"/></g></g><path id="line2d_26" d="M66.6 248.97h20" style="fill:none;stroke:#9467bd;stroke-width:1.5px;stroke-linecap:square"/><g id="text_21"><g transform="matrix(.1 0 0 -.1 94.6 252.47)"><use xlink:href="#DejaVuSans-41"/><use xlink:href="#DejaVuSans-67" transform="translate(68.408)"/><use xlink:href="#DejaVuSans-65" transform="translate(131.885)"/><use xlink:href="#DejaVuSans-6e" transform="translate(193.408)"/><use xlink:href="#DejaVuSans-74" transform="translate(256.787)"/><use xlink:href="#DejaVuSans-34" transform="translate(327.783)"/></g></g><path id="line2d_27" d="M66.6 263.648h20" style="fill:none;stroke:#8c564b;stroke-width:1.5px;stroke-linecap:square"/><g id="text_22"><g transform="matrix(.1 0 0 -.1 94.6 267.148)"><use xlink:href="#DejaVuSans-41"/><use xlink:href="#DejaVuSans-67" transform="translate(68.408)"/><use xlink:href="#DejaVuSans-65" transform="translate(131.885)"/><use xlink:href="#DejaVuSans-6e" transform="translate(193.408)"/><use xlink:href="#DejaVuSans-74" transform="translate(256.787)"/><use xlink:href="#DejaVuSans-35" transform="translate(327.783)"/></g></g><path id="line2d_28" d="M66.6 278.326h20" style="fill:none;stroke:#e377c2;stroke-width:1.5px;stroke-linecap:square"/><g id="text_23"><g transform="matrix(.1 0 0 -.1 94.6 281.826)"><use xlink:href="#DejaVuSans-41"/><use xlink:href="#DejaVuSans-67" transform="translate(68.408)"/><use xlink:href="#DejaVuSans-65" transform="translate(131.885)"/><use xlink:href="#DejaVuSans-6e" transform="translate(193.408)"/><use xlink:href="#DejaVuSans-74" transform="translate(256.787)"/><use xlink:href="#DejaVuSans-36" transform="translate(327.783)"/></g></g><path id="line2d_29" d="M66.6 293.004h20" style="fill:none;stroke:#7f7f7f;stroke-width:1.5px;stroke-linecap:square"/><g id="text_24"><g transform="matrix(.1 0 0 -.1 94.6 296.504)"><defs><path id="DejaVuSans-37" d="M525 4666h3000v-269L1831 0h-659l1594 4134H525Z" transform="scale(.01563)"/></defs><use xlink:href="#DejaVuSans-41"/><use xlink:href="#DejaVuSans-67" transform="translate(68.408)"/><use xlink:href="#DejaVuSans-65" transform="translate(131.885)"/><use xlink:href="#DejaVuSans-6e" transform="translate(193.408)"/><use xlink:href="#DejaVuSans-74" transform="translate(256.787)"/><use xlink:href="#DejaVuSans-37" transform="translate(327.783)"/></g></g></g></g></g><defs><clipPath id="p712605ab99"><path d="M57.6 41.472h357.12v266.112H57.6Z"/></clipPath></defs></svg>