<svg xmlns="http://www.w3.org/2000/svg" xmlns:xlink="http://www.w3.org/1999/xlink" width="614.4" height="460.8" viewBox="0 0 460.8 345.6"><defs><style>*{stroke-linejoin:round;stroke-linecap:butt}</style></defs><g id="figure_1"><path id="patch_1" d="M0 345.6h460.8V0H0Z" style="fill:#fff"/><g id="axes_1"><path id="patch_2" d="M57.6 307.584h357.12V41.472H57.6Z" style="fill:#fff"/><g id="matplotlib.axis_1"><g id="xtick_1"><g id="line2d_1"><defs><path id="mf998d5d569" d="M0 0v3.5" style="stroke:#000;stroke-width:.8px"/></defs><use xlink:href="#mf998d5d569" x="73.833" y="307.584" style="stroke:#000;stroke-width:.8px"/></g><g id="text_1"><g transform="matrix(.1 0 0 -.1 70.651 322.182)"><defs><path id="DejaVuSans-30" d="M2034 4250q-487 0-733-480-245-479-245-1442 0-959 245-1439 246-480 733-480 491 0 736 480 246 480 246 1439 0 963-246 1442-245 480-736 480m0 500q785 0 1199-621 414-620 414-1801 0-1178-414-1799Q2819-91 2034-91q-784 0-1198 620-414 621-414 1799 0 1181 414 1801 414 621 1198 621" transform="scale(.01563)"/></defs><use xlink:href="#DejaVuSans-30"/></g></g></g><g id="xtick_2"><use xlink:href="#mf998d5d569" id="line2d_2" x="127.987" y="307.584" style="stroke:#000;stroke-width:.8px"/><g id="text_2"><g transform="matrix(.1 0 0 -.1 121.624 322.182)"><defs><path id="DejaVuSans-31" d="M794 531h1031v3560L703 3866v575l1116 225h631V531h1031V0H794Z" transform="scale(.01563)"/></defs><use xlink:href="#DejaVuSans-31"/><use xlink:href="#DejaVuSans-30" transform="translate(63.623)"/></g></g></g><g id="xtick_3"><use xlink:href="#mf998d5d569" id="line2d_3" x="182.141" y="307.584" style="stroke:#000;stroke-width:.8px"/><g id="text_3"><g transform="matrix(.1 0 0 -.1 175.779 322.182)"><defs><path id="DejaVuSans-32" d="M1228 531h2203V0H469v531q359 372 979 998 621 627 780 809 303 340 423 576 121 236 121 464 0 372-261 606-261 235-680 235-297 0-627-103-329-103-704-313v638q381 153 712 231 332 78 607 78 725 0 1156-363 431-362 431-968 0-288-108-546-107-257-392-607-78-91-497-524-418-433-1181-1211" transform="scale(.01563)"/></defs><use xlink:href="#DejaVuSans-32"/><use xlink:href="#DejaVuSans-30" transform="translate(63.623)"/></g></g></g><g id="xtick_4"><use xlink:href="#mf998d5d569" id="line2d_4" x="236.295" y="307.584" style="stroke:#000;stroke-width:.8px"/><g id="text_4"><g transform="matrix(.1 0 0 -.1 229.933 322.182)"><defs><path id="DejaVuSans-33" d="M2597 2516q453-97 707-404 255-306 255-756 0-690-475-1069Q2609-91 1734-91q-293 0-604 58T488 141v609q262-153 574-231 313-78 654-78 593 0 904 234t311 681q0 413-289 645-289 233-804 233h-544v519h569q465 0 712 186t247 536q0 359-255 551-254 193-729 193-260 0-557-57-297-56-653-174v562q360 100 674 150t592 50q719 0 1137-327 419-326 419-882 0-388-222-655t-631-370" transform="scale(.01563)"/></defs><use xlink:href="#DejaVuSans-33"/><use xlink:href="#DejaVuSans-30" transform="translate(63.623)"/></g></g></g><g id="xtick_5"><use xlink:href="#mf998d5d569" id="line2d_5" x="290.45" y="307.584" style="stroke:#000;stroke-width:.8px"/><g id="text_5"><g transform="matrix(.1 0 0 -.1 284.087 322.182)"><defs><path id="DejaVuSans-34" d="M2419 4116 825 1625h1594Zm-166 550h794V1625h666v-525h-666V0h-628v1100H313v609Z" transform="scale(.01563)"/></defs><use xlink:href="#DejaVuSans-34"/><use xlink:href="#DejaVuSans-30" transform="translate(63.623)"/></g></g></g><g id="xtick_6"><use xlink:href="#mf998d5d569" id="line2d_6" x="344.604" y="307.584" style="stroke:#000;stroke-width:.8px"/><g id="text_6"><g transform="matrix(.1 0 0 -.1 338.241 322.182)"><defs><path id="DejaVuSans-35" d="M691 4666h2478v-532H1269V2991q137 47 274 70 138 23 276 23 781 0 1237-428 457-428 457-1159 0-753-469-1171Q2575-91 1722-91q-294 0-599 50Q819 9 494 109v635q281-153 581-228t634-75q541 0 856 284 316 284 316 772 0 487-316 771-315 285-856 285-253 0-505-56-251-56-513-175Z" transform="scale(.01563)"/></defs><use xlink:href="#DejaVuSans-35"/><use xlink:href="#DejaVuSans-30" transform="translate(63.623)"/></g></g></g><g id="xtick_7"><use xlink:href="#mf998d5d569" id="line2d_7" x="398.758" y="307.584" style="stroke:#000;stroke-width:.8px"/><g id="text_7"><g transform="matrix(.1 0 0 -.1 392.396 322.182)"><defs><path id="DejaVuSans-36" d="M2113 2584q-425 0-674-291-248-290-248-796 0-503 248-796 249-292 674-292t673 292q248 293 248 796 0 506-248 796-248 291-673 291m1253 1979v-575q-238 112-480 171-242 60-480 60-625 0-955-422-329-422-376-1275 184 272 462 417 279 145 613 145 703 0 1111-427 408-426 408-1160 0-719-425-1154Q2819-91 2113-91q-810 0-1238 620-428 621-428 1799 0 1106 525 1764t1409 658q238 0 480-47t505-140" transform="scale(.01563)"/></defs><use xlink:href="#DejaVuSans-36"/><use xlink:href="#DejaVuSans-30" transform="translate(63.623)"/></g></g></g><g id="text_8"><g transform="matrix(.1 0 0 -.1 215.831 335.86)"><defs><path id="DejaVuSans-54" d="M-19 4666h3947v-532H2272V0h-634v4134H-19Z" transform="scale(.01563)"/><path id="DejaVuSans-69" d="M603 3500h575V0H603Zm0 1363h575v-729H603Z" transform="scale(.01563)"/><path id="DejaVuSans-6d" d="M3328 2828q216 388 516 572t706 184q547 0 844-383 297-382 297-1088V0h-578v2094q0 503-179 746-178 244-543 244-447 0-707-297-259-296-259-809V0h-578v2094q0 506-178 748t-550 242q-441 0-701-298-259-298-259-808V0H581v3500h578v-544q197 322 472 475t653 153q382 0 649-194 267-193 395-562" transform="scale(.01563)"/><path id="DejaVuSans-65" d="M3597 1894v-281H953q38-594 358-905t892-311q331 0 642 81t618 244V178Q3153 47 2828-22t-659-69q-838 0-1327 487-489 488-489 1320 0 859 464 1363 464 505 1252 505 706 0 1117-455 411-454 411-1235m-575 169q-6 471-264 752-258 282-683 282-481 0-770-272t-333-766Z" transform="scale(.01563)"/><path id="DejaVuSans-5b" d="M550 4863h1325v-447h-750V-397h750v-447H550Z" transform="scale(.01563)"/><path id="DejaVuSans-73" d="M2834 3397v-544q-243 125-506 187-262 63-544 63-428 0-642-131t-214-394q0-200 153-314t616-217l197-44q612-131 870-370t258-667q0-488-386-773Q2250-91 1575-91q-281 0-586 55T347 128v594q319-166 628-249 309-82 613-82 406 0 624 139 219 139 219 392 0 234-158 359-157 125-692 241l-200 47q-534 112-772 345-237 233-237 639 0 494 350 762 350 269 994 269 318 0 599-47 282-46 519-140" transform="scale(.01563)"/><path id="DejaVuSans-5d" d="M1947 4863V-844H622v447h747v4813H622v447Z" transform="scale(.01563)"/></defs><use xlink:href="#DejaVuSans-54"/><use xlink:href="#DejaVuSans-69" transform="translate(57.959)"/><use xlink:href="#DejaVuSans-6d" transform="translate(85.742)"/><use xlink:href="#DejaVuSans-65" transform="translate(183.154)"/><use xlink:href="#DejaVuSans-5b" transform="translate(276.465)"/><use xlink:href="#DejaVuSans-73" transform="translate(315.479)"/><use xlink:href="#DejaVuSans-5d" transform="translate(367.578)"/></g></g></g><g id="matplotlib.axis_2"><g id="ytick_1"><g id="line2d_8"><defs><path id="mc139edcc1b" d="M0 0h-3.5" style="stroke:#000;stroke-width:.8px"/></defs><use xlink:href="#mc139edcc1b" x="57.6" y="289.672" style="stroke:#000;stroke-width:.8px"/></g><g id="text_9"><g transform="matrix(.1 0 0 -.1 29.495 293.471)"><defs><path id="DejaVuSans-2212" d="M678 2272h4006v-531H678Z" transform="scale(.01563)"/></defs><use xlink:href="#DejaVuSans-2212"/><use xlink:href="#DejaVuSans-31" transform="translate(83.79)"/><use xlink:href="#DejaVuSans-30" transform="translate(147.412)"/></g></g></g><g id="ytick_2"><use xlink:href="#mc139edcc1b" id="line2d_9" x="57.6" y="243.281" style="stroke:#000;stroke-width:.8px"/><g id="text_10"><g transform="matrix(.1 0 0 -.1 35.858 247.08)"><defs><path id="DejaVuSans-38" d="M2034 2216q-450 0-708-241-257-241-257-662 0-422 257-663 258-241 708-241t709 242q260 243 260 662 0 421-258 662-257 241-711 241m-631 268q-406 100-633 378-226 279-226 679 0 559 398 884 399 325 1092 325 697 0 1094-325t397-884q0-400-227-679-226-278-629-378 456-106 710-416 255-309 255-755 0-679-414-1042Q2806-91 2034-91q-771 0-1186 362-414 363-414 1042 0 446 256 755 257 310 713 416m-231 997q0-362 226-565 227-203 636-203 407 0 636 203 230 203 230 565 0 363-230 566-229 203-636 203-409 0-636-203-226-203-226-566" transform="scale(.01563)"/></defs><use xlink:href="#DejaVuSans-2212"/><use xlink:href="#DejaVuSans-38" transform="translate(83.79)"/></g></g></g><g id="ytick_3"><use xlink:href="#mc139edcc1b" id="line2d_10" x="57.6" y="196.89" style="stroke:#000;stroke-width:.8px"/><g id="text_11"><g transform="matrix(.1 0 0 -.1 35.858 200.69)"><use xlink:href="#DejaVuSans-2212"/><use xlink:href="#DejaVuSans-36" transform="translate(83.79)"/></g></g></g><g id="ytick_4"><use xlink:href="#mc139edcc1b" id="line2d_11" x="57.6" y="150.499" style="stroke:#000;stroke-width:.8px"/><g id="text_12"><g transform="matrix(.1 0 0 -.1 35.858 154.298)"><use xlink:href="#DejaVuSans-2212"/><use xlink:href="#DejaVuSans-34" transform="translate(83.79)"/></g></g></g><g id="ytick_5"><use xlink:href="#mc139edcc1b" id="line2d_12" x="57.6" y="104.108" style="stroke:#000;stroke-width:.8px"/><g id="text_13"><g transform="matrix(.1 0 0 -.1 35.858 107.907)"><use xlink:href="#DejaVuSans-2212"/><use xlink:href="#DejaVuSans-32" transform="translate(83.79)"/></g></g></g><g id="ytick_6"><use xlink:href="#mc139edcc1b" id="line2d_13" x="57.6" y="57.717" style="stroke:#000;stroke-width:.8px"/><use xlink:href="#DejaVuSans-30" id="text_14" transform="matrix(.1 0 0 -.1 44.238 61.516)"/></g><g id="text_15"><g transform="matrix(0 -.1 -.1 0 23.416 209.37)"><defs><path id="DejaVuSans-79" d="M2059-325q-243-625-475-815-231-191-618-191H506v481h338q237 0 368 113 132 112 291 531l103 262L191 3500h609L1894 763l1094 2737h609Z" transform="scale(.01563)"/><path id="DejaVuSans-2d" d="M313 2009h1684v-512H313Z" transform="scale(.01563)"/><path id="DejaVuSans-70" d="M1159 525v-1856H581v4831h578v-531q182 312 458 463 277 152 661 152 638 0 1036-506 399-506 399-1331T3314 415Q2916-91 2278-91q-384 0-661 152-276 152-458 464m1957 1222q0 634-261 995t-717 361q-457 0-718-361t-261-995 261-995 718-361q456 0 717 361t261 995" transform="scale(.01563)"/><path id="DejaVuSans-6f" d="M1959 3097q-462 0-731-361t-269-989 267-989q268-361 733-361 460 0 728 362 269 363 269 988 0 622-269 986-268 364-728 364m0 487q750 0 1178-488 429-487 429-1349 0-859-429-1349Q2709-91 1959-91q-753 0-1180 489-426 490-426 1349 0 862 426 1349 427 488 1180 488" transform="scale(.01563)"/><path id="DejaVuSans-74" d="M1172 4494v-994h1184v-447H1172V1153q0-428 117-550t477-122h590V0h-590q-666 0-919 248-253 249-253 905v1900H172v447h422v994Z" transform="scale(.01563)"/><path id="DejaVuSans-6e" d="M3513 2113V0h-575v2094q0 497-194 743-194 247-581 247-466 0-735-297-269-296-269-809V0H581v3500h578v-544q207 316 486 472 280 156 646 156 603 0 912-373 310-373 310-1098" transform="scale(.01563)"/></defs><use xlink:href="#DejaVuSans-79"/><use xlink:href="#DejaVuSans-2d" transform="translate(57.43)"/><use xlink:href="#DejaVuSans-70" transform="translate(93.514)"/><use xlink:href="#DejaVuSans-6f" transform="translate(156.99)"/><use xlink:href="#DejaVuSans-73" transform="translate(218.172)"/><use xlink:href="#DejaVuSans-69" transform="translate(270.272)"/><use xlink:href="#DejaVuSans-74" transform="translate(298.055)"/><use xlink:href="#DejaVuSans-69" transform="translate(337.264)"/><use xlink:href="#DejaVuSans-6f" transform="translate(365.047)"/><use xlink:href="#DejaVuSans-6e" transform="translate(426.229)"/><use xlink:href="#DejaVuSans-5b" transform="translate(521.395)"/><use xlink:href="#DejaVuSans-6d" transform="translate(560.408)"/><use xlink:href="#DejaVuSans-5d" transform="translate(657.82)"/></g></g></g><path id="line2d_14" d="m73.833 57.717.812-.094 1.083-.348 2.437-1.138 1.625-.637 1.354-.297 1.353-.029 1.354.248 1.354.502 1.625.872 2.437 1.621 2.978 1.935 1.625.794 1.354.435 1.353.194 1.354-.06 1.354-.315 1.354-.548 1.625-.917 2.166-1.524 4.332-3.135 1.625-.881 1.354-.51 1.354-.272 1.353-.017 1.354.24 1.354.481 1.625.854 1.895 1.276 5.686 4.064 1.625.782 1.354.41 1.354.161 1.354-.096 1.353-.348 1.354-.578 1.625-.946 2.166-1.548 4.062-2.964 1.624-.91 1.354-.54 1.354-.304 1.354-.05 1.354.207 1.353.452 1.625.823 1.896 1.255 6.227 4.393 1.625.716 1.354.345 1.354.093 1.353-.165 1.354-.412 1.354-.634 1.625-.998 2.437-1.789 3.249-2.367 1.625-.937 1.353-.569 1.354-.337 1.354-.084 1.354.173 1.354.42 1.354.642 1.624 1.003 2.708 2 2.979 2.155 1.624.93 1.354.562 1.354.328 1.354.076 1.354-.182 1.353-.428 1.354-.648 1.625-1.01 2.708-2.004 2.978-2.149 1.625-.923 1.354-.554 1.353-.32 1.354-.068 1.354.19 1.354.437 1.354.655 1.895 1.204 3.25 2.437 2.436 1.695 1.625.873 1.354.502 1.354.263 1.354.006 1.354-.249 1.353-.49 1.625-.862 1.895-1.283 5.687-4.057 1.624-.773 1.354-.401 1.354-.153 1.354.105 1.354.357 1.354.586 1.624.953 2.166 1.552 4.062 2.96 1.624.901 1.354.532 1.354.295 1.354.042 1.354-.217 1.354-.46 1.624-.831 1.896-1.26 5.957-4.239 1.624-.757 1.354-.385 1.354-.135 1.354.123 1.354.372 1.354.6 1.624.967 2.437 1.768 3.52 2.569 1.625.93 1.354.56 1.354.329 1.353.075 1.354-.182 1.354-.429 1.354-.648 1.625-1.01 2.707-2.005 2.979-2.148 1.624-.923 1.354-.554 1.354-.32 1.354-.066 1.354.19 1.354.437 1.354.655 1.895 1.204 3.25 2.438 2.436 1.694 1.625.874 1.354.501 1.354.262 1.353.006 1.354-.25 1.354-.49 1.625-.863 1.895-1.283 5.686-4.057 1.625-.772 1.354-.4 1.354-.153 1.353.106 1.354.357 1.354.586 1.625.954 2.166 1.552 4.062 2.959 1.624.901 1.354.532 1.354.295 1.354.04 1.354-.216 1.353-.46 1.625-.832 1.896-1.261 5.956-4.238 1.625-.756 1.354-.385 1.354-.135 1.354.123 1.354.373 1.353.6 1.625.968 2.437 1.768 3.52 2.568.812.496h0" clip-path="url(#p322fce802d)" style="fill:none;stroke:#1f77b4;stroke-width:1.5px;stroke-linecap:square"/><path id="line2d_15" d="m73.833 57.717.541.214.542.575.812 1.347 1.083 2.329 3.52 7.921 1.354 2.433 1.354 2.026 1.625 2.009 1.895 1.97 2.978 2.722 2.708 2.218 1.896 1.286 1.624.812 1.354.41 1.083.128 1.083-.062 1.083-.254 1.354-.579 1.354-.84 1.625-1.284 2.437-2.259 2.978-2.71 1.625-1.184 1.354-.722 1.083-.37 1.083-.169 1.083.04 1.083.246 1.083.443 1.354.803 1.624 1.263 2.437 2.262 2.979 2.766 1.624 1.232 1.354.77 1.354.483 1.083.16 1.083-.048 1.083-.255 1.084-.452 1.353-.814 1.625-1.273 2.437-2.269 2.978-2.761 1.625-1.224 1.354-.761 1.354-.474 1.083-.151 1.083.057 1.083.264 1.354.604 1.354.873 1.624 1.323 2.708 2.562 2.437 2.23 1.625 1.217 1.354.751 1.083.396 1.083.194 1.083-.013 1.083-.222 1.083-.42 1.354-.78 1.624-1.242 2.167-1.987 3.52-3.273 1.624-1.208 1.354-.742 1.083-.388 1.083-.186 1.083.023 1.083.23 1.084.429 1.353.788 1.625 1.25 2.166 1.993 3.52 3.266 1.625 1.2 1.354.733 1.083.38 1.083.176 1.083-.031 1.083-.239 1.083-.437 1.354-.797 1.625-1.257 2.166-1.998 3.52-3.26 1.624-1.19 1.354-.725 1.083-.371 1.083-.169 1.083.04 1.084.248 1.083.445 1.354.805 1.624 1.266 2.437 2.265 2.979 2.767 1.624 1.231 1.354.77 1.354.483 1.083.16 1.083-.05 1.083-.255 1.083-.453 1.354-.814 1.625-1.273 2.437-2.27 2.978-2.761 1.625-1.224 1.354-.76 1.353-.473 1.084-.152 1.083.058 1.083.265 1.354.604 1.353.873 1.625 1.325 2.708 2.561 2.437 2.23 1.624 1.216 1.354.752 1.083.394 1.083.195 1.083-.015 1.084-.222 1.083-.42 1.353-.78 1.625-1.243 2.166-1.988 3.52-3.272 1.625-1.207 1.354-.742 1.083-.387 1.083-.186 1.083.023 1.083.23 1.083.43 1.354.789 1.625 1.25 2.166 1.993 3.52 3.266 1.625 1.199 1.353.733 1.083.379 1.084.177 1.083-.032 1.083-.24 1.083-.437 1.354-.797 1.624-1.258 2.166-1.998 3.52-3.26 1.625-1.19 1.354-.724 1.083-.37 1.083-.169 1.083.04 1.083.249 1.083.445 1.354.806 1.625 1.266 2.437 2.265 2.978 2.767 1.625 1.231 1.354.769 1.354.482 1.083.16 1.083-.05 1.083-.256 1.083-.453 1.354-.815 1.624-1.273 2.437-2.27 2.979-2.761 1.624-1.224 1.354-.76 1.354-.472 1.083-.15 1.083.058 1.083.265 1.354.605 1.354.873 1.625 1.325 2.707 2.561 2.437 2.23 1.625 1.216 1.354.75 1.083.395 1.083.194 1.083-.015 1.083-.222 1.083-.422 1.354-.78 1.625-1.243 2.166-1.988 3.52-3.272 1.625-1.207 1.353-.742 1.084-.386 1.083-.185 1.083.023 1.083.232 1.083.43 1.354.789 1.624 1.25 2.167 1.993 2.707 2.568h0" clip-path="url(#p322fce802d)" style="fill:none;stroke:#ff7f0e;stroke-width:1.5px;stroke-linecap:square"/><path id="line2d_16" d="m73.833 57.717.27.058.542.46.542.9.541 1.306.812 2.62 1.084 4.446 1.895 9.143 2.166 10.334 1.354 5.553 1.354 4.598 1.083 2.978 1.083 2.404 1.083 1.907 1.083 1.499 1.083 1.18 1.354 1.145 1.625 1.042 1.624.79 1.625.572 1.625.328 1.353.043 1.354-.204 1.354-.48 1.354-.764 1.354-1.038 1.624-1.555 2.167-2.424 3.52-3.973 1.624-1.472 1.354-.908 1.083-.474 1.083-.227 1.083.032 1.084.29 1.083.537 1.083.765 1.354 1.231 1.895 2.095 4.874 5.65 1.354 1.186 1.083.72 1.083.485 1.083.231 1.083-.033 1.083-.295 1.083-.546 1.083-.774 1.354-1.243 1.896-2.11 4.873-5.654 1.354-1.179 1.083-.712 1.083-.475 1.083-.22 1.084.043 1.083.306 1.083.556 1.083.784 1.354 1.253 1.895 2.117 4.603 5.38 1.354 1.225 1.354.912 1.083.465 1.083.21 1.083-.055 1.083-.317 1.083-.566 1.354-1.024 1.354-1.313 1.895-2.168 4.062-4.77 1.625-1.492 1.353-.9 1.084-.455 1.083-.198 1.083.066 1.083.327 1.083.577 1.354 1.034 1.354 1.322 1.895 2.174 4.062 4.763 1.353 1.262 1.354.957 1.083.507 1.083.252 1.084-.01 1.083-.275 1.083-.526 1.083-.757 1.354-1.225 1.624-1.776 5.416-6.254 1.354-1.139 1.083-.674 1.083-.434 1.083-.176 1.083.088 1.083.35 1.083.596 1.354 1.056 1.625 1.633 2.166 2.553 3.249 3.806 1.625 1.523 1.353.934 1.084.486 1.083.23 1.083-.033 1.083-.295 1.083-.547 1.083-.776 1.354-1.243 1.895-2.11 4.603-5.387 1.354-1.235 1.354-.923 1.083-.475 1.083-.22 1.083.044 1.083.307 1.083.557 1.084.784 1.353 1.253 1.896 2.118 4.603 5.379 1.354 1.225 1.354.911 1.083.465 1.083.209 1.083-.055 1.083-.318 1.083-.567 1.354-1.024 1.354-1.313 1.895-2.169 4.062-4.77 1.624-1.49 1.354-.9 1.083-.455 1.083-.197 1.083.066 1.084.328 1.083.577 1.353 1.035 1.354 1.322 1.896 2.175 4.061 4.762 1.354 1.262 1.354.957 1.083.505 1.083.252 1.083-.011 1.083-.275 1.083-.526 1.083-.758 1.354-1.226 1.625-1.776 5.415-6.254 1.354-1.138 1.083-.673 1.083-.433 1.084-.176 1.083.089 1.083.35 1.083.596 1.354 1.057 1.624 1.633 2.166 2.554 2.979 3.517 1.625 1.584 1.353 1.002 1.083.546 1.084.295 1.083.032 1.083-.231 1.083-.486 1.083-.722 1.354-1.188 1.624-1.745 5.957-6.796 1.354-1.055 1.083-.596 1.083-.348 1.083-.088 1.084.177 1.083.434 1.083.675 1.354 1.139 1.624 1.705 2.979 3.583 2.166 2.466 1.624 1.5 1.354.912 1.083.464 1.083.208 1.084-.056 1.083-.318 1.083-.567 1.354-1.025 1.353-1.314 1.896-2.169 4.061-4.77 1.625-1.49 1.354-.899 1.083-.453 1.083-.198 1.083.068 1.083.328 1.083.578 1.354 1.035 1.354 1.323 1.895 2.175 1.354 1.654h0" clip-path="url(#p322fce802d)" style="fill:none;stroke:#2ca02c;stroke-width:1.5px;stroke-linecap:square"/><path id="line2d_17" d="m73.833 57.717.27.058.542.464.542.925.541 1.379.812 2.886.813 3.794 1.083 6.26 1.354 9.23 4.332 30.938 1.354 7.71 1.083 5.061 1.083 4.046 1.083 3.078.812 1.73.813 1.294.812.916.812.6.813.343.812.14 1.083-.045 1.354-.303 1.895-.68 2.167-.994 1.895-1.09 1.625-1.176 1.624-1.457 1.625-1.753 2.166-2.725 4.874-6.335 1.354-1.352 1.083-.83 1.083-.564 1.083-.271h.812l.813.177 1.083.507 1.083.803 1.083 1.069 1.354 1.65 1.895 2.717 4.062 5.97 1.354 1.59 1.083 1.002 1.083.719 1.083.406.812.089.812-.1.813-.284 1.083-.657 1.083-.95 1.354-1.541 1.624-2.238 5.416-7.913 1.354-1.448 1.083-.86 1.083-.557.812-.205.812-.017.813.17.812.356 1.083.746 1.083 1.03 1.354 1.622 1.895 2.71 4.333 6.422 1.354 1.58 1.083.989 1.083.7 1.083.382.812.07.813-.12.812-.304 1.083-.683 1.083-.974 1.354-1.566 1.625-2.258 5.415-7.894 1.354-1.422 1.083-.836 1.083-.53.812-.185.813.004.812.191.812.376 1.083.771 1.083 1.052 1.354 1.644 1.896 2.729 4.061 6.05 1.354 1.625 1.083 1.033 1.083.75 1.083.436.813.112.812-.078.812-.264 1.083-.632 1.083-.928 1.354-1.518 1.625-2.222 5.686-8.265 1.354-1.397 1.083-.811 1.083-.504.812-.163.813.025.812.213 1.083.566 1.083.87 1.354 1.457 1.625 2.17 2.707 4.123 2.167 3.163 1.353 1.668 1.354 1.303 1.083.725 1.083.41.813.09.812-.1.812-.284 1.083-.658 1.084-.951 1.353-1.543 1.625-2.24 5.415-7.919 1.354-1.447 1.083-.86 1.084-.557.812-.204.812-.017.812.171.813.356 1.083.747 1.083 1.03 1.354 1.623 1.895 2.711 4.333 6.422 1.353 1.58 1.083.988 1.084.698 1.083.383.812.069.812-.12.813-.305 1.083-.684 1.083-.974 1.354-1.567 1.624-2.259 5.416-7.893 1.353-1.422 1.084-.835 1.083-.53.812-.183.812.004.813.192.812.376 1.083.772 1.083 1.053 1.354 1.645 1.895 2.729 4.062 6.049 1.354 1.625 1.083 1.032 1.083.749 1.083.436.812.11.813-.077.812-.265 1.083-.633 1.083-.928 1.354-1.52 1.625-2.221 5.686-8.265 1.354-1.396 1.083-.81 1.083-.504.812-.162.812.025.813.213 1.083.568 1.083.87 1.354 1.458 1.624 2.171 2.708 4.123 2.166 3.162 1.354 1.668 1.354 1.302 1.083.724 1.083.409.812.09.813-.1.812-.285 1.083-.659 1.083-.952 1.354-1.543 1.625-2.24 5.415-7.919 1.354-1.447 1.083-.859 1.083-.555.813-.205.812-.016.812.172.812.357 1.084.747 1.083 1.031 1.353 1.623 1.896 2.712 4.332 6.421 1.354 1.58 1.083.987 1.083.698 1.083.381.813.069.812-.12.812-.306 1.083-.685 1.083-.975 1.354-1.567 1.625-2.26 5.415-7.891 1.354-1.422 1.083-.834 1.083-.53.813-.183.812.005.812.193.813.377 1.083.772 1.083 1.053 1.354 1.646 1.624 2.32h0" clip-path="url(#p322fce802d)" style="fill:none;stroke:#d62728;stroke-width:1.5px;stroke-linecap:square"/><path id="line2d_18" d="m73.833 57.717.27.058.542.464.542.928.541 1.39.812 2.945.813 3.954 1.083 6.754 1.083 8.262 1.354 11.988 5.686 52.855 1.083 7.51 1.083 6.115 1.083 4.678.813 2.59.812 1.856.812 1.186.542.457.541.22.542.008.541-.176.813-.553.812-.826 1.354-1.776 3.25-4.912 2.436-3.427 8.665-11.636 2.978-4.207 1.625-1.933 1.354-1.242 1.083-.682.812-.3.812-.108.813.095.812.302.812.506 1.083.983 1.083 1.307 1.354 2.021 1.896 3.345 4.061 7.447 1.354 2.014 1.083 1.284 1.083.935.813.448.812.219.812-.016.813-.25.812-.481.812-.7 1.083-1.25 1.354-1.994 1.625-2.864 5.144-9.527 1.354-1.87 1.083-1.126.813-.598.812-.37.812-.136.813.103.812.339.812.567 1.083 1.089 1.083 1.429 1.354 2.176 1.896 3.526 3.52 6.655 1.354 2.119 1.083 1.37 1.083 1.02.812.511.812.28.813.044.812-.195.812-.43.813-.652 1.083-1.194 1.083-1.518 1.354-2.261 2.166-4.117 2.707-5.12 1.354-2.183 1.083-1.436 1.084-1.097.812-.574.812-.346.812-.109.813.13.812.364.812.593 1.083 1.12 1.084 1.455 1.353 2.202 1.896 3.545 3.52 6.633 1.354 2.092 1.083 1.342 1.083.99.812.486.812.254.813.016.812-.221.812-.455.813-.678 1.083-1.223 1.354-1.972 1.624-2.85 5.416-9.994 1.354-1.81 1.083-1.066.812-.548.812-.32.813-.082.812.156.812.39.813.618 1.083 1.15 1.083 1.48 1.354 2.227 2.166 4.092 2.978 5.62 1.354 2.145 1.083 1.396 1.083 1.05.813.537.812.306.812.07.812-.17.813-.404.812-.63 1.083-1.164 1.083-1.494 1.354-2.238 2.166-4.1 2.979-5.61 1.354-2.131 1.083-1.383 1.083-1.035.812-.524.812-.293.813-.056.812.183.812.417.813.641 1.083 1.18 1.083 1.507 1.354 2.25 2.166 4.108 2.978 5.598 1.354 2.118 1.083 1.37 1.083 1.02.813.51.812.28.812.042.813-.196.812-.43.812-.653 1.083-1.195 1.083-1.519 1.354-2.262 2.166-4.116 2.708-5.12 1.354-2.183 1.083-1.435 1.083-1.097.813-.573.812-.344.812-.109.812.13.813.366.812.593 1.083 1.12 1.083 1.457 1.354 2.202 1.896 3.545 3.52 6.633 1.353 2.091 1.083 1.342 1.084.989.812.485.812.253.812.016.813-.222.812-.456.812-.678 1.084-1.224 1.353-1.973 1.625-2.85 5.415-9.994 1.354-1.808 1.083-1.066.813-.548.812-.318.812-.082.813.156.812.392.812.618 1.083 1.15 1.083 1.483 1.354 2.226 2.166 4.093 2.979 5.62 1.354 2.143 1.083 1.396 1.083 1.05.812.535.813.306.812.068.812-.17.813-.404.812-.63 1.083-1.166 1.083-1.495 1.354-2.239 2.166-4.1 2.978-5.61 1.354-2.13 1.083-1.382 1.084-1.034.812-.523.812-.292.812-.055.813.183.812.417.812.643 1.083 1.18 1.084 1.507 1.353 2.25 2.167 4.11 2.978 5.597 1.354 2.117 1.083 1.369 1.083 1.019.812.51.813.28.812.04.812-.196.813-.43.812-.655 1.083-1.195 1.083-1.52 1.354-2.262 2.166-4.117 2.708-5.12 1.354-2.181 1.083-1.435 1.083-1.096.812-.572.813-.344.812-.108.812.13.812.367.813.594 1.083 1.121 1.083 1.457.812 1.278h0" clip-path="url(#p322fce802d)" style="fill:none;stroke:#9467bd;stroke-width:1.5px;stroke-linecap:square"/><path id="line2d_19" d="m73.833 57.717.27.058.542.464.542.928.541 1.392.812 2.955.813 3.992.812 5.014 1.083 8.22 1.083 9.85 1.354 14.267 2.166 25.781 2.979 35.573 1.354 13.915 1.083 9.418 1.083 7.642.812 4.497.812 3.428.813 2.39.541 1.043.542.631.541.246.542-.108.541-.428.542-.712.812-1.523 1.083-2.686 1.625-4.878 3.52-10.923 1.625-4.274 1.624-3.618 1.625-3.057 1.895-3.083 2.979-4.364 3.249-4.413 1.625-1.881 1.354-1.237 1.083-.693.812-.31.812-.112.813.104.812.329.812.558.812.787 1.084 1.391 1.083 1.75 1.353 2.61 1.896 4.189 3.52 7.896 1.354 2.513 1.083 1.62 1.083 1.196.812.588.813.305.812.015.812-.28.813-.567.812-.844 1.083-1.525 1.083-1.927 1.354-2.857 2.166-5.181 2.708-6.422 1.354-2.726 1.083-1.785 1.083-1.356.812-.701.812-.412.813-.114.812.186.812.484.813.77.812 1.04 1.083 1.762 1.354 2.709 1.895 4.425 3.791 9.032 1.354 2.621 1.083 1.674 1.083 1.224.812.592.813.299.812-.002.812-.303.813-.598.812-.877 1.083-1.572 1.083-1.973 1.354-2.908 2.437-5.909 2.437-5.76 1.354-2.707 1.083-1.76 1.083-1.322.812-.673.813-.381.812-.081.812.22.812.516.813.802 1.083 1.48 1.083 1.896 1.354 2.836 2.166 5.19 2.708 6.498 1.354 2.786 1.083 1.842 1.083 1.419.812.75.812.464.813.165.812-.137.812-.435.813-.725.812-.997 1.083-1.713 1.354-2.662 1.624-3.732 4.333-10.31 1.354-2.569 1.083-1.62.812-.919.812-.64.813-.348.812-.048.812.254.813.55.812.832 1.083 1.518 1.083 1.927 1.354 2.866 2.166 5.21 2.708 6.473 1.354 2.755 1.083 1.809 1.083 1.38.812.719.812.43.813.131.812-.17.812-.469.813-.755.812-1.026 1.083-1.749 1.354-2.695 1.895-4.417 3.791-9.05 1.354-2.639 1.083-1.69 1.083-1.244.813-.608.812-.315.812-.013.812.287.813.582.812.863 1.083 1.555 1.083 1.958 1.354 2.895 2.166 5.23 2.708 6.445 1.354 2.723 1.083 1.775 1.083 1.341.812.688.813.397.812.097.812-.204.813-.501.812-.787 1.083-1.463 1.083-1.88 1.354-2.822 2.166-5.18 2.979-7.104 1.353-2.706 1.084-1.759 1.083-1.321.812-.672.812-.38.813-.08.812.22.812.518.812.803 1.084 1.481 1.083 1.897 1.354 2.837 2.166 5.19 2.707 6.497 1.354 2.786 1.083 1.841 1.083 1.417.813.75.812.463.812.164.813-.138.812-.436.812-.725.813-.998 1.083-1.715 1.354-2.662 1.624-3.733 4.333-10.31 1.353-2.567 1.083-1.62.813-.917.812-.64.812-.347.813-.047.812.255.812.55.813.834 1.083 1.519 1.083 1.928 1.354 2.866 2.166 5.211 2.708 6.472 1.353 2.754 1.083 1.809 1.084 1.378.812.719.812.429.813.13.812-.171.812-.47.812-.756.813-1.027 1.083-1.75 1.354-2.695 1.895-4.418 3.79-9.05 1.355-2.637 1.083-1.69 1.083-1.242.812-.607.813-.314.812-.013.812.288.812.583.813.864 1.083 1.556 1.083 1.959 1.354 2.895 2.166 5.23 2.708 6.446 1.354 2.72 1.083 1.776 1.083 1.34.812.686.812.396.813.097.812-.205.812-.502.813-.788 1.083-1.464 1.083-1.88 1.354-2.823 2.166-5.181 2.978-7.103 1.354-2.705 1.083-1.758 1.083-1.32.813-.671.812-.38.812-.08.813.223.812.518.812.804 1.083 1.482h0" clip-path="url(#p322fce802d)" style="fill:none;stroke:#8c564b;stroke-width:1.5px;stroke-linecap:square"/><path id="line2d_20" d="m73.833 57.717.27.058.542.464.542.928.541 1.392.812 2.957.813 4 .812 5.038 1.083 8.317 1.083 10.096 1.354 14.96 1.625 20.88 2.437 35.024 2.707 38.426 1.354 16.635 1.083 11.273 1.083 9.117.813 5.304.812 3.95.542 1.884.541 1.299.542.732.27.162.271.031.271-.095.541-.554.542-1.002.812-2.25.813-3.004 1.083-4.896 1.895-9.95 2.708-14.276 1.624-7.324 1.354-5.08 1.354-4.132 1.083-2.687 1.354-2.716 1.354-2.172 1.625-2.127 1.895-2.095 2.166-2.057 1.625-1.242 1.083-.604 1.083-.357.812-.072.813.124.812.338.812.569.813.807 1.083 1.453 1.083 1.87 1.354 2.865 1.624 4.048 5.416 14.17 1.083 2.114 1.083 1.634.812.863.812.526.542.156.542-.004.541-.165.812-.546.813-.898.812-1.231 1.083-2.116 1.354-3.292 1.625-4.63 4.603-13.572 1.354-3.092 1.083-1.91.812-1.05.812-.694.813-.324.541-.006.542.163.812.558.812.921.813 1.264 1.083 2.17 1.354 3.367 1.624 4.718 4.332 13.017 1.354 3.238 1.083 2.04.813 1.154.812.802.812.433.542.077.541-.092.542-.261.812-.703.813-1.06.812-1.394 1.083-2.323 1.354-3.517 1.895-5.668 3.25-9.875 1.353-3.477 1.083-2.281 1.084-1.736.812-.903.812-.536.542-.148.541.021.542.192.812.6.812.963.813 1.304 1.083 2.22 1.354 3.416 1.895 5.593 3.79 11.441 1.355 3.33 1.083 2.13.812 1.23.812.883.813.515.541.134.542-.036.541-.206.813-.62.812-.983.812-1.323 1.083-2.24 1.354-3.439 1.896-5.609 3.52-10.687 1.354-3.436 1.083-2.238 1.083-1.688.812-.862.812-.494.542-.12.541.05.542.22.812.641.813 1.003.812 1.341 1.083 2.262 1.354 3.459 1.895 5.625 3.52 10.67 1.354 3.415 1.083 2.217 1.083 1.663.813.842.812.473.541.106.542-.065.542-.234.812-.662.812-1.022.812-1.36 1.084-2.283 1.353-3.479 1.896-5.64 3.52-10.654 1.354-3.393 1.083-2.196.812-1.284.812-.941.813-.577.541-.176.542-.006.541.163.813.56.812.924.812 1.269 1.083 2.177 1.354 3.375 1.625 4.728 4.332 13.033 1.354 3.24 1.083 2.04.812 1.154.813.802.812.43.542.078.541-.093.542-.262.812-.704.812-1.061.813-1.396 1.083-2.325 1.354-3.519 1.895-5.67 3.25-9.875 1.353-3.476 1.083-2.28 1.083-1.735.813-.901.812-.536.541-.147.542.022.541.192.813.601.812.965.812 1.305 1.084 2.22 1.353 3.418 1.896 5.594 3.79 11.44 1.354 3.33 1.083 2.129.813 1.228.812.882.812.514.542.133.542-.037.541-.206.812-.622.813-.984.812-1.324 1.083-2.241 1.354-3.44 1.895-5.61 3.52-10.686 1.354-3.434 1.083-2.238 1.083-1.686.813-.861.812-.493.542-.12.541.052.542.22.812.643.812 1.003.813 1.343 1.083 2.263 1.354 3.46 1.895 5.625 3.52 10.67 1.354 3.414 1.083 2.216 1.083 1.66.812.842.813.472.541.105.542-.066.541-.234.813-.663.812-1.024.812-1.36 1.083-2.284 1.354-3.48 1.896-5.641 3.52-10.653 1.353-3.393 1.083-2.194.813-1.283.812-.94.812-.577.542-.175.541-.005.542.164.812.56.813.926.812 1.27 1.083 2.178 1.354 3.376 1.625 4.729 4.332 13.032 1.354 3.239 1.083 2.039.812 1.153.812.8.813.43.541.077.542-.094.541-.263.813-.705.812-1.062.812-1.396 1.083-2.326 1.354-3.52 1.896-5.67 3.249-9.875 1.354-3.475 1.083-2.28 1.083-1.733.812-.9.813-.535.541-.146.542.023.541.193.813.602.27.282h0" clip-path="url(#p322fce802d)" style="fill:none;stroke:#e377c2;stroke-width:1.5px;stroke-linecap:square"/><path id="line2d_21" d="m73.833 57.717.27.058.542.464.542.928.541 1.392.812 2.957.813 4.001.812 5.044 1.083 8.343 1.083 10.176 1.354 15.233 1.354 17.86 1.625 24.422L87.1 189.19l2.978 49.14 1.354 19.283 1.083 13.065 1.083 10.524.812 6.052.813 4.4.541 2.004.542 1.27.541.549.271.012.27-.157.542-.806.542-1.426.541-2 .813-3.957 1.083-6.758 1.354-10.127 4.874-38.367 1.353-8.323 1.084-5.49 1.083-4.445 1.083-3.46 1.083-2.587.812-1.451.812-1.105 1.083-1.045 1.084-.683 1.353-.526 1.625-.353 1.895-.163 1.354.084 1.083.257 1.083.493 1.084.793 1.083 1.15 1.083 1.548 1.083 1.969 1.354 3.041 1.354 3.618 1.895 5.763 3.79 11.713 1.355 3.39 1.083 2.134.812 1.193.812.805.542.307.541.117.542-.077.541-.272.542-.467.812-1.06.813-1.472 1.083-2.559 1.083-3.151 1.624-5.575 5.416-19.692 1.083-2.948 1.083-2.295.812-1.236.813-.786.541-.264.542-.053.541.16.542.371.812.944.812 1.39.813 1.807 1.083 2.984 1.354 4.487 1.895 7.183 3.25 12.408 1.353 4.327 1.083 2.817.813 1.66.812 1.23.812.773.542.252.541.037.542-.177.541-.39.813-.974.812-1.422.812-1.838 1.083-3.025 1.354-4.53 1.896-7.226 3.249-12.418 1.354-4.31 1.083-2.794.812-1.64.812-1.206.813-.747.541-.233.542-.02.541.196.542.408.812 1 .813 1.448.812 1.862 1.083 3.052 1.354 4.556 2.166 8.317 2.708 10.38 1.354 4.439 1.083 2.928 1.083 2.245.812 1.182.812.72.542.216.541.001.542-.213.542-.426.812-1.027.812-1.472 1.083-2.595 1.083-3.224 1.354-4.713 2.437-9.49 2.166-8.213 1.354-4.413 1.083-2.901 1.083-2.215.813-1.156.812-.695.541-.197.542.017.542.23.541.444.812 1.053.813 1.496 1.083 2.624 1.083 3.247 1.625 5.75 5.415 20.253 1.083 3.03 1.083 2.366.812 1.28.813.825.541.286.542.073.541-.142.542-.356.541-.566.813-1.228.812-1.66 1.083-2.818 1.354-4.333 1.625-6.026 4.061-15.52 1.354-4.2 1.083-2.683.812-1.546.813-1.106.541-.48.542-.268.541-.055.542.16.541.374.813.951.812 1.4.812 1.819 1.084 3.002 1.353 4.51 1.896 7.212 3.249 12.443 1.354 4.335 1.083 2.82.812 1.662.813 1.231.812.772.541.25.542.037.542-.178.541-.392.812-.977.813-1.424.812-1.84 1.083-3.029 1.354-4.534 1.895-7.229 3.25-12.421 1.353-4.308 1.084-2.793.812-1.639.812-1.205.812-.746.542-.233.542-.018.541.196.542.41.812 1.002.812 1.45 1.083 2.568 1.083 3.2 1.354 4.693 2.437 9.48 2.437 9.175 1.354 4.282 1.083 2.765.812 1.615.813 1.18.812.72.542.215h.541l.542-.214.541-.427.813-1.028.812-1.474 1.083-2.597 1.083-3.224 1.354-4.715 2.437-9.491 2.166-8.211 1.354-4.412 1.083-2.9 1.083-2.213.812-1.155.813-.693.541-.197.542.018.541.232.542.445.812 1.054.812 1.497 1.084 2.626 1.083 3.248 1.624 5.75 5.416 20.253 1.083 3.028 1.083 2.364.812 1.28.812.823.542.285.542.072.541-.144.542-.356.541-.567.812-1.23.813-1.66 1.083-2.82 1.354-4.335 1.624-6.026 4.062-15.52 1.354-4.198 1.083-2.682.812-1.544.812-1.104.542-.48.542-.267.541-.054.542.162.541.374.813.952.812 1.402.812 1.82 1.083 3.003 1.354 4.511 1.895 7.214 3.25 12.442 1.354 4.333 1.083 2.82.812 1.66.812 1.229.813.77.541.25.542.036.541-.18.542-.392.812-.978.812-1.426.813-1.842 1.083-3.03 1.354-4.535 1.895-7.23 3.25-12.42 1.353-4.306 1.083-2.792.813-1.637.812-1.204.812-.744.542-.232.541-.017h0" clip-path="url(#p322fce802d)" style="fill:none;stroke:#7f7f7f;stroke-width:1.5px;stroke-linecap:square"/><path id="patch_3" d="M57.6 307.584V41.472" style="fill:none;stroke:#000;stroke-width:.8px;stroke-linejoin:miter;stroke-linecap:square"/><path id="patch_4" d="M414.72 307.584V41.472" style="fill:none;stroke:#000;stroke-width:.8px;stroke-linejoin:miter;stroke-linecap:square"/><path id="patch_5" d="M57.6 307.584h357.12" style="fill:none;stroke:#000;stroke-width:.8px;stroke-linejoin:miter;stroke-linecap:square"/><path id="patch_6" d="M57.6 41.472h357.12" style="fill:none;stroke:#000;stroke-width:.8px;stroke-linejoin:miter;stroke-linecap:square"/><g id="text_16"><g transform="matrix(.12 0 0 -.12 133.32 35.472)"><defs><path id="DejaVuSans-66" d="M2375 4863v-479h-550q-309 0-430-125-120-125-120-450v-309h947v-447h-947V0H697v3053H147v447h550v244q0 584 272 851 272 268 862 268Z" transform="scale(.01563)"/><path id="DejaVuSans-61" d="M2194 1759q-697 0-966-159t-269-544q0-306 202-486 202-179 548-179 479 0 768 339t289 901v128Zm1147 238V0h-575v531q-197-318-491-470T1556-91q-537 0-855 302-317 302-317 808 0 590 395 890 396 300 1180 300h807v57q0 397-261 614t-733 217q-300 0-585-72-284-72-546-216v532q315 122 612 182 297 61 578 61 760 0 1135-394 375-393 375-1193" transform="scale(.01563)"/><path id="DejaVuSans-67" d="M2906 1791q0 625-258 968-257 344-723 344-462 0-720-344-258-343-258-968 0-622 258-966t720-344q466 0 723 344 258 344 258 966m575-1357q0-893-397-1329-396-436-1215-436-303 0-572 45t-522 139v559q253-137 500-202 247-66 503-66 566 0 847 295t281 892v285q-178-310-456-463T1784 0Q1141 0 747 490 353 981 353 1791q0 812 394 1302 394 491 1037 491 388 0 666-153t456-462v531h575Z" transform="scale(.01563)"/><path id="DejaVuSans-Oblique-66" d="m3059 4863-90-479h-550q-313 0-455-123t-211-452l-62-309h947l-85-447h-947L1013 0H434l597 3053H481l82 447h550l46 244q119 619 417 869 299 250 940 250Z" transform="scale(.01563)"/><path id="DejaVuSans-3d" d="M678 2906h4006v-525H678Zm0-1275h4006v-531H678Z" transform="scale(.01563)"/><path id="DejaVuSans-72" d="M2631 2963q-97 56-211 82-114 27-251 27-488 0-749-317t-261-911V0H581v3500h578v-544q182 319 472 473 291 155 707 155 59 0 131-8 72-7 159-23Z" transform="scale(.01563)"/><path id="DejaVuSans-64" d="M2906 2969v1894h575V0h-575v525q-181-312-458-464-276-152-664-152-634 0-1033 506-398 507-398 1332t398 1331q399 506 1033 506 388 0 664-152 277-151 458-463M947 1747q0-634 261-995t717-361 718 361q263 361 263 995t-263 995q-262 361-718 361t-717-361-261-995" transform="scale(.01563)"/><path id="DejaVuSans-2f" d="M1625 4666h531L531-594H0Z" transform="scale(.01563)"/></defs><use xlink:href="#DejaVuSans-79" transform="translate(0 .016)"/><use xlink:href="#DejaVuSans-2d" transform="translate(59.18 .016)"/><use xlink:href="#DejaVuSans-70" transform="translate(95.264 .016)"/><use xlink:href="#DejaVuSans-6f" transform="translate(158.74 .016)"/><use xlink:href="#DejaVuSans-73" transform="translate(219.922 .016)"/><use xlink:href="#DejaVuSans-69" transform="translate(272.022 .016)"/><use xlink:href="#DejaVuSans-74" transform="translate(299.805 .016)"/><use xlink:href="#DejaVuSans-69" transform="translate(339.014 .016)"/><use xlink:href="#DejaVuSans-6f" transform="translate(366.797 .016)"/><use xlink:href="#DejaVuSans-6e" transform="translate(427.979 .016)"/><use xlink:href="#DejaVuSans-73" transform="translate(491.357 .016)"/><use xlink:href="#DejaVuSans-6f" transform="translate(575.244 .016)"/><use xlink:href="#DejaVuSans-66" transform="translate(636.426 .016)"/><use xlink:href="#DejaVuSans-61" transform="translate(703.418 .016)"/><use xlink:href="#DejaVuSans-67" transform="translate(764.697 .016)"/><use xlink:href="#DejaVuSans-65" transform="translate(828.174 .016)"/><use xlink:href="#DejaVuSans-6e" transform="translate(889.697 .016)"/><use xlink:href="#DejaVuSans-74" transform="translate(953.076 .016)"/><use xlink:href="#DejaVuSans-73" transform="translate(992.285 .016)"/><use xlink:href="#DejaVuSans-61" transform="translate(1076.17 .016)"/><use xlink:href="#DejaVuSans-74" transform="translate(1137.45 .016)"/><use xlink:href="#DejaVuSans-Oblique-66" transform="translate(1208.45 .016)"/><use xlink:href="#DejaVuSans-3d" transform="translate(1263.14 .016)"/><use xlink:href="#DejaVuSans-31" transform="translate(1366.41 .016)"/><use xlink:href="#DejaVuSans-72" transform="translate(1461.82 .016)"/><use xlink:href="#DejaVuSans-61" transform="translate(1502.93 .016)"/><use xlink:href="#DejaVuSans-64" transform="translate(1564.21 .016)"/><use xlink:href="#DejaVuSans-2f" transform="translate(1627.69 .016)"/><use xlink:href="#DejaVuSans-73" transform="translate(1661.38 .016)"/></g></g><g id="legend_1"><path id="patch_7" d="M64.6 302.584h71.14q2 0 2-2V184.159q0-2-2-2H64.6q-2 0-2 2v116.425q0 2 2 2Z" style="fill:#fff;opacity:.8;stroke:#ccc;stroke-linejoin:miter"/><path id="line2d_22" d="M66.6 190.257h20" style="fill:none;stroke:#1f77b4;stroke-width:1.5px;stroke-linecap:square"/><g id="text_17"><g transform="matrix(.1 0 0 -.1 94.6 193.757)"><defs><path id="DejaVuSans-41" d="m2188 4044-857-2322h1716Zm-357 622h716L4325 0h-656l-425 1197H1141L716 0H50Z" transform="scale(.01563)"/></defs><use xlink:href="#DejaVuSans-41"/><use xlink:href="#DejaVuSans-67" transform="translate(68.408)"/><use xlink:href="#DejaVuSans-65" transform="translate(131.885)"/><use xlink:href="#DejaVuSans-6e" transform="translate(193.408)"/><use xlink:href="#DejaVuSans-74" transform="translate(256.787)"/><use xlink:href="#DejaVuSans-30" transform="translate(327.783)"/></g></g><path id="line2d_23" d="M66.6 204.936h20" style="fill:none;stroke:#ff7f0e;stroke-width:1.5px;stroke-linecap:square"/><g id="text_18"><g transform="matrix(.1 0 0 -.1 94.6 208.436)"><use xlink:href="#DejaVuSans-41"/><use xlink:href="#DejaVuSans-67" transform="translate(68.408)"/><use xlink:href="#DejaVuSans-65" transform="translate(131.885)"/><use xlink:href="#DejaVuSans-6e" transform="translate(193.408)"/><use xlink:href="#DejaVuSans-74" transform="translate(256.787)"/><use xlink:href="#DejaVuSans-31" transform="translate(327.783)"/></g></g><path id="line2d_24" d="M66.6 219.614h20" style="fill:none;stroke:#2ca02c;stroke-width:1.5px;stroke-linecap:square"/><g id="text_19"><g transform="matrix(.1 0 0 -.1 94.6 223.114)"><use xlink:href="#DejaVuSans-41"/><use xlink:href="#DejaVuSans-67" transform="translate(68.408)"/><use xlink:href="#DejaVuSans-65" transform="translate(131.885)"/><use xlink:href="#DejaVuSans-6e" transform="translate(193.408)"/><use xlink:href="#DejaVuSans-74" transform="translate(256.787)"/><use xlink:href="#DejaVuSans-32" transform="translate(327.783)"/></g></g><path id="line2d_25" d="M66.6 234.292h20" style="fill:none;stroke:#d62728;stroke-width:1.5px;stroke-linecap:square"/><g id="text_20"><g transform="matrix(.1 0 0 -.1 94.6 237.792)"><use xlink:href="#DejaVuSans-41"/><use xlink:href="#DejaVuSans-67" transform="translate(68.408)"/><use xlink:href="#DejaVuSans-65" transform="translate(131.885)"/><use xlink:href="#DejaVuSans-6e" transform="translate(193.408)"/><use xlink:href="#DejaVuSans-74" transform="translate(256.787)"/><use xlink:href="#DejaVuSans-33" transform="translate(327.783)"/></g></g><path id="line2d_26" d="M66.6 248.97h20" style="fill:none;stroke:#9467bd;stroke-width:1.5px;stroke-linecap:square"/><g id="text_21"><g transform="matrix(.1 0 0 -.1 94.6 252.47)"><use xlink:href="#DejaVuSans-41"/><use xlink:href="#DejaVuSans-67" transform="translate(68.408)"/><use xlink:href="#DejaVuSans-65" transform="translate(131.885)"/><use xlink:href="#DejaVuSans-6e" transform="translate(193.408)"/><use xlink:href="#DejaVuSans-74" transform="translate(256.787)"/><use xlink:href="#DejaVuSans-34" transform="translate(327.783)"/></g></g><path id="line2d_27" d="M66.6 263.648h20" style="fill:none;stroke:#8c564b;stroke-width:1.5px;stroke-linecap:square"/><g id="text_22"><g transform="matrix(.1 0 0 -.1 94.6 267.148)"><use xlink:href="#DejaVuSans-41"/><use xlink:href="#DejaVuSans-67" transform="translate(68.408)"/><use xlink:href="#DejaVuSans-65" transform="translate(131.885)"/><use xlink:href="#DejaVuSans-6e" transform="translate(193.408)"/><use xlink:href="#DejaVuSans-74" transform="translate(256.787)"/><use xlink:href="#DejaVuSans-35" transform="translate(327.783)"/></g></g><path id="line2d_28" d="M66.6 278.326h20" style="fill:none;stroke:#e377c2;stroke-width:1.5px;stroke-linecap:square"/><g id="text_23"><g transform="matrix(.1 0 0 -.1 94.6 281.826)"><use xlink:href="#DejaVuSans-41"/><use xlink:href="#DejaVuSans-67" transform="translate(68.408)"/><use xlink:href="#DejaVuSans-65" transform="translate(131.885)"/><use xlink:href="#DejaVuSans-6e" transform="translate(193.408)"/><use xlink:href="#DejaVuSans-74" transform="translate(256.787)"/><use xlink:href="#DejaVuSans-36" transform="translate(327.783)"/></g></g><path id="line2d_29" d="M66.6 293.004h20" style="fill:none;stroke:#7f7f7f;stroke-width:1.5px;stroke-linecap:square"/><g id="text_24"><g transform="matrix(.1 0 0 -.1 94.6 296.504)"><defs><path id="DejaVuSans-37" d="M525 4666h3000v-269L1831 0h-659l1594 4134H525Z" transform="scale(.01563)"/></defs><use xlink:href="#DejaVuSans-41"/><use xlink:href="#DejaVuSans-67" transform="translate(68.408)"/><use xlink:href="#DejaVuSans-65" transform="translate(131.885)"/><use xlink:href="#DejaVuSans-6e" transform="translate(193.408)"/><use xlink:href="#DejaVuSans-74" transform="translate(256.787)"/><use xlink:href="#DejaVuSans-37" transform="translate(327.783)"/></g></g></g></g></g><defs><clipPath id="p322fce802d"><path d="M57.6 41.472h357.12v266.112H57.6Z"/></clipPath></defs></svg>