<svg xmlns="http://www.w3.org/2000/svg" xmlns:xlink="http://www.w3.org/1999/xlink" width="628.938" height="415.448" viewBox="0 0 471.703 311.586"><defs><style>*{stroke-linejoin:round;stroke-linecap:butt}</style></defs><g id="figure_1"><path id="patch_1" d="M0 311.586h471.703V0H0Z" style="fill:#fff"/><g id="axes_1"><path id="patch_2" d="M57.292 281.23h357.12V15.118H57.292Z" style="fill:#fff"/><path id="patch_3" d="M108.309 186.19h255.085v-38.016H108.31Z" clip-path="url(#p4a12537b48)" style="fill:red;stroke:#000;stroke-linejoin:miter"/><path id="patch_4" d="M108.309 148.174h102.034v-38.016H108.309Z" clip-path="url(#p4a12537b48)" style="fill:red;stroke:#000;stroke-linejoin:miter"/><path id="patch_5" d="M261.36 148.174h102.034v-38.016H261.36Z" clip-path="url(#p4a12537b48)" style="fill:red;stroke:#000;stroke-linejoin:miter"/><path id="patch_6" d="m269.97 110.158-8.61 2.139v-1.426h-25.508v-1.426h25.508v-1.425Z" clip-path="url(#p4a12537b48)" style="fill:#00f;stroke:#00f;stroke-linejoin:miter"/><path id="patch_7" d="m269.97 129.166-8.61 2.139v-1.426h-25.508v-1.426h25.508v-1.425Z" clip-path="url(#p4a12537b48)" style="stroke:#000;stroke-linejoin:miter"/><g id="matplotlib.axis_1"><g id="xtick_1"><g id="line2d_1"><defs><path id="mbcc40abb56" d="M0 0v3.5" style="stroke:#000;stroke-width:.8px"/></defs><use xlink:href="#mbcc40abb56" x="57.292" y="281.23" style="stroke:#000;stroke-width:.8px"/></g><g id="text_1"><g transform="matrix(.1 0 0 -.1 49.92 295.829)"><defs><path id="DejaVuSans-2212" d="M678 2272h4006v-531H678Z" transform="scale(.01563)"/><path id="DejaVuSans-32" d="M1228 531h2203V0H469v531q359 372 979 998 621 627 780 809 303 340 423 576 121 236 121 464 0 372-261 606-261 235-680 235-297 0-627-103-329-103-704-313v638q381 153 712 231 332 78 607 78 725 0 1156-363 431-362 431-968 0-288-108-546-107-257-392-607-78-91-497-524-418-433-1181-1211" transform="scale(.01563)"/></defs><use xlink:href="#DejaVuSans-2212"/><use xlink:href="#DejaVuSans-32" transform="translate(83.79)"/></g></g></g><g id="xtick_2"><use xlink:href="#mbcc40abb56" id="line2d_2" x="108.309" y="281.23" style="stroke:#000;stroke-width:.8px"/><g id="text_2"><g transform="matrix(.1 0 0 -.1 105.127 295.829)"><defs><path id="DejaVuSans-30" d="M2034 4250q-487 0-733-480-245-479-245-1442 0-959 245-1439 246-480 733-480 491 0 736 480 246 480 246 1439 0 963-246 1442-245 480-736 480m0 500q785 0 1199-621 414-620 414-1801 0-1178-414-1799Q2819-91 2034-91q-784 0-1198 620-414 621-414 1799 0 1181 414 1801 414 621 1198 621" transform="scale(.01563)"/></defs><use xlink:href="#DejaVuSans-30"/></g></g></g><g id="xtick_3"><use xlink:href="#mbcc40abb56" id="line2d_3" x="159.326" y="281.23" style="stroke:#000;stroke-width:.8px"/><use xlink:href="#DejaVuSans-32" id="text_3" transform="matrix(.1 0 0 -.1 156.145 295.829)"/></g><g id="xtick_4"><use xlink:href="#mbcc40abb56" id="line2d_4" x="210.343" y="281.23" style="stroke:#000;stroke-width:.8px"/><g id="text_4"><g transform="matrix(.1 0 0 -.1 207.162 295.829)"><defs><path id="DejaVuSans-34" d="M2419 4116 825 1625h1594Zm-166 550h794V1625h666v-525h-666V0h-628v1100H313v609Z" transform="scale(.01563)"/></defs><use xlink:href="#DejaVuSans-34"/></g></g></g><g id="xtick_5"><use xlink:href="#mbcc40abb56" id="line2d_5" x="261.36" y="281.23" style="stroke:#000;stroke-width:.8px"/><g id="text_5"><g transform="matrix(.1 0 0 -.1 258.179 295.829)"><defs><path id="DejaVuSans-36" d="M2113 2584q-425 0-674-291-248-290-248-796 0-503 248-796 249-292 674-292t673 292q248 293 248 796 0 506-248 796-248 291-673 291m1253 1979v-575q-238 112-480 171-242 60-480 60-625 0-955-422-329-422-376-1275 184 272 462 417 279 145 613 145 703 0 1111-427 408-426 408-1160 0-719-425-1154Q2819-91 2113-91q-810 0-1238 620-428 621-428 1799 0 1106 525 1764t1409 658q238 0 480-47t505-140" transform="scale(.01563)"/></defs><use xlink:href="#DejaVuSans-36"/></g></g></g><g id="xtick_6"><use xlink:href="#mbcc40abb56" id="line2d_6" x="312.377" y="281.23" style="stroke:#000;stroke-width:.8px"/><g id="text_6"><g transform="matrix(.1 0 0 -.1 309.196 295.829)"><defs><path id="DejaVuSans-38" d="M2034 2216q-450 0-708-241-257-241-257-662 0-422 257-663 258-241 708-241t709 242q260 243 260 662 0 421-258 662-257 241-711 241m-631 268q-406 100-633 378-226 279-226 679 0 559 398 884 399 325 1092 325 697 0 1094-325t397-884q0-400-227-679-226-278-629-378 456-106 710-416 255-309 255-755 0-679-414-1042Q2806-91 2034-91q-771 0-1186 362-414 363-414 1042 0 446 256 755 257 310 713 416m-231 997q0-362 226-565 227-203 636-203 407 0 636 203 230 203 230 565 0 363-230 566-229 203-636 203-409 0-636-203-226-203-226-566" transform="scale(.01563)"/></defs><use xlink:href="#DejaVuSans-38"/></g></g></g><g id="xtick_7"><use xlink:href="#mbcc40abb56" id="line2d_7" x="363.394" y="281.23" style="stroke:#000;stroke-width:.8px"/><g id="text_7"><g transform="matrix(.1 0 0 -.1 357.032 295.829)"><defs><path id="DejaVuSans-31" d="M794 531h1031v3560L703 3866v575l1116 225h631V531h1031V0H794Z" transform="scale(.01563)"/></defs><use xlink:href="#DejaVuSans-31"/><use xlink:href="#DejaVuSans-30" transform="translate(63.623)"/></g></g></g><g id="xtick_8"><use xlink:href="#mbcc40abb56" id="line2d_8" x="414.412" y="281.23" style="stroke:#000;stroke-width:.8px"/><g id="text_8"><g transform="matrix(.1 0 0 -.1 408.05 295.829)"><use xlink:href="#DejaVuSans-31"/><use xlink:href="#DejaVuSans-32" transform="translate(63.623)"/></g></g></g><g id="text_9"><g transform="matrix(.1 0 0 -.1 232.892 309.507)"><defs><path id="DejaVuSans-78" d="M3513 3500 2247 1797 3578 0h-678L1881 1375 863 0H184l1360 1831L300 3500h678l928-1247 928 1247Z" transform="scale(.01563)"/></defs><use xlink:href="#DejaVuSans-78"/></g></g></g><g id="matplotlib.axis_2"><g id="ytick_1"><g id="line2d_9"><defs><path id="m3559e4dbbd" d="M0 0h-3.5" style="stroke:#000;stroke-width:.8px"/></defs><use xlink:href="#m3559e4dbbd" x="57.292" y="281.23" style="stroke:#000;stroke-width:.8px"/></g><g id="text_10"><g transform="matrix(.1 0 0 -.1 35.55 285.03)"><use xlink:href="#DejaVuSans-2212"/><use xlink:href="#DejaVuSans-32" transform="translate(83.79)"/></g></g></g><g id="ytick_2"><use xlink:href="#m3559e4dbbd" id="line2d_10" x="57.292" y="243.214" style="stroke:#000;stroke-width:.8px"/><use xlink:href="#DejaVuSans-30" id="text_11" transform="matrix(.1 0 0 -.1 43.93 247.013)"/></g><g id="ytick_3"><use xlink:href="#m3559e4dbbd" id="line2d_11" x="57.292" y="205.198" style="stroke:#000;stroke-width:.8px"/><use xlink:href="#DejaVuSans-32" id="text_12" transform="matrix(.1 0 0 -.1 43.93 208.997)"/></g><g id="ytick_4"><use xlink:href="#m3559e4dbbd" id="line2d_12" x="57.292" y="167.182" style="stroke:#000;stroke-width:.8px"/><use xlink:href="#DejaVuSans-34" id="text_13" transform="matrix(.1 0 0 -.1 43.93 170.981)"/></g><g id="ytick_5"><use xlink:href="#m3559e4dbbd" id="line2d_13" x="57.292" y="129.166" style="stroke:#000;stroke-width:.8px"/><use xlink:href="#DejaVuSans-36" id="text_14" transform="matrix(.1 0 0 -.1 43.93 132.965)"/></g><g id="ytick_6"><use xlink:href="#m3559e4dbbd" id="line2d_14" x="57.292" y="91.15" style="stroke:#000;stroke-width:.8px"/><use xlink:href="#DejaVuSans-38" id="text_15" transform="matrix(.1 0 0 -.1 43.93 94.95)"/></g><g id="ytick_7"><use xlink:href="#m3559e4dbbd" id="line2d_15" x="57.292" y="53.134" style="stroke:#000;stroke-width:.8px"/><g id="text_16"><g transform="matrix(.1 0 0 -.1 37.567 56.933)"><use xlink:href="#DejaVuSans-31"/><use xlink:href="#DejaVuSans-30" transform="translate(63.623)"/></g></g></g><g id="ytick_8"><use xlink:href="#m3559e4dbbd" id="line2d_16" x="57.292" y="15.118" style="stroke:#000;stroke-width:.8px"/><g id="text_17"><g transform="matrix(.1 0 0 -.1 37.567 18.917)"><use xlink:href="#DejaVuSans-31"/><use xlink:href="#DejaVuSans-32" transform="translate(63.623)"/></g></g></g><g id="text_18"><g transform="matrix(0 -.1 -.1 0 29.47 151.134)"><defs><path id="DejaVuSans-79" d="M2059-325q-243-625-475-815-231-191-618-191H506v481h338q237 0 368 113 132 112 291 531l103 262L191 3500h609L1894 763l1094 2737h609Z" transform="scale(.01563)"/></defs><use xlink:href="#DejaVuSans-79"/></g></g></g><g id="line2d_17"><defs><path id="m3ae328f891" d="M0 4a4 4 0 1 0-.00015477436545552337-8A4 4 0 0 0 0 4Z" style="stroke:#00f"/></defs><g clip-path="url(#p4a12537b48)"><use xlink:href="#m3ae328f891" x="235.852" y="110.158" style="fill:#00f;stroke:#00f"/></g></g><g id="line2d_18"><defs><path id="m5235076316" d="M0 4a4 4 0 1 0-.00015477436545552337-8A4 4 0 0 0 0 4Z" style="stroke:#000"/></defs><g clip-path="url(#p4a12537b48)"><use xlink:href="#m5235076316" x="235.852" y="129.166" style="stroke:#000"/></g></g><path id="line2d_19" d="m235.852 110.158 1.023-.01 1.024-.03 1.021-.052 1.02-.071 1.017-.092 1.012-.112 1.009-.132 1.004-.152.997-.172.991-.192.984-.212.976-.23.967-.251.958-.27.948-.289.937-.307.926-.326.914-.345.9-.362.888-.38.874-.399.86-.415.843-.432.828-.45.812-.464.795-.482.777-.497.759-.512.74-.527.721-.542.701-.556.682-.57.66-.583.64-.596.617-.608.595-.621.574-.633.55-.643.527-.654.503-.665.485-.672.475-.676.465-.68.458-.683.45-.685.445-.687.44-.69.435-.69.433-.692.43-.692.429-.693.427-.693.428-.694.43-.693.43-.692.432-.692.436-.69.44-.69.446-.686.45-.685.459-.683.466-.68.476-.675.486-.671.5-.667.519-.657.542-.648.565-.636.588-.625.61-.613.632-.6.653-.588.674-.574.694-.561.715-.547" clip-path="url(#p4a12537b48)" style="fill:none;stroke:#00f;stroke-width:1.5px;stroke-linecap:square"/><path id="line2d_20" d="m286.869 72.142-27.592 20.69-1.895 1.801-1.695 1.909-1.98 2.67-2.697 4.114-6.133 9.656-1.99 2.667-1.719 1.897-1.917 1.787-2.104 1.668-2.276 1.536-2.434 1.396-2.577 1.245-2.703 1.088-2.81.922-2.901.751-2.973.576-3.025.396-3.058.214-2.047.041h0" clip-path="url(#p4a12537b48)" style="fill:none;stroke:red;stroke-width:1.5px;stroke-linecap:square"/><path id="line2d_21" d="M210.343 129.166h25.508" clip-path="url(#p4a12537b48)" style="fill:none;stroke:#00f;stroke-width:1.5px;stroke-linecap:square"/><path id="patch_8" d="M57.292 281.23V15.118" style="fill:none;stroke:#000;stroke-width:.8px;stroke-linejoin:miter;stroke-linecap:square"/><path id="patch_9" d="M57.292 281.23h357.12" style="fill:none;stroke:#000;stroke-width:.8px;stroke-linejoin:miter;stroke-linecap:square"/><g id="text_19"><g transform="matrix(.12 0 0 -.12 0 9.118)"><defs><path id="DejaVuSans-Bold-42" d="M2456 2859q285 0 431 125 147 125 147 369 0 241-147 367-146 127-431 127h-665v-988Zm41-2040q362 0 545 153t183 462q0 304-181 455-181 152-547 152h-706V819Zm1119 1678q387-113 599-416 213-303 213-743 0-675-456-1007Q3516 0 2584 0H588v4666h1806q972 0 1408-294t436-941q0-340-160-579-159-239-462-355" transform="scale(.01563)"/><path id="DejaVuSans-Bold-72" d="M3138 2547q-147 69-293 101-145 33-292 33-431 0-664-277-233-276-233-791V0H538v3500h1118v-575q216 344 495 501 280 158 671 158 56 0 121-5 66-4 191-20Z" transform="scale(.01563)"/><path id="DejaVuSans-Bold-65" d="M4031 1759v-318H1416q40-394 284-591t681-197q353 0 723 105 371 105 762 317V213Q3469 63 3072-14t-794-77q-950 0-1477 483-526 483-526 1355 0 856 517 1346 517 491 1424 491 825 0 1320-497 495-496 495-1328m-1150 372q0 319-186 514-186 196-486 196-325 0-528-183t-253-527Z" transform="scale(.01563)"/><path id="DejaVuSans-Bold-61" d="M2106 1575q-350 0-527-119-176-118-176-350 0-212 142-333 143-120 396-120 315 0 531 226 216 227 216 568v128Zm1710 422V0H2688v519q-225-319-507-465-281-145-684-145-544 0-883 317-339 318-339 824 0 616 423 903 424 288 1330 288h660v87q0 266-210 389-209 124-653 124-359 0-669-72-309-72-575-216v853q360 88 722 133 363 45 725 45 947 0 1367-373 421-373 421-1214" transform="scale(.01563)"/><path id="DejaVuSans-Bold-64" d="M2919 2988v1875h1125V0H2919v506q-231-309-510-453-278-144-643-144-647 0-1063 514-415 515-415 1324t415 1323q416 514 1063 514 362 0 642-145t511-451M2181 722q360 0 549 262 189 263 189 763t-189 762q-189 263-549 263-356 0-545-263-189-262-189-762t189-763q189-262 545-262" transform="scale(.01563)"/><path id="DejaVuSans-Bold-74" d="M1759 4494v-994h1154v-800H1759V1216q0-244 97-330t385-86h575V0h-960q-662 0-939 276-276 277-276 940v1484H84v800h557v994Z" transform="scale(.01563)"/><path id="DejaVuSans-Bold-68" d="M4056 2131V0H2931v1625q0 459-20 631t-70 253q-66 110-179 171-112 61-256 61-350 0-550-271-200-270-200-748V0H538v4863h1118V2988q253 306 537 451 285 145 629 145 606 0 920-372 314-371 314-1081" transform="scale(.01563)"/><path id="DejaVuSans-Bold-46" d="M588 4666h3246v-910H1791v-868h1922v-910H1791V0H588Z" transform="scale(.01563)"/><path id="DejaVuSans-Bold-69" d="M538 3500h1118V0H538Zm0 1363h1118v-913H538Z" transform="scale(.01563)"/><path id="DejaVuSans-Bold-73" d="M3272 3391v-850q-359 150-694 225-334 75-631 75-319 0-474-80-154-80-154-245 0-135 117-207 117-71 420-106l197-28q860-109 1156-359 297-250 297-785 0-559-413-841Q2681-91 1863-91q-347 0-718 55-370 55-761 164v850q335-162 686-244 352-81 714-81 329 0 494 90 166 91 166 270 0 150-114 223t-455 114l-197 25q-747 94-1047 347t-300 769q0 556 381 824 382 269 1169 269 310 0 650-47 341-46 741-146" transform="scale(.01563)"/><path id="DejaVuSans-Bold-28" d="M2413-844h-929Q1006-72 778 623q-228 696-228 1380 0 685 229 1386 230 702 705 1467h929q-400-740-600-1448t-200-1399q0-690 198-1400 198-709 602-1453" transform="scale(.01563)"/><path id="DejaVuSans-Bold-6c" d="M538 4863h1118V0H538Z" transform="scale(.01563)"/><path id="DejaVuSans-Bold-6e" d="M4056 2131V0H2931v1631q0 453-20 625t-70 253q-66 110-179 171-112 61-256 61-350 0-550-271-200-270-200-748V0H538v3500h1118v-512q253 306 537 451 285 145 629 145 606 0 920-372 314-371 314-1081" transform="scale(.01563)"/><path id="DejaVuSans-Bold-67" d="M2919 594q-231-306-510-450Q2131 0 1766 0 1125 0 706 504q-418 505-418 1287 0 784 418 1285 419 502 1060 502 365 0 643-144 279-143 510-453v519h1125V353q0-844-533-1289t-1545-445q-328 0-635 50-306 50-615 153v872q293-169 574-252 282-83 566-83 550 0 806 241 257 241 257 753Zm-738 2178q-347 0-541-257-193-256-193-724 0-482 187-730 188-248 547-248 350 0 544 256t194 722q0 468-194 724-194 257-544 257" transform="scale(.01563)"/><path id="DejaVuSans-Bold-3a" d="M716 3500h1128V2291H716Zm0-2291h1128V0H716Z" transform="scale(.01563)"/><path id="DejaVuSans-Bold-38" d="M2228 2088q-337 0-519-185-181-184-181-528t181-527q182-182 519-182 335 0 513 182 178 183 178 527 0 347-178 530t-513 183m-878 396q-425 129-641 394-215 266-215 663 0 590 440 899 441 310 1294 310 847 0 1287-308 441-308 441-901 0-397-217-663-217-265-642-394 475-131 717-426t242-745q0-694-461-1049T2228-91q-909 0-1373 355T391 1313q0 450 242 745t717 426m281 935q0-278 155-428t442-150q281 0 434 150 154 150 154 428t-154 426q-153 149-434 149-287 0-442-150t-155-425" transform="scale(.01563)"/><path id="DejaVuSans-Bold-2e" d="M653 1209h1125V0H653Z" transform="scale(.01563)"/><path id="DejaVuSans-Bold-34" d="M2356 3675 1038 1722h1318Zm-200 991h1338V1722h665V850h-665V0H2356v850H288v1031Z" transform="scale(.01563)"/><path id="DejaVuSans-Bold-6d" d="M3781 2919q213 325 505 495t642 170q603 0 919-372 316-371 316-1081V0H5038v1825q3 41 4 84 2 44 2 125 0 372-110 539-109 168-353 168-318 0-492-263-173-262-180-759V0H2784v1825q0 581-100 748-100 168-356 168-322 0-497-264t-175-755V0H531v3500h1125v-512q207 296 474 446t589 150q362 0 640-175 279-175 422-490" transform="scale(.01563)"/><path id="DejaVuSans-Bold-2c" d="M653 1209h1125V256L1006-909H341L653 256Z" transform="scale(.01563)"/><path id="DejaVuSans-Bold-31" d="M750 831h1063v3016L722 3622v819l1084 225h1144V831h1063V0H750Z" transform="scale(.01563)"/><path id="DejaVuSans-Bold-37" d="M428 4666h3516v-678L2125 0H953l1722 3781H428Z" transform="scale(.01563)"/><path id="DejaVuSans-Bold-35" d="M678 4666h2991v-885H1638v-722q137 38 276 58 139 21 289 21 853 0 1328-427t475-1189q0-756-517-1185Q2972-91 2053-91q-397 0-786 77T494 219v947q381-219 723-329 342-109 646-109 437 0 688 214 252 214 252 580 0 369-252 581-251 213-688 213-260 0-554-68-293-67-631-207Z" transform="scale(.01563)"/><path id="DejaVuSans-Bold-30" d="M2944 2338q0 875-164 1232-164 358-552 358-387 0-553-358-166-357-166-1232 0-885 166-1248 166-362 553-362 385 0 550 362 166 363 166 1248m1203-10q0-1159-500-1789T2228-91q-922 0-1422 630T306 2328q0 1163 500 1792 500 630 1422 630 919 0 1419-630 500-629 500-1792" transform="scale(.01563)"/><path id="DejaVuSans-Bold-78" d="M1422 1791 159 3500h1185l715-1037 725 1037h1185L2706 1797 4031 0H2847l-788 1106L1281 0H97Z" transform="scale(.01563)"/><path id="DejaVuSans-Bold-70" d="M1656 506v-1837H538v4831h1118v-512q232 306 513 451t647 145q647 0 1062-514 416-514 416-1323T3878 423Q3463-91 2816-91q-366 0-647 145-281 146-513 452m744 2266q-359 0-552-264-192-264-192-761t192-761q193-264 552-264t548 262q190 263 190 763t-190 762q-189 263-548 263" transform="scale(.01563)"/><path id="DejaVuSans-Bold-6f" d="M2203 2784q-372 0-567-267t-195-770 195-771q195-267 567-267 366 0 559 267 194 268 194 771t-194 770q-193 267-559 267m0 800q903 0 1411-488 508-487 508-1349 0-863-508-1351Q3106-91 2203-91q-906 0-1417 487-511 488-511 1351 0 862 511 1349 511 488 1417 488" transform="scale(.01563)"/><path id="DejaVuSans-Bold-39" d="M641 103v863q287-135 549-202 263-67 519-67 538 0 838 298 300 299 353 886-212-156-453-234t-522-78q-716 0-1155 417T331 3084q0 754 489 1207t1311 453q913 0 1413-616 500-615 500-1740 0-1157-585-1818Q2875-91 1856-91q-328 0-628 49Q928 6 641 103m1484 2247q316 0 475 204 159 205 159 615 0 406-159 612-159 207-475 207t-475-207q-159-206-159-612 0-410 159-615 159-204 475-204" transform="scale(.01563)"/><path id="DejaVuSans-Bold-36" d="M2316 2303q-316 0-474-205-158-204-158-614 0-409 158-614 158-204 474-204 318 0 476 204 158 205 158 614 0 410-158 614-158 205-476 205m1487 2241v-863q-297 141-560 208-262 67-512 67-537 0-837-299-300-298-350-885 206 153 446 229 241 77 526 77 715 0 1154-419 439-418 439-1096 0-750-491-1202Q3128-91 2303-91q-909 0-1408 614-498 615-498 1743 0 1156 583 1817t1598 661q322 0 625-50t600-150" transform="scale(.01563)"/><path id="DejaVuSans-Bold-29" d="M513-844q400 744 600 1453 200 710 200 1400 0 691-200 1399T513 4856h928q475-765 704-1467 230-701 230-1386 0-684-228-1380-228-695-706-1467Z" transform="scale(.01563)"/></defs><use xlink:href="#DejaVuSans-Bold-42"/><use xlink:href="#DejaVuSans-Bold-72" transform="translate(76.22)"/><use xlink:href="#DejaVuSans-Bold-65" transform="translate(125.537)"/><use xlink:href="#DejaVuSans-Bold-61" transform="translate(193.36)"/><use xlink:href="#DejaVuSans-Bold-64" transform="translate(260.84)"/><use xlink:href="#DejaVuSans-Bold-74" transform="translate(332.422)"/><use xlink:href="#DejaVuSans-Bold-68" transform="translate(380.225)"/><use xlink:href="#DejaVuSans-Bold-46" transform="translate(451.416)"/><use xlink:href="#DejaVuSans-Bold-69" transform="translate(519.727)"/><use xlink:href="#DejaVuSans-Bold-72" transform="translate(554.004)"/><use xlink:href="#DejaVuSans-Bold-73" transform="translate(603.32)"/><use xlink:href="#DejaVuSans-Bold-74" transform="translate(662.842)"/><use xlink:href="#DejaVuSans-Bold-28" transform="translate(745.459)"/><use xlink:href="#DejaVuSans-Bold-6c" transform="translate(791.162)"/><use xlink:href="#DejaVuSans-Bold-65" transform="translate(825.44)"/><use xlink:href="#DejaVuSans-Bold-6e" transform="translate(893.262)"/><use xlink:href="#DejaVuSans-Bold-67" transform="translate(964.453)"/><use xlink:href="#DejaVuSans-Bold-74" transform="translate(1036.04)"/><use xlink:href="#DejaVuSans-Bold-68" transform="translate(1083.84)"/><use xlink:href="#DejaVuSans-Bold-3a" transform="translate(1155.03)"/><use xlink:href="#DejaVuSans-Bold-38" transform="translate(1229.83)"/><use xlink:href="#DejaVuSans-Bold-2e" transform="translate(1299.41)"/><use xlink:href="#DejaVuSans-Bold-34" transform="translate(1337.4)"/><use xlink:href="#DejaVuSans-Bold-34" transform="translate(1406.98)"/><use xlink:href="#DejaVuSans-Bold-6d" transform="translate(1511.38)"/><use xlink:href="#DejaVuSans-Bold-2c" transform="translate(1615.58)"/><use xlink:href="#DejaVuSans-Bold-74" transform="translate(1688.38)"/><use xlink:href="#DejaVuSans-Bold-69" transform="translate(1736.18)"/><use xlink:href="#DejaVuSans-Bold-6d" transform="translate(1770.46)"/><use xlink:href="#DejaVuSans-Bold-65" transform="translate(1874.66)"/><use xlink:href="#DejaVuSans-Bold-3a" transform="translate(1942.48)"/><use xlink:href="#DejaVuSans-Bold-31" transform="translate(2017.29)"/><use xlink:href="#DejaVuSans-Bold-37" transform="translate(2086.87)"/><use xlink:href="#DejaVuSans-Bold-34" transform="translate(2156.45)"/><use xlink:href="#DejaVuSans-Bold-35" transform="translate(2226.03)"/><use xlink:href="#DejaVuSans-Bold-2e" transform="translate(2295.61)"/><use xlink:href="#DejaVuSans-Bold-30" transform="translate(2333.59)"/><use xlink:href="#DejaVuSans-Bold-6d" transform="translate(2437.99)"/><use xlink:href="#DejaVuSans-Bold-73" transform="translate(2542.19)"/><use xlink:href="#DejaVuSans-Bold-2c" transform="translate(2601.71)"/><use xlink:href="#DejaVuSans-Bold-65" transform="translate(2674.51)"/><use xlink:href="#DejaVuSans-Bold-78" transform="translate(2742.33)"/><use xlink:href="#DejaVuSans-Bold-70" transform="translate(2806.84)"/><use xlink:href="#DejaVuSans-Bold-61" transform="translate(2878.42)"/><use xlink:href="#DejaVuSans-Bold-6e" transform="translate(2945.9)"/><use xlink:href="#DejaVuSans-Bold-64" transform="translate(3017.09)"/><use xlink:href="#DejaVuSans-Bold-65" transform="translate(3088.67)"/><use xlink:href="#DejaVuSans-Bold-64" transform="translate(3156.49)"/><use xlink:href="#DejaVuSans-Bold-6e" transform="translate(3262.89)"/><use xlink:href="#DejaVuSans-Bold-6f" transform="translate(3334.08)"/><use xlink:href="#DejaVuSans-Bold-64" transform="translate(3402.78)"/><use xlink:href="#DejaVuSans-Bold-65" transform="translate(3474.37)"/><use xlink:href="#DejaVuSans-Bold-73" transform="translate(3542.19)"/><use xlink:href="#DejaVuSans-Bold-3a" transform="translate(3601.71)"/><use xlink:href="#DejaVuSans-Bold-37" transform="translate(3676.51)"/><use xlink:href="#DejaVuSans-Bold-39" transform="translate(3746.09)"/><use xlink:href="#DejaVuSans-Bold-36" transform="translate(3815.67)"/><use xlink:href="#DejaVuSans-Bold-29" transform="translate(3885.25)"/></g></g><g id="legend_1"><path id="patch_10" d="M352.123 52.474h55.289q2 0 2-2V22.118q0-2-2-2h-55.29q-2 0-2 2v28.356q0 2 2 2Z" style="fill:#fff;opacity:.8;stroke:#ccc;stroke-linejoin:miter"/><use xlink:href="#m3ae328f891" id="line2d_22" x="364.123" y="28.217" style="fill:#00f;stroke:#00f"/><g id="text_20"><g transform="matrix(.1 0 0 -.1 382.123 31.717)"><defs><path id="DejaVuSans-73" d="M2834 3397v-544q-243 125-506 187-262 63-544 63-428 0-642-131t-214-394q0-200 153-314t616-217l197-44q612-131 870-370t258-667q0-488-386-773Q2250-91 1575-91q-281 0-586 55T347 128v594q319-166 628-249 309-82 613-82 406 0 624 139 219 139 219 392 0 234-158 359-157 125-692 241l-200 47q-534 112-772 345-237 233-237 639 0 494 350 762 350 269 994 269 318 0 599-47 282-46 519-140" transform="scale(.01563)"/><path id="DejaVuSans-74" d="M1172 4494v-994h1184v-447H1172V1153q0-428 117-550t477-122h590V0h-590q-666 0-919 248-253 249-253 905v1900H172v447h422v994Z" transform="scale(.01563)"/><path id="DejaVuSans-61" d="M2194 1759q-697 0-966-159t-269-544q0-306 202-486 202-179 548-179 479 0 768 339t289 901v128Zm1147 238V0h-575v531q-197-318-491-470T1556-91q-537 0-855 302-317 302-317 808 0 590 395 890 396 300 1180 300h807v57q0 397-261 614t-733 217q-300 0-585-72-284-72-546-216v532q315 122 612 182 297 61 578 61 760 0 1135-394 375-393 375-1193" transform="scale(.01563)"/><path id="DejaVuSans-72" d="M2631 2963q-97 56-211 82-114 27-251 27-488 0-749-317t-261-911V0H581v3500h578v-544q182 319 472 473 291 155 707 155 59 0 131-8 72-7 159-23Z" transform="scale(.01563)"/></defs><use xlink:href="#DejaVuSans-73"/><use xlink:href="#DejaVuSans-74" transform="translate(52.1)"/><use xlink:href="#DejaVuSans-61" transform="translate(91.309)"/><use xlink:href="#DejaVuSans-72" transform="translate(152.588)"/><use xlink:href="#DejaVuSans-74" transform="translate(193.701)"/></g></g><use xlink:href="#m5235076316" id="line2d_23" x="364.123" y="42.895" style="stroke:#000"/><g id="text_21"><g transform="matrix(.1 0 0 -.1 382.123 46.395)"><defs><path id="DejaVuSans-67" d="M2906 1791q0 625-258 968-257 344-723 344-462 0-720-344-258-343-258-968 0-622 258-966t720-344q466 0 723 344 258 344 258 966m575-1357q0-893-397-1329-396-436-1215-436-303 0-572 45t-522 139v559q253-137 500-202 247-66 503-66 566 0 847 295t281 892v285q-178-310-456-463T1784 0Q1141 0 747 490 353 981 353 1791q0 812 394 1302 394 491 1037 491 388 0 666-153t456-462v531h575Z" transform="scale(.01563)"/><path id="DejaVuSans-6f" d="M1959 3097q-462 0-731-361t-269-989 267-989q268-361 733-361 460 0 728 362 269 363 269 988 0 622-269 986-268 364-728 364m0 487q750 0 1178-488 429-487 429-1349 0-859-429-1349Q2709-91 1959-91q-753 0-1180 489-426 490-426 1349 0 862 426 1349 427 488 1180 488" transform="scale(.01563)"/><path id="DejaVuSans-6c" d="M603 4863h575V0H603Z" transform="scale(.01563)"/></defs><use xlink:href="#DejaVuSans-67"/><use xlink:href="#DejaVuSans-6f" transform="translate(63.477)"/><use xlink:href="#DejaVuSans-61" transform="translate(124.658)"/><use xlink:href="#DejaVuSans-6c" transform="translate(185.938)"/></g></g></g></g></g><defs><clipPath id="p4a12537b48"><path d="M57.292 15.118h357.12V281.23H57.292Z"/></clipPath></defs></svg>