<svg xmlns="http://www.w3.org/2000/svg" xmlns:xlink="http://www.w3.org/1999/xlink" width="402.043" height="523.694" viewBox="0 0 301.532 392.771"><defs><style>*{stroke-linejoin:round;stroke-linecap:butt}</style></defs><g id="figure_1"><path id="patch_1" d="M0 392.77h301.532V0H0Z" style="fill:#fff"/><g id="axes_1"><path id="patch_2" d="M35.42 362.414h266.112V96.302H35.42Z" style="fill:#fff"/><g id="matplotlib.axis_1"><g id="xtick_1"><g id="line2d_1"><defs><path id="m852c15acdb" d="M0 0v3.5" style="stroke:#000;stroke-width:.8px"/></defs><use xlink:href="#m852c15acdb" x="57.596" y="362.414" style="stroke:#000;stroke-width:.8px"/></g><g id="text_1"><g transform="matrix(.1 0 0 -.1 50.225 377.013)"><defs><path id="DejaVuSans-2212" d="M678 2272h4006v-531H678Z" transform="scale(.01563)"/><path id="DejaVuSans-34" d="M2419 4116 825 1625h1594Zm-166 550h794V1625h666v-525h-666V0h-628v1100H313v609Z" transform="scale(.01563)"/></defs><use xlink:href="#DejaVuSans-2212"/><use xlink:href="#DejaVuSans-34" transform="translate(83.79)"/></g></g></g><g id="xtick_2"><use xlink:href="#m852c15acdb" id="line2d_2" x="101.948" y="362.414" style="stroke:#000;stroke-width:.8px"/><g id="text_2"><g transform="matrix(.1 0 0 -.1 94.577 377.013)"><defs><path id="DejaVuSans-32" d="M1228 531h2203V0H469v531q359 372 979 998 621 627 780 809 303 340 423 576 121 236 121 464 0 372-261 606-261 235-680 235-297 0-627-103-329-103-704-313v638q381 153 712 231 332 78 607 78 725 0 1156-363 431-362 431-968 0-288-108-546-107-257-392-607-78-91-497-524-418-433-1181-1211" transform="scale(.01563)"/></defs><use xlink:href="#DejaVuSans-2212"/><use xlink:href="#DejaVuSans-32" transform="translate(83.79)"/></g></g></g><g id="xtick_3"><use xlink:href="#m852c15acdb" id="line2d_3" x="146.3" y="362.414" style="stroke:#000;stroke-width:.8px"/><g id="text_3"><g transform="matrix(.1 0 0 -.1 143.12 377.013)"><defs><path id="DejaVuSans-30" d="M2034 4250q-487 0-733-480-245-479-245-1442 0-959 245-1439 246-480 733-480 491 0 736 480 246 480 246 1439 0 963-246 1442-245 480-736 480m0 500q785 0 1199-621 414-620 414-1801 0-1178-414-1799Q2819-91 2034-91q-784 0-1198 620-414 621-414 1799 0 1181 414 1801 414 621 1198 621" transform="scale(.01563)"/></defs><use xlink:href="#DejaVuSans-30"/></g></g></g><g id="xtick_4"><use xlink:href="#m852c15acdb" id="line2d_4" x="190.652" y="362.414" style="stroke:#000;stroke-width:.8px"/><use xlink:href="#DejaVuSans-32" id="text_4" transform="matrix(.1 0 0 -.1 187.471 377.013)"/></g><g id="xtick_5"><use xlink:href="#m852c15acdb" id="line2d_5" x="235.004" y="362.414" style="stroke:#000;stroke-width:.8px"/><use xlink:href="#DejaVuSans-34" id="text_5" transform="matrix(.1 0 0 -.1 231.823 377.013)"/></g><g id="xtick_6"><use xlink:href="#m852c15acdb" id="line2d_6" x="279.356" y="362.414" style="stroke:#000;stroke-width:.8px"/><g id="text_6"><g transform="matrix(.1 0 0 -.1 276.175 377.013)"><defs><path id="DejaVuSans-36" d="M2113 2584q-425 0-674-291-248-290-248-796 0-503 248-796 249-292 674-292t673 292q248 293 248 796 0 506-248 796-248 291-673 291m1253 1979v-575q-238 112-480 171-242 60-480 60-625 0-955-422-329-422-376-1275 184 272 462 417 279 145 613 145 703 0 1111-427 408-426 408-1160 0-719-425-1154Q2819-91 2113-91q-810 0-1238 620-428 621-428 1799 0 1106 525 1764t1409 658q238 0 480-47t505-140" transform="scale(.01563)"/></defs><use xlink:href="#DejaVuSans-36"/></g></g></g><g id="text_7"><g transform="matrix(.1 0 0 -.1 165.517 390.691)"><defs><path id="DejaVuSans-78" d="M3513 3500 2247 1797 3578 0h-678L1881 1375 863 0H184l1360 1831L300 3500h678l928-1247 928 1247Z" transform="scale(.01563)"/></defs><use xlink:href="#DejaVuSans-78"/></g></g></g><g id="matplotlib.axis_2"><g id="ytick_1"><g id="line2d_7"><defs><path id="m6149abc23a" d="M0 0h-3.5" style="stroke:#000;stroke-width:.8px"/></defs><use xlink:href="#m6149abc23a" x="35.42" y="340.238" style="stroke:#000;stroke-width:.8px"/></g><g id="text_8"><g transform="matrix(.1 0 0 -.1 13.678 344.038)"><defs><path id="DejaVuSans-38" d="M2034 2216q-450 0-708-241-257-241-257-662 0-422 257-663 258-241 708-241t709 242q260 243 260 662 0 421-258 662-257 241-711 241m-631 268q-406 100-633 378-226 279-226 679 0 559 398 884 399 325 1092 325 697 0 1094-325t397-884q0-400-227-679-226-278-629-378 456-106 710-416 255-309 255-755 0-679-414-1042Q2806-91 2034-91q-771 0-1186 362-414 363-414 1042 0 446 256 755 257 310 713 416m-231 997q0-362 226-565 227-203 636-203 407 0 636 203 230 203 230 565 0 363-230 566-229 203-636 203-409 0-636-203-226-203-226-566" transform="scale(.01563)"/></defs><use xlink:href="#DejaVuSans-2212"/><use xlink:href="#DejaVuSans-38" transform="translate(83.79)"/></g></g></g><g id="ytick_2"><use xlink:href="#m6149abc23a" id="line2d_8" x="35.42" y="295.886" style="stroke:#000;stroke-width:.8px"/><g id="text_9"><g transform="matrix(.1 0 0 -.1 13.678 299.686)"><use xlink:href="#DejaVuSans-2212"/><use xlink:href="#DejaVuSans-36" transform="translate(83.79)"/></g></g></g><g id="ytick_3"><use xlink:href="#m6149abc23a" id="line2d_9" x="35.42" y="251.534" style="stroke:#000;stroke-width:.8px"/><g id="text_10"><g transform="matrix(.1 0 0 -.1 13.678 255.334)"><use xlink:href="#DejaVuSans-2212"/><use xlink:href="#DejaVuSans-34" transform="translate(83.79)"/></g></g></g><g id="ytick_4"><use xlink:href="#m6149abc23a" id="line2d_10" x="35.42" y="207.182" style="stroke:#000;stroke-width:.8px"/><g id="text_11"><g transform="matrix(.1 0 0 -.1 13.678 210.982)"><use xlink:href="#DejaVuSans-2212"/><use xlink:href="#DejaVuSans-32" transform="translate(83.79)"/></g></g></g><g id="ytick_5"><use xlink:href="#m6149abc23a" id="line2d_11" x="35.42" y="162.83" style="stroke:#000;stroke-width:.8px"/><use xlink:href="#DejaVuSans-30" id="text_12" transform="matrix(.1 0 0 -.1 22.058 166.63)"/></g><g id="ytick_6"><use xlink:href="#m6149abc23a" id="line2d_12" x="35.42" y="118.478" style="stroke:#000;stroke-width:.8px"/><use xlink:href="#DejaVuSans-32" id="text_13" transform="matrix(.1 0 0 -.1 22.058 122.278)"/></g><g id="text_14"><g transform="matrix(0 -.1 -.1 0 7.598 232.318)"><defs><path id="DejaVuSans-79" d="M2059-325q-243-625-475-815-231-191-618-191H506v481h338q237 0 368 113 132 112 291 531l103 262L191 3500h609L1894 763l1094 2737h609Z" transform="scale(.01563)"/></defs><use xlink:href="#DejaVuSans-79"/></g></g></g><g id="line2d_13"><defs><path id="mcacc592ef7" d="M0 3a3 3 0 1 0-.00011535600561352055-6A3 3 0 0 0 0 3Z" style="stroke:#00f"/></defs><g clip-path="url(#p83f1e01cac)"><use xlink:href="#mcacc592ef7" x="123.865" y="126.756" style="fill:#00f;stroke:#00f"/></g></g><g id="line2d_14" clip-path="url(#p83f1e01cac)"><use xlink:href="#mcacc592ef7" x="161.964" y="140.949" style="fill:#00f;stroke:#00f"/></g><g id="line2d_15" clip-path="url(#p83f1e01cac)"><use xlink:href="#mcacc592ef7" x="120.836" y="150.792" style="fill:#00f;stroke:#00f"/></g><g id="line2d_16" clip-path="url(#p83f1e01cac)"><use xlink:href="#mcacc592ef7" x="169.994" y="190.288" style="fill:#00f;stroke:#00f"/></g><g id="line2d_17" clip-path="url(#p83f1e01cac)"><use xlink:href="#mcacc592ef7" x="126.225" y="190.21" style="fill:#00f;stroke:#00f"/></g><g id="line2d_18" clip-path="url(#p83f1e01cac)"><use xlink:href="#mcacc592ef7" x="161.34" y="239.876" style="fill:#00f;stroke:#00f"/></g><g id="line2d_19" clip-path="url(#p83f1e01cac)"><use xlink:href="#mcacc592ef7" x="120.978" y="230.543" style="fill:#00f;stroke:#00f"/></g><g id="line2d_20" clip-path="url(#p83f1e01cac)"><use xlink:href="#mcacc592ef7" x="123.865" y="259.812" style="fill:#00f;stroke:#00f"/></g><path id="line2d_21" d="m168.476 162.83 3.087-.142 2.644-.4 2.25-.622 1.9-.81 1.586-.97 1.302-1.107 1.046-1.22.815-1.315.603-1.391.409-1.453.231-1.501.055-2.055-.21-2.091-.45-2.106-.67-2.1-.873-2.078-1.06-2.038-1.564-2.47-1.808-2.364-2.03-2.233-2.23-2.086-2.41-1.92-2.571-1.74-2.712-1.547-2.834-1.343-2.938-1.13-3.023-.91-3.09-.68-3.136-.45-3.166-.214-3.176.022-3.168.26-3.142.497-3.097.73-3.035.959-2.955 1.184-2.859 1.402-2.746 1.612-2.618 1.813-2.476 2.004-2.318 2.184-2.149 2.352-1.966 2.506-1.774 2.646-1.57 2.771-1.358 2.882-1.138 2.975-.913 3.052-.681 3.111-.446 3.154-.209 3.179.03 3.185.27 3.174.505 3.145.74 3.098.97 3.034 1.195 2.953 1.412 2.855 1.623 2.742 1.823 2.611 2.014 2.468 2.193 2.31 2.36 2.14 2.514 1.956 2.654 1.763 2.777 1.558 2.887 1.347 2.98 1.126 3.056.9 3.114.668 3.156.433 3.18.195 3.184-.044 3.173-.282 3.143-.519 3.095-.753 3.03-.982 2.948-1.208 2.85-1.424 2.733-1.634 2.605-1.834 2.459-2.025 2.3-2.203 2.13-2.369 1.946-2.522 1.751-2.66 1.547-2.785 1.334-2.892 1.114-2.985.887-3.06.655-3.116.42-3.158.182-3.18-.057-3.185-.296-3.172-.532-3.14-.766-3.092-.995-3.026-1.22-2.943-1.436-2.843-1.646-2.727-1.845-2.597-2.035-2.45-2.212-2.292-2.378-2.12-2.53-1.935-2.668-1.74-2.791-1.535-2.898-1.322-2.99-1.101-3.063-.874-3.12-.642-3.159-.406-3.18-.169-3.185.07-3.17.309-3.14.545-3.088.78-3.021 1.008-2.938 1.231-2.837 1.449-2.72 1.657-2.59 1.856-2.441 2.045-2.283 2.222-2.109 2.387-1.924 2.538-1.73 2.676-1.523 2.797-1.31 2.904-1.088 2.993-.861 3.067-.63 3.123-.392 3.16-.156 3.182.084 3.184.322 3.17.559 3.136.792 3.085 1.02 3.017 1.245 2.933 1.46 2.83 1.669 2.714 1.867 2.58 2.055 2.434 2.231 2.273 2.396 2.1 2.547 1.913 2.682 1.718 2.804 1.512 2.909 1.297 2.998 1.076 3.07.849 3.126.615 3.162.38 3.183.142 3.184-.097 3.167-.335 3.134-.572 3.082-.805 3.013-1.034 2.927-1.256 2.825-1.472 2.706-1.68 2.573-1.878 2.425-2.065 2.264-2.242 2.089-2.404 1.903-2.555 1.706-2.69 1.5-2.81 1.286-2.914 1.063-3.003.835-3.074.603-3.127.366-3.165.129-3.182-.11-3.184-.35-3.166-.584-3.131-.818-3.079-1.046-3.009-1.27-2.921-1.483-2.819-1.692-2.7-1.888-2.564-2.076-2.417-2.25-2.254-2.414-2.079-2.562-1.892-2.697-1.695-2.816-1.488-2.92-1.273-3.007-1.05-3.078-.823-3.13-.59-3.166-.353-3.183-.115-3.183.124-3.165.362-3.129.598-3.075.83-3.004 1.06-2.916 1.28-2.813 1.497-1.092.656h0" clip-path="url(#p83f1e01cac)" style="fill:none;stroke:#1f77b4;stroke-width:1.5px;stroke-linecap:square"/><path id="line2d_22" d="m190.652 118.478 3.94 9.364.382 3.96-.447 3.563.119.893.331.588.454.395 1.058.482 1.583.336 1.384-.018 3.93-.459 1.81.194 1.924.527 1.937.846 1.84 1.11 1.646 1.293 1.378 1.38 1.068 1.37.744 1.28.433 1.128.147.933-.106.72-.325.504-.515.295-.677.102-1.118-.13-1.322-.385-2.3-.94-4.485-2.16-5.62-2.65-3.846-1.597-3.995-1.408-3.512-.998-3.567-.763-2.999-.434-3.008-.236-3.007-.026-2.992.191-2.967.413-2.931.637-2.884.86-2.827 1.083-2.762 1.299-2.689 1.507-2.61 1.708-2.526 1.895-2.437 2.07-2.797 2.687-2.645 2.88-2.469 3.036-2.258 3.152-2.005 3.234-1.446 2.737-1.214 2.76-.964 2.775-.699 2.786-.426 2.797-.151 2.81.121 2.83.387 2.854.644 2.886.887 2.923 1.115 2.969 1.61 3.626 2.194 4.318 2.806 5.009 3.711 6.153 2.973 4.53 2.211 2.988 1.85 2.147 1.505 1.469 1.54 1.24 1.59 1.01 1.65.781 1.715.56 1.783.346 1.849.14 1.91-.058 1.964-.247 2.514-.564 2.56-.833 2.584-1.09 2.58-1.335 2.556-1.567 2.51-1.785 2.443-1.991 2.36-2.181 2.26-2.355 2.15-2.51 2.414-3.19 2.217-3.345 1.997-3.462 1.755-3.54 1.256-2.984 1.053-2.997.831-2.998.595-2.989.348-2.973.093-2.953-.163-2.927-.417-2.897-.662-2.862-.894-2.823-1.11-2.776-1.305-2.727-1.798-3.197-2.016-3.105-2.199-2.996-2.356-2.861-2.496-2.685-2.624-2.458-2.28-1.834-2.361-1.607-2.436-1.35-1.997-.883-2.034-.698-2.066-.509-2.089-.316-2.106-.126-2.115.065-2.116.25-2.11.432-2.618.787-2.583 1.048-2.538 1.295-2.482 1.527-2.415 1.742-2.34 1.936-2.696 2.555-2.555 2.769-2.388 2.944-2.187 3.079-1.945 3.177-1.405 2.7-1.185 2.733-.943 2.755-.688 2.772-.424 2.788-.155 2.806.112 2.827.373 2.853.626 2.886.867 2.925 1.095 2.968 1.588 3.628 2.174 4.322 2.795 5.023 3.715 6.2 2.983 4.602 2.214 3.057 1.848 2.212 1.877 1.868 1.542 1.237 1.591 1.005 1.651.777 1.717.555 1.785.34 1.85.135 1.912-.062 1.965-.252 2.516-.57 2.561-.84 2.583-1.095 2.58-1.34 2.556-1.572 2.508-1.79 2.441-1.996 2.358-2.186 2.258-2.358 2.561-3.034 2.38-3.221 2.177-3.37 1.954-3.48 1.706-3.55 1.213-2.988 1.004-2.998.78-2.997.54-2.986.291-2.97.036-2.946-.221-2.921-.473-2.89-.715-2.854-.943-2.812-1.156-2.766-1.347-2.714-1.842-3.181-2.051-3.086-2.23-2.974-2.384-2.832-2.52-2.646-2.198-2.027-2.283-1.83-2.362-1.6-2.438-1.344-1.998-.877-2.035-.692-2.067-.503-2.09-.311-2.106-.12-2.115.07-2.116.257-2.635.574h0" clip-path="url(#p83f1e01cac)" style="fill:none;stroke:#ff7f0e;stroke-width:1.5px;stroke-linecap:square"/><path id="line2d_23" d="m212.828 185.006-6.672-1.642-3.837-.18-3.287-.067-.51-.204-.158-.223.096-.271.063-.021-.098.136-.55.243-1.033.2-1.442.064-1.737-.121-1.908-.322-1.962-.52-1.915-.7-1.788-.848-1.606-.958-1.395-1.026-1.687-1.581-1.244-1.537-.888-1.426-.809-1.692-2.041-4.696-1.02-1.566-1.288-1.609-1.895-1.992-2.247-2.025-2.554-2.006-2.814-1.928-3.03-1.799-3.21-1.624-3.353-1.415-2.881-.999-2.945-.82-2.994-.63-3.032-.434-3.058-.231-3.074-.024-3.08.186-3.08.397-3.07.606-3.054.815-3.034 1.02-3.01 1.217-3.58 1.712-3.542 1.966-3.502 2.192-4.028 2.785-4.48 3.375-4.74 3.85-3.743 3.314-2.392 2.372-1.663 1.906-1.333 1.86-.819 1.474-.594 1.477-.372 1.496-.156 1.526.053 1.567.253 1.614.581 2.087.859 2.163 1.114 2.231 1.65 2.751 1.954 2.806 2.22 2.83 2.868 3.282 3.09 3.19 3.244 2.998 2.864 2.33 2.437 1.715 2.481 1.473 2.53 1.207 2.061.762 2.095.578 2.129.395 2.159.213 2.734.019 2.763-.247 2.776-.497 2.77-.735 2.746-.957 2.704-1.165 2.642-1.356 2.563-1.532 2.952-2.047 2.796-2.243 2.622-2.407 2.437-2.535 2.244-2.627 2.042-2.69 1.831-2.729 1.604-2.754 1.353-2.776.915-2.329.701-2.346.47-2.365.225-2.381-.032-2.395-.294-2.4-.556-2.4-.81-2.384-1.055-2.359-1.283-2.32-1.492-2.266-1.68-2.199-2.233-2.525-2.429-2.369-2.589-2.171-2.256-1.628-2.333-1.435-2.397-1.22-2.456-.99-2.509-.748-2.557-.498-2.6-.248h-2.639l-2.672.243-2.699.479-2.72.707-2.734.927-2.743 1.136-3.296 1.621-3.292 1.88-3.823 2.478-3.781 2.718-4.209 3.29-4.442 3.764-3.493 3.263-2.222 2.357-1.536 1.909-1.22 1.877-.739 1.496-.524 1.504-.311 1.526-.103 1.56.098 1.6.291 1.649.622 2.128.89 2.2 1.142 2.266 1.674 2.786 1.976 2.836 2.237 2.854 2.882 3.306 3.1 3.208 2.78 2.598 2.856 2.379 2.43 1.763 2.475 1.525 2.522 1.26 2.054.807 2.087.622 2.122.438 2.152.254 2.729.069 2.759-.2 2.775-.453 2.772-.693 2.752-.919 2.713-1.128 2.654-1.324 2.578-1.502 2.973-2.015 2.82-2.216 2.649-2.385 2.464-2.518 2.273-2.616 2.072-2.682 1.863-2.725 1.639-2.75 1.391-2.773.95-2.327.74-2.343.513-2.36.269-2.38.013-2.392-.248-2.4-.51-2.4-.766-2.389-1.012-2.364-1.245-2.327-1.457-2.277-1.649-2.212-2.2-2.545-2.402-2.394-2.568-2.203-2.242-1.659-2.32-1.47-2.386-1.26-2.446-1.032-2.5-.79-2.549-.542-2.593-.292-2.632-.044-2.667.2-2.695.439-2.716.668-1.638.507h0" clip-path="url(#p83f1e01cac)" style="fill:none;stroke:#2ca02c;stroke-width:1.5px;stroke-linecap:square"/><path id="line2d_24" d="m235.004 162.83.612-6.178 1.51-5.301 1.89-4.93 2.512-6.121.822-2.186.24-.295.24.063.273.352.651 1.362.732 2.02.725 2.542.639 2.967.49 3.278.3 3.463.098 3.534-.097 3.507-.271 3.408-.669 4.82-.896 4.396-1.048 3.944-1.148 3.5-1.218 3.076-1.272 2.673-1.32 2.291-1.362 1.931-1.405 1.592-1.445 1.276-1.483.985-1.52.722-1.554.485-1.587.275-1.617.094-2.198-.116-2.243-.338-2.856-.66-4.08-1.215-13.23-4.2-3.691-.885-3.72-.67-3.744-.421-3.133-.142-3.138.06-3.137.267-3.127.477-3.109.687-3.082.893-3.046 1.093-3.001 1.286-3.534 1.783-3.449 2.021-3.359 2.234-3.263 2.415-3.682 3.003-3.528 3.155-3.34 3.266-3.089 3.348-2.386 2.92-1.762 2.464-1.523 2.491-1.256 2.52-.798 2.035-.608 2.054-.414 2.07-.218 2.087-.025 2.102.163 2.114.456 2.657.718 2.666.959 2.67 1.17 2.662 1.646 3.17 1.858 3.108 2.021 2.999 2.147 2.826 2.246 2.582 1.942 1.915 2.005 1.666 2.073 1.392 1.711.908 1.76.72 1.809.532 1.86.346 1.907.162 1.952-.017 2.498-.266 2.552-.528 2.592-.777 2.618-1.016 2.63-1.24 2.627-1.454 3.13-2.002 3.084-2.257 3.022-2.477 3.422-3.116 3.28-3.293 3.094-3.401 2.84-3.45 2.171-2.966 1.868-2.96 1.289-2.464 1.021-2.464.739-2.47.383-1.987.197-1.997.017-2.01-.226-2.528-.483-2.545-.72-2.557-.933-2.562-1.36-3.07-1.859-3.555-2.078-3.485-2.246-3.35-2.039-2.691-2.147-2.452-1.882-1.81-1.975-1.56-1.652-1.051-1.717-.865-1.783-.673-1.847-.479-1.906-.285-1.96-.095-2.009.092-2.566.365-2.615.632-2.646.881-2.662 1.114-2.664 1.328-3.18 1.85-3.144 2.096-3.093 2.306-3.523 2.909-3.404 3.09-3.243 3.227-3.02 3.326-2.353 2.912-2.076 2.96-1.48 2.5-1.224 2.528-.946 2.559-.548 2.067-.358 2.084-.167 2.1.02 2.116.205 2.127.5 2.671.758 2.68.991 2.682 1.46 3.207 1.71 3.174 1.908 3.104 2.06 2.984 2.175 2.795 2.27 2.537 1.959 1.868 2.023 1.611 2.09 1.334 1.726.858 1.775.67 1.824.48 1.873.296 1.92.113 2.464-.11 2.522-.377 2.57-.634 2.606-.88 2.625-1.112 2.63-1.332 3.144-1.87 3.109-2.138 3.054-2.376 2.982-2.576 3.364-3.204 3.204-3.35 2.99-3.429 2.702-3.458 2.02-2.963 1.433-2.465 1.177-2.463.903-2.466.516-1.98.331-1.989.147-2-.07-2.518-.336-2.536-.587-2.55-.814-2.56-1.239-3.074-1.48-3.062-1.964-3.53-2.158-3.436-2.31-3.26-2.094-2.575-1.833-1.938-1.92-1.708-2.017-1.446-1.686-.954-1.753-.763-1.817-.57-1.878-.376-1.936-.184-1.987.005-2.544.262-2.598.533-.525.138h0" clip-path="url(#p83f1e01cac)" style="fill:none;stroke:#d62728;stroke-width:1.5px;stroke-linecap:square"/><path id="line2d_25" d="m257.18 162.83-5.973-.581-2.778 2.36-2.32 3.735-1.665 3.48-.877 2.708-.385 2.074-.415 3.244-.335 1.455-.52 1.385-.734 1.315-.946 1.253-1.135 1.202-1.29 1.157-2.91 2.165-3.14 1.938-3.178 1.697-4.581 2.14-5.52 2.306-7.07 2.731-5.034 1.74-3.571 1.042-3.225.73-2.931.426-2.693.131-2.51-.144-2.377-.396-2.288-.615-2.79-1.024-3.31-1.506-5.012-2.58-6.877-3.528-4.122-1.892-4.192-1.666-3.641-1.198-3.68-.955-3.09-.593-3.11-.395-3.122-.19-3.13.023-3.13.237-3.121.454-3.106.671-3.08.887-3.044 1.097-3 1.303-2.945 1.5-2.884 1.689-3.37 2.255-3.265 2.478-3.152 2.666-3.524 3.29-3.334 3.416-3.096 3.473-2.407 2.984-2.122 2.972-1.509 2.464-1.246 2.455-.961 2.455-.557 1.968-.367 1.976-.176 1.987.008 1.998.26 2.515.518 2.53.755 2.542.965 2.547 1.394 3.05 1.89 3.529 2.102 3.449 2.267 3.297 2.06 2.63 1.801 2 1.888 1.784 1.983 1.532 1.658 1.027 1.724.841 1.79.65 1.853.455 1.912.262 1.965.073 2.014-.113 2.57-.39 2.618-.655 2.648-.903 2.663-1.134 2.663-1.347 3.178-1.869 3.142-2.113 3.596-2.724 3.501-2.95 3.375-3.123 3.203-3.25 2.965-3.343 2.292-2.924 1.69-2.472 1.459-2.502 1.2-2.532.92-2.56.527-2.07.337-2.086.147-2.102-.041-2.117-.224-2.128-.524-2.672-.78-2.681-1.01-2.682-1.48-3.205-1.727-3.17-1.92-3.098-2.069-2.972-2.182-2.779-2.277-2.515-1.965-1.846-2.028-1.588-2.097-1.308-1.731-.838-1.78-.649-1.83-.46-1.878-.275-1.926-.093-2.468.133-2.528.4-2.574.656-2.607.9-2.626 1.133-2.63 1.351-3.143 1.89-3.105 2.157-3.05 2.392-3.463 3.038-3.334 3.239-3.166 3.371-2.937 3.439-2.278 2.965-1.997 2.963-1.412 2.464-1.154 2.463-.878 2.467-.496 1.98-.31 1.99-.127 2.003.093 2.52.36 2.537.608 2.551.832 2.56 1.258 3.074 1.496 3.06 1.978 3.527 2.168 3.426 2.32 3.246 2.102 2.558 1.84 1.919 1.928 1.686 1.612 1.16 1.678.98 1.743.79 1.808.597 1.87.403 1.928.21 1.98.022 2.025-.162 2.583-.45 2.626-.712 2.653-.956 2.664-1.183 3.193-1.693 3.167-1.958 3.124-2.19 3.57-2.8 3.467-3.008 3.328-3.165 3.14-3.28 2.485-2.882 2.242-2.933 1.64-2.479 1.403-2.508 1.14-2.539.708-2.051.521-2.07.331-2.087.141-2.102-.047-2.117-.314-2.662-.583-2.675-.833-2.682-1.058-2.68-1.53-3.201-1.767-3.16-1.951-3.078-2.093-2.942-2.2-2.735-1.906-2.07-1.966-1.841-2.03-1.581-2.1-1.301-1.731-.832-1.781-.643-1.832-.455-1.88-.27-1.927-.087-2.47.14-2.528.406-2.057.51h0" clip-path="url(#p83f1e01cac)" style="fill:none;stroke:#9467bd;stroke-width:1.5px;stroke-linecap:square"/><path id="line2d_26" d="m279.356 162.83 5.652.306.409-.46.063-.942-.115-1.149-.3-1.153-1.072-2.602-.126.225-.762 5.506-1.17 6.098-1.574 6.741-1.843 6.846-2.033 6.685-2.18 6.384-2.302 6-2.402 5.567-2.477 5.104-2.528 4.634-2.549 4.171-2.541 3.729-2.51 3.313-2.458 2.932-2.392 2.586-2.315 2.274-3.323 2.895-3.144 2.359-2.977 1.899-2.827 1.501-2.698 1.155-2.587.852-2.493.585-2.414.354-2.349.151-3.047-.063-2.969-.31-3.621-.654-4.242-1.05-5.52-1.632-9.436-2.822-4.665-1.154-3.986-.768-3.976-.529-3.303-.24-3.287-.047-3.263.152-3.23.354-3.183.555-3.125.756-3.054.951-2.97 1.141-2.874 1.322-2.765 1.492-2.645 1.65-2.517 1.793-2.84 2.315-2.637 2.463-2.429 2.573-2.22 2.65-2.007 2.695-1.788 2.72-1.552 2.739-1.291 2.753-.855 2.31-.633 2.327-.393 2.345-.14 2.362.121 2.374.388 2.379.65 2.373.904 2.356 1.145 2.326 1.368 2.282 1.57 2.224 2.12 2.57 2.336 2.43 2.515 2.251 2.207 1.71 2.29 1.531 2.362 1.329 2.424 1.106 2.48.869 2.531.623 2.577.374 2.62.125 2.655-.12 2.685-.36 2.71-.593 2.727-.816 2.74-1.03 3.294-1.504 3.294-1.774 3.286-2.014 3.806-2.606 4.272-3.218 4.588-3.759 3.71-3.31 2.81-2.798 1.99-2.314 1.321-1.885.822-1.496.608-1.499.394-1.516.183-1.546-.02-1.584-.217-1.629-.534-2.104-.809-2.18-1.065-2.246-1.59-2.769-1.901-2.825-2.173-2.853-2.823-3.317-3.059-3.237-3.222-3.065-2.85-2.403-2.425-1.788-2.47-1.553-2.516-1.292-2.05-.831-2.082-.648-2.117-.463-2.148-.28-2.177-.102-2.75.117-2.772.376-2.776.62-2.76.85-2.727 1.064-2.674 1.265-2.604 1.448-3.01 1.957-2.861 2.167-2.694 2.345-2.514 2.486-2.323 2.594-2.125 2.668-1.92 2.715-1.698 2.745-1.458 2.767-1.19 2.788-.765 2.341-.539 2.36-.297 2.376-.042 2.391.218 2.4.48 2.4.739 2.39.986 2.368 1.219 2.332 1.434 2.283 1.629 2.22 2.179 2.558 2.385 2.41 2.553 2.222 2.233 1.679 2.312 1.493 2.38 1.284 2.44 1.058 2.493.818 2.543.57 2.589.32 2.628.071 2.663-.173 2.692-.412 2.715-.643 2.73-.865 2.742-1.076 3.295-1.556 3.294-1.82 3.283-2.056 3.8-2.643 4.254-3.245 4.545-3.763 3.647-3.298 2.732-2.78 1.623-1.922 1.313-1.884.815-1.495.602-1.5.387-1.517.177-1.546-.026-1.586-.223-1.63-.54-2.106-.816-2.181-1.07-2.248-1.598-2.77-1.907-2.827-2.178-2.853-2.827-3.316-3.062-3.235-3.224-3.06-2.852-2.399-2.427-1.782-2.47-1.548-2.517-1.284-2.05-.827-2.085-.642-2.118-.458-2.149-.274-2.725-.093-2.757.176-2.774.432-2.773.673-.553.162h0" clip-path="url(#p83f1e01cac)" style="fill:none;stroke:#8c564b;stroke-width:1.5px;stroke-linecap:square"/><path id="line2d_27" d="m301.532 162.83.244-.378-.036-1.366.521-2.713-.48 1.857-.714 2.866-1.175 3.903-1.718 4.508-2.167 4.649-2.43 4.505-2.547 4.269-2.588 4.036-5.218 7.495-5.277 6.852-5.346 6.246-2.692 2.89-5.388 5.298-5.34 4.652-5.229 4.02-5.057 3.424-4.841 2.887-4.597 2.415-4.34 2.006-4.082 1.66-3.833 1.368-5.315 1.596-4.843 1.148-4.433.785-4.08.482-3.778.222-3.523-.001-3.306-.195-3.125-.363-3.93-.703-3.709-.906-4.381-1.34-4.95-1.798-6.175-2.512-10.615-4.37-4.683-1.676-3.942-1.183-3.906-.92-3.239-.55-3.231-.341-3.224-.125-3.214.098-3.197.324-3.17.552-3.133.782-3.084 1.009-3.021 1.233-2.946 1.453-2.857 1.665-2.757 1.87-2.647 2.063-2.525 2.245-2.397 2.413-2.26 2.562-2.116 2.694-2.341 3.373-2.11 3.49-1.861 3.565-1.342 3.003-1.136 3.014-.914 3.01-.675 3-.425 2.98-.166 2.956.095 2.929.354 2.897.605 2.863.843 2.822 1.065 2.777 1.268 2.727 1.76 3.198 1.983 3.109 2.175 3.001 2.336 2.87 2.48 2.697 2.61 2.477 2.269 1.854 2.35 1.63 2.428 1.377 1.99.905 2.03.723 2.06.534 2.087.342 2.104.151 2.114-.039 2.116-.225 2.111-.408 2.621-.757 2.588-1.02 2.544-1.268 2.488-1.502 2.423-1.719 2.35-1.916 2.707-2.532 2.57-2.75 2.404-2.93 2.207-3.068 1.97-3.17 1.428-2.696 1.21-2.73.972-2.752.717-2.77.453-2.787.186-2.803-.082-2.825-.344-2.85-.598-2.882-.842-2.92-1.07-2.963-1.561-3.621-2.15-4.315-2.776-5.019-3.709-6.215-2.985-4.635-2.215-3.094-1.846-2.248-1.872-1.908-1.536-1.27-1.584-1.037-1.643-.809-1.707-.586-1.775-.37-1.842-.163-1.903.036-1.958.226-2.51.538-2.557.81-2.582 1.068-2.582 1.313-2.559 1.547-2.514 1.766-2.45 1.974-2.367 2.165-2.27 2.34-2.16 2.497-2.429 3.177-2.231 3.335-2.015 3.454-1.773 3.535-1.274 2.982-1.071 2.997-.851 2.998-.617 2.99-.37 2.976-.115 2.954.14 2.93.395 2.9.641 2.865.874 2.826 1.091 2.781 1.29 2.731 1.78 3.203 2.001 3.113 2.187 3.005 2.345 2.872 2.486 2.7 2.615 2.476 2.273 1.853 2.354 1.627 2.43 1.374 1.992.903 2.03.718 2.063.53 2.087.338 2.105.146 2.114-.043 2.116-.23 2.111-.413 2.62-.763 2.588-1.026 2.542-1.274 2.487-1.507 2.421-1.723 2.347-1.921 2.706-2.537 2.566-2.754 2.4-2.933 2.204-3.07 1.964-3.172 1.424-2.697 1.205-2.73.965-2.753.71-2.77.448-2.788.179-2.804-.089-2.825-.35-2.85-.604-2.883-.847-2.921-1.076-2.965-1.567-3.622-2.154-4.317-2.78-5.02-3.711-6.211-2.985-4.628-2.214-3.087-1.847-2.24-1.873-1.9-1.538-1.261-1.585-1.03-1.644-.803-1.71-.579-1.777-.364-1.843-.157-1.906.042-1.96.232-2.51.545-2.044.632h0" clip-path="url(#p83f1e01cac)" style="fill:none;stroke:#e377c2;stroke-width:1.5px;stroke-linecap:square"/><path id="line2d_28" d="m302.532 183.81-13.326 12.963-13.768 13.11-11.887 11.006-10.282 9.201-8.912 7.648-7.744 6.315-6.752 5.172-5.91 4.19-5.196 3.352-4.593 2.634-4.086 2.024-3.66 1.502-3.303 1.062-3.008.69-2.762.376-2.56.116-2.397-.102-2.265-.278-2.859-.59-2.723-.776-3.919-1.392-6.321-2.567-5.658-2.222-4.444-1.502-3.851-1.06-3.887-.809-3.258-.463-3.266-.257-3.262-.043-3.244.178-3.214.4-3.168.627-3.107.85-3.03 1.073-2.94 1.289-2.83 1.5-2.71 1.704-2.572 1.899-2.422 2.084-2.258 2.257-2.081 2.419-1.894 2.567-1.696 2.7-1.488 2.82-1.273 2.921-1.05 3.01-.822 3.078-.588 3.131-.352 3.167-.114 3.184.126 3.183.363 3.165.6 3.128.832 3.075 1.06 3.004 1.283 2.916 1.498 2.811 1.704 2.691 1.9 2.556 2.088 2.407 2.261 2.243 2.423 2.068 2.572 1.88 2.705 1.682 2.823 1.475 2.926 1.259 3.012 1.036 3.081.808 3.134.574 3.167.338 3.184.1 3.182-.139 3.163-.377 3.126-.613 3.071-.845 3-1.074 2.91-1.295 2.804-1.509 2.684-1.715 2.549-1.912 2.397-2.097 2.234-2.271 2.057-2.432 1.87-2.58 1.67-2.711 1.463-2.83 1.247-2.931 1.023-3.016.795-3.085.561-3.136.325-3.168.087-3.185-.153-3.181-.39-3.162-.626-3.123-.859-3.067-1.086-2.995-1.307-2.905-1.52-2.798-1.728-2.677-1.922-2.54-2.107-2.389-2.28-2.224-2.44-2.047-2.588-1.859-2.719-1.659-2.836-1.45-2.936-1.235-3.02-1.011-3.089-.782-3.138-.548-3.17-.312-3.184-.073-3.181.166-3.16.404-3.12.64-3.064.87-2.99 1.099-2.9 1.32-2.792 1.532-2.67 1.738-2.531 1.933-2.38 2.117-2.215 2.29-2.037 2.449-1.847 2.595-1.648 2.726-1.439 2.841-1.222 2.942-.998 3.025-.769 3.091-.535 3.14-.298 3.172-.06 3.185.18 3.18.416 3.158.653 3.118.884 3.06 1.11 2.985 1.332 2.894 1.545 2.786 1.75 2.662 1.943 2.524 2.127 2.37 2.299 2.206 2.457 2.026 2.603 1.837 2.733 1.636 2.848 1.427 2.946 1.21 3.03.985 3.094.756 3.142.522 3.173.284 3.185.047 3.18-.193 3.156-.43 3.115-.665 3.056-.897 2.98-1.124 2.889-1.344 2.78-1.556 2.654-1.76 2.516-1.954 2.362-2.138 2.195-2.308 2.016-2.466 1.826-2.61 1.625-2.74 1.415-2.854 1.197-2.951.973-3.034.742-3.097.509-3.145.271-3.174.033-3.185-.206-3.178-.443-3.155-.679-3.112-.91-3.053-1.136-2.976-1.355-2.882-1.568-2.773-1.772-2.647-1.965-2.507-2.147-2.353-2.317-2.186-2.475-2.006-2.618-1.814-2.746-1.614-2.86-1.403-2.957-1.185-3.037-.96-3.1-.73-3.147-.495-3.175-.258-3.185-.02-3.178.22-3.153.457-3.109.691-3.049.923-2.97 1.149-2.878 1.368-2.766 1.58h0" clip-path="url(#p83f1e01cac)" style="fill:none;stroke:#7f7f7f;stroke-width:1.5px;stroke-linecap:square"/><path id="patch_3" d="M35.42 362.414V96.302" style="fill:none;stroke:#000;stroke-width:.8px;stroke-linejoin:miter;stroke-linecap:square"/><path id="patch_4" d="M301.532 362.414V96.302" style="fill:none;stroke:#000;stroke-width:.8px;stroke-linejoin:miter;stroke-linecap:square"/><path id="patch_5" d="M35.42 362.414h266.112" style="fill:none;stroke:#000;stroke-width:.8px;stroke-linejoin:miter;stroke-linecap:square"/><path id="patch_6" d="M35.42 96.302h266.112" style="fill:none;stroke:#000;stroke-width:.8px;stroke-linejoin:miter;stroke-linecap:square"/><g id="text_15"><g transform="matrix(.1 0 0 -.1 113.036 7.598)"><defs><path id="DejaVuSans-74" d="M1172 4494v-994h1184v-447H1172V1153q0-428 117-550t477-122h590V0h-590q-666 0-919 248-253 249-253 905v1900H172v447h422v994Z" transform="scale(.01563)"/><path id="DejaVuSans-3d" d="M678 2906h4006v-525H678Zm0-1275h4006v-531H678Z" transform="scale(.01563)"/><path id="DejaVuSans-35" d="M691 4666h2478v-532H1269V2991q137 47 274 70 138 23 276 23 781 0 1237-428 457-428 457-1159 0-753-469-1171Q2575-91 1722-91q-294 0-599 50Q819 9 494 109v635q281-153 581-228t634-75q541 0 856 284 316 284 316 772 0 487-316 771-315 285-856 285-253 0-505-56-251-56-513-175Z" transform="scale(.01563)"/><path id="DejaVuSans-2e" d="M684 794h660V0H684Z" transform="scale(.01563)"/></defs><use xlink:href="#DejaVuSans-74"/><use xlink:href="#DejaVuSans-3d" transform="translate(70.996)"/><use xlink:href="#DejaVuSans-35" transform="translate(186.572)"/><use xlink:href="#DejaVuSans-30" transform="translate(250.195)"/><use xlink:href="#DejaVuSans-2e" transform="translate(313.818)"/><use xlink:href="#DejaVuSans-30" transform="translate(345.605)"/></g></g><g id="legend_1"><path id="patch_7" d="M223.392 357.414h71.14q2 0 2-2V238.99q0-2-2-2h-71.14q-2 0-2 2v116.425q0 2 2 2Z" style="fill:#fff;opacity:.8;stroke:#ccc;stroke-linejoin:miter"/><path id="line2d_29" d="M225.392 245.088h20" style="fill:none;stroke:#1f77b4;stroke-width:1.5px;stroke-linecap:square"/><g id="text_16"><g transform="matrix(.1 0 0 -.1 253.392 248.588)"><defs><path id="DejaVuSans-41" d="m2188 4044-857-2322h1716Zm-357 622h716L4325 0h-656l-425 1197H1141L716 0H50Z" transform="scale(.01563)"/><path id="DejaVuSans-67" d="M2906 1791q0 625-258 968-257 344-723 344-462 0-720-344-258-343-258-968 0-622 258-966t720-344q466 0 723 344 258 344 258 966m575-1357q0-893-397-1329-396-436-1215-436-303 0-572 45t-522 139v559q253-137 500-202 247-66 503-66 566 0 847 295t281 892v285q-178-310-456-463T1784 0Q1141 0 747 490 353 981 353 1791q0 812 394 1302 394 491 1037 491 388 0 666-153t456-462v531h575Z" transform="scale(.01563)"/><path id="DejaVuSans-65" d="M3597 1894v-281H953q38-594 358-905t892-311q331 0 642 81t618 244V178Q3153 47 2828-22t-659-69q-838 0-1327 487-489 488-489 1320 0 859 464 1363 464 505 1252 505 706 0 1117-455 411-454 411-1235m-575 169q-6 471-264 752-258 282-683 282-481 0-770-272t-333-766Z" transform="scale(.01563)"/><path id="DejaVuSans-6e" d="M3513 2113V0h-575v2094q0 497-194 743-194 247-581 247-466 0-735-297-269-296-269-809V0H581v3500h578v-544q207 316 486 472 280 156 646 156 603 0 912-373 310-373 310-1098" transform="scale(.01563)"/></defs><use xlink:href="#DejaVuSans-41"/><use xlink:href="#DejaVuSans-67" transform="translate(68.408)"/><use xlink:href="#DejaVuSans-65" transform="translate(131.885)"/><use xlink:href="#DejaVuSans-6e" transform="translate(193.408)"/><use xlink:href="#DejaVuSans-74" transform="translate(256.787)"/><use xlink:href="#DejaVuSans-30" transform="translate(327.783)"/></g></g><path id="line2d_30" d="M225.392 259.766h20" style="fill:none;stroke:#ff7f0e;stroke-width:1.5px;stroke-linecap:square"/><g id="text_17"><g transform="matrix(.1 0 0 -.1 253.392 263.266)"><defs><path id="DejaVuSans-31" d="M794 531h1031v3560L703 3866v575l1116 225h631V531h1031V0H794Z" transform="scale(.01563)"/></defs><use xlink:href="#DejaVuSans-41"/><use xlink:href="#DejaVuSans-67" transform="translate(68.408)"/><use xlink:href="#DejaVuSans-65" transform="translate(131.885)"/><use xlink:href="#DejaVuSans-6e" transform="translate(193.408)"/><use xlink:href="#DejaVuSans-74" transform="translate(256.787)"/><use xlink:href="#DejaVuSans-31" transform="translate(327.783)"/></g></g><path id="line2d_31" d="M225.392 274.444h20" style="fill:none;stroke:#2ca02c;stroke-width:1.5px;stroke-linecap:square"/><g id="text_18"><g transform="matrix(.1 0 0 -.1 253.392 277.944)"><use xlink:href="#DejaVuSans-41"/><use xlink:href="#DejaVuSans-67" transform="translate(68.408)"/><use xlink:href="#DejaVuSans-65" transform="translate(131.885)"/><use xlink:href="#DejaVuSans-6e" transform="translate(193.408)"/><use xlink:href="#DejaVuSans-74" transform="translate(256.787)"/><use xlink:href="#DejaVuSans-32" transform="translate(327.783)"/></g></g><path id="line2d_32" d="M225.392 289.122h20" style="fill:none;stroke:#d62728;stroke-width:1.5px;stroke-linecap:square"/><g id="text_19"><g transform="matrix(.1 0 0 -.1 253.392 292.622)"><defs><path id="DejaVuSans-33" d="M2597 2516q453-97 707-404 255-306 255-756 0-690-475-1069Q2609-91 1734-91q-293 0-604 58T488 141v609q262-153 574-231 313-78 654-78 593 0 904 234t311 681q0 413-289 645-289 233-804 233h-544v519h569q465 0 712 186t247 536q0 359-255 551-254 193-729 193-260 0-557-57-297-56-653-174v562q360 100 674 150t592 50q719 0 1137-327 419-326 419-882 0-388-222-655t-631-370" transform="scale(.01563)"/></defs><use xlink:href="#DejaVuSans-41"/><use xlink:href="#DejaVuSans-67" transform="translate(68.408)"/><use xlink:href="#DejaVuSans-65" transform="translate(131.885)"/><use xlink:href="#DejaVuSans-6e" transform="translate(193.408)"/><use xlink:href="#DejaVuSans-74" transform="translate(256.787)"/><use xlink:href="#DejaVuSans-33" transform="translate(327.783)"/></g></g><path id="line2d_33" d="M225.392 303.8h20" style="fill:none;stroke:#9467bd;stroke-width:1.5px;stroke-linecap:square"/><g id="text_20"><g transform="matrix(.1 0 0 -.1 253.392 307.3)"><use xlink:href="#DejaVuSans-41"/><use xlink:href="#DejaVuSans-67" transform="translate(68.408)"/><use xlink:href="#DejaVuSans-65" transform="translate(131.885)"/><use xlink:href="#DejaVuSans-6e" transform="translate(193.408)"/><use xlink:href="#DejaVuSans-74" transform="translate(256.787)"/><use xlink:href="#DejaVuSans-34" transform="translate(327.783)"/></g></g><path id="line2d_34" d="M225.392 318.479h20" style="fill:none;stroke:#8c564b;stroke-width:1.5px;stroke-linecap:square"/><g id="text_21"><g transform="matrix(.1 0 0 -.1 253.392 321.979)"><use xlink:href="#DejaVuSans-41"/><use xlink:href="#DejaVuSans-67" transform="translate(68.408)"/><use xlink:href="#DejaVuSans-65" transform="translate(131.885)"/><use xlink:href="#DejaVuSans-6e" transform="translate(193.408)"/><use xlink:href="#DejaVuSans-74" transform="translate(256.787)"/><use xlink:href="#DejaVuSans-35" transform="translate(327.783)"/></g></g><path id="line2d_35" d="M225.392 333.157h20" style="fill:none;stroke:#e377c2;stroke-width:1.5px;stroke-linecap:square"/><g id="text_22"><g transform="matrix(.1 0 0 -.1 253.392 336.657)"><use xlink:href="#DejaVuSans-41"/><use xlink:href="#DejaVuSans-67" transform="translate(68.408)"/><use xlink:href="#DejaVuSans-65" transform="translate(131.885)"/><use xlink:href="#DejaVuSans-6e" transform="translate(193.408)"/><use xlink:href="#DejaVuSans-74" transform="translate(256.787)"/><use xlink:href="#DejaVuSans-36" transform="translate(327.783)"/></g></g><path id="line2d_36" d="M225.392 347.835h20" style="fill:none;stroke:#7f7f7f;stroke-width:1.5px;stroke-linecap:square"/><g id="text_23"><g transform="matrix(.1 0 0 -.1 253.392 351.335)"><defs><path id="DejaVuSans-37" d="M525 4666h3000v-269L1831 0h-659l1594 4134H525Z" transform="scale(.01563)"/></defs><use xlink:href="#DejaVuSans-41"/><use xlink:href="#DejaVuSans-67" transform="translate(68.408)"/><use xlink:href="#DejaVuSans-65" transform="translate(131.885)"/><use xlink:href="#DejaVuSans-6e" transform="translate(193.408)"/><use xlink:href="#DejaVuSans-74" transform="translate(256.787)"/><use xlink:href="#DejaVuSans-37" transform="translate(327.783)"/></g></g></g></g></g><defs><clipPath id="p83f1e01cac"><path d="M35.42 96.302h266.112v266.112H35.42Z"/></clipPath></defs></svg>