<svg xmlns="http://www.w3.org/2000/svg" xmlns:xlink="http://www.w3.org/1999/xlink" width="614.4" height="460.8" viewBox="0 0 460.8 345.6"><defs><style>*{stroke-linejoin:round;stroke-linecap:butt}</style></defs><g id="figure_1"><path id="patch_1" d="M0 345.6h460.8V0H0Z" style="fill:#fff"/><g id="axes_1"><path id="patch_2" d="M57.6 307.584h357.12V41.472H57.6Z" style="fill:#fff"/><g id="matplotlib.axis_1"><g id="xtick_1"><g id="line2d_1"><defs><path id="m9e4f42e57a" d="M0 0v3.5" style="stroke:#000;stroke-width:.8px"/></defs><use xlink:href="#m9e4f42e57a" x="58.932" y="307.584" style="stroke:#000;stroke-width:.8px"/></g><g id="text_1"><g transform="matrix(.1 0 0 -.1 55.75 322.182)"><defs><path id="DejaVuSans-30" d="M2034 4250q-487 0-733-480-245-479-245-1442 0-959 245-1439 246-480 733-480 491 0 736 480 246 480 246 1439 0 963-246 1442-245 480-736 480m0 500q785 0 1199-621 414-620 414-1801 0-1178-414-1799Q2819-91 2034-91q-784 0-1198 620-414 621-414 1799 0 1181 414 1801 414 621 1198 621" transform="scale(.01563)"/></defs><use xlink:href="#DejaVuSans-30"/></g></g></g><g id="xtick_2"><use xlink:href="#m9e4f42e57a" id="line2d_2" x="114.325" y="307.584" style="stroke:#000;stroke-width:.8px"/><g id="text_2"><g transform="matrix(.1 0 0 -.1 101.6 322.182)"><defs><path id="DejaVuSans-31" d="M794 531h1031v3560L703 3866v575l1116 225h631V531h1031V0H794Z" transform="scale(.01563)"/></defs><use xlink:href="#DejaVuSans-31"/><use xlink:href="#DejaVuSans-30" transform="translate(63.623)"/><use xlink:href="#DejaVuSans-30" transform="translate(127.246)"/><use xlink:href="#DejaVuSans-30" transform="translate(190.87)"/></g></g></g><g id="xtick_3"><use xlink:href="#m9e4f42e57a" id="line2d_3" x="169.717" y="307.584" style="stroke:#000;stroke-width:.8px"/><g id="text_3"><g transform="matrix(.1 0 0 -.1 156.992 322.182)"><defs><path id="DejaVuSans-32" d="M1228 531h2203V0H469v531q359 372 979 998 621 627 780 809 303 340 423 576 121 236 121 464 0 372-261 606-261 235-680 235-297 0-627-103-329-103-704-313v638q381 153 712 231 332 78 607 78 725 0 1156-363 431-362 431-968 0-288-108-546-107-257-392-607-78-91-497-524-418-433-1181-1211" transform="scale(.01563)"/></defs><use xlink:href="#DejaVuSans-32"/><use xlink:href="#DejaVuSans-30" transform="translate(63.623)"/><use xlink:href="#DejaVuSans-30" transform="translate(127.246)"/><use xlink:href="#DejaVuSans-30" transform="translate(190.87)"/></g></g></g><g id="xtick_4"><use xlink:href="#m9e4f42e57a" id="line2d_4" x="225.109" y="307.584" style="stroke:#000;stroke-width:.8px"/><g id="text_4"><g transform="matrix(.1 0 0 -.1 212.384 322.182)"><defs><path id="DejaVuSans-33" d="M2597 2516q453-97 707-404 255-306 255-756 0-690-475-1069Q2609-91 1734-91q-293 0-604 58T488 141v609q262-153 574-231 313-78 654-78 593 0 904 234t311 681q0 413-289 645-289 233-804 233h-544v519h569q465 0 712 186t247 536q0 359-255 551-254 193-729 193-260 0-557-57-297-56-653-174v562q360 100 674 150t592 50q719 0 1137-327 419-326 419-882 0-388-222-655t-631-370" transform="scale(.01563)"/></defs><use xlink:href="#DejaVuSans-33"/><use xlink:href="#DejaVuSans-30" transform="translate(63.623)"/><use xlink:href="#DejaVuSans-30" transform="translate(127.246)"/><use xlink:href="#DejaVuSans-30" transform="translate(190.87)"/></g></g></g><g id="xtick_5"><use xlink:href="#m9e4f42e57a" id="line2d_5" x="280.502" y="307.584" style="stroke:#000;stroke-width:.8px"/><g id="text_5"><g transform="matrix(.1 0 0 -.1 267.777 322.182)"><defs><path id="DejaVuSans-34" d="M2419 4116 825 1625h1594Zm-166 550h794V1625h666v-525h-666V0h-628v1100H313v609Z" transform="scale(.01563)"/></defs><use xlink:href="#DejaVuSans-34"/><use xlink:href="#DejaVuSans-30" transform="translate(63.623)"/><use xlink:href="#DejaVuSans-30" transform="translate(127.246)"/><use xlink:href="#DejaVuSans-30" transform="translate(190.87)"/></g></g></g><g id="xtick_6"><use xlink:href="#m9e4f42e57a" id="line2d_6" x="335.894" y="307.584" style="stroke:#000;stroke-width:.8px"/><g id="text_6"><g transform="matrix(.1 0 0 -.1 323.169 322.182)"><defs><path id="DejaVuSans-35" d="M691 4666h2478v-532H1269V2991q137 47 274 70 138 23 276 23 781 0 1237-428 457-428 457-1159 0-753-469-1171Q2575-91 1722-91q-294 0-599 50Q819 9 494 109v635q281-153 581-228t634-75q541 0 856 284 316 284 316 772 0 487-316 771-315 285-856 285-253 0-505-56-251-56-513-175Z" transform="scale(.01563)"/></defs><use xlink:href="#DejaVuSans-35"/><use xlink:href="#DejaVuSans-30" transform="translate(63.623)"/><use xlink:href="#DejaVuSans-30" transform="translate(127.246)"/><use xlink:href="#DejaVuSans-30" transform="translate(190.87)"/></g></g></g><g id="xtick_7"><use xlink:href="#m9e4f42e57a" id="line2d_7" x="391.286" y="307.584" style="stroke:#000;stroke-width:.8px"/><g id="text_7"><g transform="matrix(.1 0 0 -.1 378.561 322.182)"><defs><path id="DejaVuSans-36" d="M2113 2584q-425 0-674-291-248-290-248-796 0-503 248-796 249-292 674-292t673 292q248 293 248 796 0 506-248 796-248 291-673 291m1253 1979v-575q-238 112-480 171-242 60-480 60-625 0-955-422-329-422-376-1275 184 272 462 417 279 145 613 145 703 0 1111-427 408-426 408-1160 0-719-425-1154Q2819-91 2113-91q-810 0-1238 620-428 621-428 1799 0 1106 525 1764t1409 658q238 0 480-47t505-140" transform="scale(.01563)"/></defs><use xlink:href="#DejaVuSans-36"/><use xlink:href="#DejaVuSans-30" transform="translate(63.623)"/><use xlink:href="#DejaVuSans-30" transform="translate(127.246)"/><use xlink:href="#DejaVuSans-30" transform="translate(190.87)"/></g></g></g><g id="text_8"><g transform="matrix(.1 0 0 -.1 189.743 335.86)"><defs><path id="DejaVuSans-4d" d="M628 4666h941l1190-3175 1197 3175h941V0h-616v4097L3078 897h-634L1241 4097V0H628Z" transform="scale(.01563)"/><path id="DejaVuSans-69" d="M603 3500h575V0H603Zm0 1363h575v-729H603Z" transform="scale(.01563)"/><path id="DejaVuSans-73" d="M2834 3397v-544q-243 125-506 187-262 63-544 63-428 0-642-131t-214-394q0-200 153-314t616-217l197-44q612-131 870-370t258-667q0-488-386-773Q2250-91 1575-91q-281 0-586 55T347 128v594q319-166 628-249 309-82 613-82 406 0 624 139 219 139 219 392 0 234-158 359-157 125-692 241l-200 47q-534 112-772 345-237 233-237 639 0 494 350 762 350 269 994 269 318 0 599-47 282-46 519-140" transform="scale(.01563)"/><path id="DejaVuSans-6f" d="M1959 3097q-462 0-731-361t-269-989 267-989q268-361 733-361 460 0 728 362 269 363 269 988 0 622-269 986-268 364-728 364m0 487q750 0 1178-488 429-487 429-1349 0-859-429-1349Q2709-91 1959-91q-753 0-1180 489-426 490-426 1349 0 862 426 1349 427 488 1180 488" transform="scale(.01563)"/><path id="DejaVuSans-6e" d="M3513 2113V0h-575v2094q0 497-194 743-194 247-581 247-466 0-735-297-269-296-269-809V0H581v3500h578v-544q207 316 486 472 280 156 646 156 603 0 912-373 310-373 310-1098" transform="scale(.01563)"/><path id="DejaVuSans-6c" d="M603 4863h575V0H603Z" transform="scale(.01563)"/><path id="DejaVuSans-65" d="M3597 1894v-281H953q38-594 358-905t892-311q331 0 642 81t618 244V178Q3153 47 2828-22t-659-69q-838 0-1327 487-489 488-489 1320 0 859 464 1363 464 505 1252 505 706 0 1117-455 411-454 411-1235m-575 169q-6 471-264 752-258 282-683 282-481 0-770-272t-333-766Z" transform="scale(.01563)"/><path id="DejaVuSans-67" d="M2906 1791q0 625-258 968-257 344-723 344-462 0-720-344-258-343-258-968 0-622 258-966t720-344q466 0 723 344 258 344 258 966m575-1357q0-893-397-1329-396-436-1215-436-303 0-572 45t-522 139v559q253-137 500-202 247-66 503-66 566 0 847 295t281 892v285q-178-310-456-463T1784 0Q1141 0 747 490 353 981 353 1791q0 812 394 1302 394 491 1037 491 388 0 666-153t456-462v531h575Z" transform="scale(.01563)"/><path id="DejaVuSans-74" d="M1172 4494v-994h1184v-447H1172V1153q0-428 117-550t477-122h590V0h-590q-666 0-919 248-253 249-253 905v1900H172v447h422v994Z" transform="scale(.01563)"/><path id="DejaVuSans-68" d="M3513 2113V0h-575v2094q0 497-194 743-194 247-581 247-466 0-735-297-269-296-269-809V0H581v4863h578V2956q207 316 486 472 280 156 646 156 603 0 912-373 310-373 310-1098" transform="scale(.01563)"/><path id="DejaVuSans-5b" d="M550 4863h1325v-447h-750V-397h750v-447H550Z" transform="scale(.01563)"/><path id="DejaVuSans-6d" d="M3328 2828q216 388 516 572t706 184q547 0 844-383 297-382 297-1088V0h-578v2094q0 503-179 746-178 244-543 244-447 0-707-297-259-296-259-809V0h-578v2094q0 506-178 748t-550 242q-441 0-701-298-259-298-259-808V0H581v3500h578v-544q197 322 472 475t653 153q382 0 649-194 267-193 395-562" transform="scale(.01563)"/><path id="DejaVuSans-5d" d="M1947 4863V-844H622v447h747v4813H622v447Z" transform="scale(.01563)"/></defs><use xlink:href="#DejaVuSans-4d"/><use xlink:href="#DejaVuSans-69" transform="translate(86.28)"/><use xlink:href="#DejaVuSans-73" transform="translate(114.063)"/><use xlink:href="#DejaVuSans-73" transform="translate(166.162)"/><use xlink:href="#DejaVuSans-69" transform="translate(218.262)"/><use xlink:href="#DejaVuSans-6f" transform="translate(246.045)"/><use xlink:href="#DejaVuSans-6e" transform="translate(307.227)"/><use xlink:href="#DejaVuSans-6c" transform="translate(402.393)"/><use xlink:href="#DejaVuSans-65" transform="translate(430.176)"/><use xlink:href="#DejaVuSans-6e" transform="translate(491.7)"/><use xlink:href="#DejaVuSans-67" transform="translate(555.078)"/><use xlink:href="#DejaVuSans-74" transform="translate(618.555)"/><use xlink:href="#DejaVuSans-68" transform="translate(657.764)"/><use xlink:href="#DejaVuSans-5b" transform="translate(752.93)"/><use xlink:href="#DejaVuSans-6d" transform="translate(791.943)"/><use xlink:href="#DejaVuSans-5d" transform="translate(889.356)"/></g></g></g><g id="matplotlib.axis_2"><g id="ytick_1"><g id="line2d_8"><defs><path id="m12dfbeee4e" d="M0 0h-3.5" style="stroke:#000;stroke-width:.8px"/></defs><use xlink:href="#m12dfbeee4e" x="57.6" y="295.814" style="stroke:#000;stroke-width:.8px"/></g><use xlink:href="#DejaVuSans-30" id="text_9" transform="matrix(.1 0 0 -.1 44.238 299.614)"/></g><g id="ytick_2"><use xlink:href="#m12dfbeee4e" id="line2d_9" x="57.6" y="263.167" style="stroke:#000;stroke-width:.8px"/><g id="text_10"><g transform="matrix(.1 0 0 -.1 31.513 266.966)"><use xlink:href="#DejaVuSans-32"/><use xlink:href="#DejaVuSans-30" transform="translate(63.623)"/><use xlink:href="#DejaVuSans-30" transform="translate(127.246)"/></g></g></g><g id="ytick_3"><use xlink:href="#m12dfbeee4e" id="line2d_10" x="57.6" y="230.519" style="stroke:#000;stroke-width:.8px"/><g id="text_11"><g transform="matrix(.1 0 0 -.1 31.513 234.318)"><use xlink:href="#DejaVuSans-34"/><use xlink:href="#DejaVuSans-30" transform="translate(63.623)"/><use xlink:href="#DejaVuSans-30" transform="translate(127.246)"/></g></g></g><g id="ytick_4"><use xlink:href="#m12dfbeee4e" id="line2d_11" x="57.6" y="197.871" style="stroke:#000;stroke-width:.8px"/><g id="text_12"><g transform="matrix(.1 0 0 -.1 31.513 201.67)"><use xlink:href="#DejaVuSans-36"/><use xlink:href="#DejaVuSans-30" transform="translate(63.623)"/><use xlink:href="#DejaVuSans-30" transform="translate(127.246)"/></g></g></g><g id="ytick_5"><use xlink:href="#m12dfbeee4e" id="line2d_12" x="57.6" y="165.223" style="stroke:#000;stroke-width:.8px"/><g id="text_13"><g transform="matrix(.1 0 0 -.1 31.513 169.023)"><defs><path id="DejaVuSans-38" d="M2034 2216q-450 0-708-241-257-241-257-662 0-422 257-663 258-241 708-241t709 242q260 243 260 662 0 421-258 662-257 241-711 241m-631 268q-406 100-633 378-226 279-226 679 0 559 398 884 399 325 1092 325 697 0 1094-325t397-884q0-400-227-679-226-278-629-378 456-106 710-416 255-309 255-755 0-679-414-1042Q2806-91 2034-91q-771 0-1186 362-414 363-414 1042 0 446 256 755 257 310 713 416m-231 997q0-362 226-565 227-203 636-203 407 0 636 203 230 203 230 565 0 363-230 566-229 203-636 203-409 0-636-203-226-203-226-566" transform="scale(.01563)"/></defs><use xlink:href="#DejaVuSans-38"/><use xlink:href="#DejaVuSans-30" transform="translate(63.623)"/><use xlink:href="#DejaVuSans-30" transform="translate(127.246)"/></g></g></g><g id="ytick_6"><use xlink:href="#m12dfbeee4e" id="line2d_13" x="57.6" y="132.576" style="stroke:#000;stroke-width:.8px"/><g id="text_14"><g transform="matrix(.1 0 0 -.1 25.15 136.375)"><use xlink:href="#DejaVuSans-31"/><use xlink:href="#DejaVuSans-30" transform="translate(63.623)"/><use xlink:href="#DejaVuSans-30" transform="translate(127.246)"/><use xlink:href="#DejaVuSans-30" transform="translate(190.87)"/></g></g></g><g id="ytick_7"><use xlink:href="#m12dfbeee4e" id="line2d_14" x="57.6" y="99.928" style="stroke:#000;stroke-width:.8px"/><g id="text_15"><g transform="matrix(.1 0 0 -.1 25.15 103.727)"><use xlink:href="#DejaVuSans-31"/><use xlink:href="#DejaVuSans-32" transform="translate(63.623)"/><use xlink:href="#DejaVuSans-30" transform="translate(127.246)"/><use xlink:href="#DejaVuSans-30" transform="translate(190.87)"/></g></g></g><g id="ytick_8"><use xlink:href="#m12dfbeee4e" id="line2d_15" x="57.6" y="67.28" style="stroke:#000;stroke-width:.8px"/><g id="text_16"><g transform="matrix(.1 0 0 -.1 25.15 71.08)"><use xlink:href="#DejaVuSans-31"/><use xlink:href="#DejaVuSans-34" transform="translate(63.623)"/><use xlink:href="#DejaVuSans-30" transform="translate(127.246)"/><use xlink:href="#DejaVuSans-30" transform="translate(190.87)"/></g></g></g><g id="text_17"><g transform="matrix(0 -.1 -.1 0 19.07 221.916)"><defs><path id="DejaVuSans-50" d="M1259 4147V2394h794q441 0 681 228 241 228 241 650 0 419-241 647-240 228-681 228Zm-631 519h1425q785 0 1186-355 402-355 402-1039 0-691-402-1044-401-353-1186-353h-794V0H628Z" transform="scale(.01563)"/><path id="DejaVuSans-61" d="M2194 1759q-697 0-966-159t-269-544q0-306 202-486 202-179 548-179 479 0 768 339t289 901v128Zm1147 238V0h-575v531q-197-318-491-470T1556-91q-537 0-855 302-317 302-317 808 0 590 395 890 396 300 1180 300h807v57q0 397-261 614t-733 217q-300 0-585-72-284-72-546-216v532q315 122 612 182 297 61 578 61 760 0 1135-394 375-393 375-1193" transform="scale(.01563)"/></defs><use xlink:href="#DejaVuSans-50"/><use xlink:href="#DejaVuSans-6c" transform="translate(60.303)"/><use xlink:href="#DejaVuSans-61" transform="translate(88.086)"/><use xlink:href="#DejaVuSans-6e" transform="translate(149.365)"/><use xlink:href="#DejaVuSans-6e" transform="translate(212.744)"/><use xlink:href="#DejaVuSans-69" transform="translate(276.123)"/><use xlink:href="#DejaVuSans-6e" transform="translate(303.906)"/><use xlink:href="#DejaVuSans-67" transform="translate(367.285)"/><use xlink:href="#DejaVuSans-74" transform="translate(462.549)"/><use xlink:href="#DejaVuSans-69" transform="translate(501.758)"/><use xlink:href="#DejaVuSans-6d" transform="translate(529.541)"/><use xlink:href="#DejaVuSans-65" transform="translate(626.953)"/><use xlink:href="#DejaVuSans-5b" transform="translate(720.264)"/><use xlink:href="#DejaVuSans-6d" transform="translate(759.277)"/><use xlink:href="#DejaVuSans-73" transform="translate(856.69)"/><use xlink:href="#DejaVuSans-5d" transform="translate(908.79)"/></g></g></g><g id="line2d_16"><path d="m73.833 295.308 88.129-49.771 43.538 10.12 135.268-153.28 57.72-48.809" clip-path="url(#p80da26dd9a)" style="fill:none;stroke:green;stroke-width:1.5px;stroke-linecap:square"/><defs><path id="me46fb95214" d="M0 3a3 3 0 1 0-.00011535600561352055-6A3 3 0 0 0 0 3Z" style="stroke:green"/></defs><g clip-path="url(#p80da26dd9a)"><use xlink:href="#me46fb95214" x="73.833" y="295.308" style="fill:green;stroke:green"/><use xlink:href="#me46fb95214" x="161.962" y="245.537" style="fill:green;stroke:green"/><use xlink:href="#me46fb95214" x="205.5" y="255.658" style="fill:green;stroke:green"/><use xlink:href="#me46fb95214" x="340.768" y="102.376" style="fill:green;stroke:green"/><use xlink:href="#me46fb95214" x="398.487" y="53.568" style="fill:green;stroke:green"/></g></g><g id="line2d_17"><path d="m73.833 295.488 88.129-8.782 43.538 6.04 135.102-45.25 57.885-50.278" clip-path="url(#p80da26dd9a)" style="fill:none;stroke:orange;stroke-width:1.5px;stroke-linecap:square"/><defs><path id="m0166ab0dca" d="M0 3a3 3 0 1 0-.00011535600561352055-6A3 3 0 0 0 0 3Z" style="stroke:orange"/></defs><g clip-path="url(#p80da26dd9a)"><use xlink:href="#m0166ab0dca" x="73.833" y="295.488" style="fill:orange;stroke:orange"/><use xlink:href="#m0166ab0dca" x="161.962" y="286.706" style="fill:orange;stroke:orange"/><use xlink:href="#m0166ab0dca" x="205.5" y="292.746" style="fill:orange;stroke:orange"/><use xlink:href="#m0166ab0dca" x="340.602" y="247.496" style="fill:orange;stroke:orange"/><use xlink:href="#m0166ab0dca" x="398.487" y="197.218" style="fill:orange;stroke:orange"/></g></g><path id="patch_3" d="M57.6 307.584V41.472" style="fill:none;stroke:#000;stroke-width:.8px;stroke-linejoin:miter;stroke-linecap:square"/><path id="patch_4" d="M414.72 307.584V41.472" style="fill:none;stroke:#000;stroke-width:.8px;stroke-linejoin:miter;stroke-linecap:square"/><path id="patch_5" d="M57.6 307.584h357.12" style="fill:none;stroke:#000;stroke-width:.8px;stroke-linejoin:miter;stroke-linecap:square"/><path id="patch_6" d="M57.6 41.472h357.12" style="fill:none;stroke:#000;stroke-width:.8px;stroke-linejoin:miter;stroke-linecap:square"/><g id="text_18"><g transform="matrix(.12 0 0 -.12 139.19 35.472)"><defs><path id="DejaVuSans-56" d="M1831 0 50 4666h659L2188 738l1481 3928h656L2547 0Z" transform="scale(.01563)"/><path id="DejaVuSans-53" d="M3425 4513v-616q-359 172-678 256-319 85-616 85-515 0-795-200t-280-569q0-310 186-468 186-157 705-254l381-78q706-135 1042-474t336-907q0-679-455-1029Q2797-91 1919-91q-331 0-705 75-373 75-773 222v650q384-215 753-325 369-109 725-109 540 0 834 212 294 213 294 607 0 343-211 537t-692 291l-385 75q-706 140-1022 440-315 300-315 835 0 619 436 975t1201 356q329 0 669-60 341-59 697-177" transform="scale(.01563)"/></defs><use xlink:href="#DejaVuSans-50"/><use xlink:href="#DejaVuSans-6c" transform="translate(60.303)"/><use xlink:href="#DejaVuSans-61" transform="translate(88.086)"/><use xlink:href="#DejaVuSans-6e" transform="translate(149.365)"/><use xlink:href="#DejaVuSans-6e" transform="translate(212.744)"/><use xlink:href="#DejaVuSans-69" transform="translate(276.123)"/><use xlink:href="#DejaVuSans-6e" transform="translate(303.906)"/><use xlink:href="#DejaVuSans-67" transform="translate(367.285)"/><use xlink:href="#DejaVuSans-74" transform="translate(462.549)"/><use xlink:href="#DejaVuSans-69" transform="translate(501.758)"/><use xlink:href="#DejaVuSans-6d" transform="translate(529.541)"/><use xlink:href="#DejaVuSans-65" transform="translate(626.953)"/><use xlink:href="#DejaVuSans-56" transform="translate(720.264)"/><use xlink:href="#DejaVuSans-53" transform="translate(788.672)"/><use xlink:href="#DejaVuSans-6d" transform="translate(883.936)"/><use xlink:href="#DejaVuSans-69" transform="translate(981.348)"/><use xlink:href="#DejaVuSans-73" transform="translate(1009.13)"/><use xlink:href="#DejaVuSans-73" transform="translate(1061.23)"/><use xlink:href="#DejaVuSans-69" transform="translate(1113.33)"/><use xlink:href="#DejaVuSans-6f" transform="translate(1141.11)"/><use xlink:href="#DejaVuSans-6e" transform="translate(1202.3)"/><use xlink:href="#DejaVuSans-6c" transform="translate(1297.46)"/><use xlink:href="#DejaVuSans-65" transform="translate(1325.24)"/><use xlink:href="#DejaVuSans-6e" transform="translate(1386.77)"/><use xlink:href="#DejaVuSans-67" transform="translate(1450.15)"/><use xlink:href="#DejaVuSans-74" transform="translate(1513.62)"/><use xlink:href="#DejaVuSans-68" transform="translate(1552.83)"/></g></g><g id="legend_1"><path id="patch_7" d="M64.6 78.828h70.416q2 0 2-2V48.472q0-2-2-2H64.6q-2 0-2 2v28.356q0 2 2 2Z" style="fill:#fff;opacity:.8;stroke:#ccc;stroke-linejoin:miter"/><g id="line2d_18"><path d="M66.6 54.57h20" style="fill:none;stroke:green;stroke-width:1.5px;stroke-linecap:square"/><use xlink:href="#me46fb95214" x="76.6" y="54.57" style="fill:green;stroke:green"/></g><g id="text_19"><g transform="matrix(.1 0 0 -.1 94.6 58.07)"><defs><path id="DejaVuSans-44" d="M1259 4147V519h763q966 0 1414 437 448 438 448 1382 0 937-448 1373t-1414 436Zm-631 519h1297q1356 0 1990-564 635-564 635-1764 0-1207-638-1773Q3275 0 1925 0H628Z" transform="scale(.01563)"/><path id="DejaVuSans-6a" d="M603 3500h575V-63q0-668-255-968-254-300-820-300h-219v487H38q328 0 446 152Q603-541 603-63Zm0 1363h575v-729H603Z" transform="scale(.01563)"/><path id="DejaVuSans-6b" d="M581 4863h578V1991l1716 1509h734L1753 1863 3688 0h-750L1159 1709V0H581Z" transform="scale(.01563)"/><path id="DejaVuSans-72" d="M2631 2963q-97 56-211 82-114 27-251 27-488 0-749-317t-261-911V0H581v3500h578v-544q182 319 472 473 291 155 707 155 59 0 131-8 72-7 159-23Z" transform="scale(.01563)"/></defs><use xlink:href="#DejaVuSans-44"/><use xlink:href="#DejaVuSans-69" transform="translate(77.002)"/><use xlink:href="#DejaVuSans-6a" transform="translate(104.785)"/><use xlink:href="#DejaVuSans-6b" transform="translate(132.568)"/><use xlink:href="#DejaVuSans-73" transform="translate(190.479)"/><use xlink:href="#DejaVuSans-74" transform="translate(242.578)"/><use xlink:href="#DejaVuSans-72" transform="translate(281.787)"/><use xlink:href="#DejaVuSans-61" transform="translate(322.9)"/></g></g><g id="line2d_19"><path d="M66.6 69.249h20" style="fill:none;stroke:orange;stroke-width:1.5px;stroke-linecap:square"/><use xlink:href="#m0166ab0dca" x="76.6" y="69.249" style="fill:orange;stroke:orange"/></g><g id="text_20"><g transform="matrix(.1 0 0 -.1 94.6 72.749)"><defs><path id="DejaVuSans-41" d="m2188 4044-857-2322h1716Zm-357 622h716L4325 0h-656l-425 1197H1141L716 0H50Z" transform="scale(.01563)"/><path id="DejaVuSans-2a" d="m3009 3897-1121-606 1121-610-181-306-1050 634V1831h-356v1178L372 2375l-181 306 1122 610-1122 606 181 309 1050-634v1178h356V3572l1050 634Z" transform="scale(.01563)"/></defs><use xlink:href="#DejaVuSans-41"/><use xlink:href="#DejaVuSans-2a" transform="translate(68.408)"/></g></g></g></g></g><defs><clipPath id="p80da26dd9a"><path d="M57.6 41.472h357.12v266.112H57.6Z"/></clipPath></defs></svg>