<svg xmlns="http://www.w3.org/2000/svg" xmlns:xlink="http://www.w3.org/1999/xlink" id="svg125" width="355.883" height="355.883" viewBox="0 0 266.912 266.912"><defs xmlns:svg="http://www.w3.org/2000/svg" id="defs1"><style xmlns:svg="http://www.w3.org/2000/svg" id="style1" type="text/css">*{stroke-linejoin:round;stroke-linecap:butt}</style></defs><g id="figure_1" transform="translate(-33.003 -14.718)"><g id="axes_1"><g id="patch_2"><path xmlns:svg="http://www.w3.org/2000/svg" id="path2" d="M33.403 281.23h266.112V15.118H33.403Z" style="fill:#fff"/></g><g id="line2d_17"><path xmlns:svg="http://www.w3.org/2000/svg" id="path55" d="m45.5 272.194 5.58-.186 5.552-.585 5.496-.98 5.414-1.366 5.302-1.747 5.165-2.12 5-2.483 4.812-2.832 4.598-3.167 4.361-3.487 4.102-3.787 3.822-4.07 3.523-4.331 3.205-4.571 2.873-4.788 2.526-4.98 2.164-5.146 1.788-5.287 1.41-5.4 1.032-5.491.648-5.551.227-5.577-.22-5.568-.59-5.548-.825-5.53-.874-5.518-.65-5.533-.164-5.568.358-5.578.81-5.537 1.213-5.452 1.625-5.339 2.043-5.194 2.45-5.02 2.836-4.812 3.203-4.574 3.551-4.31 3.88-4.016 4.181-3.701 4.46-3.362 4.71-3.002 4.93-2.622 5.12-2.224 5.28-1.82 5.406-1.41 5.501-.982 5.557-.522 5.578-.048 5.573.342 5.549.622 5.52.792 5.51.858 5.515.834 5.521.787 5.527.732 5.525.745 5.51.896 5.466 1.189 5.341 1.625 5.126 2.2 4.842 2.798 4.51 3.32 4.126 3.777 3.698 4.19 3.221 4.566 2.708 4.892 2.163 5.157 1.592 5.36 1.005 5.5.402 5.576-.203 5.587-.805 5.533-1.4 5.413-1.976 5.23-2.531 4.985-3.056 4.683-3.543 4.324-3.991 3.916-4.39 3.462-4.74 2.965-5.032 2.436-5.267 1.878-5.438 1.297-5.547.701-5.59.097-5.568-.508-5.48-1.107-5.329-1.695-5.114-2.26-4.839-2.8-4.508-3.306-4.124-3.775-3.692-4.2-3.216-4.573-2.7-4.895-2.157-5.158-1.591-5.36-1.002-5.5-.389-5.58" clip-path="url(#pa6a48a652d)" style="fill:none;stroke:#1f77b4;stroke-width:1.5px;stroke-linecap:square"/></g><g id="line2d_18"><defs xmlns:svg="http://www.w3.org/2000/svg" id="defs55"><path xmlns:svg="http://www.w3.org/2000/svg" id="m1f8759342f" d="m-3 3 6-6m-6 0 6 6" style="stroke:red"/></defs><g id="g96" clip-path="url(#pa6a48a652d)"><use xmlns:svg="http://www.w3.org/2000/svg" xlink:href="#m1f8759342f" id="use56" x="45.499" y="272.194" style="fill:red;stroke:red"/><use xmlns:svg="http://www.w3.org/2000/svg" xlink:href="#m1f8759342f" id="use57" x="59.261" y="271.005" style="fill:red;stroke:red"/><use xmlns:svg="http://www.w3.org/2000/svg" xlink:href="#m1f8759342f" id="use58" x="72.6" y="267.42" style="fill:red;stroke:red"/><use xmlns:svg="http://www.w3.org/2000/svg" xlink:href="#m1f8759342f" id="use59" x="85.104" y="261.551" style="fill:red;stroke:red"/><use xmlns:svg="http://www.w3.org/2000/svg" xlink:href="#m1f8759342f" id="use60" x="96.384" y="253.579" style="fill:red;stroke:red"/><use xmlns:svg="http://www.w3.org/2000/svg" xlink:href="#m1f8759342f" id="use61" x="106.091" y="243.753" style="fill:red;stroke:red"/><use xmlns:svg="http://www.w3.org/2000/svg" xlink:href="#m1f8759342f" id="use62" x="113.924" y="232.376" style="fill:red;stroke:red"/><use xmlns:svg="http://www.w3.org/2000/svg" xlink:href="#m1f8759342f" id="use63" x="119.64" y="219.801" style="fill:red;stroke:red"/><use xmlns:svg="http://www.w3.org/2000/svg" xlink:href="#m1f8759342f" id="use64" x="123.061" y="206.419" style="fill:red;stroke:red"/><use xmlns:svg="http://www.w3.org/2000/svg" xlink:href="#m1f8759342f" id="use65" x="124.082" y="192.644" style="fill:red;stroke:red"/><use xmlns:svg="http://www.w3.org/2000/svg" xlink:href="#m1f8759342f" id="use66" x="122.671" y="178.904" style="fill:red;stroke:red"/><use xmlns:svg="http://www.w3.org/2000/svg" xlink:href="#m1f8759342f" id="use67" x="120.85" y="165.213" style="fill:red;stroke:red"/><use xmlns:svg="http://www.w3.org/2000/svg" xlink:href="#m1f8759342f" id="use68" x="121.676" y="151.429" style="fill:red;stroke:red"/><use xmlns:svg="http://www.w3.org/2000/svg" xlink:href="#m1f8759342f" id="use69" x="125.149" y="138.064" style="fill:red;stroke:red"/><use xmlns:svg="http://www.w3.org/2000/svg" xlink:href="#m1f8759342f" id="use70" x="131.138" y="125.622" style="fill:red;stroke:red"/><use xmlns:svg="http://www.w3.org/2000/svg" xlink:href="#m1f8759342f" id="use71" x="139.418" y="114.57" style="fill:red;stroke:red"/><use xmlns:svg="http://www.w3.org/2000/svg" xlink:href="#m1f8759342f" id="use72" x="149.677" y="105.327" style="fill:red;stroke:red"/><use xmlns:svg="http://www.w3.org/2000/svg" xlink:href="#m1f8759342f" id="use73" x="161.528" y="98.238" style="fill:red;stroke:red"/><use xmlns:svg="http://www.w3.org/2000/svg" xlink:href="#m1f8759342f" id="use74" x="174.524" y="93.573" style="fill:red;stroke:red"/><use xmlns:svg="http://www.w3.org/2000/svg" xlink:href="#m1f8759342f" id="use75" x="188.178" y="91.506" style="fill:red;stroke:red"/><use xmlns:svg="http://www.w3.org/2000/svg" xlink:href="#m1f8759342f" id="use76" x="201.973" y="92.115" style="fill:red;stroke:red"/><use xmlns:svg="http://www.w3.org/2000/svg" xlink:href="#m1f8759342f" id="use77" x="215.662" y="94.092" style="fill:red;stroke:red"/><use xmlns:svg="http://www.w3.org/2000/svg" xlink:href="#m1f8759342f" id="use78" x="229.35" y="96.069" style="fill:red;stroke:red"/><use xmlns:svg="http://www.w3.org/2000/svg" xlink:href="#m1f8759342f" id="use79" x="243.038" y="98.047" style="fill:red;stroke:red"/><use xmlns:svg="http://www.w3.org/2000/svg" xlink:href="#m1f8759342f" id="use80" x="256.312" y="101.784" style="fill:red;stroke:red"/><use xmlns:svg="http://www.w3.org/2000/svg" xlink:href="#m1f8759342f" id="use81" x="268.122" y="108.902" style="fill:red;stroke:red"/><use xmlns:svg="http://www.w3.org/2000/svg" xlink:href="#m1f8759342f" id="use82" x="277.626" y="118.893" style="fill:red;stroke:red"/><use xmlns:svg="http://www.w3.org/2000/svg" xlink:href="#m1f8759342f" id="use83" x="284.146" y="131.044" style="fill:red;stroke:red"/><use xmlns:svg="http://www.w3.org/2000/svg" xlink:href="#m1f8759342f" id="use84" x="287.216" y="144.487" style="fill:red;stroke:red"/><use xmlns:svg="http://www.w3.org/2000/svg" xlink:href="#m1f8759342f" id="use85" x="286.618" y="158.263" style="fill:red;stroke:red"/><use xmlns:svg="http://www.w3.org/2000/svg" xlink:href="#m1f8759342f" id="use86" x="282.393" y="171.39" style="fill:red;stroke:red"/><use xmlns:svg="http://www.w3.org/2000/svg" xlink:href="#m1f8759342f" id="use87" x="274.845" y="182.929" style="fill:red;stroke:red"/><use xmlns:svg="http://www.w3.org/2000/svg" xlink:href="#m1f8759342f" id="use88" x="264.51" y="192.059" style="fill:red;stroke:red"/><use xmlns:svg="http://www.w3.org/2000/svg" xlink:href="#m1f8759342f" id="use89" x="252.127" y="198.126" style="fill:red;stroke:red"/><use xmlns:svg="http://www.w3.org/2000/svg" xlink:href="#m1f8759342f" id="use90" x="238.58" y="200.698" style="fill:red;stroke:red"/><use xmlns:svg="http://www.w3.org/2000/svg" xlink:href="#m1f8759342f" id="use91" x="224.835" y="199.592" style="fill:red;stroke:red"/><use xmlns:svg="http://www.w3.org/2000/svg" xlink:href="#m1f8759342f" id="use92" x="211.873" y="194.886" style="fill:red;stroke:red"/><use xmlns:svg="http://www.w3.org/2000/svg" xlink:href="#m1f8759342f" id="use93" x="200.62" y="186.917" style="fill:red;stroke:red"/><use xmlns:svg="http://www.w3.org/2000/svg" xlink:href="#m1f8759342f" id="use94" x="191.878" y="176.252" style="fill:red;stroke:red"/><use xmlns:svg="http://www.w3.org/2000/svg" xlink:href="#m1f8759342f" id="use95" x="186.272" y="163.654" style="fill:red;stroke:red"/><use xmlns:svg="http://www.w3.org/2000/svg" xlink:href="#m1f8759342f" id="use96" x="184.201" y="150.021" style="fill:red;stroke:red"/></g></g><g id="patch_3"><path xmlns:svg="http://www.w3.org/2000/svg" id="path96" d="M33.403 281.23V15.118" style="fill:none;stroke:#000;stroke-width:.8px;stroke-linecap:square;stroke-linejoin:miter"/></g><g id="patch_4"><path xmlns:svg="http://www.w3.org/2000/svg" id="path97" d="M299.515 281.23V15.118" style="fill:none;stroke:#000;stroke-width:.8px;stroke-linecap:square;stroke-linejoin:miter"/></g><g id="patch_5"><path xmlns:svg="http://www.w3.org/2000/svg" id="path98" d="M33.403 281.23h266.112" style="fill:none;stroke:#000;stroke-width:.8px;stroke-linecap:square;stroke-linejoin:miter"/></g><g id="patch_6" transform="translate(0 1.5)"><path xmlns:svg="http://www.w3.org/2000/svg" id="path99" d="M33.403 15.118h266.112" style="fill:none;stroke:#000;stroke-width:.8px;stroke-linecap:square;stroke-linejoin:miter"/></g><circle xmlns:svg="http://www.w3.org/2000/svg" id="path125" cx="153.888" cy="166.158" r="2.94" style="fill:#000;stroke-width:.75px"/><path xmlns:svg="http://www.w3.org/2000/svg" id="path126" d="m185.022 161.715-62.757 8.883" style="fill:#000;stroke:#000;stroke-width:1.75px;stroke-dasharray:1.75 1.75;stroke-dashoffset:0;stroke-opacity:1"/></g></g><defs xmlns:svg="http://www.w3.org/2000/svg" id="defs125"><clipPath xmlns:svg="http://www.w3.org/2000/svg" id="pa6a48a652d"><path xmlns:svg="http://www.w3.org/2000/svg" id="rect125" d="M33.403 15.118h266.112V281.23H33.403Z"/></clipPath></defs></svg>