<svg xmlns="http://www.w3.org/2000/svg" xmlns:xlink="http://www.w3.org/1999/xlink" width="518.016" height="397.211" viewBox="0 0 388.512 297.908"><defs><style>*{stroke-linejoin:round;stroke-linecap:butt}</style></defs><g id="figure_1"><path id="patch_1" d="M0 297.908h388.512V0H0Z" style="fill:#fff"/><g id="axes_1"><path id="patch_2" d="M28.105 281.23h357.12V15.118H28.105Z" style="fill:#fff"/><g id="matplotlib.axis_1"><g id="xtick_1"><g id="line2d_1"><defs><path id="m05140c2fb3" d="M0 0v3.5" style="stroke:#000;stroke-width:.8px"/></defs><use xlink:href="#m05140c2fb3" x="44.337" y="281.23" style="stroke:#000;stroke-width:.8px"/></g><g id="text_1"><g transform="matrix(.1 0 0 -.1 41.156 295.829)"><defs><path id="DejaVuSans-30" d="M2034 4250q-487 0-733-480-245-479-245-1442 0-959 245-1439 246-480 733-480 491 0 736 480 246 480 246 1439 0 963-246 1442-245 480-736 480m0 500q785 0 1199-621 414-620 414-1801 0-1178-414-1799Q2819-91 2034-91q-784 0-1198 620-414 621-414 1799 0 1181 414 1801 414 621 1198 621" transform="scale(.01563)"/></defs><use xlink:href="#DejaVuSans-30"/></g></g></g><g id="xtick_2"><use xlink:href="#m05140c2fb3" id="line2d_2" x="85.769" y="281.23" style="stroke:#000;stroke-width:.8px"/><g id="text_2"><g transform="matrix(.1 0 0 -.1 76.225 295.829)"><defs><path id="DejaVuSans-32" d="M1228 531h2203V0H469v531q359 372 979 998 621 627 780 809 303 340 423 576 121 236 121 464 0 372-261 606-261 235-680 235-297 0-627-103-329-103-704-313v638q381 153 712 231 332 78 607 78 725 0 1156-363 431-362 431-968 0-288-108-546-107-257-392-607-78-91-497-524-418-433-1181-1211" transform="scale(.01563)"/><path id="DejaVuSans-35" d="M691 4666h2478v-532H1269V2991q137 47 274 70 138 23 276 23 781 0 1237-428 457-428 457-1159 0-753-469-1171Q2575-91 1722-91q-294 0-599 50Q819 9 494 109v635q281-153 581-228t634-75q541 0 856 284 316 284 316 772 0 487-316 771-315 285-856 285-253 0-505-56-251-56-513-175Z" transform="scale(.01563)"/></defs><use xlink:href="#DejaVuSans-32"/><use xlink:href="#DejaVuSans-35" transform="translate(63.623)"/><use xlink:href="#DejaVuSans-30" transform="translate(127.246)"/></g></g></g><g id="xtick_3"><use xlink:href="#m05140c2fb3" id="line2d_3" x="127.2" y="281.23" style="stroke:#000;stroke-width:.8px"/><g id="text_3"><g transform="matrix(.1 0 0 -.1 117.656 295.829)"><use xlink:href="#DejaVuSans-35"/><use xlink:href="#DejaVuSans-30" transform="translate(63.623)"/><use xlink:href="#DejaVuSans-30" transform="translate(127.246)"/></g></g></g><g id="xtick_4"><use xlink:href="#m05140c2fb3" id="line2d_4" x="168.631" y="281.23" style="stroke:#000;stroke-width:.8px"/><g id="text_4"><g transform="matrix(.1 0 0 -.1 159.087 295.829)"><defs><path id="DejaVuSans-37" d="M525 4666h3000v-269L1831 0h-659l1594 4134H525Z" transform="scale(.01563)"/></defs><use xlink:href="#DejaVuSans-37"/><use xlink:href="#DejaVuSans-35" transform="translate(63.623)"/><use xlink:href="#DejaVuSans-30" transform="translate(127.246)"/></g></g></g><g id="xtick_5"><use xlink:href="#m05140c2fb3" id="line2d_5" x="210.062" y="281.23" style="stroke:#000;stroke-width:.8px"/><g id="text_5"><g transform="matrix(.1 0 0 -.1 197.337 295.829)"><defs><path id="DejaVuSans-31" d="M794 531h1031v3560L703 3866v575l1116 225h631V531h1031V0H794Z" transform="scale(.01563)"/></defs><use xlink:href="#DejaVuSans-31"/><use xlink:href="#DejaVuSans-30" transform="translate(63.623)"/><use xlink:href="#DejaVuSans-30" transform="translate(127.246)"/><use xlink:href="#DejaVuSans-30" transform="translate(190.87)"/></g></g></g><g id="xtick_6"><use xlink:href="#m05140c2fb3" id="line2d_6" x="251.493" y="281.23" style="stroke:#000;stroke-width:.8px"/><g id="text_6"><g transform="matrix(.1 0 0 -.1 238.768 295.829)"><use xlink:href="#DejaVuSans-31"/><use xlink:href="#DejaVuSans-32" transform="translate(63.623)"/><use xlink:href="#DejaVuSans-35" transform="translate(127.246)"/><use xlink:href="#DejaVuSans-30" transform="translate(190.87)"/></g></g></g><g id="xtick_7"><use xlink:href="#m05140c2fb3" id="line2d_7" x="292.924" y="281.23" style="stroke:#000;stroke-width:.8px"/><g id="text_7"><g transform="matrix(.1 0 0 -.1 280.2 295.829)"><use xlink:href="#DejaVuSans-31"/><use xlink:href="#DejaVuSans-35" transform="translate(63.623)"/><use xlink:href="#DejaVuSans-30" transform="translate(127.246)"/><use xlink:href="#DejaVuSans-30" transform="translate(190.87)"/></g></g></g><g id="xtick_8"><use xlink:href="#m05140c2fb3" id="line2d_8" x="334.356" y="281.23" style="stroke:#000;stroke-width:.8px"/><g id="text_8"><g transform="matrix(.1 0 0 -.1 321.63 295.829)"><use xlink:href="#DejaVuSans-31"/><use xlink:href="#DejaVuSans-37" transform="translate(63.623)"/><use xlink:href="#DejaVuSans-35" transform="translate(127.246)"/><use xlink:href="#DejaVuSans-30" transform="translate(190.87)"/></g></g></g><g id="xtick_9"><use xlink:href="#m05140c2fb3" id="line2d_9" x="375.787" y="281.23" style="stroke:#000;stroke-width:.8px"/><g id="text_9"><g transform="matrix(.1 0 0 -.1 363.062 295.829)"><use xlink:href="#DejaVuSans-32"/><use xlink:href="#DejaVuSans-30" transform="translate(63.623)"/><use xlink:href="#DejaVuSans-30" transform="translate(127.246)"/><use xlink:href="#DejaVuSans-30" transform="translate(190.87)"/></g></g></g></g><g id="matplotlib.axis_2"><g id="ytick_1"><g id="line2d_10"><defs><path id="mab9f1457bc" d="M0 0h-3.5" style="stroke:#000;stroke-width:.8px"/></defs><use xlink:href="#mab9f1457bc" x="28.105" y="244.747" style="stroke:#000;stroke-width:.8px"/></g><g id="text_10"><g transform="matrix(.1 0 0 -.1 0 248.547)"><defs><path id="DejaVuSans-2212" d="M678 2272h4006v-531H678Z" transform="scale(.01563)"/></defs><use xlink:href="#DejaVuSans-2212"/><use xlink:href="#DejaVuSans-31" transform="translate(83.79)"/><use xlink:href="#DejaVuSans-30" transform="translate(147.412)"/></g></g></g><g id="ytick_2"><use xlink:href="#mab9f1457bc" id="line2d_11" x="28.105" y="198.951" style="stroke:#000;stroke-width:.8px"/><g id="text_11"><g transform="matrix(.1 0 0 -.1 6.363 202.75)"><defs><path id="DejaVuSans-38" d="M2034 2216q-450 0-708-241-257-241-257-662 0-422 257-663 258-241 708-241t709 242q260 243 260 662 0 421-258 662-257 241-711 241m-631 268q-406 100-633 378-226 279-226 679 0 559 398 884 399 325 1092 325 697 0 1094-325t397-884q0-400-227-679-226-278-629-378 456-106 710-416 255-309 255-755 0-679-414-1042Q2806-91 2034-91q-771 0-1186 362-414 363-414 1042 0 446 256 755 257 310 713 416m-231 997q0-362 226-565 227-203 636-203 407 0 636 203 230 203 230 565 0 363-230 566-229 203-636 203-409 0-636-203-226-203-226-566" transform="scale(.01563)"/></defs><use xlink:href="#DejaVuSans-2212"/><use xlink:href="#DejaVuSans-38" transform="translate(83.79)"/></g></g></g><g id="ytick_3"><use xlink:href="#mab9f1457bc" id="line2d_12" x="28.105" y="153.154" style="stroke:#000;stroke-width:.8px"/><g id="text_12"><g transform="matrix(.1 0 0 -.1 6.363 156.954)"><defs><path id="DejaVuSans-36" d="M2113 2584q-425 0-674-291-248-290-248-796 0-503 248-796 249-292 674-292t673 292q248 293 248 796 0 506-248 796-248 291-673 291m1253 1979v-575q-238 112-480 171-242 60-480 60-625 0-955-422-329-422-376-1275 184 272 462 417 279 145 613 145 703 0 1111-427 408-426 408-1160 0-719-425-1154Q2819-91 2113-91q-810 0-1238 620-428 621-428 1799 0 1106 525 1764t1409 658q238 0 480-47t505-140" transform="scale(.01563)"/></defs><use xlink:href="#DejaVuSans-2212"/><use xlink:href="#DejaVuSans-36" transform="translate(83.79)"/></g></g></g><g id="ytick_4"><use xlink:href="#mab9f1457bc" id="line2d_13" x="28.105" y="107.358" style="stroke:#000;stroke-width:.8px"/><g id="text_13"><g transform="matrix(.1 0 0 -.1 6.363 111.157)"><defs><path id="DejaVuSans-34" d="M2419 4116 825 1625h1594Zm-166 550h794V1625h666v-525h-666V0h-628v1100H313v609Z" transform="scale(.01563)"/></defs><use xlink:href="#DejaVuSans-2212"/><use xlink:href="#DejaVuSans-34" transform="translate(83.79)"/></g></g></g><g id="ytick_5"><use xlink:href="#mab9f1457bc" id="line2d_14" x="28.105" y="61.561" style="stroke:#000;stroke-width:.8px"/><g id="text_14"><g transform="matrix(.1 0 0 -.1 6.363 65.36)"><use xlink:href="#DejaVuSans-2212"/><use xlink:href="#DejaVuSans-32" transform="translate(83.79)"/></g></g></g><g id="ytick_6"><use xlink:href="#mab9f1457bc" id="line2d_15" x="28.105" y="15.765" style="stroke:#000;stroke-width:.8px"/><use xlink:href="#DejaVuSans-30" id="text_15" transform="matrix(.1 0 0 -.1 14.742 19.564)"/></g></g><path id="line2d_16" d="m44.337 260.662.332.4.166.916.165.115.166 1.088.663.343.166-.744.165 1.26.166-.058.166 3.32.497-.286.166.973.165-.114.332 1.202.166-.115.331.172.332-2.347.165-2.347.166-.057.166-3.263.165-.973h.166l.332-.287.165.687.166-.171.166-.458h.166l.165-3.893.166.057.331-.172.166.172.166.573.166-.916.165-.115.166-.916.166-.229.165.458.498.057.165-2.976.166 2.461.166-4.293.166-.057.331.4.166-.973.165.744.332-1.26.166-4.693.165.63.166 2.576.166-.287.166.172.165.916.166.172.497 8.071.166-.057.166.23.165-.63.166.858.166-.057.165.286.166 3.893.166.4.331-.057.166-.343.166-.802.497.058.166-.172.331-8.415.166-2.462.166.458.165 2.462.166-2.29.166.63.166.114.165-.458.166.63.166 1.832.165-.745.166.172.166.573.166 4.751.165-.687.166-1.202.166-3.836.166.115.331-.573.663-8.357.663-.802.165-.63h.166l.332-.114.331.744.166 1.718.331-.287.332 3.492.331 8.358.166 2.404.166-.171.165-.973.166.171.166-.63.166.058.165-.115.166-.801.166-1.832.331.172.166-.4.166 2.403.165-.057.332-2.232.165-.287.166-.515.166.23.166.858h.165l.166.744.166.114.166.287.165 1.316.166-.057.166.286h.663l.331-.687.166-1.43.166 1.717.165 3.549.166-5.954.166 1.03.165 5.382.166-.458.166.286.166-.343.165.229.166-.23h.166l.331-.171.497.114.332-.687.166-2.461.331.229.166 5.095.165.114.166 1.66.166.287.166-2.462.165 1.431.166-.286.166 1.546.331-.573.332-7.785.165.343.166.115.166-.287.166.287.331 4.293.166-.172.331-2.576.166 3.893.331-16.659.166 1.718.497.229h.332l.165.172h.166l.166-4.752.166.4.165-.343.166.287h.166l.166.114.165-.114.166-4.408.166-.573.165-.114.166-1.603.166-.172.166 2.405.165-5.21.166-.343.166-6.64.166.228.165-.63.166 3.32.166-.686.165-5.61.332.057.331-12.079.332-11.907.165.115.166-7.213.166 1.144.331 8.53.498-16.086.165-.057.166.286.497-14.54.166-.687.166-5.668.165.23.166-.287.166 2.233.166-4.694h.165l.166-1.145.331.458.166-4.408.166.114.166-6.125.165 3.778.166-.057.166 1.145.166.057.165-.114.166-.344.166.458.165 5.438.166-4.694.166.115.663 20.036.165-.115.166-.515.166-6.125h.166l.165-4.752.166-.916.166-.171.166.286.331-10.705.829 26.333.331-10.075.166-7.442.166-.458h.165l.166 5.266.166.115.165-4.809.166 4.523.166-.516.166.058.165 1.26.166-5.21.166-1.603.165-.172.166-5.724.166.114.166 5.152h.165l.166 5.267.166-5.21.166-.286.165-4.866.166-.057.331-11.048.166-.115.166 5.095.166-5.381.165-.515.166 4.923.332-1.03.331 10.246.497-15.628h.166l.166-.286.497 15.628.166 5.267.165-5.439.166.115.166-.286.165-.859.166-5.553.166.115.166-.172.165-6.698.166-.286.166 5.667.165-5.209h.166l.663-22.44h.166l.166.458.165-.573.166.057.166-.114.165.114.166 5.725.166-5.381.166.4.165-.171.166-5.438.332-.058.331-10.876.166-.401.331 9.789.166-5.381.331.458.166-.057.166-5.782h.331l.332-10.877.165-.057.166 5.61.166-5.381.663-.057.165 5.266h.166l.166-.343.166 5.324h.165l.166.229.166-.344.166-6.01.165 5.61.332-.058.165 5.21.166-5.61.166 5.495.166-.229.165.286h.166l.166 5.61.497-.057h.166l.331-10.991.166 5.324.166-5.668.165-.114.166-5.438.166.114.165-5.667h.166l.166-.115.166.057.165.23h.166l.166 5.495.331.057.166 5.553.331-11.163.166 5.439.332-.287.165.115.332 10.762.166.343.331-11.105.166.057.165-5.381h.166l.166-5.667.331-.344h.166l.166-5.724.165 5.438.166-.115.166.115.166 5.438.331.115.166-5.553.166 5.381.165-5.381.166.057.166 5.324.663-.057.165-.115.332-11.22.166.344h.165l.166-5.553h.331l.166-5.267h.166l.166-5.495.165-.23.332-11.048.166-.229.165 5.553.166-.229.166 5.667.497.058h.166l.165-.172.332.172.165-5.439.166-.057.166-.229.166-5.438.497-.057.166-5.496.331-.229.166-5.438h.663l.828-.63.166.114.166 5.553h.165l.166-.171h.166l.166-.115.331.115.331-.058.166-5.553.166.23.166-5.61h.165l.332-.115h.166l.331.229.166-.115.331.115h2.983l.166-.115.166-5.495h.663l.331-.115h.166l.994-.572h.332l.165 5.438.166-.172h.166l.331-.114h.497l.166.114.332-.114h2.154l.331-.115h2.32l.166-5.552h1.16l.332-.115h7.126l.331.115 5.304.057.497.057h.331l.166 5.438.331-.114h1.658l.331.114 3.149.058.166 5.61.165-.057.332.114.331.057.166-5.438h.663l.331.114h.166l.829.458.165-.057.166 5.438.497.058 1.16.057.166 5.438h.166l.165.23h.498l.165-.115.166.172h.166l.166-5.267.165.114.166-.114.331.114.166-.057.663.344h.166l.331-.115.166.115.166-.115.165.057.663-.343.166-5.324.331-.057.166 5.667.497.23h.166l.166.114.166-.058.165.115.166-5.438.166.114.165 5.438.663.058.166-.172h.166l.166 5.266.331.115.331-.115h.332l.331 10.877.498.23.165 5.552.166-.115.166 5.553h.497l.497 16.373h.166l.165 5.552h.166l.332-.114.165.229h.166l.166 5.495h.166l.165 5.553h.166l.166 5.324.165-5.667.166.229.332 11.277.331-.057.166 5.724.166-5.61.165.058.166.458.331.057.166 5.553.166.057.331-.115.166.058.331 10.99.166.115.166 5.668.166-5.553.497.172.166-5.439.165-.114.166-5.267.166.115.165-5.152.166-.058.166 5.782.166.744.165-.171.166.515.166-5.381.166.286.165-5.553.166 5.61.166-5.438.497.114.166-5.667h.165l.166 5.667.166-.171h.166l.165 5.152.166-.058.331 11.335.332.172.331-10.877.166 5.61.166-.172.165.458.498-.229.165.115.332 11.106.166.171.165-5.324.166-.171.331 10.705h.166l.166-5.553.166-.744h.165l.332-.401.166.229.165 5.667.166-5.266.166 5.61.165.057.166 5.038.166.686.166 5.382.165.229.332-10.877.331 1.03.166 5.439.166-5.668.165-.171.166.114.166 5.381.166.172.165.744.166-.057.166.4.165-5.896.332-.229.331 10.991.166.287.166-5.496.166-.057.331 10.877.166-5.782h.165l.166-.115.166 5.496.166.057.331 11.335.166.4.166-.515.165-4.465.166.458.166.057.165 5.725.166-5.439.166-.343.166.172.165-.058.497 15.743.332-.515.166 5.553.497-16.315.166 5.38.165-.514.166-5.553.166-.287.165 5.61.166.459.166-5.267.166-.172h.165l.166.23.332 11.448.165.401.166-5.038.166 5.954.165.114.332-10.533.166 5.381.331.115.166.63.165 5.839.166-.745.166 4.637.331-11.105.166.229h.166l.166-5.381.165 5.38.166-4.923h.166l.165.401.166-.286.332.4.497 16.888.166-5.324.165.859.166 5.61.166-4.98.165.229.166-.401.166 5.782.166-3.206.165.229.166-.515.166.229.166-.573.165-4.866.332-.858.165.572.166.172.332-.172.165-.229.166-.515.166 4.694.165-5.667.166 5.037h.166l.497 17.002.166-4.522.166 5.267.165-.058.166 5.439.166.63.165-6.011h.166l.332 1.602.165-.4.332-10.362.331 9.56.166.115.166 4.923.165-5.267h.166l.166-.4.166 3.549.165-.344h.166l.166-5.209.165-.229.332 10.133.166-.172.165.172.332 11.391.166.058.165.63h.332l.165 5.323.166-4.751.166.229.166-.23.165.63.166-5.724.332-.057.165 1.488.332-1.202.165 6.01.166 1.146.166-1.374.166-5.381.165-.058.166 4.752.166.572.166 1.202.165-.057.166.172.166.916.165 4.98.166-5.266.166.973.331.171.166 1.432.166 4.98.497-.4.166.4.331-1.317.332 1.947.165-.573.166.344.166-.401.165-3.435.166 5.267.166-.115.166.401.165 1.717.332 9.904.166.057.165-1.03.332.515.165.744.166-.458.166-3.95.166 4.694.331.687.166-.171.165-.344.166.057.332-1.03.165.057.166 5.324.166-4.809.166.115.165.572.166-.858.166.057.165 1.145.332.172.166-.401.165.057.166-.343.166-5.496.166-.859.165-.057.166-.4.166 1.03.165 3.664.166-.687.166-.115.166.859.165-7.786.166.458.166-.286.166.802.165-.516.166-.114.166.057.331-1.775.166 4.122.166 1.03.331-.63.166 4.638.165-.515.166.286.166.63.166-.63.331-.286.166 3.778.497-1.202h.166l.165-.974h.166l.166.287.166.63.165-.401h.166l.166 4.179h.166l.165 1.087h.166l.331-.572.332.057.166-.916.165 5.324.166-.572.166.457.165-.858.166.4.497-.114.166.057.332-1.087.331 1.373.497-.057.166-.572.166 2.232.165.172.332.859.166 1.374.165.286.497 1.832h.166l.332-.916.165.458.498 5.21.165-.974.166 2.462.663.515.166-.115.165-.458.166.115.166-.344h.165l.166-.171.166.171.166.344.165-.344.166.63.166-2.118.166-.172.165.172.166-.458h.166l.165.229.166-.286.166 1.774.166-2.003.165.171.332-.744.166.802.165.229.332-1.775.165-.916.166.973.332.172.165.916.166-5.61.166-.859.165-2.461.166-.058.166-2.461.166-.687.497 3.664.166-.058.165.115.166-.115.166.172.165.859.498-.802.165.516.166-.516.166 2.176.331-.115.332.057.165.23.166.457.332-.343.165.286.332-.114.166-2.004.165-.515.166-1.03.331.228.166 1.432.166-.058.166.401.165-1.374.166 6.469.166.114.331.916h.332l.497-2.805.166 2.52.165-.23h.166l.166-.286.165.744.166.057.166-5.438.166.229.165-.458.166.229.332 1.775.331-1.26.166-4.007.331-.973.166-1.718.166.058.165-.63.332.115.165-.287.166.401.166 2.175.166.172.165-.114.166-2.29h.166l.166-.687h.165l.166-5.61.166.801.331-.916.332.344.165.114.166-.057.166.172.166-2.576.165.744h.166l.166.515.165-1.546.166-.057.166 5.553.166-.172.165-3.95.166-.343.166-.802.166.401h.165l.166.115.166 4.121.165.401.166-.229.166.458.166-.057.331.286.166-.115.165.458.166-.4.166-1.03h.497l.166 1.144.166-4.064.165.458.166 9.674h.166l.165-.229.166.515.166-.114.166-4.694.165-.172.166.115.166 2.69h.166l.331.687.166-.114.165.744.166.229.166-.23.166.402.165 4.35.166-.057.166.343.165-1.087.166.744.166-.115.166.802.165-.573.166.058.166-.458.331.229.166-.058.166.172.165-.114.166.858.166.172.166-.286.165-4.007.332-.516.166 4.351.165-.458.166-6.411.166.229.165.458.166-.458.166-4.008.166-.286.165.458.166-.114.166-3.263.166.229.165-1.145.497-11.22.166-.23h.166l.166.401.165-.343.166-4.98.166-.516.165 1.145.166-.744.166.286.166-.687h.663l.165 2.118.332-.171.165 1.603.166-.86.166.287.166.802.165 4.007.166.229.332-.802.165-4.465.166.172.166-.344.331-.114.332 8.987.165-.114.166-.572.166.915.165-.343.166-4.465.497 12.308h.166l.166.229.166-6.355.165-.114.166 4.98.166-.114.165-1.145.166.229.166-.057.166-5.267h.165l.166-.115.166.802.331-6.183.166.23.166-.058.165-1.66.166.114.166-.4.166-6.126.165.115.166-.057.332 1.545.165 4.866.166-.286.166-5.267.165.058.332 3.205.166.115.165-.286.166.515.166-5.782h.165l.166 4.866.166.286.166-.057.165-1.832.166.63.166-.115.166 7.557.165-4.58.166.172h.166l.165.343.166-.229.497 4.294.166.171.332-1.488.165-5.381.166-.229.166-5.152h.165l.166-5.21.166-.171.166 6.24.165.4.166-.057.166-.973.165-5.725.332.172.166 4.408.165-5.725.332-3.205.331-8.587.166-.23.166 5.554.663-19.578h.165l.166-.458.166.343.166-1.717.165.286h.166l.166.4.331-10.819.166-2.06.166 3.148.165-.515.166.057.166-5.267.331 10.133h.166l.166.4.165-5.552.166 5.095.166.4.166-.687.165-5.839.166.23.166-.401.165 5.438.166-.458.166.4.166.058.165 5.324.166.229.166-5.095.331 8.816.332-10.762.165-.172.166 4.98.166-.343.166 4.179.331-10.19.332-.344.165-.858.166-5.496.166.115.165 5.38.166-.056.166.4.331-10.132.332-.515.165.057.166.4.166-5.438.331 10.705.166-5.381.166.286.166-5.667.165 5.324.166-.344.497-15.055.166-.344h.166l.497-10.075.166.057.165-.286.497 15.57.166-5.38.166 4.808.166-5.552.165-.401.166.172.332-10.305.33-.114.332-11.678.166 5.438.166.23.166 5.037h.165l.332.4.165-.171.166-5.61.166.114.166-5.495.165-.401.166.057.166-6.068.166 5.438h.165l.166-5.095.166 5.095.165-.171.166-.573.166.172h.166l.165 4.408.166-.286h.332l.331-10.42h.166l.165-5.495.166 5.324.166-5.553.331.058.332-1.088.165 5.21.166-.23.332.23.165 5.438.166.114.332-10.934.165-.114.166-5.496.166 5.381.165-5.438.166-.344.166-.057.166 5.324.165.229.498.057.165-5.266.166 5.209.166-5.725.165.058.166 5.781.332-11.22.331-.057.166 5.61.165-5.724.332 10.704.166-.057.165 5.496.166-5.439.829 27.536.165-4.809.166.057.166-.114.166 5.438.331-10.648.166-.458.166 5.153h.331l.166-5.61.497.114.331-10.934.166.057.166-.114.166-5.439.165 5.267.166-5.496.166.172.165-.172.166-5.781.332-.058.165-5.323.166-.058.166-5.438h.165l.166-5.61.166.286.331-11.334.166.114.332-11.163.165-.114.332-10.877.165-.573.663-.228.166-.287h.166l.166-5.61.165.115.166 5.553.166.114.165-.057.166.114.166-.114.331 10.99.166-.17h.166l.165.114.166-5.439.497-.114.166.057.332 11.106.165-.172.166 5.381.166.172h.165l.166.114.166-.171h.166l.663-.458.165-5.553h.166l.331-.286h.332l.166-5.324h.165l.166 5.495h.332l.165 5.496.166-5.667.497-.23.166-.057.331-11.163.166.172h.166l.331-.114.332.057.331-.172.332-11.048.165-.057.166-5.439.166-.458h.165l.166-.114.166-5.668h1.16l.331-.114h.332l.331-.115h.497l.166-.171 1.16.057.166-.172 1.326.057.166-.171.331.057.166 5.667h1.326l.165 5.553h1.16l.166-5.667h.331l.166-5.439 2.32-.057.166 5.61.663-.057.166-5.667h1.325l.166-5.61h1.657l.332.114h.829l.331-.114h.994l.166-5.61h.663" clip-path="url(#p90899be29b)" style="fill:none;stroke:#1f77b4;stroke-width:.5px;stroke-linecap:square"/><path id="patch_3" d="M28.105 281.23V15.118" style="fill:none;stroke:#000;stroke-width:.8px;stroke-linejoin:miter;stroke-linecap:square"/><path id="patch_4" d="M28.105 281.23h357.12" style="fill:none;stroke:#000;stroke-width:.8px;stroke-linejoin:miter;stroke-linecap:square"/><g id="text_16"><g transform="matrix(.12 0 0 -.12 32.518 9.118)"><defs><path id="DejaVuSans-Bold-53" d="M3834 4519v-988q-384 172-750 259-365 88-690 88-431 0-638-119-206-118-206-368 0-188 139-293 139-104 505-179l512-103q778-157 1106-476 329-318 329-906 0-771-458-1148T2284-91q-443 0-890 85-447 84-894 250v1015q447-237 864-358 417-120 805-120 394 0 603 131 209 132 209 376 0 218-142 337t-567 213l-466 103q-700 150-1024 478-323 328-323 884 0 697 450 1072t1294 375q385 0 791-58t840-173" transform="scale(.01563)"/><path id="DejaVuSans-Bold-75" d="M500 1363v2137h1125v-350q0-284-3-714t-3-573q0-422 22-608t75-271q68-109 179-169 111-59 255-59 350 0 550 269t200 747v1728h1119V0H2900v506q-253-306-536-452-283-145-623-145-607 0-924 372T500 1363" transform="scale(.01563)"/><path id="DejaVuSans-Bold-6d" d="M3781 2919q213 325 505 495t642 170q603 0 919-372 316-371 316-1081V0H5038v1825q3 41 4 84 2 44 2 125 0 372-110 539-109 168-353 168-318 0-492-263-173-262-180-759V0H2784v1825q0 581-100 748-100 168-356 168-322 0-497-264t-175-755V0H531v3500h1125v-512q207 296 474 446t589 150q362 0 640-175 279-175 422-490" transform="scale(.01563)"/><path id="DejaVuSans-Bold-6f" d="M2203 2784q-372 0-567-267t-195-770 195-771q195-267 567-267 366 0 559 267 194 268 194 771t-194 770q-193 267-559 267m0 800q903 0 1411-488 508-487 508-1349 0-863-508-1351Q3106-91 2203-91q-906 0-1417 487-511 488-511 1351 0 862 511 1349 511 488 1417 488" transform="scale(.01563)"/><path id="DejaVuSans-Bold-66" d="M2841 4863v-735h-619q-238 0-332-86-93-86-93-298v-244h956v-800h-956V0H678v2700H122v800h556v244q0 572 319 845 319 274 987 274Z" transform="scale(.01563)"/><path id="DejaVuSans-Bold-72" d="M3138 2547q-147 69-293 101-145 33-292 33-431 0-664-277-233-276-233-791V0H538v3500h1118v-575q216 344 495 501 280 158 671 158 56 0 121-5 66-4 191-20Z" transform="scale(.01563)"/><path id="DejaVuSans-Bold-65" d="M4031 1759v-318H1416q40-394 284-591t681-197q353 0 723 105 371 105 762 317V213Q3469 63 3072-14t-794-77q-950 0-1477 483-526 483-526 1355 0 856 517 1346 517 491 1424 491 825 0 1320-497 495-496 495-1328m-1150 372q0 319-186 514-186 196-486 196-325 0-528-183t-253-527Z" transform="scale(.01563)"/><path id="DejaVuSans-Bold-77" d="M225 3500h1088l587-2412 591 2412h934l588-2387 590 2387h1088L4769 0H3547l-591 2406L2369 0H1147Z" transform="scale(.01563)"/><path id="DejaVuSans-Bold-61" d="M2106 1575q-350 0-527-119-176-118-176-350 0-212 142-333 143-120 396-120 315 0 531 226 216 227 216 568v128Zm1710 422V0H2688v519q-225-319-507-465-281-145-684-145-544 0-883 317-339 318-339 824 0 616 423 903 424 288 1330 288h660v87q0 266-210 389-209 124-653 124-359 0-669-72-309-72-575-216v853q360 88 722 133 363 45 725 45 947 0 1367-373 421-373 421-1214" transform="scale(.01563)"/><path id="DejaVuSans-Bold-64" d="M2919 2988v1875h1125V0H2919v506q-231-309-510-453-278-144-643-144-647 0-1063 514-415 515-415 1324t415 1323q416 514 1063 514 362 0 642-145t511-451M2181 722q360 0 549 262 189 263 189 763t-189 762q-189 263-549 263-356 0-545-263-189-262-189-762t189-763q189-262 545-262" transform="scale(.01563)"/><path id="DejaVuSans-Bold-73" d="M3272 3391v-850q-359 150-694 225-334 75-631 75-319 0-474-80-154-80-154-245 0-135 117-207 117-71 420-106l197-28q860-109 1156-359 297-250 297-785 0-559-413-841Q2681-91 1863-91q-347 0-718 55-370 55-761 164v850q335-162 686-244 352-81 714-81 329 0 494 90 166 91 166 270 0 150-114 223t-455 114l-197 25q-747 94-1047 347t-300 769q0 556 381 824 382 269 1169 269 310 0 650-47 341-46 741-146" transform="scale(.01563)"/><path id="DejaVuSans-Bold-63" d="M3366 3391v-913q-228 156-458 231t-477 75q-468 0-729-273t-261-764 261-765q261-273 729-273 263 0 499 78 236 79 436 232V103Q3103 6 2833-42q-270-49-542-49-947 0-1482 486-534 486-534 1352t534 1351q535 486 1482 486 275 0 542-48t533-145" transform="scale(.01563)"/><path id="DejaVuSans-Bold-68" d="M4056 2131V0H2931v1625q0 459-20 631t-70 253q-66 110-179 171-112 61-256 61-350 0-550-271-200-270-200-748V0H538v4863h1118V2988q253 306 537 451 285 145 629 145 606 0 920-372 314-371 314-1081" transform="scale(.01563)"/><path id="DejaVuSans-Bold-70" d="M1656 506v-1837H538v4831h1118v-512q232 306 513 451t647 145q647 0 1062-514 416-514 416-1323T3878 423Q3463-91 2816-91q-366 0-647 145-281 146-513 452m744 2266q-359 0-552-264-192-264-192-761t192-761q193-264 552-264t548 262q190 263 190 763t-190 762q-189 263-548 263" transform="scale(.01563)"/><path id="DejaVuSans-Bold-69" d="M538 3500h1118V0H538Zm0 1363h1118v-913H538Z" transform="scale(.01563)"/><path id="DejaVuSans-Bold-28" d="M2413-844h-929Q1006-72 778 623q-228 696-228 1380 0 685 229 1386 230 702 705 1467h929q-400-740-600-1448t-200-1399q0-690 198-1400 198-709 602-1453" transform="scale(.01563)"/><path id="DejaVuSans-Bold-76" d="M97 3500h1119l872-2419 868 2419h1122L2700 0H1472Z" transform="scale(.01563)"/><path id="DejaVuSans-Bold-67" d="M2919 594q-231-306-510-450Q2131 0 1766 0 1125 0 706 504q-418 505-418 1287 0 784 418 1285 419 502 1060 502 365 0 643-144 279-143 510-453v519h1125V353q0-844-533-1289t-1545-445q-328 0-635 50-306 50-615 153v872q293-169 574-252 282-83 566-83 550 0 806 241 257 241 257 753Zm-738 2178q-347 0-541-257-193-256-193-724 0-482 187-730 188-248 547-248 350 0 544 256t194 722q0 468-194 724-194 257-544 257" transform="scale(.01563)"/><path id="DejaVuSans-Bold-34" d="M2356 3675 1038 1722h1318Zm-200 991h1338V1722h665V850h-665V0H2356v850H288v1031Z" transform="scale(.01563)"/><path id="DejaVuSans-Bold-30" d="M2944 2338q0 875-164 1232-164 358-552 358-387 0-553-358-166-357-166-1232 0-885 166-1248 166-362 553-362 385 0 550 362 166 363 166 1248m1203-10q0-1159-500-1789T2228-91q-922 0-1422 630T306 2328q0 1163 500 1792 500 630 1422 630 919 0 1419-630 500-629 500-1792" transform="scale(.01563)"/><path id="DejaVuSans-Bold-29" d="M513-844q400 744 600 1453 200 710 200 1400 0 691-200 1399T513 4856h928q475-765 704-1467 230-701 230-1386 0-684-228-1380-228-695-706-1467Z" transform="scale(.01563)"/></defs><use xlink:href="#DejaVuSans-Bold-53"/><use xlink:href="#DejaVuSans-Bold-75" transform="translate(72.021)"/><use xlink:href="#DejaVuSans-Bold-6d" transform="translate(143.213)"/><use xlink:href="#DejaVuSans-Bold-6f" transform="translate(282.227)"/><use xlink:href="#DejaVuSans-Bold-66" transform="translate(350.928)"/><use xlink:href="#DejaVuSans-Bold-72" transform="translate(429.248)"/><use xlink:href="#DejaVuSans-Bold-65" transform="translate(478.564)"/><use xlink:href="#DejaVuSans-Bold-77" transform="translate(546.387)"/><use xlink:href="#DejaVuSans-Bold-61" transform="translate(638.77)"/><use xlink:href="#DejaVuSans-Bold-72" transform="translate(706.25)"/><use xlink:href="#DejaVuSans-Bold-64" transform="translate(755.566)"/><use xlink:href="#DejaVuSans-Bold-73" transform="translate(827.148)"/><use xlink:href="#DejaVuSans-Bold-66" transform="translate(921.484)"/><use xlink:href="#DejaVuSans-Bold-6f" transform="translate(964.99)"/><use xlink:href="#DejaVuSans-Bold-72" transform="translate(1033.69)"/><use xlink:href="#DejaVuSans-Bold-65" transform="translate(1117.82)"/><use xlink:href="#DejaVuSans-Bold-61" transform="translate(1185.65)"/><use xlink:href="#DejaVuSans-Bold-63" transform="translate(1253.13)"/><use xlink:href="#DejaVuSans-Bold-68" transform="translate(1312.4)"/><use xlink:href="#DejaVuSans-Bold-65" transform="translate(1418.41)"/><use xlink:href="#DejaVuSans-Bold-70" transform="translate(1486.23)"/><use xlink:href="#DejaVuSans-Bold-69" transform="translate(1557.81)"/><use xlink:href="#DejaVuSans-Bold-73" transform="translate(1592.09)"/><use xlink:href="#DejaVuSans-Bold-6f" transform="translate(1651.61)"/><use xlink:href="#DejaVuSans-Bold-64" transform="translate(1720.31)"/><use xlink:href="#DejaVuSans-Bold-65" transform="translate(1791.9)"/><use xlink:href="#DejaVuSans-Bold-28" transform="translate(1894.53)"/><use xlink:href="#DejaVuSans-Bold-61" transform="translate(1940.23)"/><use xlink:href="#DejaVuSans-Bold-76" transform="translate(2007.72)"/><use xlink:href="#DejaVuSans-Bold-65" transform="translate(2072.9)"/><use xlink:href="#DejaVuSans-Bold-72" transform="translate(2140.72)"/><use xlink:href="#DejaVuSans-Bold-61" transform="translate(2190.04)"/><use xlink:href="#DejaVuSans-Bold-67" transform="translate(2257.52)"/><use xlink:href="#DejaVuSans-Bold-65" transform="translate(2329.1)"/><use xlink:href="#DejaVuSans-Bold-6f" transform="translate(2431.74)"/><use xlink:href="#DejaVuSans-Bold-76" transform="translate(2500.44)"/><use xlink:href="#DejaVuSans-Bold-65" transform="translate(2565.63)"/><use xlink:href="#DejaVuSans-Bold-72" transform="translate(2633.45)"/><use xlink:href="#DejaVuSans-Bold-34" transform="translate(2717.58)"/><use xlink:href="#DejaVuSans-Bold-30" transform="translate(2787.16)"/><use xlink:href="#DejaVuSans-Bold-29" transform="translate(2856.74)"/></g></g></g></g><defs><clipPath id="p90899be29b"><path d="M28.105 15.118h357.12V281.23H28.105Z"/></clipPath></defs></svg>