<svg xmlns="http://www.w3.org/2000/svg" xmlns:xlink="http://www.w3.org/1999/xlink" width="502.46" height="377.053" viewBox="0 0 376.845 282.79"><defs><style>*{stroke-linejoin:round;stroke-linecap:butt}</style></defs><g id="figure_1"><path id="patch_1" d="M0 282.79h376.845V0H0Z" style="fill:#fff"/><g id="axes_1"><path id="patch_2" d="M19.725 266.112h357.12V0H19.725Z" style="fill:#fff"/><g id="matplotlib.axis_1"><g id="xtick_1"><g id="line2d_1"><defs><path id="m7e2f67099b" d="M0 0v3.5" style="stroke:#000;stroke-width:.8px"/></defs><use xlink:href="#m7e2f67099b" x="36.047" y="266.112" style="stroke:#000;stroke-width:.8px"/></g><g id="text_1"><g transform="matrix(.1 0 0 -.1 28.676 280.71)"><defs><path id="DejaVuSans-2212" d="M678 2272h4006v-531H678Z" transform="scale(.01563)"/><path id="DejaVuSans-35" d="M691 4666h2478v-532H1269V2991q137 47 274 70 138 23 276 23 781 0 1237-428 457-428 457-1159 0-753-469-1171Q2575-91 1722-91q-294 0-599 50Q819 9 494 109v635q281-153 581-228t634-75q541 0 856 284 316 284 316 772 0 487-316 771-315 285-856 285-253 0-505-56-251-56-513-175Z" transform="scale(.01563)"/></defs><use xlink:href="#DejaVuSans-2212"/><use xlink:href="#DejaVuSans-35" transform="translate(83.79)"/></g></g></g><g id="xtick_2"><use xlink:href="#m7e2f67099b" id="line2d_2" x="76.633" y="266.112" style="stroke:#000;stroke-width:.8px"/><g id="text_2"><g transform="matrix(.1 0 0 -.1 73.452 280.71)"><defs><path id="DejaVuSans-30" d="M2034 4250q-487 0-733-480-245-479-245-1442 0-959 245-1439 246-480 733-480 491 0 736 480 246 480 246 1439 0 963-246 1442-245 480-736 480m0 500q785 0 1199-621 414-620 414-1801 0-1178-414-1799Q2819-91 2034-91q-784 0-1198 620-414 621-414 1799 0 1181 414 1801 414 621 1198 621" transform="scale(.01563)"/></defs><use xlink:href="#DejaVuSans-30"/></g></g></g><g id="xtick_3"><use xlink:href="#m7e2f67099b" id="line2d_3" x="117.219" y="266.112" style="stroke:#000;stroke-width:.8px"/><use xlink:href="#DejaVuSans-35" id="text_3" transform="matrix(.1 0 0 -.1 114.038 280.71)"/></g><g id="xtick_4"><use xlink:href="#m7e2f67099b" id="line2d_4" x="157.805" y="266.112" style="stroke:#000;stroke-width:.8px"/><g id="text_4"><g transform="matrix(.1 0 0 -.1 151.443 280.71)"><defs><path id="DejaVuSans-31" d="M794 531h1031v3560L703 3866v575l1116 225h631V531h1031V0H794Z" transform="scale(.01563)"/></defs><use xlink:href="#DejaVuSans-31"/><use xlink:href="#DejaVuSans-30" transform="translate(63.623)"/></g></g></g><g id="xtick_5"><use xlink:href="#m7e2f67099b" id="line2d_5" x="198.392" y="266.112" style="stroke:#000;stroke-width:.8px"/><g id="text_5"><g transform="matrix(.1 0 0 -.1 192.029 280.71)"><use xlink:href="#DejaVuSans-31"/><use xlink:href="#DejaVuSans-35" transform="translate(63.623)"/></g></g></g><g id="xtick_6"><use xlink:href="#m7e2f67099b" id="line2d_6" x="238.978" y="266.112" style="stroke:#000;stroke-width:.8px"/><g id="text_6"><g transform="matrix(.1 0 0 -.1 232.615 280.71)"><defs><path id="DejaVuSans-32" d="M1228 531h2203V0H469v531q359 372 979 998 621 627 780 809 303 340 423 576 121 236 121 464 0 372-261 606-261 235-680 235-297 0-627-103-329-103-704-313v638q381 153 712 231 332 78 607 78 725 0 1156-363 431-362 431-968 0-288-108-546-107-257-392-607-78-91-497-524-418-433-1181-1211" transform="scale(.01563)"/></defs><use xlink:href="#DejaVuSans-32"/><use xlink:href="#DejaVuSans-30" transform="translate(63.623)"/></g></g></g><g id="xtick_7"><use xlink:href="#m7e2f67099b" id="line2d_7" x="279.564" y="266.112" style="stroke:#000;stroke-width:.8px"/><g id="text_7"><g transform="matrix(.1 0 0 -.1 273.201 280.71)"><use xlink:href="#DejaVuSans-32"/><use xlink:href="#DejaVuSans-35" transform="translate(63.623)"/></g></g></g><g id="xtick_8"><use xlink:href="#m7e2f67099b" id="line2d_8" x="320.15" y="266.112" style="stroke:#000;stroke-width:.8px"/><g id="text_8"><g transform="matrix(.1 0 0 -.1 313.788 280.71)"><defs><path id="DejaVuSans-33" d="M2597 2516q453-97 707-404 255-306 255-756 0-690-475-1069Q2609-91 1734-91q-293 0-604 58T488 141v609q262-153 574-231 313-78 654-78 593 0 904 234t311 681q0 413-289 645-289 233-804 233h-544v519h569q465 0 712 186t247 536q0 359-255 551-254 193-729 193-260 0-557-57-297-56-653-174v562q360 100 674 150t592 50q719 0 1137-327 419-326 419-882 0-388-222-655t-631-370" transform="scale(.01563)"/></defs><use xlink:href="#DejaVuSans-33"/><use xlink:href="#DejaVuSans-30" transform="translate(63.623)"/></g></g></g><g id="xtick_9"><use xlink:href="#m7e2f67099b" id="line2d_9" x="360.736" y="266.112" style="stroke:#000;stroke-width:.8px"/><g id="text_9"><g transform="matrix(.1 0 0 -.1 354.374 280.71)"><use xlink:href="#DejaVuSans-33"/><use xlink:href="#DejaVuSans-35" transform="translate(63.623)"/></g></g></g></g><g id="matplotlib.axis_2"><g id="ytick_1"><g id="line2d_10"><defs><path id="m54664baea8" d="M0 0h-3.5" style="stroke:#000;stroke-width:.8px"/></defs><use xlink:href="#m54664baea8" x="19.725" y="254.016" style="stroke:#000;stroke-width:.8px"/></g><use xlink:href="#DejaVuSans-30" id="text_10" transform="matrix(.1 0 0 -.1 6.363 257.815)"/></g><g id="ytick_2"><use xlink:href="#m54664baea8" id="line2d_11" x="19.725" y="207.739" style="stroke:#000;stroke-width:.8px"/><use xlink:href="#DejaVuSans-35" id="text_11" transform="matrix(.1 0 0 -.1 6.363 211.538)"/></g><g id="ytick_3"><use xlink:href="#m54664baea8" id="line2d_12" x="19.725" y="161.461" style="stroke:#000;stroke-width:.8px"/><g id="text_12"><g transform="matrix(.1 0 0 -.1 0 165.26)"><use xlink:href="#DejaVuSans-31"/><use xlink:href="#DejaVuSans-30" transform="translate(63.623)"/></g></g></g><g id="ytick_4"><use xlink:href="#m54664baea8" id="line2d_13" x="19.725" y="115.184" style="stroke:#000;stroke-width:.8px"/><g id="text_13"><g transform="matrix(.1 0 0 -.1 0 118.983)"><use xlink:href="#DejaVuSans-31"/><use xlink:href="#DejaVuSans-35" transform="translate(63.623)"/></g></g></g><g id="ytick_5"><use xlink:href="#m54664baea8" id="line2d_14" x="19.725" y="68.906" style="stroke:#000;stroke-width:.8px"/><g id="text_14"><g transform="matrix(.1 0 0 -.1 0 72.705)"><use xlink:href="#DejaVuSans-32"/><use xlink:href="#DejaVuSans-30" transform="translate(63.623)"/></g></g></g><g id="ytick_6"><use xlink:href="#m54664baea8" id="line2d_15" x="19.725" y="22.629" style="stroke:#000;stroke-width:.8px"/><g id="text_15"><g transform="matrix(.1 0 0 -.1 0 26.428)"><use xlink:href="#DejaVuSans-32"/><use xlink:href="#DejaVuSans-35" transform="translate(63.623)"/></g></g></g></g><path id="line2d_16" d="m76.633 254.016 3.26-.056 3.257-.19 3.249-.322 3.236-.454 3.22-.584 3.2-.713 3.177-.842 3.148-.968 3.116-1.096 3.08-1.22 3.04-1.344 2.997-1.466 2.95-1.587 2.898-1.704 2.843-1.82 2.785-1.934 2.723-2.046 2.658-2.154 2.59-2.26 2.517-2.362 2.443-2.463 2.364-2.56 2.284-2.655 2.2-2.744 2.113-2.832 2.023-2.915 1.932-2.995 1.838-3.072 1.742-3.143 1.643-3.212 1.542-3.276 1.44-3.337 1.335-3.393 1.228-3.444 1.119-3.49 1.008-3.535.899-3.573.788-3.607.68-3.637.57-3.664.459-3.685.344-3.7.224-3.711.097-3.715-.034-3.712-.165-3.706-.647-7.391-.938-7.366-1.485-11.028-.359-3.686-.222-3.698-.059-3.71.096-3.717.24-3.714.375-3.702.498-3.683.614-3.656.731-3.625.85-3.589.97-3.547 1.093-3.501 1.214-3.45 1.333-3.395 1.45-3.332 1.562-3.266 1.674-3.193 1.78-3.117 1.886-3.034 1.988-2.949 2.087-2.857 2.183-2.763 2.277-2.662 2.366-2.56 2.452-2.453 2.534-2.341 2.613-2.228 2.687-2.11 2.757-1.987 2.822-1.864L211 22.208l2.941-1.605 2.994-1.471 3.043-1.338 3.086-1.203 3.125-1.068 3.16-.932 3.19-.793 3.213-.65 3.233-.499 3.246-.344 3.254-.182 3.257-.027 3.258.112 6.504.565 6.471.897 9.66 1.662 12.885 2.192 19.35 3.08 6.406 1.45 3.167.91 3.125 1.064 3.07 1.242 3.003 1.444 2.924 1.65 2.838 1.843 2.746 2.025 2.646 2.193 2.54 2.35 2.427 2.496 2.306 2.637 2.178 2.772 2.045 2.9 1.904 3.024 1.757 3.139 1.607 3.242 1.45 3.337 1.292 3.422 1.128 3.495.96 3.56.792 3.613.62 3.657.446 3.688.27 3.712.095 3.722-.081 3.723-.257 3.713-.431 3.691-.606 3.66-.778 3.617-.948 3.563-1.115 3.501-1.278 3.427-1.438 3.343-1.595 3.25-1.746 3.148-1.892 3.036-2.033 2.915-2.167 2.785-2.297 2.649-2.418 2.503-2.532 2.352-2.64 2.193-2.74 2.026-2.832 1.856-2.916 1.679-2.99 1.497-3.057 1.312-3.114 1.122-3.163.928-3.202.733-3.233.536-3.252.336-3.264.136-3.266-.066-3.258-.266-3.24-.465-3.214-.663-3.178-.861-3.132-1.055-3.078-1.246-3.015-1.432-2.943-1.615-2.862-1.795-2.772-1.968-2.676-2.135-2.572-2.296-2.46-2.451-2.339-2.599-2.213-2.739-2.081-2.87-1.942-2.994-1.798-3.11-1.647-3.215-1.492-3.312-1.335-3.4-1.173-3.475-1.009-3.542-.841-3.598-.67-3.645-.495-3.68-.317-3.708-.135-3.723h0" clip-path="url(#p86aa8384f5)" style="fill:none;stroke:#00f;stroke-width:.5px;stroke-linecap:square"/><g id="line2d_17"><defs><path id="m9435206cf4" d="m-1.5 1.5 3-3m-3 0 3 3" style="stroke:red"/></defs><g clip-path="url(#p86aa8384f5)"><use xlink:href="#m9435206cf4" x="76.633" y="254.016" style="fill:red;stroke:red"/><use xlink:href="#m9435206cf4" x="92.786" y="252.424" style="fill:red;stroke:red"/><use xlink:href="#m9435206cf4" x="108.444" y="247.626" style="fill:red;stroke:red"/><use xlink:href="#m9435206cf4" x="123.121" y="239.771" style="fill:red;stroke:red"/><use xlink:href="#m9435206cf4" x="136.363" y="229.102" style="fill:red;stroke:red"/><use xlink:href="#m9435206cf4" x="147.757" y="215.95" style="fill:red;stroke:red"/><use xlink:href="#m9435206cf4" x="156.951" y="200.723" style="fill:red;stroke:red"/><use xlink:href="#m9435206cf4" x="163.661" y="183.893" style="fill:red;stroke:red"/><use xlink:href="#m9435206cf4" x="167.677" y="165.982" style="fill:red;stroke:red"/><use xlink:href="#m9435206cf4" x="168.875" y="147.545" style="fill:red;stroke:red"/><use xlink:href="#m9435206cf4" x="167.218" y="129.155" style="fill:red;stroke:red"/><use xlink:href="#m9435206cf4" x="165.081" y="110.831" style="fill:red;stroke:red"/><use xlink:href="#m9435206cf4" x="166.05" y="92.382" style="fill:red;stroke:red"/><use xlink:href="#m9435206cf4" x="170.127" y="74.494" style="fill:red;stroke:red"/><use xlink:href="#m9435206cf4" x="177.158" y="57.841" style="fill:red;stroke:red"/><use xlink:href="#m9435206cf4" x="186.877" y="43.05" style="fill:red;stroke:red"/><use xlink:href="#m9435206cf4" x="198.918" y="30.678" style="fill:red;stroke:red"/><use xlink:href="#m9435206cf4" x="212.829" y="21.191" style="fill:red;stroke:red"/><use xlink:href="#m9435206cf4" x="228.085" y="14.947" style="fill:red;stroke:red"/><use xlink:href="#m9435206cf4" x="244.112" y="12.18" style="fill:red;stroke:red"/><use xlink:href="#m9435206cf4" x="260.305" y="12.995" style="fill:red;stroke:red"/><use xlink:href="#m9435206cf4" x="276.373" y="15.641" style="fill:red;stroke:red"/><use xlink:href="#m9435206cf4" x="292.44" y="18.288" style="fill:red;stroke:red"/><use xlink:href="#m9435206cf4" x="308.508" y="20.934" style="fill:red;stroke:red"/><use xlink:href="#m9435206cf4" x="324.088" y="25.936" style="fill:red;stroke:red"/><use xlink:href="#m9435206cf4" x="337.951" y="35.463" style="fill:red;stroke:red"/><use xlink:href="#m9435206cf4" x="349.108" y="48.835" style="fill:red;stroke:red"/><use xlink:href="#m9435206cf4" x="356.761" y="65.098" style="fill:red;stroke:red"/><use xlink:href="#m9435206cf4" x="360.365" y="83.091" style="fill:red;stroke:red"/><use xlink:href="#m9435206cf4" x="359.662" y="101.529" style="fill:red;stroke:red"/><use xlink:href="#m9435206cf4" x="354.704" y="119.098" style="fill:red;stroke:red"/><use xlink:href="#m9435206cf4" x="345.843" y="134.543" style="fill:red;stroke:red"/><use xlink:href="#m9435206cf4" x="333.711" y="146.761" style="fill:red;stroke:red"/><use xlink:href="#m9435206cf4" x="319.176" y="154.882" style="fill:red;stroke:red"/><use xlink:href="#m9435206cf4" x="303.274" y="158.325" style="fill:red;stroke:red"/><use xlink:href="#m9435206cf4" x="287.14" y="156.844" style="fill:red;stroke:red"/><use xlink:href="#m9435206cf4" x="271.925" y="150.546" style="fill:red;stroke:red"/><use xlink:href="#m9435206cf4" x="258.716" y="139.879" style="fill:red;stroke:red"/><use xlink:href="#m9435206cf4" x="248.455" y="125.606" style="fill:red;stroke:red"/><use xlink:href="#m9435206cf4" x="241.874" y="108.744" style="fill:red;stroke:red"/><use xlink:href="#m9435206cf4" x="239.444" y="90.497" style="fill:red;stroke:red"/></g></g><path id="line2d_18" d="m36.047 161.461.36-1.804.63-1.705.876-1.557 1.099-1.361 1.288-1.125 1.44-.855 1.546-.56 1.608-.247 1.621.073 1.587.39 1.503.696 1.376.981 1.207 1.237 1.001 1.455.767 1.631.51 1.757.235 1.83-.044 1.85-.323 1.813-.593 1.722-.844 1.58-1.07 1.391-1.264 1.16-1.42.894-1.535.601-1.603.29-1.622-.028-1.594-.346-1.518-.655-1.396-.944-1.232-1.203-1.032-1.428-.801-1.609-.546-1.742-.274-1.824.006-1.85.285-1.821.556-1.738.81-1.603 1.041-1.42 1.24-1.194 1.401-.932 1.522-.643 1.596-.334 1.622-.016 1.601.303 1.53.614 1.416.905 1.257 1.17 1.062 1.398.835 1.587.582 1.727.312 1.816.033 1.85-.247 1.828-.52 1.753-.776 1.624-1.01 1.448-1.215 1.227-1.382.97-1.507.685-1.589.377-1.621.06-1.607-.26-1.543-.57-1.434-.867-1.282-1.135-1.09-1.37-.868-1.563-.618-1.711-.35-1.807-.072-1.848.209-1.835.482-1.766.743-1.645.98-1.475 1.188-1.26 1.36-1.007 1.494-.726 1.58-.42 1.62-.105 1.611.216 1.555.53 1.452.826 1.305 1.1 1.119 1.34.9 1.54.653 1.692.388 1.797.111 1.846-.17 1.84-.445 1.779-.708 1.665-.949 1.5-1.161 1.293-1.34 1.044-1.477.766-1.57.463-1.618.149-1.616-.172-1.565-.487-1.469-.787-1.327-1.064-1.147-1.308-.932-1.515-.69-1.675-.425-1.785-.15-1.843.132-1.844.408-1.79.673-1.684.917-1.527 1.134-1.323 1.317-1.08 1.46-.806 1.562-.507 1.613-.192 1.62.128 1.574.444 1.485.747 1.35 1.027 1.173 1.277.964 1.489.724 1.656.463 1.773.188 1.838-.093 1.847-.37 1.801-.638 1.702-.885 1.55-1.106 1.354-1.294 1.116-1.443.846-1.55.549-1.609.236-1.62-.084-1.585-.4-1.5-.707-1.37-.99-1.2-1.245-.995-1.462-.759-1.636-.5-1.76-.226-1.832.054-1.849.333-1.81.6-1.72.853-1.574 1.077-1.383 1.27-1.151 1.426-.885 1.537-.59 1.604-.28 1.623.039 1.592.357 1.514.665 1.39.953 1.227 1.212 1.025 1.434.792 1.615.537 1.746.265 1.825-.016 1.85-.294 1.82-.565 1.734-.819 1.597-1.048 1.413-1.246 1.185-1.406.923-1.525.633-1.598.323-1.622.005-1.6-.314-1.527-.623-1.41-.915-1.252-1.178-1.054-1.406-.826-1.593-.573-1.73-.303-1.818-.024-1.85.256-1.827.529-1.75.785-1.618 1.018-1.441 1.22-1.22 1.387-.96 1.511-.674 1.59-.367 1.623-.05 1.605.271 1.54.582 1.43.876 1.275 1.143 1.084 1.377.86 1.57.608 1.715.341 1.809.063 1.848-.218 1.834-.492 1.763-.751 1.64-.988 1.468-1.194 1.252-1.366.998-1.497.715-1.582.41-1.62.094-1.611-.227-1.552-.54-1.447-.836-1.3-1.108-1.112-1.348-.892-1.545-.645-1.698-.378-1.799-.102-1.846.18-1.84.455-1.775.716-1.66.957-1.495 1.168-1.284 1.344-1.035 1.482-.756 1.573-.453 1.618-.138 1.615.183 1.562.497 1.465.797 1.322 1.073 1.14 1.316.924 1.521.68 1.68.417 1.788.14 1.843-.141 1.843-.418 1.788-.681 1.68-.925 1.52-1.14 1.315-1.323 1.072-1.465.796-1.564.496-1.614.181-1.618-.138-1.573-.455-1.481-.757-1.344-1.036-1.168-1.285-.955-1.495-.716-1.66-.453-1.777-.179-1.84.103-1.846.38-1.798.645-1.698.893-1.545 1.113-1.346 1.3-1.107 1.448-.836 1.552-.538 1.61-.226 1.621.095 1.582.411 1.496.716 1.366 1 1.194 1.253.986 1.468.75 1.641.491 1.764.217 1.833-.063 1.849-.342 1.809-.61 1.714-.86 1.569-1.085 1.376-1.276 1.143-1.43.874-1.54.58-1.606.27-1.622-.05-1.59-.368-1.511-.676-1.386-.962-1.22-1.22-1.017-1.441-.785-1.62-.527-1.75-.255-1.827.024-1.85.304-1.817.574-1.73.827-1.592 1.056-1.406 1.252-1.177 1.41-.913 1.529-.623 1.599-.312 1.623.006 1.597.324 1.524.634 1.406.924 1.245 1.187L53 156.76l.817 1.598.565 1.735.293 1.82.014 1.85-.266 1.825-.537 1.745-.794 1.614-1.025 1.434-1.227 1.21-1.392.952-1.514.664-1.593.357-1.622.038-1.604-.282-1.537-.592-1.425-.885-1.27-1.152-1.076-1.385-.85-1.575-.601-1.719-.332-1.81-.053-1.85.228-1.832.5-1.76.76-1.635.995-1.46 1.202-1.245 1.37-.99 1.5-.704 1.585-.4 1.621-.082 1.61.237 1.549.55 1.443.847 1.293 1.117 1.105 1.355.884 1.551.636 1.702.37 1.802.091 1.847-.189 1.837-.464 1.773-.724 1.656-.965 1.488-1.174 1.276-1.35 1.026-1.486.746-1.575.443-1.619.126-1.614-.193-1.56-.508-1.46-.807-1.317-1.081-1.133-1.325-.916-1.527-.672-1.684-.407-1.79-.13-1.845.15-1.842.427-1.785.69-1.675.933-1.514 1.147-1.307 1.329-1.063 1.469-.786 1.565-.486 1.616-.17 1.617.15 1.57.464 1.478.767 1.338 1.045 1.161 1.293.948 1.502.707 1.665.444 1.78.17 1.84-.113 1.845-.389 1.797-.654 1.693-.901 1.538-1.12 1.34-1.306 1.098-1.452.826-1.555.528-1.612.214-1.62-.105-1.58-.422-1.492-.726-1.36-1.01-1.187-1.26-.98-1.475-.741-1.646-.482-1.767-.207-1.835.073-1.848.351-1.806.62-1.71.868-1.564 1.091-1.368 1.282-1.134 1.435-.866 1.543-.57 1.607-.258 1.622.061 1.588.379 1.507.685 1.381.972 1.214 1.228 1.01 1.448.775 1.625.519 1.753.245 1.829-.034 1.85-.313 1.815-.583 1.727-.835 1.586-1.063 1.398-1.258 1.169-1.416.904-1.531.612-1.6.302-1.623-.017-1.596-.336-1.521-.644-1.401-.933-1.24-1.195-1.039-1.42-.81-1.604-.555-1.738-.284-1.822-.004-1.85.275-1.823.547-1.742.801-1.609 1.033-1.427 1.233-1.202 1.397-.942 1.518-.654 1.594-.346 1.622-.027 1.603.292 1.534.603 1.42.894 1.264 1.161 1.069 1.392.843 1.58.591 1.723.322 1.814.044 1.85-.237 1.83-.51 1.756-.768 1.63-1.003 1.454-1.207 1.236-1.377.98-1.503.695-1.587.39-1.621.07-1.608-.248-1.547-.56-1.438-.856-1.288-1.126-1.098-1.362-.876-1.557-.627-1.707-.36-1.804-.082-1.848.198-1.836.473-1.77.734-1.65.972-1.481 1.181-1.269 1.355-1.017 1.49-.736 1.577-.432 1.62-.115 1.612.204 1.558.518 1.456.817 1.31 1.09 1.127 1.332.908 1.533.663 1.689.398 1.793.12 1.845-.159 1.842-.436 1.782-.699 1.67-.94 1.507-1.155 1.3-1.333 1.054-1.473.776-1.568.475-1.617.16-1.616-.16-1.569-.476-1.472-.777-1.334-1.054-1.154-1.3-.94-1.509-.698-1.67-.435-1.782-.16-1.841.122-1.845.398-1.794.663-1.688.91-1.533 1.126-1.331 1.311-1.09 1.457-.816 1.557-.518 1.613-.204 1.62.117 1.577.432 1.489.737 1.355 1.018 1.18 1.268.972 1.482.733 1.65.473 1.77.198 1.837-.083 1.848-.36 1.804-.629 1.706-.876 1.557-1.098 1.362-1.288 1.125-1.44.855-1.546.56-1.608.248-1.621-.072-1.586-.39-1.504-.695-1.376-.981-1.207-1.236-1.002-1.455-.768-1.63-.51-1.757-.236-1.83.044-1.85.323-1.813.592-1.723.843-1.58 1.07-1.391 1.264-1.16 1.42-.895 1.535-.602 1.602-.291 1.623.028 1.594.346 1.517.654 1.397.943 1.232 1.203 1.033 1.427.801 1.61.546 1.741.275 1.824-.005 1.85-.285 1.822-.555 1.738-.81 1.603-1.04 1.42-1.24 1.194-1.401.933-1.522.643-1.596.335-1.622.017-1.6-.303-1.532-.613-1.415-.904-1.258-1.17-1.062-1.398-.835-1.587-.582-1.727-.313-1.815-.034-1.85.246-1.828.52-1.753.776-1.625 1.01-1.448 1.214-1.228 1.381-.97 1.508-.685 1.588-.378 1.622-.061 1.606.259 1.544.57 1.434.867 1.282 1.134 1.09 1.37.869 1.563.618 1.71.35 1.807.073 1.848-.208 1.835-.482 1.766-.742 1.646-.98 1.475-1.187 1.26-1.36 1.008-1.493.726-1.58.421-1.62.105-1.612-.215-1.555-.529-1.452-.826-1.305-1.1-1.12-1.339-.9-1.539-.654-1.693-.389-1.796-.11-1.846.169-1.84.445-1.78.707-1.664.948-1.502 1.162-1.292 1.339-1.045 1.477-.766 1.57-.465 1.618-.148 1.615.17 1.566.487 1.469.787 1.327 1.063 1.148 1.308.932 1.515.69 1.674.426 1.786.15 1.842-.131 1.844-.408 1.79-.672 1.685-.917 1.526-1.134 1.324-1.316 1.081-1.46.806-1.561.507-1.614.193-1.619-.127-1.575-.443-1.485-.747-1.35-1.026-1.174-1.277-.964-1.489-.724-1.655-.464-1.773-.188-1.838.092-1.847.37-1.801.637-1.702.884-1.551 1.106-1.355 1.293-1.116 1.444-.846 1.55-.55 1.608-.236 1.621.083 1.585.4 1.5.706 1.37.99 1.201 1.244.995 1.462.759 1.635.5 1.76.227 1.832-.053 1.849-.332 1.811-.601 1.719-.852 1.574-1.077 1.384-1.27 1.152-1.425.885-1.537.591-1.604.28-1.622-.038-1.593-.357-1.514-.664-1.391-.953-1.227-1.21-1.025-1.435-.793-1.614-.537-1.746-.265-1.825.015-1.85.294-1.82.564-1.734.819-1.598 1.047-1.413 1.246-1.186 1.406-.923 1.524-.633 1.598-.325 1.623-.005 1.599.313 1.528.623 1.41.914 1.252 1.178 1.055 1.406.826 1.592.574 1.73.303 1.818.024 1.85-.255 1.827-.528 1.75-.785 1.619-1.018 1.441-1.22 1.22-1.386.96-1.511.676-1.59.367-1.623.05-1.605-.27-1.54-.581-1.43-.876-1.276-1.143-1.084-1.376-.86-1.57-.61-1.714-.34-1.809-.064-1.849.218-1.833.491-1.763.75-1.64.988-1.469 1.194-1.252 1.366-1 1.496-.715 1.583-.41 1.62-.095 1.61.226 1.553.54 1.447.836 1.3 1.108 1.112 1.346.893 1.546.645 1.697.38 1.799.1 1.846-.178 1.84-.454 1.776-.716 1.66-.956 1.495-1.168 1.284-1.345 1.036-1.48.756-1.573.454-1.619.138-1.614-.182-1.563-.497-1.465-.796-1.322-1.072-1.14-1.316-.925-1.52-.681-1.68-.417-1.788-.14-1.843.14-1.844.417-1.788.68-1.68.925-1.52 1.14-1.316 1.323-1.072 1.465-.796 1.563-.497 1.615-.182 1.618.138 1.573.454 1.48.756 1.345 1.036 1.168 1.285.956 1.495.716 1.66.454 1.776.179 1.84-.102 1.846-.38 1.799-.645 1.697-.892 1.545-1.113 1.347-1.3 1.108-1.447.836-1.552.54-1.61.225-1.62-.094-1.583-.41-1.496-.716-1.366-1-1.194-1.252-.987-1.468-.75-1.64-.492-1.764-.218-1.833.063-1.85.342-1.808.61-1.714.86-1.57h0" clip-path="url(#p86aa8384f5)" style="fill:none;stroke:red;stroke-width:1.5px;stroke-linecap:square"/><path id="patch_3" d="M19.725 266.112V0" style="fill:none;stroke:#000;stroke-width:.8px;stroke-linejoin:miter;stroke-linecap:square"/><path id="patch_4" d="M376.845 266.112V0" style="fill:none;stroke:#000;stroke-width:.8px;stroke-linejoin:miter;stroke-linecap:square"/><path id="patch_5" d="M19.725 266.112h357.12" style="fill:none;stroke:#000;stroke-width:.8px;stroke-linejoin:miter;stroke-linecap:square"/><path id="patch_6" d="M19.725 0h357.12" style="fill:none;stroke:#000;stroke-width:.8px;stroke-linejoin:miter;stroke-linecap:square"/></g></g><defs><clipPath id="p86aa8384f5"><path d="M19.725 0h357.12v266.112H19.725Z"/></clipPath></defs></svg>